M48
;Layer_Color=9474304
;FILE_FORMAT=4:4
METRIC,LZ
;TYPE=PLATED
T02F00S00C0.1500
T03F00S00C0.2000
T05F00S00C0.8000
T06F00S00C0.8500
T07F00S00C0.9300
T08F00S00C1.0200
T09F00S00C1.1000
%
T02
X002Y0066
X002125
X00226
X00238
X0023225Y0067125
X0021925
X0020625
X0019325Y00671
X002485Y0064125
X002555Y00658
X00267347Y00664814
X002762Y0065795
X002895Y00647
T03
X00100772Y00057404
X00107376Y00061722
X00467197Y0001855
X00476Y00011
X00496Y00021
X00651Y00026
X00687Y00093
X00745Y00073
X00786Y00094
X00803Y00104
X0080825Y001515
X00781443Y00213
X00775Y00222
X00761Y00238
X00748Y00232
X00742147Y00219853
X0073775Y00269
X0075Y0026875
X0074975Y00295
X007385Y0029425
X0073925Y0032
X0075045
Y0034575
X0073925Y0034525
X0073825Y0037075
X0074945Y00371
X0074995Y0039575
X0073875
X0073775Y0042175
X007505
X0075Y00447
X00737
X00684641Y00394641
X0067315Y0039725
X006695Y004045
X006795Y00367
X0067365Y0035675
X00680931Y00333069
X0067825Y00326
X00687599Y00327151
X00680486Y00316514
X0067175Y00309
X00664922Y00311366
X00652551Y0031145
X00659Y0030145
X00677Y00292
X00696
Y00299
X00692Y00308
X00711009Y00309064
X0071925Y0030475
X0071575Y002835
X0072275Y0027975
X00707Y0028
X00698Y00285
X00707Y002585
X00685Y00254
X00678Y00253
X00663
X007955Y002965
X0079225Y003235
X00799Y00339
X0079Y00358
X00734Y00124
X00620456Y0011938
X00618678Y00094488
X0053875Y00088
X00507Y00091
X0050775Y0010025
X0051725Y0010825
X0052425Y00115
X0051Y0012375
X00511Y0015
X005199Y00151
X0051425Y001615
X00516Y00177
X0049225Y00172
X00493Y00163
X0049Y00157
X00496Y00147
X00482Y00144
X00459Y00155
X00452Y00149
X00454Y00173
X00437Y00163
X00419Y00152
X004125Y0012
X00396Y001225
X00372Y00123
Y00097
X0039493Y0009725
X00415Y000975
X0042Y000785
X00428Y0007825
X00436Y000785
X0044375Y0009675
X00452Y00098
X0046
X00468
Y00122
X0046
X00453
X00444Y0012325
X004375Y001185
X004145Y001865
X0041175Y0020075
X00383Y00207
X003575Y00199
X00339022Y00192272
X00333Y00185
X00345Y00172
X00358Y00157
X003175Y00154
X0031075Y0015325
X00313Y00174
X003205Y0020075
X00342194Y00210194
X0034275Y0022175
X003525Y0022075
X0029775Y00225
X0029075Y002265
X002875Y002325
X002925Y002375
X00281Y0022875
X0028Y00255
X002875
X002575Y0024375
X00258Y00235
X00308Y00278
X00311Y0028675
X00316604Y00281916
X00322095Y00291178
X00327422Y00286878
X00333624Y00289136
X0034225Y0029745
X0033825Y0030275
X0035125Y00298
X0035098Y003345
X0035075Y00348
X003595Y0034425
X00331753Y00341708
X00325241Y00342783
X0032Y00338
X00311Y00345
X0030125Y003415
X00304Y0035625
X00312Y0035925
X0032Y00358
X0033225Y00352908
X003115Y003194
X00315Y0030275
X0028822Y0030347
X00277Y00336
X0027575Y0038875
X002865Y004055
X00317Y00406
X00325Y00404
X00329Y00444
X00342Y004525
X00351Y00442
X00354283Y00435017
X003655Y0043975
X00364Y00447
X00485Y00405
X0056475Y004055
X00562Y00392
Y0038
X00557Y00416
X00612Y00419
X00621Y00426
X0062Y0044
X00613Y00442
X00601Y00437
X0060575Y0040275
X0061375Y0038975
X00627Y00391
X0062575Y00398
X00621Y00378
X00625Y00369
X00615Y00361
X0062Y00352
X00615Y00346
X00606
X00608Y00339
X00596
X00588Y0034
X00591849Y00345737
X00588Y00353
X0060275Y0036275
X00604Y0037025
X0064575Y0036275
X00632Y0034
X00628Y00332
X00633Y00318
X006017Y003113
X00587Y00311
X00581Y00306
X00576Y00301
X00579Y00292
X00588Y00291
X00565
X00549Y0028145
X00548Y00274
X00521Y00275
X00502439Y00261343
X0049225Y00262
X0048325Y0026125
X00483266Y00268734
X0047Y00274
X0046575Y0026575
X0046975Y002605
X00469Y00235
X00478Y00208
X00493
X0049775Y0021625
X005125Y00227
X00505Y00248
X00496Y00246
X00495499Y00255021
X00503Y00292
X004805Y002985
X00456099Y00297816
X00456002Y00276719
X0045145Y0027194
X0044325Y002725
X0043325Y00277
X0044075Y002915
X0040225Y002845
X004095Y0024025
X00428524Y00223411
X00441753Y00221954
X00492Y001845
X00534Y002055
X0053Y00214
X0055675Y0020825
X00561782Y0019431
X00557Y00171
X005925Y001835
X0059125Y00201
X0059625Y0023425
X00617Y00239
X006215Y0022925
X0064675Y0021475
X00648Y0018125
X00616Y00187
X00605Y002578
X00601Y00269
X00637Y00275
X00646
X00566293Y00319095
X0056Y00315613
X0056Y00325388
X00551Y00306
X00535Y00302
X00527Y00303
X005385Y0031775
X00511Y0032
X00648Y00436
X003905Y00176
X00343Y00104
X00342Y000855
X0033175Y0009225
X003215Y0009325
X00324Y0010175
X00251Y0021425
X0023425Y002175
X0022225Y002205
X0022675Y0022575
X0020175Y0021425
X001945Y002125
X00183Y00207
X00163Y00214
X00143Y00229
X00127Y00219
X00108Y00229
X000755Y0022825
X000505Y002465
X00031Y00315
X0002
X00026Y00346
X00029Y00355
Y00368
X00034Y00375
X00038Y00389
X0003925Y0040325
X00043Y0041
X0005175Y0042825
X0004675Y004335
X00054Y00384
X00042Y00358
X00129728Y00338836
X001577Y00332716
X00166Y00312
X00167Y00305
X00165584Y00277019
X00121689Y00306405
X00149Y00382
X00147Y00397
X00162Y00417
Y0042375
X0016325Y00432
X00166Y0044
X0016875Y004525
X00187Y00454
X001315Y00439
Y0043
Y00423
X001695Y003826
X0019625Y003885
X0020525Y0039175
X0020175Y00372
X00214Y0034
X0023625Y0032
X002355Y003945
X00143Y00092
X00139Y00085
X00102042Y00079248
X0016925Y0046075
X00168Y00469
X00165173Y00495051
X00166953Y00501824
X00163337Y00509171
X00169765Y00518928
X00149193Y00524457
X0014225Y0054075
X0014Y00498
X001885Y00493
X00197Y00495
X0019Y0050375
X0018915Y00510498
X0017675Y0056925
X0017675Y005775
X001825Y005985
X00168Y00615
X00234Y00605
X00247Y00561
X0024825Y00712
Y00722
Y00732
X0024825Y00742
X0024825Y00752
X0022825Y00742
Y0070625
X0021825
X0020825
X0023825
X00195Y00727
Y00737
X00013Y00574
X00046Y00539
X00271Y00535
X0027Y00546
X00276Y00549
X0027595Y0055675
X00305Y00578
X00296Y00596
X00303Y0061425
X0028675Y0063675
X00311Y0066125
X0034025
X003695Y0066125
X0039875Y0066125
X00428
X0045775Y00652
X0046525Y00629
X0046475Y0062225
X00451Y0061975
X00446Y00615
X00438Y00626
X00432Y0062175
X00423Y00627
X004035Y006295
X0039725Y00627
X0038425Y0061975
X0037375Y0061325
X00366Y00613
X003815Y00601
X0041275Y0060175
X0042Y00605
X004865Y0066125
X0051575Y00661251
X00545Y0066125
X00581Y00607
X00587Y00598
X00595Y006
X00608Y00572
X00605Y00553
X00597Y00556
X00591227Y00551022
X00581Y00552
X00589Y00509
X00605Y00512
X00617Y00511
X0062Y00495
X00618Y00477
X00606Y00475
Y00464
X00609Y00484
X0059825Y00494
X00581Y00474
X00642Y00477
X0064Y00566
X0047Y0046575
X00286Y00487
X00281Y00493
X0027825Y0072125
X0028Y00731
Y00738
X0026825Y00752
X0025825
X0025375Y0076375
X0025825Y00712
X0026825
X0032875Y0081625
X003355Y0081275
X0034725Y0081075
X00354Y00825
X00368Y00826
X00376194Y0082544
X00375922Y00834389
X00371Y00846
X0036175Y00842
X0035375Y00843
X003455Y0084775
X00356Y00856
X00364
X0039475Y008425
X0040275Y0083775
X00403203Y00829846
X00410203Y0083
X00417203Y00818769
X00424203
X00431203
X00438203Y00818768
X00461Y0083025
X00464Y00844
X0047225Y0085325
X004755Y0083625
X00481Y00826
X004895Y0081375
X0050025Y00822
X00503Y008055
X0053025Y00816
X005385Y0081375
X00449Y00851
X0066Y0076675
X0066775Y0076875
X0067725Y0077525
X00697Y007735
X00706Y007675
X00713Y007785
X0069475Y007545
X00738Y00752
X0075Y0075175
Y0072625
X00738Y007265
Y0070075
X00751Y007005
X0075025Y006755
X0073775
Y0065025
X0075Y0064975
X007505Y0062475
X0073825Y0062525
X007375Y0059925
X007505Y006005
X0075Y005745
X00738Y0057375
X007385Y0054825
X007505Y0054875
X0075075Y00524
X0073875Y0052375
X00739Y0049775
X0075075Y00498
X0075025Y0047225
X00739Y004725
X00688Y00473
X00695Y00482
X00686Y00495
X00707Y00508
X00672Y00464
X00663816Y00615829
X00689Y0062
X00757Y0084
X00775Y00831
X00774Y00852
X00818Y0084
Y0086
Y0088
X00775Y00872
X00756788Y00880054
X00757Y0086
X00803Y0101
X007977Y011694
X0076192Y011695
X00762022Y01181374
X00761922Y01187973
X00762022Y01206374
X00761922Y01212973
X0076202Y01224473
X007446Y01223264
X00744Y01211973
Y011865
X0074383Y01174242
X0072622Y01172
X00698Y01151
X00671Y0117725
X00657Y01187
X00656Y01196
X00663
X00679Y0123
X00666Y01245
X00696Y01246
X00726Y012265
X00768Y01141875
X00652Y01125
X00639Y01131
X00629Y01136
Y01161
X00622Y01162
X0061Y0118
X00602Y01181
X00567
Y0123
X00576Y01223
X00619Y01218
Y01233
X00626Y01249
X00644Y0124
X00643Y01222
X00645692Y01206933
X00523Y01206
X00522Y01214
Y01193
X0051975Y0111475
X0052725Y01114
X00523Y01108
X0053Y010925
X00544Y01094
X0055425Y01071
X0053525Y0105575
X00539Y01043
X00545Y01046
X00554Y010286
Y01022
X00573Y010312
Y010378
X00595Y0104025
Y01048
X00597Y010223
Y010157
X0059225Y009979
X00592Y0099
X00595Y00962
X0061Y00953
X0062
X0058475Y00933
X0057034Y00941709
X00563Y00939
X00553
X0055Y00932
X0054Y00935
X00526
X00514511Y00940489
X00501946Y00934788
X005Y00925
X00493Y00931
X00486823Y00906
X004913Y008941
X00469945Y00897788
X00457779Y0090025
X0045Y00901
X00441305Y0090025
X00431Y00893
X00420524Y00895131
X00417Y00904
X00425Y00909
X00408651Y00921
X0039945Y009221
X0038675
X0037405
X00361351
X00348651
X003425Y009385
X00355Y00941
X0036575
X00378
X0038725Y0094575
X0039275Y0095375
X0039945Y00959388
X00421288Y00968054
X00421288Y00979054
X00438Y0096089
X0043825Y0094375
X00444Y00948
X00451Y00947
X00456Y00952
X004685Y0096525
X004695Y0097375
X0047Y00988
X004725Y010125
X004825
X004925
X005025
Y010225
Y010325
Y010425
X004925
Y010325
Y010225
X004825
Y010325
Y010425
X004725
Y010325
Y010225
X004625
Y010325
Y010425
Y010525
X004725
X004825
X004925
X005025
X0049Y01074
X004755Y0107375
X00474Y01083
X004605Y01074
X00433554Y01072212
X00424554
X00416625Y01054835
X004075Y01048835
X00397Y01046
X00391Y01053
X0039Y0106
X00382Y01048
X00377Y01053
X00368302Y01029497
X0036075Y0103025
X00353302Y01029497
X00343302
X00333302
X00323501Y01029498
X00304501Y01029498
X002925Y01029498
X00295Y01067
X00264289Y0106175
X00258Y0099875
X0027075Y0099175
X00282129Y00990732
X00283826Y00981849
X00291192Y00981893
X0030176Y00982726
X0029673Y00993286
X00308833Y00995362
X00317Y00989
X0032688Y00993787
X00329981Y01011284
X00323Y00967
X0033025Y0093375
X002695Y009437
X002605Y00928201
X0027075Y00907602
X0026225Y009705
X002545Y00981681
X00258151Y01128125
X00268151
X002535Y011415
Y011685
X002575Y0120775
X00255Y01247
X00333Y011005
X0033375Y010935
X00441Y0108925
X00440625Y011
X00458Y01107
X0047Y01108
X00489Y01119
X00441305Y01063488
X004405Y0104375
Y0103375
X00434Y01038835
X00423Y01042
X00406625Y0103325
X004152Y0101475
X0041Y01008
X004625Y010125
X00477555Y0096661
X004875
X00518Y00962
X00529Y00967
X005375Y009725
X005465
X00548Y00915
X00538459Y00917541
X00521786Y00906001
X00510555Y00916
X00461055Y00916
X0046Y00877
X00452Y00878
X004435Y0087725
X0043825Y008835
X0043075Y0088
X00424Y00881
X00418Y00884
X0041225Y0087825
X00405Y00878
X00396Y00884
X0039225Y0087
X0038225Y008685
X00377919Y00874081
X0035325Y0087525
X00349Y0087
X00347Y0086
X00321Y0085925
X00313267Y00859
X00466Y00865
X00474Y00862
X00513266Y00859
X00521734
X0043325Y00935054
X00413Y00928
X00610265Y01102492
X00228151Y0110025
X00210151Y0110025
X00203Y01104
X00202Y01097
X0020525Y011295
X0019025Y0112825
X00225Y011295
X0022825Y011205
X00248151Y01128125
X00242213Y01159625
X0022425Y011615
X002045Y011615
X001935Y01205
X0019025Y0122775
X00183Y01248
X0015575Y0121225
X0015625Y01184915
X001625
Y01178415
X00156336Y01178415
X0015625Y011475
X001625
Y01141
X00156335Y01141
X00165Y011156
X00164Y010775
Y01067
X00167Y01061
X00193Y01067
X0022Y01065
X0023
Y01055
X0024
Y01065
Y01075
X0023
X0022
Y01055
X002185Y009991
X002275Y00999
X002385Y00998681
X00248Y009985
X002445Y009817
X0022625Y00985
X0021525
X00205Y00983
X002125Y00961202
X002215Y00961
X002315
X00206Y00953
X0020375Y0094325
X001975Y00935602
X0020975Y009292
X002215Y0092025
X002315
X002265Y009127
X002405Y008965
X002525Y0089675
Y0092025
X002075Y00899602
X00189Y01020774
X00113Y01045
X00086Y0104075
X00076978Y01047027
X00077078Y01058527
X00076978Y01065126
X00077078Y01083527
X00076978Y01090126
X00077078Y01102
X00108Y01105
X00112783Y010995
X00123011Y01086811
X00095Y01085
Y01059527
X0009175Y0101425
X0005175Y0100775
X0005575Y0114125
X000635
Y0114725
Y0115325
Y01168
X00063475Y01174089
Y01180089
X0005575Y0118
X00035Y01174
Y0116775
X00035Y01153402
Y01147152
X000978Y01147902
Y01153852
X0010375Y0115375
Y01148
Y01168
X000978
Y0117395
X0010375Y01174
X00113Y01226
X000855Y0122275
X00076978Y01228027
X00077078Y01239527
X00076978Y01246126
X00095Y01240527
X002185Y01206
X00228Y0120625
X00238Y0120675
X0024775Y012075
X00241926Y01186626
X0024Y012625
X0023
Y012725
X0024
Y012825
X0023
X0022
Y012725
Y012625
X00194001Y012745
X00197Y01298
X00203Y01303
X00210151Y01308
X00228151Y01308
X00228Y01318
X00248151Y01325875
X00156Y01348
X0013525Y0134125
X001235Y01361
X00109Y0137
X00079Y013615
X00074Y0134775
X0009075Y0134125
X00052Y013415
X0003675Y013535
X000275Y0137
X0005875Y013735
X00066Y0137
X00058Y0129925
X00077078Y01283
X00076978Y01271126
X00077078Y01264527
X00095Y01266
X00112783Y012805
X001115Y01295
X00183Y012585
X00164018Y01373048
X00179Y01406
X00178Y01431
Y01457
Y01482
Y01507
X00179Y01532
X00157Y01518
X00133Y01513537
X00133Y01549
X0014446Y01548
X00155001Y0155675
X00155Y01566499
X00178Y01609
Y01634
X00141813Y01619971
X00118Y0165
X00094Y01599
X00097Y01534
X00103351Y01488737
X00116Y01477
X00101Y0146
X00103351Y0141395
X00116Y01403
X00133Y0143875
X00021Y01458
X00018Y01512
Y01601
X004725Y016
X004265Y01405426
Y01398926
X0041925
Y01405426
X0041225
Y01398926
Y01391426
X0041925
X004265
Y01362676
X0041925
X0041225
X0041925Y01355426
Y01345301
X00419Y01326
X00426
X004345Y01325176
X0044125
X0044775
Y01317176
X0044125
X004345
X00398Y0131475
X00388
X00388Y01327176
X0039525
X00403
X0039525Y01335176
X00388
X0038772Y01343021
X0039522
X00471Y01332
X0054Y01324
X00544Y01313
X00558Y01298
X00598Y01295
X006Y01311
X00603Y01325
X00618Y01297
X00624Y01287
X00648Y0129475
X0059425Y01268926
X00586Y01267
X00491Y01254
X00474
X00373Y01261
X00265Y012545
X00264289Y012695
X00277Y01318
X00258151Y01325875
X00262Y01385
X00304Y01375
X00661Y01406
Y01431
X00662Y01457
Y01507
X00661Y01533
Y01558
X00694Y01584
X00712Y01624
X00704Y01638
X00661Y01649
Y01624
X00738Y01613
X00741001Y0155415
X00741Y0154145
X00741001Y0152875
Y0151605
Y0150335
X0074Y01490655
Y0147795
Y0146525
Y0145255
Y0143985
X00818Y0144
Y01453
Y01465
X00822Y01484
X00816326Y0150335
Y0151605
X00816339Y0152875
Y0154145
Y0155415
X00778Y0155075
Y0157275
X00778Y01528749
X00778Y0150675
X00778Y0148475
X006948Y014818
X00704Y01522
X00697Y013435
X0070725Y0133875
X007295Y013435
X00731Y01356
X00723Y01321
X00703195Y01294945
X00705Y01282
Y01254
X00723Y01268
X00762525Y0126771
Y01261711
X0077025Y012618
X007625Y012738
X00791Y0127375
Y012675
X008185Y013045
Y0131725
X0081825Y013305
X00678Y01328
X00658Y01334
X00678Y0136
X0068725Y0129525
X006675Y0128575
X00662Y01675
X00661Y017
X00662Y01725
X0066Y0175
Y01776
X00661Y01802
Y01827
Y01853
X007068Y018647
Y01876
Y01836
Y018247
X00725Y01805
X00722Y01777
X00734Y01765
X00743Y01764
X00744Y01739
X00743Y01714
X00721Y01701
X0072Y01676
X00758
X00789Y01712
Y01734
X00775Y01791
X0081Y0179
Y0184
X007532Y01836
Y018247
Y018647
Y01876
X00755076Y0188976
X0068925Y0180175
X00721Y01753
Y01727
X00627Y01715
X00615Y01724
X00605Y0174
X0056Y01730501
X005455Y0174
X0054945Y01756001
X00555Y01763
X0052925Y0176925
X0053375Y0179025
X0049025Y0179025
X004765Y017745
X0047725Y0176175
X0044475Y0176275
X004379Y017625
X0044125Y01749
X004495Y017425
X0045825Y0174275
Y0173275
X0045825Y0172275
X00448Y01709
X0043725Y0171775
X0043875Y017355
X00396Y017365
X00396596Y017465
X0038722Y017515
X00386624Y017415
X004005Y017585
X00419Y01764616
X004265Y0181
X00436
X00416Y0182755
X00406
X003816Y01879
X00369753Y01890038
X0042Y0189
X0047
X004604Y01879
X0053Y0189
X0059
X0065
X00529Y01735
X00509346Y0174
X0050325Y01737
X00503Y01728
X0050725Y0172075
X0051825Y017205
X00514Y0171
X0052Y017035
X00511Y016975
X00512Y0175175
X0049775Y0174225
X00421Y01705931
X00412Y01705931
X00393Y017135
X003895Y0168525
X00347Y01731
X00335Y01734
X00336499Y01740999
X003425Y017445
X003339Y01760999
X0031975Y0176375
X002965Y01757
X0029055Y0174841
X00292Y01735
X00282624Y0174
X002895Y01721
X00311Y0170425
X00319Y01704
X003339Y01718999
X0028075Y017665
X0029025Y0179525
X0031075Y017965
X00309753Y01890038
X002775Y016635
X00179Y01659
Y01685
X00135Y01686
Y01713
X00117Y017
X00114Y01675
X00097Y01688
Y01661
Y01738
X00118Y01751
X00076
X0004Y0177
X00038034Y01832864
X000868Y01836
Y018247
X000868Y018647
Y01876
X00079753Y01890038
X00139753
X001332Y01876
Y018647
X00133201Y01836
Y018247
X00128Y01803
X00152Y01776
X00178Y01736
X00189753Y01890038
X00249753
X00242Y01863
X0004Y017
T05
X00086Y00845
X00106
X00126
X00146
X00166
X00186
X00206
X00226
X00246
X00266
Y00865
X00246
X00226
X00206
X00186
X00166
X00146
X00126
X00106
X00086
X0028Y01806
X003
X0032
X0034
X00502
X00522
X00542
X00562
T06
X003Y00483
X0032
Y00503
Y00523
Y00543
X0034
X0036
X0038
X004
X0042
X0044
X0046
X0048
X005
X0052
X0054
Y00523
Y00503
X0052
Y00523
X005
Y00503
X0048
Y00523
X0046
Y00503
X0044
X0042
Y00523
X0044
Y00483
X0042
X004
X0038
Y00503
X004
Y00523
X0038
X0036
Y00503
X0034
Y00523
Y00483
X0036
X003Y00503
Y00523
Y00543
X0046Y00483
X0048
X005
X0052
X0054
T07
X0043Y0154028
Y0156028
X0041
Y0158028
X0043
T08
X00305704Y01471376
Y01496776
Y01522176
Y01547576
Y01572976
Y01598376
Y01623776
Y01649176
X00534304Y01649208
Y01623808
Y01598408
Y01573008
Y01547608
Y01522208
Y01496808
Y01471408
T09
X0017235Y000406
X0019775
X0022315
X0024855
X0027395
X0029935
X0032475
X0035015
X0037555
X0040095
X0042635
X0045175
X0047715
X0050255
X0052795
X0055335
X0057875
X0060415
X0062955
X0065495
Y00066
Y001675
Y001929
X0068035
X0070575
X0073115
X0075655
X0078195
X0080735
Y001675
X0078195
X0075655
X0073115
X0070575
X0068035
X0062955
Y001929
X0060415
Y001675
X0057875
Y001929
Y00066
X0060415
X0062955
X0055335
X0052795
X0050255
X0047715
X0045175
X0042635
X0040095
X0037555
X0035015
X0032475
X0029935
X0027395
Y001675
Y001929
X0024855
X0022315
X0019775
X0017235
X0014695
X0012155
Y001675
X0014695
X0017235
X0019775
X0022315
X0024855
Y00066
X0022315
X0019775
X0017235
X0009615Y001675
Y001929
X0007075
X0004535
Y001675
X0007075
Y002691
X0009615
Y002945
Y003199
Y003453
Y003707
Y003961
Y004215
Y004469
X0007075
Y004215
Y003961
Y003707
Y003453
Y003199
Y002945
Y004723
X0009615
Y004977
Y005231
Y005485
Y005739
Y005993
Y006247
Y006501
Y006755
Y007009
Y007263
Y007517
X0007075
Y007263
Y007009
Y006755
Y006501
Y006247
Y005993
Y005739
Y005485
Y005231
Y004977
X00605Y008473
Y008727
X0012155Y009549
X0009615
X0007075
X0004535
X0001995
Y009041
Y008787
X004803Y01307
X005057
X00187Y018383
Y018637
M30
