M48
;Layer_Color=9474304
;FILE_FORMAT=4:4
METRIC,LZ
;TYPE=PLATED
T01F00S00C0.1000
%
T01
X00273Y00358
X00355Y0037
X0039975Y0036625
X004045Y0037125
X0041125Y0037325
X0041025Y003775
X00411Y00382
X0042575Y00374935
X00434497
X00431997Y00360547
X00427Y00358
X0041543Y0036
X00407661Y00347236
X00402Y00339
X00414397Y00340047
X004295Y00346778
X0043575
X00442333Y00346801
X00471Y00348
Y00338
Y00328
X0048Y00323
X0049Y00318
X00493Y00328
X0049Y00338
Y00348
Y00358
Y00368
X0048Y0036
X00471Y00358
X0047125Y003915
X00466Y00408
X00512Y00397
X0037625Y0041225
X00368Y004085
X00306Y00426
Y00434
X00314Y00439
Y00444
X00303Y00453
X00284Y00455
X00368Y0029725
X004055Y00301
Y0031225
X004185Y00307
X0042175Y003
X00429Y0030125
X0042675Y0031825
X005715Y0026
X0058Y00239
X00596Y002479
X0062625Y0025325
X00232Y00386
X0023525Y0041675
X0022225Y0041975
X0022395Y00441816
X0022805Y00441682
X0023584Y00436527
X0023925Y0043425
X0020775Y004475
X0020365
X001755Y004425
X001875Y0042385
X0018975Y004127
Y004077
X0018975Y004027
Y003877
X00188Y00367
X00164Y00369
X00165Y00403
X00165638Y00411638
X000381Y003311
X00204Y00504
X0021425Y0051
X0022425Y0051
X0023425Y0051
X0024425
X0023925Y00517
X0024925
X0022925
X0021925
X00207Y00526
X00208Y00542
X002125Y00555
X002025
X002225
X002325Y00567
X002175Y0057875
X00250964Y00551465
X0023925Y0053725
X00241Y006335
X002545Y00562
X002645
X002845Y00567
X0026075Y005215
X00285Y00471
Y00466
Y00461
X003Y0046
X00302Y00465
Y0047
X00368Y00736
X00369Y00745
X00392Y0072
X004
X00448Y00744
X00448Y0076
X00472Y00744
Y00736
M30
