M48
;Layer_Color=9474304
;FILE_FORMAT=4:4
METRIC,LZ
;TYPE=PLATED
T03F00S00C0.2000
%
T03
X00671Y00257
X0062625Y0024835
X0058975Y002465
X00574Y002395
X005645Y00259
X0046Y0024
X00412Y0021
X004002Y002002
X00392095Y002006
X00377Y00199
X00378Y0021575
X00362Y0021
Y00222
X0036125Y0029225
X0036325Y0030175
X00383Y00289
X00391Y00293
X00405Y00307
X00409941Y00302808
X00423Y00307
X004295Y003065
X0042675Y00323
X00431Y00332
X00437Y00339
X00446241Y00337497
X0044675Y00344
X00447Y00353
X0044575Y0036
X0044575Y0037
Y003765
X00438247Y00370935
X004295
X0042675Y0036375
X00418Y00364
X0041543Y00370935
X00415138Y00378859
X003945Y00379
X00393673Y00370935
X00393703Y00364181
X0040482Y00366565
X00411264Y00350689
X00417Y00347
X00426686Y00350314
X00433186
X00439686
X0043575Y00364
X004377Y003917
X00398575Y00384279
X00393692Y00343658
X00393442Y00337158
X00401587Y00331663
X0040842Y00331841
X00407078Y00338858
X0042Y0029492
X0046Y00331
X00477Y00328
Y00338
X00484Y00334
X00496165Y00336127
X00495Y00344
X00502Y0035
X00514Y00354
X00507Y00334
X00486392Y00352938
X0048Y00354
X00472026Y00353128
X00465Y0035
X00496Y00368
X0048125Y0038675
X0046725Y0041225
X00512332Y00401222
X00636189Y00380268
X00358Y00367
X00372552Y00408552
X003765Y00417
X00376Y00427
X00367Y00419
X003815Y004475
X0038575Y00456
X00319Y0044
X00309Y00439
X00305734Y00445723
X0029921Y0044672
X00291988Y00448286
X00285586Y0044989
X00286Y00443
X00279
X00277Y00456
X00294Y00442
X00314Y00434
X00311Y00428
X00306Y00422
X00314Y00391
X00267Y00384
X0026
X00269Y00353
X00267Y00339
X00262Y0033
X0028485Y003415
X00429187Y001823
X00468Y00153
X00186Y0023
X0017825Y0024
X00164
X00157138Y0023225
X00169Y00229
X0011575Y002435
X0011375Y0025075
X00105Y0024975
X00126Y00275
X00135Y00278
X00142Y00292
X00108Y0033
X00133Y00363
X00129Y00411
X0017Y00412
Y00404
X00192Y00418
X00197736Y00433081
X0020185Y0044125
X0020845
X0021675Y004365
X0022335
X00230072Y00435699
X00234729Y00431021
X00238821Y0042031
X002285Y0041975
X00237Y00388
X0023575Y0037275
X00225Y00367
X00216Y00386
X00197Y0036725
X00215Y00349
X00171Y00342
X00152Y00444
X00233Y0045785
X00018Y00336
X0011225Y0046125
X0021425Y00505
X0022425Y00505
X0023425Y00505
X0024875Y0051
X0024925Y00522
X0023925
X0022925
X0021925
X00213Y00542
X002125Y0055
X002025
X001925
X001975Y005735
X002075Y005735
X002175Y0057375
X002275Y00567
X002225Y0055
X0023925Y0053225
X00236Y006335
X002595Y00596
X002695
X002745Y00584
X002645Y00567
X002545
X00255965Y00551465
X0026075Y005165
X002895Y00567
X00329Y00472
X00364Y00732
Y0074
X0034975Y007545
X0034975Y0077175
X0034975Y0078075
X0037125Y0080275
X00388211Y00802461
X003975Y0080275
X00405Y008025
X00414
X00422Y00803
X0046025Y008025
X00444Y00764
X00444Y0074
X00468Y0074
Y00732
X004605Y00717
X0045175Y0070325
X0049825Y0072375
X00490397Y00771897
X0039615Y00716
X00389Y0071525
X0065Y00465
X0054Y01025
M30
