M48
;Layer_Color=9474304
;FILE_FORMAT=4:4
METRIC,LZ
;TYPE=PLATED
T04F00S00C0.5000
%
G90
G05
T04
G00X007575Y011582
M15
G01X007515
M16
G00X00817Y011546
M15
G01X00811
M16
G00X00817Y012444
M15
G01X00811
M16
G00X007575Y012408
M15
G01X007515
M16
G00X000815Y012117
M15
G01X000875
M16
G00X00022Y012081
M15
G01X00028
M16
G00X00022Y011169
M15
G01X00028
M16
G00X000815Y011133
M15
G01X000875
M16
G00X000815Y010307
M15
G01X000875
M16
G00X00022Y010271
M15
G01X00028
M16
G00X00022Y012979
M15
G01X00028
M16
G00X000815Y012943
M15
G01X000875
M16
M17
M30
