M48
;Layer_Color=9474304
;FILE_FORMAT=4:4
METRIC,LZ
;TYPE=PLATED
T01F00S00C0.1000
%
T01
X00306004Y00164084
X00296098Y00200406
X00406Y0022
X0041975Y00288
X0042475Y0029175
X0042875
X00433Y0030125
X00436Y00309
Y003155
X004425
X00449
X00455436Y00315564
X0046152Y003155
Y00322
X00455436Y00322064
Y00328564
X0046152Y003285
Y00335
X00455436Y00335064
X00448936
Y00328564
X0044844Y00322932
X004425Y0032212
X004425Y003285
X00436
X00436Y00335
X004425
X00442436Y00341564
X00435936
Y00348064
X00442436
X00449Y00348
Y00354
X0044925Y0036
X004555Y0036
Y003665
Y00373
Y003795
Y00386
Y003925
X00449
X00449Y00386
X004425
X00436
X00436Y003925
X004425
Y00399
X00436
X004295
X00423
Y0039225
X00423Y00386
X004295
X004295Y003925
X004295Y003795
Y00373
X00423
Y003795
X0041125Y003795
X00411Y00373
Y003665
Y0036
X0040425
Y003665
Y00373
X00397826Y00372826
X003915Y00373
X0039125Y0036675
X00385Y003665
Y0036
X003915
X0039775Y0035975
Y0036625
Y0037975
X00398Y00386
Y003925
X004045
Y00386
Y003795
X003915
X00385
Y00373
X003785Y00373
Y003795
Y00386
X003785Y003925
X00385
Y00386
X003915
Y003925
Y00399
X00385
X003785
X0037825Y004055
X00381Y00414
X00372Y004365
X004085Y0042925
X0041225Y0042275
X0041175Y0044225
X0041035Y00452566
X0044475Y0044575
X0044625Y0043525
X0046025Y00431
X004645Y0043375
X004735Y0042875
X0046625Y004135
X004525Y0041375
X004555Y00399
X00449
X00462
X00462Y003925
Y00386
Y003795
Y00373
Y003665
Y0036
Y00354
Y00341
X00455792Y00341312
X00448936Y00341564
X00429436Y00341564
Y00348064
X00423Y00348
Y00341
X004235Y003345
X00423Y003285
Y00322
Y003155
X004295
Y00322
Y003285
X004295Y00335
X00411Y00334662
X00411515Y00328564
X00411Y00322
X00404229
X00397984
X00397843Y00315861
X00391331Y00315849
X003915Y00322
X00385064Y00322064
X0037898Y00322
Y003155
X00385064Y00315564
X00385064Y00328564
X0037898Y003285
Y00335
X00385064Y00335064
Y00341564
Y00348064
X00378564Y00348064
X003785Y003415
X00391564Y00341564
Y00348064
X00397814Y00348314
X00397878Y0034175
X00404249Y00341999
X00404439Y00348189
X004105Y003475
X0041075Y0034125
X0040425Y00335
X00404229Y00328564
X00398
X00391564
Y00335064
X00397814Y00335186
X0040375Y00315
X004105
X0042Y0030125
X004005Y003015
X003745Y0030125
X00368
X00365Y002855
X0033657Y0031665
X00343Y00374
X0034075Y003785
X003459Y003833
X003426Y003875
X00364Y0038975
X003785Y003665
Y0036
X00423
Y003665
X004295
Y0036
X00436
Y003665
X004425
Y0036
Y00373
Y003795
X00436
Y00373
X00449
Y003795
Y003665
X00476Y00338
X00436Y00322
X00411Y00386
Y003925
Y00399
X004045
X00398
X00311Y0043065
X00306Y0043425
X00302
Y0043025
X00298Y0042625
X00294
Y0042225
X00298
Y0041825
X00294
X0029Y0043025
X00286
Y0043425
X0027525Y004375
X002755Y0044175
X0027575Y0044675
Y00451
Y004595
X00271
X002605Y004465
X00256Y0044375
X00254Y00437
X0026125Y004185
Y004144
X00263Y00404
X00262949Y003999
X00265569Y00386
X00269669
X0028179Y0036132
X00298Y00448
X00302116Y00446884
X00305Y00442
X00309Y00439
X00315138Y00437585
X00297Y00455
X00294Y00459
X0046753Y0045412
X00564Y00362
Y00358
X005455Y0018075
X00477Y00151
X00219Y00352
Y00361
X002223Y003753
X00223Y0041
X00229
Y00417
X00223
X00216
X00209
Y0041
X00216
X00202
Y00417
X002035Y004245
X002085
X002135
X002185
X002235
X002285
X002335Y0042425
X002375Y0041525
X0023725Y004105
X00243Y0043525
X00248Y00433
X002495Y004425
X00233Y004501
X00228Y004496
X00228Y00458
X00221
X00215
X00208
X00202
X00203Y004495
X00208Y004495
X00213Y004496
X00198Y004495
X00196Y00434
X001825Y004245
X001825Y004155
X002365Y0045875
X00228Y00465
X00221
X00215
X00208Y0046325
X00202Y00465
X0025025Y0048025
X00238Y004975
X00238Y00547
X0023375Y005575
X002225Y00558
X002125
X002025
X001925
X001975Y00565324
X001965Y0057375
Y005785
X002035
Y0057375
X002105
Y005785
X002165
Y0057375
X002225
Y005785
X00231Y005775
X002275Y00565
X002175Y005655
X002075
Y00592
X002175
X002275
X002225Y00604
X002225Y006105
X002165
X002105
Y006175
X002165
X002225
X002325Y006115
X0025Y006115
X0024375Y00623
X00244Y006335
X002035Y006175
X001965
Y006105
X002035
X002025Y00604
X001925
X00189Y006115
X0018175Y0062325
X00177Y00633
X00197Y00595
X002125Y00604
X00251Y005775
X00217Y00534
X002615Y0053475
X0025925Y00538
X002595Y00558
X002645Y00565
X002665Y005715
X002595
Y005785
X002665
X002735
X002795
X002855
Y005715
X002795
X002735
X002745Y00592
X002795Y0059175
X002845
X002895
Y0060375
X002845
X002795Y00604
Y006105
X002735
Y006175
X002795
X002855
Y006105
X002665
X002595
Y00604
X002695
X002665Y006175
X002595
X002645Y00592
X002545
Y00565
X002895
X00293Y005775
X0030225Y00555
X0033125Y0055625
X0035375Y0055675
X0036Y0055975
X0036075Y0057675
X0035725Y005875
X00349Y00594
X003705Y00596
X00376Y0059075
X00392Y0058325
X00395111Y00575861
X00401Y00569
X00399281Y0055925
X00389Y005605
X0039Y0053425
X00369Y0057075
X003465Y00571
X00408Y00575
X0043325Y00573
X004345Y0058025
X00438281Y005895
X0044475Y00586
X0044175Y0057025
X0042925Y00565
X0045425Y0056225
X0046Y0057175
X00470281Y005785
X0047475Y00585
X004705Y00599
X0046225Y00593
X00482857Y0060355
X0047725Y0060975
X0050325Y005905
X005075Y0058575
X0050875Y0057625
X00500031Y0058025
X0048975Y0056625
X0052Y005645
X0051475Y0059
X00552Y006035
X005555Y0060975
X0056Y005775
X0055825Y006615
X00553688Y00668688
X00553938Y00674938
Y00679938
X00554125Y00686375
X0052475Y0068625
Y0068
Y00675
X00525Y006685
X0049575
X004955Y00675
Y0068
Y0068625
X0046625
Y0068
Y00675
X004665Y006685
X0043725
X00437Y00675
Y0068
Y0068625
X0044375Y0070825
X004525Y00708
X00452Y00724
X0046
X00468
X00476
Y00732
X00468Y00732
Y0074
X00476
X0046Y0074
X00452
X00444
X00444Y00732
X00452
X0046
X00436Y00724
X00428
Y00732
X00404Y00732
X00396
X00388
Y0074
X0038
X00372Y0074
X00364
Y00732
Y00724
X00372Y00724
X0038Y00724
X00388
X00396
X00404
X0038Y00732
X00372Y00732
X00347Y007535
Y007625
X00347Y007735
X00347Y007825
X00364Y0078
Y00788
X00372
Y0078
X0038Y0078
Y00772
X00388
Y0078
X00396
Y00788
X00404Y0078
X00428Y0078
X00436
X00444
X00452
Y00772
X00444
X00436
Y00788
X00428
X00444
X004405Y00804
X004495Y00804
X004605Y00804
X004695
X00468Y00788
X00476Y00788
Y0078
X00468Y0078
X0046
X0046Y00772
X00493Y007725
Y007815
X00493Y007615
X00493Y00752
X00493Y007315
Y007225
X0040775Y0068625
Y0068
Y00675
X00408Y006685
X0037875
X003785Y00675
Y0068
Y0068625
X0034925
Y0068
Y00675
X003495Y006685
X0032025
X0032Y00675
Y0068
Y0068625
X003695Y00804
X003785
X00389211Y00803711
X003985Y00804
X004095Y00804
X00419Y00804
X00464469Y00557
X0048325Y004625
X004913Y0046755
X00435Y0046075
X00342Y00469
X003253Y004697
X00319326Y004678
X0028325Y0047925
X00258Y0049425
X002545Y0050075
X00259Y0050725
X00677Y01206
X00703Y012085
Y01214
X0070295Y01219
X00703Y011915
X007354Y01192
Y01197
X007524Y011995
Y012045
X00571Y01048
X0056Y01021
X00545583Y01028917
X00529417Y01028918
X00224387Y01141546
X00214886Y01141796
X00206625Y011425
Y01149
X00188375
Y011555
Y0116025
X00184625Y01159
X00188375Y01177
Y011835
Y0118825
X00184625Y011865
X00206625Y01177
Y011705
X00215Y01168875
X0022425Y01168375
X0013475Y0121225
X00122Y01202
X0011605Y012335
X00116Y012385
Y01244
X000866Y01248
Y01253
Y01072
Y01067
X001036Y010745
Y010795
X00116Y0108
X00116Y01063
Y010575
X0011605Y010525
X0011625Y01261
X001036Y012605
X001035Y012555
M30
