M48
;Layer_Color=9474304
;FILE_FORMAT=4:4
METRIC,LZ
;TYPE=PLATED
T01F00S00C0.1000
%
T01
X00303Y00158
X00305Y00186
X00406Y00224
X00425Y0028875
X00429
X004225Y002995
X00423Y00312
X004295
X00438Y0031275
X004425Y00312
X00449236Y00312236
X0045125Y003195
X0045775
Y00326
X0045125
Y003325
Y00339
X00452Y00345
Y00351
Y00357
X00458Y00353
X0045775Y003625
Y00369
X0045125
Y003755
X0045775
Y00382
X0045125
Y003885
Y00395
X0044475
Y003885
X00438707Y00396007
X0043225Y0039575
X0042525Y0039475
X004201Y003881
X0042025Y00377
X004197Y003728
X004201Y003684
X0042025Y003575
X0042675
X0043325
X0043975
X00439686Y00344064
X00433186
X00426686
X004205Y0034325
X0041325Y003435
X00407078Y00343718
X00406689Y00350689
X00400129Y0034425
X0038875Y003455
X0038225
Y00339
X00388574Y00339069
X0038875Y003325
X00394391Y00332014
X0039525Y00326
X0040175
Y00319564
X0039525Y003195
X0038875
X0038225
Y00326
X0038875
X0038225Y003325
X0037475Y0033475
Y0032825
Y0032175
X00378Y00312
X003845
X00391
X003975
X00404Y0031175
X00411264Y00312
X0040875Y00319564
X0040842Y00325816
X0042Y0032625
X0042122Y00319174
X0043175Y003195
Y00326
X0043825
X00438314Y00332436
X00444814
X0044475Y00326
Y003195
X0043825
X00439Y00307
X00457Y0031
X0046525Y0031525
Y0032175
Y0032825
X00468Y00335
X0047Y00339
X00464945Y00338718
X00458Y00338
X00459Y00344
X0046525Y0036025
Y0036675
Y0037325
Y0037975
Y0038625
X004585Y0038825
X0045847Y00396267
X0046425Y0039475
X00465Y0040575
X004555Y004025
X00449
X0043925Y0040525
X00436Y004025
X004295
X00423Y004095
X004105Y004025
X00404
X003975
X00391
X003845
X00375402Y0040272
X0037575Y00395
X0038225
Y003885
X0038875
Y00395
X0039525
Y003885
X0040175
X0040175Y00395
X0040825
X00408716Y00389079
X0040675Y00377
X004Y0037725
X00400076Y00370326
X004Y0036375
Y0035725
X0041325Y003575
Y00364
X0038875Y003625
X0038225
Y00369
Y003755
X0038875
Y00382
X0038225
X00374986Y00379986
X0037475Y0038625
X00374275Y00372775
X0037475Y0036603
Y0036009
Y0034775
Y0034125
X00388814Y00369
X0042675Y00377
X004265Y0038325
X00433
X0043325Y00377
X0043975
X0045575Y0041375
X0046875Y00417
X004645Y004305
X0046025Y0043425
X004735Y00432
X0047025Y004575
X0044775Y00448
X004415Y00435
X00435Y0045725
X0041375Y0045225
X0041175Y00439
X004085Y00426
X0041225Y004195
X00381Y0041725
X0037775Y00409
X003385Y003875
X00342Y0038325
X003371Y003785
X0033925Y003735
X0033757Y0031247
X0036525Y00298
X00362Y0028725
X0027692Y0036183
X00269669Y00391
X00265569
X00268Y00405
X00271957Y00406073
X00265829Y00414385
X0026725Y00419
X00271Y004375
X0027125Y0044175
X002605Y004435
X00256Y0044075
X00254Y00434
X0025747Y00451934
X00258Y00456
X00289Y00457
X00293Y00454
X00296Y00451
X00301Y00443
X00302Y00438
X00298
Y0043
X00294
X00291Y0042225
X00301
X00298Y00415
X00294
X0029Y00438
X00286
X00309Y00434
X00306Y0043
X00317Y00429
X00319723Y00433
X00314Y00441
X00311Y00444
X00473Y00155
X00224Y00352
X00216Y00361
X00225Y003722
X002335Y0041525
Y0041975
X002285Y0042825
X002235
X002185
X002135
X002085
X002035
X00196Y0043725
X00187Y00419
X00243Y00432
X00248Y0043
X002495Y004395
X00233Y0045335
X0025025Y0048325
X00238Y005005
Y00552
X002225Y00555
X002125
X002025
X001925
X001975Y00568324
X002075Y005685
X002175
X002275Y00562
X0023425Y005775
X002275Y00589
X002175
X002075
X002125Y00601
X002225
X002025
X001925
X00193Y00595
X00189Y00608
X001785Y0062325
X00181Y00633
X00241Y006335
X00247Y00623
X002502Y006079
X00213Y00534
X0026375Y00537
X0026125Y005405
X002595Y00555
X002645Y00562
X002545
Y00589
X002645
X002745
X002695Y00601
X002595
X0029025Y0057475
X002895Y00562
X0029825Y00555
X00331219Y005595
X00353719Y0056
X00359969Y00563
X00360719Y0058
X00357219Y0059075
X00348969Y0059725
X00370469Y0059925
X00375969Y00594
X00391969Y005865
X0039508Y00579111
X00400969Y0057225
X0039925Y005625
X00388969Y0056375
X00389969Y005375
X00368969Y00574
X00346469Y0057425
X00407969Y0057825
X00433219Y0057625
X00434469Y005835
X00444781Y0058275
X00441719Y005735
X00429219Y0056825
X00454219Y005655
X00459969Y00575
X0047025Y0058175
X00474719Y0058825
X00470469Y0060225
X00462219Y0059625
X0043825Y0059275
X00482826Y006068
X00477219Y00613
X00503219Y0059375
X00507469Y00589
X00508719Y005795
X005Y005835
X00489719Y005695
X00519969Y0056775
X00514719Y0059325
X005518Y0060675
X005553Y00613
X00559969Y0058075
X0055805Y0066475
X0055025Y006685
X005503Y006759
X0055075Y0068025
X0055125Y0068725
X0052775Y0068625
Y0068
Y00675
X00528Y006685
X0049875
X004985Y00675
Y0068
Y0068625
X0046925
Y0068
Y00675
X004695Y006685
X0044025
X0044Y00675
Y0068
Y0068625
X0044775Y0070725
X0044Y0072
X00432
Y00728
X00448
X00456
Y00736
X00448
X00464
Y00728
X004705Y007215
X0048Y0072
Y00728
X0049425Y0072775
X00472Y00736
Y00744
X00476Y00772
X0048Y00776
X00464
X00456Y00776
X00448
Y00768
X0045475Y00768
X004385Y0076975
Y007775
X0044Y00784
X004305Y007855
X00432Y00776
X004
X00392
X00391Y0078325
X00374126Y00784
X00376Y00792
X00384211Y00798461
X003935Y0079875
X004015Y0079775
X0041Y007985
X00419Y00798
X0045625Y007985
X00465Y007925
X00472Y00792
X0049675Y0076725
X00456Y0072
X003935Y007215
X003883Y0072
X00391Y00728513
X003915Y007365
X003985Y007345
X004015Y0072975
X0037525Y0073625
X00368Y00736
X00369Y00745
X0037475
X00376Y00768
X003951Y00767561
X0036Y00776
Y00784
X00345Y0078
X0034575Y0076775
X0034575Y007505
X0035475Y0072525
X0036Y0072
X00377Y00719
X003815Y0068625
Y0068
Y00675
X0038175Y006685
X003525
X0035225Y00675
Y0068
Y0068625
X00323
Y0068
Y00675
X0032325Y006685
X00411
X0041075Y00675
Y0068
Y0068625
X0036725Y0079875
X004645Y0055375
X0048325Y0046575
X004913Y004708
X00345Y00469
X00323Y00472
X00318Y00471
X002755Y004635
X0027075
X00258Y0049125
X002545Y0050475
X00259Y0051025
X007064Y01214
X0070635Y01219
X00732Y01192
X007388Y01197
X00749Y011995
Y012045
X00535Y0103
X002245Y01146
X00215Y0114575
X00203Y011425
X0020275Y01149
X001925
X00192Y011555
Y0116025
X001845Y011625
X0019225Y01177
X001925Y0118325
Y0118825
X0018475Y011895
X00203Y01177
X002035Y0117075
X00215Y011725
X0022425Y0117225
X001115Y012335
Y0123875
X0009075Y01248
X0009Y01253
X0009025Y01072
X0009Y01067
X0009975Y0107425
X0010675Y010795
X001125Y010575
X0011225Y0105275
X001075Y012605
X001Y012555
M30
