M48
;Layer_Color=9474304
;FILE_FORMAT=4:4
METRIC,LZ
;TYPE=PLATED
T01F00S00C0.1000
%
T01
X00276Y00359
X0027775Y004285
X00278Y0043425
Y00445
X00271Y0044775
X00291Y00455
X00297Y00454
X0031Y00444
Y00439
Y00434
Y00428
X0032725Y004305
X0032525Y00458
X00368Y0041175
X0037625Y0040925
X00375Y00393
Y00382
Y00371
Y0036
X00378Y00348
X00379Y00337
Y00326
X00404Y00334
X00403Y00343
Y00352
X00411Y00358
X00423
X00435
X00446Y00354
Y00346
Y00339
X0043Y00335
X00424
X00415
X00423Y00326
X0042025Y0031025
X00424Y002975
X00429Y00297
X00437Y00315
X00448
X00459
X00475Y00318
X00485
Y00328
Y00338
Y00348
Y00358
Y00368
X00475
Y00358
Y00348
Y00338
Y00328
X00469Y00344
X00463Y00362
X00456Y00366
X00442Y00373
X00439Y00379
X0043Y0038
X00423Y00371
X0041Y0037
X00407Y00381
X00403Y00379
X00397
Y00372
X0040275Y00401213
X00414Y00401
X00424Y00402
X00434Y00401
X00465Y00393
X0047125Y00395
X00465Y00382
X0046825Y0041225
X00512Y00394
X0038175Y00424713
X003523Y003727
X00368Y0030025
X004085Y003045
X00573Y00263
X005961Y002512
X00587161Y00238727
X0062925Y0025325
X00188Y002525
Y002375
Y002225
Y002675
Y002825
Y002975
Y003125
Y003275
Y003425
Y00363
X001865Y003876
Y004026
X001865Y004076
Y004126
X001875Y0042735
X001795Y004425
X0020365Y004515
X0020775
X002255Y004465
X002296
X00241584Y00428352
X00245684
X002305Y004165
X0022225Y0041525
X002325Y003825
X00164Y00373
X00162Y00403
X00162638Y00411638
X000403Y003343
X0020425Y0049925
X0021425Y00507
X0022425Y00507
X0023425Y00507
X0024425
X0023925Y00514
Y005215
X00234Y0052175
X00234099Y00527191
X00228538Y00527119
X002285Y005215
X00222868Y00521303
X00218Y005215
X0021825Y0052725
X00223
X0021075Y005265
X0021925Y00514
X0022925
X0024925
X002445Y0052175
X0024475Y0052725
X0024
X0023925Y0053425
X0025275Y005265
X0024775Y005515
X002225Y00552
X002125
X002025
X00205Y00542
X002175Y0057575
X002295Y00567
X00244Y006335
X00265Y005995
Y005895
X002645Y00565
X002545
X002875Y00567
X0025775Y005215
X002715Y004795
X00291Y00471
Y00466
Y00461
X00295Y0046
X00297Y00465
Y0047
X0032675Y0047025
X00364Y00732
Y0074
X00388Y00716
X00396
X00444Y00748
Y00756
X00468Y0074
Y00732
M30
