G04*
G04 #@! TF.GenerationSoftware,Altium Limited,Altium Designer,25.4.2 (15)*
G04*
G04 Layer_Color=8421504*
%FSLAX44Y44*%
%MOMM*%
G71*
G04*
G04 #@! TF.SameCoordinates,7C99B284-FF09-413E-A234-C8B37CAA4CCF*
G04*
G04*
G04 #@! TF.FilePolarity,Positive*
G04*
G01*
G75*
%ADD10R,0.6000X0.4000*%
%ADD11R,0.4000X0.6000*%
%ADD12R,0.5000X0.4500*%
%ADD13R,0.5400X0.6200*%
%ADD14R,0.6600X1.1700*%
%ADD15R,1.9300X0.6600*%
%ADD16R,3.0800X3.2000*%
%ADD17R,0.8500X0.5130*%
%ADD18R,0.2250X0.2000*%
%ADD19R,2.6900X0.6400*%
%ADD20R,3.5000X3.5000*%
%ADD21R,0.8000X0.1500*%
%ADD22R,0.1500X0.8000*%
%ADD23R,0.1600X0.7700*%
%ADD24R,0.3100X0.7700*%
%ADD25R,0.7700X0.1600*%
%ADD26R,0.7700X0.3100*%
%ADD27C,0.2500*%
%ADD28R,0.7000X0.7000*%
%ADD29R,0.7000X0.7000*%
%ADD30R,0.6200X0.5400*%
%ADD31R,0.7500X0.6500*%
%ADD32C,0.1000*%
%ADD33R,0.9700X2.9000*%
%ADD34R,0.7000X0.9000*%
%ADD35R,2.2200X0.9000*%
%ADD36R,0.7500X0.8500*%
%ADD37R,0.8500X0.7500*%
%ADD38R,0.4500X0.5000*%
%ADD39C,0.3000*%
%ADD40R,1.4000X1.1000*%
%ADD41R,0.9500X0.9000*%
%ADD42R,0.3200X0.2000*%
%ADD43R,0.2000X0.3200*%
%ADD44R,0.6000X0.2000*%
%ADD45R,0.5750X0.1000*%
%ADD46R,2.4000X1.6000*%
%ADD47R,0.5500X0.9000*%
%ADD48R,0.2000X0.2000*%
%ADD49R,0.9000X2.5000*%
%ADD50R,3.4000X0.9000*%
%ADD51R,1.3000X2.7000*%
%ADD52R,1.9000X0.9000*%
%ADD53R,1.4500X1.2000*%
%ADD54R,2.1400X1.3200*%
%ADD55R,0.1400X0.8000*%
%ADD56R,0.8000X0.1400*%
%ADD57R,1.5000X0.3100*%
%ADD58R,1.3300X0.9500*%
%ADD59R,1.0000X1.8000*%
%ADD60R,0.1000X0.4000*%
%ADD61R,0.4000X0.1000*%
%ADD62R,0.5000X0.1000*%
%ADD63R,1.1000X0.9000*%
%ADD64R,0.3650X0.1100*%
%ADD65R,0.1100X0.2900*%
%ADD66R,0.1100X0.3650*%
%ADD67R,0.1100X0.4650*%
%ADD68R,3.0800X1.1700*%
%ADD69R,1.2000X1.7000*%
%ADD70R,0.1500X0.5000*%
%ADD71R,1.5500X1.7000*%
%ADD72R,1.7000X1.2000*%
%ADD73R,0.3600X0.5500*%
%ADD74R,1.3500X0.2000*%
%ADD75R,0.2000X1.3500*%
%ADD76R,2.9000X0.9000*%
%ADD77R,1.1500X1.6500*%
%ADD78R,1.6000X2.4000*%
%ADD79R,0.7500X0.1500*%
%ADD80R,0.1500X0.7500*%
%ADD81R,5.1000X5.1000*%
%ADD82R,1.5000X1.9000*%
%ADD83R,0.6500X0.3000*%
%ADD84R,0.5500X0.3600*%
%ADD85R,3.7000X1.9300*%
%ADD86R,0.4000X0.3250*%
%ADD87R,0.4000X0.1500*%
G36*
X407554Y1367642D02*
X407767Y1367541D01*
X407925Y1367366D01*
X408004Y1367143D01*
X407998Y1367026D01*
X407999Y1367013D01*
X407998Y1367000D01*
Y1365375D01*
Y1365260D01*
X407938Y1365038D01*
X407823Y1364839D01*
X407661Y1364677D01*
X407462Y1364562D01*
X407240Y1364502D01*
X407010D01*
X406788Y1364562D01*
X406589Y1364677D01*
X406427Y1364839D01*
X406312Y1365038D01*
X406252Y1365260D01*
Y1365375D01*
Y1365850D01*
X406243Y1365948D01*
X406214Y1366042D01*
X406168Y1366129D01*
X406105Y1366205D01*
X406029Y1366268D01*
X405942Y1366314D01*
X405848Y1366343D01*
X405750Y1366352D01*
X403502D01*
Y1367648D01*
X407449D01*
X407554Y1367642D01*
D02*
G37*
G36*
X407717Y1372549D02*
X407899Y1372367D01*
X407998Y1372129D01*
Y1372000D01*
Y1371871D01*
X407899Y1371633D01*
X407717Y1371451D01*
X407479Y1371352D01*
X403502D01*
Y1372647D01*
X407479D01*
X407717Y1372549D01*
D02*
G37*
G36*
Y1377549D02*
X407899Y1377367D01*
X407998Y1377129D01*
Y1377000D01*
Y1376871D01*
X407899Y1376633D01*
X407717Y1376451D01*
X407479Y1376352D01*
X403502D01*
Y1377648D01*
X407479D01*
X407717Y1377549D01*
D02*
G37*
G36*
Y1382549D02*
X407899Y1382367D01*
X407998Y1382129D01*
Y1382000D01*
Y1381871D01*
X407899Y1381633D01*
X407717Y1381451D01*
X407479Y1381352D01*
X403502D01*
Y1382648D01*
X407479D01*
X407717Y1382549D01*
D02*
G37*
G36*
X407241Y1389497D02*
X407463Y1389438D01*
X407662Y1389323D01*
X407825Y1389160D01*
X407939Y1388962D01*
X407999Y1388740D01*
Y1388625D01*
Y1387000D01*
X408000Y1386987D01*
X408000Y1386974D01*
X408006Y1386856D01*
X407927Y1386634D01*
X407769Y1386459D01*
X407556Y1386358D01*
X407451Y1386352D01*
X403504D01*
Y1387647D01*
X405751D01*
X405849Y1387657D01*
X405944Y1387686D01*
X406031Y1387732D01*
X406107Y1387795D01*
X406169Y1387871D01*
X406216Y1387958D01*
X406244Y1388052D01*
X406254Y1388150D01*
Y1388625D01*
Y1388740D01*
X406313Y1388962D01*
X406428Y1389161D01*
X406591Y1389323D01*
X406790Y1389438D01*
X407011Y1389497D01*
X407241Y1389497D01*
D02*
G37*
G36*
X436499Y1366352D02*
X434251D01*
X434153Y1366343D01*
X434059Y1366314D01*
X433972Y1366268D01*
X433896Y1366205D01*
X433834Y1366129D01*
X433787Y1366042D01*
X433759Y1365948D01*
X433749Y1365850D01*
Y1365375D01*
Y1365260D01*
X433689Y1365038D01*
X433575Y1364839D01*
X433412Y1364677D01*
X433213Y1364562D01*
X432991Y1364502D01*
X432761D01*
X432539Y1364562D01*
X432341Y1364677D01*
X432178Y1364839D01*
X432063Y1365038D01*
X432004Y1365260D01*
Y1365375D01*
Y1367000D01*
X432002Y1367013D01*
X432003Y1367026D01*
X431997Y1367143D01*
X432076Y1367366D01*
X432234Y1367541D01*
X432447Y1367642D01*
X432552Y1367648D01*
X436499D01*
Y1366352D01*
D02*
G37*
G36*
X436497Y1371352D02*
X432521D01*
X432283Y1371451D01*
X432101Y1371633D01*
X432002Y1371871D01*
Y1372000D01*
Y1372129D01*
X432101Y1372367D01*
X432283Y1372549D01*
X432521Y1372647D01*
X436497D01*
Y1371352D01*
D02*
G37*
G36*
Y1376352D02*
X432521D01*
X432283Y1376451D01*
X432101Y1376633D01*
X432002Y1376871D01*
Y1377000D01*
Y1377129D01*
X432101Y1377367D01*
X432283Y1377549D01*
X432521Y1377648D01*
X436497D01*
Y1376352D01*
D02*
G37*
G36*
Y1381352D02*
X432521D01*
X432283Y1381451D01*
X432101Y1381633D01*
X432002Y1381871D01*
Y1382000D01*
Y1382129D01*
X432101Y1382367D01*
X432283Y1382549D01*
X432521Y1382648D01*
X436497D01*
Y1381352D01*
D02*
G37*
G36*
X433212Y1389438D02*
X433411Y1389323D01*
X433573Y1389161D01*
X433688Y1388962D01*
X433747Y1388740D01*
Y1388625D01*
Y1388150D01*
X433757Y1388052D01*
X433786Y1387958D01*
X433832Y1387871D01*
X433895Y1387795D01*
X433971Y1387732D01*
X434058Y1387686D01*
X434152Y1387657D01*
X434250Y1387647D01*
X436497D01*
Y1386352D01*
X432550D01*
X432445Y1386358D01*
X432233Y1386459D01*
X432075Y1386634D01*
X431996Y1386856D01*
X432002Y1386974D01*
X432001Y1386987D01*
X432002Y1387000D01*
Y1388625D01*
Y1388740D01*
X432062Y1388962D01*
X432177Y1389160D01*
X432339Y1389323D01*
X432538Y1389438D01*
X432760Y1389497D01*
X432990D01*
X433212Y1389438D01*
D02*
G37*
D10*
X226499Y940700D02*
D03*
D11*
X312500Y1740000D02*
D03*
X416500Y1741500D02*
D03*
D12*
X629000Y1152750D02*
D03*
Y1143250D02*
D03*
X122000Y1341250D02*
D03*
Y1350750D02*
D03*
X461250Y968750D02*
D03*
Y978250D02*
D03*
X448000Y1716250D02*
D03*
Y1725750D02*
D03*
X191000Y1098750D02*
D03*
Y1089250D02*
D03*
X182000Y1098750D02*
D03*
Y1089250D02*
D03*
X189000Y1298750D02*
D03*
Y1289250D02*
D03*
X180000Y1298750D02*
D03*
Y1289250D02*
D03*
X464000Y951750D02*
D03*
Y942250D02*
D03*
X276375Y649250D02*
D03*
Y639750D02*
D03*
X267500Y649250D02*
D03*
Y639750D02*
D03*
X421000Y938750D02*
D03*
Y929250D02*
D03*
X218151Y1317750D02*
D03*
Y1308250D02*
D03*
X558000Y1305250D02*
D03*
Y1314750D02*
D03*
X568000D02*
D03*
Y1305250D02*
D03*
X608000Y1277250D02*
D03*
Y1286750D02*
D03*
X578000Y1277250D02*
D03*
Y1286750D02*
D03*
X568000Y1277250D02*
D03*
Y1286750D02*
D03*
X558000Y1277250D02*
D03*
Y1286750D02*
D03*
X513000Y1086250D02*
D03*
Y1095750D02*
D03*
X566000Y1139750D02*
D03*
Y1130250D02*
D03*
X123000Y1104750D02*
D03*
Y1095250D02*
D03*
X260926Y1178250D02*
D03*
Y1168750D02*
D03*
X233177Y1178250D02*
D03*
Y1168750D02*
D03*
X224427D02*
D03*
Y1178250D02*
D03*
X123000Y1218000D02*
D03*
Y1208500D02*
D03*
X193460Y1039700D02*
D03*
Y1030200D02*
D03*
X207500Y917352D02*
D03*
Y907852D02*
D03*
X197500Y927352D02*
D03*
Y917852D02*
D03*
X193460Y1047540D02*
D03*
Y1057040D02*
D03*
X218151Y1110000D02*
D03*
Y1100500D02*
D03*
X248151D02*
D03*
Y1110000D02*
D03*
X260926Y1151250D02*
D03*
Y1141750D02*
D03*
X233177Y1151250D02*
D03*
Y1141750D02*
D03*
X224427D02*
D03*
Y1151250D02*
D03*
X244500Y963950D02*
D03*
Y973450D02*
D03*
X254500D02*
D03*
Y963950D02*
D03*
X248000Y1016000D02*
D03*
Y1006500D02*
D03*
X258000D02*
D03*
Y1016000D02*
D03*
X258151Y1100500D02*
D03*
Y1110000D02*
D03*
X268151Y1100500D02*
D03*
Y1110000D02*
D03*
X240500Y912450D02*
D03*
Y902950D02*
D03*
X269500Y935450D02*
D03*
Y925950D02*
D03*
X226500Y968950D02*
D03*
Y978450D02*
D03*
X487555Y984572D02*
D03*
Y975072D02*
D03*
X565000Y1038250D02*
D03*
Y1047750D02*
D03*
Y1030750D02*
D03*
Y1021250D02*
D03*
X671000Y1220250D02*
D03*
Y1229750D02*
D03*
Y1212750D02*
D03*
Y1203250D02*
D03*
X540000Y952750D02*
D03*
Y943250D02*
D03*
X526000Y952750D02*
D03*
Y943250D02*
D03*
X502000Y952750D02*
D03*
Y943250D02*
D03*
X133000Y1504537D02*
D03*
Y1495037D02*
D03*
Y1429750D02*
D03*
Y1420250D02*
D03*
X144460Y1557250D02*
D03*
Y1566750D02*
D03*
X390000Y1381750D02*
D03*
Y1372250D02*
D03*
X165000Y1348250D02*
D03*
Y1357750D02*
D03*
X563500Y1754000D02*
D03*
Y1763500D02*
D03*
X248000Y1223750D02*
D03*
Y1214250D02*
D03*
X258000Y1223750D02*
D03*
Y1214250D02*
D03*
X258151Y1308250D02*
D03*
Y1317750D02*
D03*
X193460Y1247450D02*
D03*
Y1237950D02*
D03*
X473000Y951750D02*
D03*
Y942250D02*
D03*
X193460Y1255290D02*
D03*
Y1264790D02*
D03*
X268151Y1308250D02*
D03*
Y1317750D02*
D03*
X248151Y1308250D02*
D03*
Y1317750D02*
D03*
X470000Y906250D02*
D03*
Y915750D02*
D03*
X638000Y1143250D02*
D03*
Y1152750D02*
D03*
X647000D02*
D03*
Y1143250D02*
D03*
X588000Y1277250D02*
D03*
Y1286750D02*
D03*
D13*
X428000Y918000D02*
D03*
X418000D02*
D03*
X431000Y948000D02*
D03*
X421000D02*
D03*
X549000Y1152000D02*
D03*
X539000D02*
D03*
X218000Y1016250D02*
D03*
X228000D02*
D03*
X510000Y965000D02*
D03*
X500000D02*
D03*
X453000Y708750D02*
D03*
X443000D02*
D03*
X597000Y1151000D02*
D03*
X607000D02*
D03*
X587000D02*
D03*
X577000D02*
D03*
X419000Y804000D02*
D03*
X409000D02*
D03*
X369000D02*
D03*
X379000D02*
D03*
X399000D02*
D03*
X389000D02*
D03*
X414000Y1023085D02*
D03*
X424000D02*
D03*
X429000Y968000D02*
D03*
X439000D02*
D03*
X414000Y1033000D02*
D03*
X424000D02*
D03*
X448750Y1089000D02*
D03*
X458750D02*
D03*
X424000Y1054835D02*
D03*
X434000D02*
D03*
X542000Y1081000D02*
D03*
X532000D02*
D03*
X562000Y1088000D02*
D03*
X552000D02*
D03*
X547000Y991000D02*
D03*
X537000D02*
D03*
X274000Y468000D02*
D03*
X284000D02*
D03*
X539000Y1029000D02*
D03*
X529000D02*
D03*
X547000Y1062000D02*
D03*
X537000D02*
D03*
X325000Y1785000D02*
D03*
X335000D02*
D03*
X548000Y1782000D02*
D03*
X558000D02*
D03*
X393000Y1398676D02*
D03*
X403000D02*
D03*
X402500Y1355426D02*
D03*
X412500D02*
D03*
X411500Y1713500D02*
D03*
X421500D02*
D03*
X307500Y1712000D02*
D03*
X317500D02*
D03*
X440000Y804000D02*
D03*
X450000D02*
D03*
X470000D02*
D03*
X460000D02*
D03*
X426000Y1818000D02*
D03*
X436000D02*
D03*
X386000Y219000D02*
D03*
X396000D02*
D03*
X375000D02*
D03*
X365000D02*
D03*
X228000Y1224000D02*
D03*
X218000D02*
D03*
X429000Y979000D02*
D03*
X439000D02*
D03*
X424000Y1064000D02*
D03*
X434000D02*
D03*
X448750Y1100000D02*
D03*
X458750D02*
D03*
X547000Y980000D02*
D03*
X537000D02*
D03*
X273000Y479000D02*
D03*
X283000D02*
D03*
X436000Y1355426D02*
D03*
X426000D02*
D03*
X402500Y1335426D02*
D03*
X412500D02*
D03*
X228000Y1006250D02*
D03*
X218000D02*
D03*
X426000Y1345301D02*
D03*
X436000D02*
D03*
X412500Y1345426D02*
D03*
X402500D02*
D03*
X218000Y1214000D02*
D03*
X228000D02*
D03*
D14*
X309910Y979100D02*
D03*
X322610D02*
D03*
X335310D02*
D03*
X348010D02*
D03*
X360710D02*
D03*
X373410D02*
D03*
X386110D02*
D03*
X398810D02*
D03*
Y902900D02*
D03*
X386110D02*
D03*
X373410D02*
D03*
X360710D02*
D03*
X322610D02*
D03*
X309910D02*
D03*
X335310D02*
D03*
X348010D02*
D03*
D15*
X613600Y1076150D02*
D03*
Y1063450D02*
D03*
Y1050750D02*
D03*
Y1038050D02*
D03*
Y1025350D02*
D03*
Y1012650D02*
D03*
Y999950D02*
D03*
Y987250D02*
D03*
Y974550D02*
D03*
Y961850D02*
D03*
D16*
X730400Y927550D02*
D03*
Y1110450D02*
D03*
D17*
X197500Y1153665D02*
D03*
Y1144335D02*
D03*
X197500Y1172335D02*
D03*
Y1181665D02*
D03*
D18*
X188370Y1155500D02*
D03*
Y1149000D02*
D03*
Y1142500D02*
D03*
X206630Y1155500D02*
D03*
X206625Y1149000D02*
D03*
X206630Y1142500D02*
D03*
X206630Y1170500D02*
D03*
Y1177000D02*
D03*
Y1183500D02*
D03*
X188370Y1170500D02*
D03*
X188375Y1177000D02*
D03*
X188370Y1183500D02*
D03*
D19*
X759650Y1516050D02*
D03*
Y1503350D02*
D03*
Y1528750D02*
D03*
Y1541450D02*
D03*
Y1554150D02*
D03*
Y1452550D02*
D03*
X800350Y1503350D02*
D03*
Y1516050D02*
D03*
Y1528750D02*
D03*
Y1541450D02*
D03*
Y1554150D02*
D03*
X800350Y1439850D02*
D03*
X759650D02*
D03*
X800350Y1452550D02*
D03*
Y1465250D02*
D03*
X759650D02*
D03*
X800350Y1477950D02*
D03*
X759650D02*
D03*
X800350Y1490650D02*
D03*
X759650D02*
D03*
X800223Y1330127D02*
D03*
Y1342827D02*
D03*
Y1317427D02*
D03*
Y1355527D02*
D03*
Y1304727D02*
D03*
X759523Y1317427D02*
D03*
Y1342827D02*
D03*
Y1355527D02*
D03*
Y1330127D02*
D03*
Y1304727D02*
D03*
D20*
X230000Y1272000D02*
D03*
X230000Y1064250D02*
D03*
D21*
X254500Y1289500D02*
D03*
Y1284500D02*
D03*
Y1279500D02*
D03*
Y1274500D02*
D03*
Y1269500D02*
D03*
Y1264500D02*
D03*
Y1259500D02*
D03*
Y1254500D02*
D03*
X205500D02*
D03*
Y1259500D02*
D03*
Y1264500D02*
D03*
Y1269500D02*
D03*
Y1274500D02*
D03*
Y1279500D02*
D03*
Y1284500D02*
D03*
Y1289500D02*
D03*
X254500Y1081750D02*
D03*
Y1076750D02*
D03*
Y1071750D02*
D03*
Y1066750D02*
D03*
Y1061750D02*
D03*
Y1056750D02*
D03*
Y1051750D02*
D03*
Y1046750D02*
D03*
X205500D02*
D03*
Y1051750D02*
D03*
Y1056750D02*
D03*
Y1061750D02*
D03*
Y1066750D02*
D03*
Y1071750D02*
D03*
Y1076750D02*
D03*
Y1081750D02*
D03*
X231500Y611500D02*
D03*
Y616500D02*
D03*
X188500Y611500D02*
D03*
Y616500D02*
D03*
X293500Y611500D02*
D03*
Y616500D02*
D03*
X250500Y611500D02*
D03*
Y616500D02*
D03*
X293500Y577500D02*
D03*
Y572500D02*
D03*
X250500D02*
D03*
Y577500D02*
D03*
X237500Y410500D02*
D03*
Y415500D02*
D03*
X194500Y410500D02*
D03*
Y415500D02*
D03*
X237000Y458600D02*
D03*
Y463600D02*
D03*
X194000Y458600D02*
D03*
Y463600D02*
D03*
X231500Y572500D02*
D03*
Y577500D02*
D03*
X188500Y572500D02*
D03*
Y577500D02*
D03*
D22*
X247500Y1247500D02*
D03*
X242500D02*
D03*
X237500D02*
D03*
X232500D02*
D03*
X227500D02*
D03*
X222500D02*
D03*
X217500D02*
D03*
X212500D02*
D03*
Y1296500D02*
D03*
X217500D02*
D03*
X222500D02*
D03*
X227500D02*
D03*
X232500D02*
D03*
X237500D02*
D03*
X242500D02*
D03*
X247500D02*
D03*
X247500Y1039750D02*
D03*
X242500D02*
D03*
X237500D02*
D03*
X232500D02*
D03*
X227500D02*
D03*
X222500D02*
D03*
X217500D02*
D03*
X212500D02*
D03*
Y1088750D02*
D03*
X217500D02*
D03*
X222500D02*
D03*
X227500D02*
D03*
X232500D02*
D03*
X237500D02*
D03*
X242500D02*
D03*
X247500D02*
D03*
X227500Y625500D02*
D03*
X222500D02*
D03*
X207500D02*
D03*
X212500D02*
D03*
X202500D02*
D03*
X217500D02*
D03*
Y602500D02*
D03*
X227500D02*
D03*
X222500D02*
D03*
X202500D02*
D03*
X197500D02*
D03*
X212500D02*
D03*
X207500D02*
D03*
X192500Y625500D02*
D03*
X197500D02*
D03*
X192500Y602500D02*
D03*
X289500Y625500D02*
D03*
X274500D02*
D03*
X279500D02*
D03*
X269500D02*
D03*
X284500D02*
D03*
X289500Y602500D02*
D03*
X274500D02*
D03*
X269500D02*
D03*
X284500D02*
D03*
X279500D02*
D03*
X264500Y625500D02*
D03*
X254500D02*
D03*
X259500D02*
D03*
X264500Y602500D02*
D03*
X259500D02*
D03*
X254500D02*
D03*
X279500Y586500D02*
D03*
X284500D02*
D03*
X274500D02*
D03*
X289500D02*
D03*
X274500Y563500D02*
D03*
X279500D02*
D03*
X269500D02*
D03*
X289500D02*
D03*
X284500D02*
D03*
X269500Y586500D02*
D03*
X259500D02*
D03*
X264500D02*
D03*
X254500D02*
D03*
X259500Y563500D02*
D03*
X264500D02*
D03*
X254500D02*
D03*
X233500Y424500D02*
D03*
X228500D02*
D03*
X213500D02*
D03*
X218500D02*
D03*
X208500D02*
D03*
X223500D02*
D03*
X233500Y401500D02*
D03*
X228500D02*
D03*
X213500D02*
D03*
X208500D02*
D03*
X223500D02*
D03*
X218500D02*
D03*
X198500Y424500D02*
D03*
X203500D02*
D03*
X198500Y401500D02*
D03*
X203500D02*
D03*
X233000Y472600D02*
D03*
X228000D02*
D03*
X213000D02*
D03*
X218000D02*
D03*
X208000D02*
D03*
X223000D02*
D03*
X233000Y449600D02*
D03*
X228000D02*
D03*
X213000D02*
D03*
X208000D02*
D03*
X223000D02*
D03*
X218000D02*
D03*
X198000Y472600D02*
D03*
X203000D02*
D03*
X198000Y449600D02*
D03*
X203000D02*
D03*
X227500Y586500D02*
D03*
X222500D02*
D03*
X212500D02*
D03*
X217500D02*
D03*
X207500D02*
D03*
X227500Y563500D02*
D03*
X207500D02*
D03*
X212500D02*
D03*
X202500D02*
D03*
X222500D02*
D03*
X217500D02*
D03*
X197500Y586500D02*
D03*
X202500D02*
D03*
X192500D02*
D03*
X197500Y563500D02*
D03*
X192500D02*
D03*
D23*
X476500Y634950D02*
D03*
X471500D02*
D03*
X476500Y646550D02*
D03*
X471500D02*
D03*
X436750Y634700D02*
D03*
X431750D02*
D03*
X436750Y646300D02*
D03*
X431750D02*
D03*
X397032Y634500D02*
D03*
X392032D02*
D03*
X397032Y646100D02*
D03*
X392032D02*
D03*
X357000Y634200D02*
D03*
X352000D02*
D03*
X357000Y645800D02*
D03*
X352000D02*
D03*
X231500Y639200D02*
D03*
X226500D02*
D03*
X231500Y650800D02*
D03*
X226500D02*
D03*
X205500Y639200D02*
D03*
X200500D02*
D03*
X205500Y650800D02*
D03*
X200500D02*
D03*
D24*
X482250Y634950D02*
D03*
Y646550D02*
D03*
X465750Y634950D02*
D03*
Y646550D02*
D03*
X442500Y634700D02*
D03*
Y646300D02*
D03*
X426000Y634700D02*
D03*
Y646300D02*
D03*
X402782Y634500D02*
D03*
Y646100D02*
D03*
X386282Y634500D02*
D03*
Y646100D02*
D03*
X362750Y634200D02*
D03*
Y645800D02*
D03*
X346250Y634200D02*
D03*
Y645800D02*
D03*
X237250Y639200D02*
D03*
Y650800D02*
D03*
X220750Y639200D02*
D03*
Y650800D02*
D03*
X211250Y639200D02*
D03*
Y650800D02*
D03*
X194750Y639200D02*
D03*
Y650800D02*
D03*
D25*
X555300Y680000D02*
D03*
Y675000D02*
D03*
X543700Y680000D02*
D03*
Y675000D02*
D03*
X526050Y680000D02*
D03*
Y675001D02*
D03*
X514450Y680000D02*
D03*
Y675001D02*
D03*
X467550Y680000D02*
D03*
Y675000D02*
D03*
X455950Y680000D02*
D03*
Y675000D02*
D03*
X496800Y680000D02*
D03*
Y675000D02*
D03*
X485200Y680000D02*
D03*
Y675000D02*
D03*
X409050Y680000D02*
D03*
Y675000D02*
D03*
X397450Y680000D02*
D03*
Y675000D02*
D03*
X350550Y680000D02*
D03*
Y675000D02*
D03*
X338950Y680000D02*
D03*
Y675000D02*
D03*
X321300Y680000D02*
D03*
Y675000D02*
D03*
X309700Y680000D02*
D03*
Y675000D02*
D03*
X379800Y680000D02*
D03*
Y675000D02*
D03*
X368200Y680000D02*
D03*
Y675000D02*
D03*
X438300Y680000D02*
D03*
Y675000D02*
D03*
X426700Y680000D02*
D03*
Y675000D02*
D03*
D26*
X555300Y685750D02*
D03*
X543700D02*
D03*
X555300Y669250D02*
D03*
X543700D02*
D03*
X526050Y685750D02*
D03*
X514450D02*
D03*
X526050Y669250D02*
D03*
X514450D02*
D03*
X467550Y685750D02*
D03*
X455950D02*
D03*
X467550Y669250D02*
D03*
X455950D02*
D03*
X496800Y685750D02*
D03*
X485200D02*
D03*
X496800Y669250D02*
D03*
X485200D02*
D03*
X409050Y685750D02*
D03*
X397450D02*
D03*
X409050Y669250D02*
D03*
X397450D02*
D03*
X350550Y685750D02*
D03*
X338950D02*
D03*
X350550Y669250D02*
D03*
X338950D02*
D03*
X321300Y685750D02*
D03*
X309700D02*
D03*
X321300Y669250D02*
D03*
X309700D02*
D03*
X379800Y685750D02*
D03*
X368200D02*
D03*
X379800Y669250D02*
D03*
X368200D02*
D03*
X438300Y685750D02*
D03*
X426700D02*
D03*
X438300Y669250D02*
D03*
X426700D02*
D03*
D27*
X263250Y717000D02*
D03*
X253250D02*
D03*
X243250D02*
D03*
X233250D02*
D03*
X223250D02*
D03*
X263250Y727000D02*
D03*
X253250D02*
D03*
X243250D02*
D03*
X233250D02*
D03*
X223250D02*
D03*
X263250Y737000D02*
D03*
X253250D02*
D03*
X243250D02*
D03*
X233250D02*
D03*
X223250D02*
D03*
X263250Y747000D02*
D03*
X253250D02*
D03*
X243250D02*
D03*
X233250D02*
D03*
X223250D02*
D03*
X263250Y757000D02*
D03*
X253250D02*
D03*
X243250D02*
D03*
X233250D02*
D03*
X472000Y402750D02*
D03*
Y409250D02*
D03*
Y396250D02*
D03*
X465500D02*
D03*
Y389750D02*
D03*
X459000Y409250D02*
D03*
X465500D02*
D03*
X452500D02*
D03*
Y402750D02*
D03*
X465500D02*
D03*
X459000D02*
D03*
Y396250D02*
D03*
X452500D02*
D03*
Y389750D02*
D03*
X472000Y383250D02*
D03*
Y389750D02*
D03*
Y376750D02*
D03*
X465500D02*
D03*
Y370250D02*
D03*
X472000Y363750D02*
D03*
Y370250D02*
D03*
Y357250D02*
D03*
X465500Y363750D02*
D03*
Y357250D02*
D03*
Y383250D02*
D03*
X459000D02*
D03*
Y376750D02*
D03*
Y389750D02*
D03*
X452500Y383250D02*
D03*
X459000Y363750D02*
D03*
Y370250D02*
D03*
Y357250D02*
D03*
X452500Y370250D02*
D03*
Y363750D02*
D03*
X446000Y402750D02*
D03*
Y409250D02*
D03*
X439500Y396250D02*
D03*
Y409250D02*
D03*
Y402750D02*
D03*
X446000Y389750D02*
D03*
Y396250D02*
D03*
Y383250D02*
D03*
X439500Y389750D02*
D03*
Y383250D02*
D03*
X433000Y402750D02*
D03*
Y409250D02*
D03*
X426500Y396250D02*
D03*
Y409250D02*
D03*
Y402750D02*
D03*
X433000Y389750D02*
D03*
Y396250D02*
D03*
Y383250D02*
D03*
X426500Y389750D02*
D03*
Y383250D02*
D03*
X452500Y376750D02*
D03*
X446000D02*
D03*
Y370250D02*
D03*
X439500Y376750D02*
D03*
Y370250D02*
D03*
X446000Y363750D02*
D03*
X439500Y357250D02*
D03*
X446000D02*
D03*
X439500Y363750D02*
D03*
X433000Y357250D02*
D03*
Y376750D02*
D03*
X426500D02*
D03*
Y370250D02*
D03*
X420000Y376750D02*
D03*
Y370250D02*
D03*
X433000Y363750D02*
D03*
Y370250D02*
D03*
X426500Y357250D02*
D03*
X420000Y363750D02*
D03*
X426500D02*
D03*
X472000Y344250D02*
D03*
Y350750D02*
D03*
X465500Y337750D02*
D03*
Y350750D02*
D03*
Y344250D02*
D03*
X472000Y337750D02*
D03*
X465500Y331250D02*
D03*
X459000Y350750D02*
D03*
X452500Y344250D02*
D03*
X459000D02*
D03*
X452500Y357250D02*
D03*
Y350750D02*
D03*
X459000Y337750D02*
D03*
X452500Y331250D02*
D03*
X459000D02*
D03*
X446000Y337750D02*
D03*
X452500D02*
D03*
X472000Y324750D02*
D03*
Y331250D02*
D03*
Y318250D02*
D03*
X465500Y324750D02*
D03*
Y318250D02*
D03*
X472000Y311750D02*
D03*
X465500Y305250D02*
D03*
X472000D02*
D03*
X465500Y311750D02*
D03*
X459000Y305250D02*
D03*
Y324750D02*
D03*
X452500Y318250D02*
D03*
X459000D02*
D03*
X446000Y324750D02*
D03*
X452500D02*
D03*
X459000Y311750D02*
D03*
X452500Y305250D02*
D03*
X446000Y311750D02*
D03*
X452500D02*
D03*
X446000Y350750D02*
D03*
X439500D02*
D03*
Y344250D02*
D03*
X433000Y350750D02*
D03*
Y344250D02*
D03*
X446000D02*
D03*
X439500Y337750D02*
D03*
Y331250D02*
D03*
X433000Y337750D02*
D03*
Y331250D02*
D03*
X426500Y350750D02*
D03*
X420000D02*
D03*
Y344250D02*
D03*
Y357250D02*
D03*
X426500Y337750D02*
D03*
Y344250D02*
D03*
Y331250D02*
D03*
X420000Y337750D02*
D03*
Y331250D02*
D03*
X446000D02*
D03*
X439500Y318250D02*
D03*
X446000D02*
D03*
X439500Y324750D02*
D03*
X433000Y318250D02*
D03*
X439500Y305250D02*
D03*
Y311750D02*
D03*
X446000Y305250D02*
D03*
X433000Y311750D02*
D03*
Y305250D02*
D03*
Y324750D02*
D03*
X426500D02*
D03*
Y318250D02*
D03*
X420000Y324750D02*
D03*
Y318250D02*
D03*
X426500Y305250D02*
D03*
X420000Y311750D02*
D03*
X426500D02*
D03*
X420000Y409250D02*
D03*
X413500Y402750D02*
D03*
X420000D02*
D03*
X413500Y409250D02*
D03*
X407000Y402750D02*
D03*
X420000Y396250D02*
D03*
X413500Y389750D02*
D03*
X407000Y396250D02*
D03*
X413500D02*
D03*
X400500Y409250D02*
D03*
X407000D02*
D03*
X400500Y396250D02*
D03*
Y389750D02*
D03*
X394000Y402750D02*
D03*
X400500D02*
D03*
X420000Y383250D02*
D03*
Y389750D02*
D03*
X413500Y376750D02*
D03*
Y383250D02*
D03*
X407000Y376750D02*
D03*
X413500Y363750D02*
D03*
Y370250D02*
D03*
X407000D02*
D03*
Y363750D02*
D03*
Y389750D02*
D03*
X400500Y383250D02*
D03*
X407000D02*
D03*
X394000D02*
D03*
Y376750D02*
D03*
X400500Y370250D02*
D03*
Y376750D02*
D03*
Y363750D02*
D03*
X394000Y370250D02*
D03*
Y363750D02*
D03*
Y409250D02*
D03*
X387500D02*
D03*
Y402750D02*
D03*
X381000D02*
D03*
Y396250D02*
D03*
X394000D02*
D03*
X387500Y389750D02*
D03*
X394000D02*
D03*
X387500Y396250D02*
D03*
X381000Y389750D02*
D03*
X374500Y409250D02*
D03*
X381000D02*
D03*
X368000D02*
D03*
Y402750D02*
D03*
X374500Y396250D02*
D03*
Y402750D02*
D03*
Y389750D02*
D03*
X368000Y396250D02*
D03*
Y389750D02*
D03*
X387500Y376750D02*
D03*
Y383250D02*
D03*
Y370250D02*
D03*
X381000Y376750D02*
D03*
Y370250D02*
D03*
X387500Y357250D02*
D03*
Y363750D02*
D03*
X394000Y357250D02*
D03*
X381000Y363750D02*
D03*
Y357250D02*
D03*
Y383250D02*
D03*
X374500D02*
D03*
Y376750D02*
D03*
X368000Y383250D02*
D03*
Y376750D02*
D03*
X374500Y370250D02*
D03*
Y363750D02*
D03*
X368000Y370250D02*
D03*
Y363750D02*
D03*
X413500Y350750D02*
D03*
Y357250D02*
D03*
X407000Y344250D02*
D03*
Y357250D02*
D03*
Y350750D02*
D03*
X413500Y337750D02*
D03*
Y344250D02*
D03*
Y331250D02*
D03*
X407000Y337750D02*
D03*
Y331250D02*
D03*
X400500Y350750D02*
D03*
Y357250D02*
D03*
Y344250D02*
D03*
X394000Y350750D02*
D03*
Y344250D02*
D03*
X400500Y337750D02*
D03*
Y331250D02*
D03*
X394000Y337750D02*
D03*
Y331250D02*
D03*
X413500Y318250D02*
D03*
Y324750D02*
D03*
X407000Y311750D02*
D03*
Y324750D02*
D03*
Y318250D02*
D03*
X413500Y305250D02*
D03*
Y311750D02*
D03*
X420000Y305250D02*
D03*
X400500D02*
D03*
X407000D02*
D03*
X400500Y318250D02*
D03*
Y324750D02*
D03*
X394000Y311750D02*
D03*
Y324750D02*
D03*
Y318250D02*
D03*
X400500Y311750D02*
D03*
X394000Y305250D02*
D03*
X387500Y350750D02*
D03*
X381000Y344250D02*
D03*
X387500D02*
D03*
X381000Y350750D02*
D03*
X374500Y344250D02*
D03*
X387500Y337750D02*
D03*
X381000D02*
D03*
Y331250D02*
D03*
X374500Y337750D02*
D03*
Y331250D02*
D03*
Y350750D02*
D03*
Y357250D02*
D03*
X368000Y344250D02*
D03*
Y357250D02*
D03*
Y350750D02*
D03*
Y337750D02*
D03*
Y331250D02*
D03*
X387500Y324750D02*
D03*
Y331250D02*
D03*
Y318250D02*
D03*
X381000Y324750D02*
D03*
Y318250D02*
D03*
X387500Y311750D02*
D03*
X381000Y305250D02*
D03*
X387500D02*
D03*
X381000Y311750D02*
D03*
X374500Y305250D02*
D03*
Y318250D02*
D03*
Y324750D02*
D03*
X368000Y311750D02*
D03*
Y324750D02*
D03*
Y318250D02*
D03*
X374500Y311750D02*
D03*
X368000Y305250D02*
D03*
D28*
X807500Y840000D02*
D03*
X792500D02*
D03*
X675500Y1253000D02*
D03*
X660500D02*
D03*
X358500Y1252000D02*
D03*
X373500D02*
D03*
X792500Y880000D02*
D03*
X807500D02*
D03*
Y860000D02*
D03*
X792500D02*
D03*
D29*
X109000Y1345500D02*
D03*
Y1360500D02*
D03*
X66000Y1345500D02*
D03*
Y1360500D02*
D03*
X27000Y1345500D02*
D03*
Y1360500D02*
D03*
D30*
X530000Y1193000D02*
D03*
Y1183000D02*
D03*
Y1225000D02*
D03*
Y1235000D02*
D03*
X648000Y1196000D02*
D03*
Y1186000D02*
D03*
X450000Y1276000D02*
D03*
Y1286000D02*
D03*
X512000Y1105000D02*
D03*
Y1115000D02*
D03*
X347000Y783000D02*
D03*
Y773000D02*
D03*
X493000Y782000D02*
D03*
Y772000D02*
D03*
Y752000D02*
D03*
Y762000D02*
D03*
X347000Y753000D02*
D03*
Y763000D02*
D03*
X240000Y554000D02*
D03*
Y564000D02*
D03*
X306000Y595000D02*
D03*
Y585000D02*
D03*
X184000Y464000D02*
D03*
Y474000D02*
D03*
X477555Y975110D02*
D03*
Y985110D02*
D03*
X556000Y1140000D02*
D03*
Y1130000D02*
D03*
X523000Y1101000D02*
D03*
Y1091000D02*
D03*
X205000Y737000D02*
D03*
Y727000D02*
D03*
X182500Y415000D02*
D03*
Y425000D02*
D03*
X241000Y588000D02*
D03*
Y598000D02*
D03*
X170000Y597500D02*
D03*
Y607500D02*
D03*
X493000Y360000D02*
D03*
Y350000D02*
D03*
X133000Y1567000D02*
D03*
Y1557000D02*
D03*
X445000Y1378926D02*
D03*
Y1368926D02*
D03*
X530000Y1214000D02*
D03*
Y1204000D02*
D03*
X598000Y1277000D02*
D03*
Y1287000D02*
D03*
X619000Y1153000D02*
D03*
Y1143000D02*
D03*
X284000Y382000D02*
D03*
Y392000D02*
D03*
X553000Y1730000D02*
D03*
Y1740000D02*
D03*
X252500Y937700D02*
D03*
Y927700D02*
D03*
X547000Y197000D02*
D03*
Y187000D02*
D03*
X481000Y1100000D02*
D03*
Y1090000D02*
D03*
X214926Y1141500D02*
D03*
Y1151500D02*
D03*
X214926Y1168500D02*
D03*
Y1178500D02*
D03*
X340000Y343314D02*
D03*
Y353314D02*
D03*
X482000Y1110000D02*
D03*
Y1120000D02*
D03*
X470000Y1276000D02*
D03*
Y1286000D02*
D03*
X493000Y722000D02*
D03*
Y732000D02*
D03*
X470000Y1100000D02*
D03*
Y1090000D02*
D03*
X238000Y1016250D02*
D03*
Y1006250D02*
D03*
X451000Y1298000D02*
D03*
Y1308000D02*
D03*
X460000Y1286000D02*
D03*
Y1276000D02*
D03*
X238000Y1224000D02*
D03*
Y1214000D02*
D03*
D31*
X534250Y1102750D02*
D03*
Y1113250D02*
D03*
X547750Y1102750D02*
D03*
Y1113250D02*
D03*
D32*
X306000Y418250D02*
D03*
X302000D02*
D03*
X298000D02*
D03*
X294000D02*
D03*
X290000D02*
D03*
X286000D02*
D03*
X306000Y422250D02*
D03*
X302000D02*
D03*
X298000D02*
D03*
X294000D02*
D03*
X290000D02*
D03*
X286000D02*
D03*
X306000Y426250D02*
D03*
X302000D02*
D03*
X298000D02*
D03*
X294000D02*
D03*
X290000D02*
D03*
X286000D02*
D03*
X306000Y430250D02*
D03*
X302000D02*
D03*
X298000D02*
D03*
X294000D02*
D03*
X290000D02*
D03*
X286000D02*
D03*
X306000Y434250D02*
D03*
X302000D02*
D03*
X298000D02*
D03*
X294000D02*
D03*
X290000D02*
D03*
X286000D02*
D03*
X306000Y438250D02*
D03*
X302000D02*
D03*
X298000D02*
D03*
X294000D02*
D03*
X290000D02*
D03*
X286000D02*
D03*
X435000Y863868D02*
D03*
X430000D02*
D03*
X432500Y860468D02*
D03*
X437500D02*
D03*
X427500D02*
D03*
X425000Y857068D02*
D03*
Y863868D02*
D03*
X422500Y860468D02*
D03*
X420000Y863868D02*
D03*
X417500Y860468D02*
D03*
X420000Y857068D02*
D03*
X415000D02*
D03*
X437500Y853668D02*
D03*
X430000Y857068D02*
D03*
X435000D02*
D03*
X417500Y853668D02*
D03*
X427500D02*
D03*
X432500D02*
D03*
X422500D02*
D03*
X410000Y863868D02*
D03*
X415000D02*
D03*
X412500Y860468D02*
D03*
X407500D02*
D03*
X405000Y857068D02*
D03*
X400000Y863868D02*
D03*
X405000D02*
D03*
X402500Y860468D02*
D03*
X400000Y857068D02*
D03*
X397500Y860468D02*
D03*
X410000Y857068D02*
D03*
X407500Y853668D02*
D03*
X412500D02*
D03*
X397500D02*
D03*
X402500D02*
D03*
D33*
X648000Y1362000D02*
D03*
Y1316000D02*
D03*
X668000D02*
D03*
X688000Y1362000D02*
D03*
Y1316000D02*
D03*
X708000Y1362000D02*
D03*
Y1316000D02*
D03*
X668000Y1362000D02*
D03*
D34*
X540400Y249250D02*
D03*
Y266750D02*
D03*
X643400Y248250D02*
D03*
Y265750D02*
D03*
D35*
X521100Y249250D02*
D03*
Y266750D02*
D03*
X624100Y248250D02*
D03*
Y265750D02*
D03*
D36*
X88490Y1150661D02*
D03*
X72990D02*
D03*
X455500Y1398676D02*
D03*
X440000D02*
D03*
X88490Y1170759D02*
D03*
X72990D02*
D03*
D37*
X456500Y1364250D02*
D03*
Y1379750D02*
D03*
D38*
X52750Y1306000D02*
D03*
X62250D02*
D03*
X52250Y1015000D02*
D03*
X61750D02*
D03*
X734250Y1805000D02*
D03*
X743750D02*
D03*
X127750Y1623000D02*
D03*
X118250D02*
D03*
X576250Y1778000D02*
D03*
X585750D02*
D03*
X577250Y1769000D02*
D03*
X586750D02*
D03*
X490750Y1284000D02*
D03*
X481250D02*
D03*
X462750Y1114000D02*
D03*
X453250D02*
D03*
X653250Y1235000D02*
D03*
X662750D02*
D03*
X452750Y1078000D02*
D03*
X443250D02*
D03*
X83101Y1137251D02*
D03*
X73601D02*
D03*
X131750Y1121000D02*
D03*
X122250D02*
D03*
X155750D02*
D03*
X146250D02*
D03*
X83101Y1183750D02*
D03*
X73601D02*
D03*
X145750Y1203000D02*
D03*
X136250D02*
D03*
X315250Y438000D02*
D03*
X324750D02*
D03*
X262250Y947700D02*
D03*
X252750D02*
D03*
X662750Y1205000D02*
D03*
X653250D02*
D03*
X662750Y1225000D02*
D03*
X653250D02*
D03*
X662750Y1215000D02*
D03*
X653250D02*
D03*
X695750Y1246000D02*
D03*
X686250D02*
D03*
X294250Y1367000D02*
D03*
X303750D02*
D03*
X66250Y1333000D02*
D03*
X75750D02*
D03*
X27250D02*
D03*
X36750D02*
D03*
X495250Y1755750D02*
D03*
X504750D02*
D03*
X382250Y1294000D02*
D03*
X372750D02*
D03*
X142250Y1258000D02*
D03*
X151750D02*
D03*
X142250Y1249000D02*
D03*
X151750D02*
D03*
X169750Y1203000D02*
D03*
X160250D02*
D03*
X723250Y1330000D02*
D03*
X732750D02*
D03*
D39*
X364000Y724000D02*
D03*
Y732000D02*
D03*
Y740000D02*
D03*
Y772000D02*
D03*
Y780000D02*
D03*
Y788000D02*
D03*
X372000Y724000D02*
D03*
Y732000D02*
D03*
Y740000D02*
D03*
Y772000D02*
D03*
Y780000D02*
D03*
Y788000D02*
D03*
X380000Y724000D02*
D03*
Y732000D02*
D03*
Y740000D02*
D03*
Y772000D02*
D03*
Y780000D02*
D03*
Y788000D02*
D03*
X388000Y724000D02*
D03*
Y732000D02*
D03*
Y740000D02*
D03*
Y772000D02*
D03*
Y780000D02*
D03*
Y788000D02*
D03*
X396000Y724000D02*
D03*
Y732000D02*
D03*
Y740000D02*
D03*
Y772000D02*
D03*
Y780000D02*
D03*
Y788000D02*
D03*
X404000Y724000D02*
D03*
Y732000D02*
D03*
Y740000D02*
D03*
Y772000D02*
D03*
Y780000D02*
D03*
Y788000D02*
D03*
X412000Y724000D02*
D03*
Y732000D02*
D03*
Y740000D02*
D03*
Y772000D02*
D03*
Y780000D02*
D03*
Y788000D02*
D03*
X420000Y724000D02*
D03*
Y732000D02*
D03*
Y740000D02*
D03*
Y772000D02*
D03*
Y780000D02*
D03*
Y788000D02*
D03*
X428000Y724000D02*
D03*
Y732000D02*
D03*
Y740000D02*
D03*
Y772000D02*
D03*
Y780000D02*
D03*
Y788000D02*
D03*
X436000Y724000D02*
D03*
Y732000D02*
D03*
Y740000D02*
D03*
Y772000D02*
D03*
Y780000D02*
D03*
Y788000D02*
D03*
X444000Y724000D02*
D03*
Y732000D02*
D03*
Y740000D02*
D03*
Y772000D02*
D03*
Y780000D02*
D03*
Y788000D02*
D03*
X452000Y724000D02*
D03*
Y732000D02*
D03*
Y740000D02*
D03*
Y772000D02*
D03*
Y780000D02*
D03*
Y788000D02*
D03*
X460000Y724000D02*
D03*
Y732000D02*
D03*
Y740000D02*
D03*
Y772000D02*
D03*
Y780000D02*
D03*
Y788000D02*
D03*
X468000Y724000D02*
D03*
Y732000D02*
D03*
Y740000D02*
D03*
Y772000D02*
D03*
Y780000D02*
D03*
Y788000D02*
D03*
X476000Y724000D02*
D03*
Y732000D02*
D03*
Y740000D02*
D03*
Y772000D02*
D03*
Y780000D02*
D03*
Y788000D02*
D03*
D40*
X447950Y205550D02*
D03*
Y189550D02*
D03*
X426950Y205550D02*
D03*
Y189550D02*
D03*
D41*
X204750Y1011000D02*
D03*
X189250D02*
D03*
X738624Y1623941D02*
D03*
X723124D02*
D03*
X102250Y1803000D02*
D03*
X117750D02*
D03*
X205750Y1219000D02*
D03*
X190250D02*
D03*
D42*
X438203Y827000D02*
D03*
Y833000D02*
D03*
X383853Y828090D02*
D03*
Y834090D02*
D03*
X411000Y890000D02*
D03*
Y884000D02*
D03*
X403203Y817000D02*
D03*
Y823000D02*
D03*
X426000Y827000D02*
D03*
Y833000D02*
D03*
X420000Y827000D02*
D03*
Y833000D02*
D03*
X432000Y827000D02*
D03*
Y833000D02*
D03*
D43*
X513554Y906000D02*
D03*
X507555D02*
D03*
X495054D02*
D03*
X501054D02*
D03*
X422174Y224796D02*
D03*
X416174D02*
D03*
X449560Y224568D02*
D03*
X455560D02*
D03*
D44*
X86600Y1283000D02*
D03*
Y1278000D02*
D03*
Y1273000D02*
D03*
Y1268000D02*
D03*
Y1263000D02*
D03*
Y1258000D02*
D03*
Y1253000D02*
D03*
Y1248000D02*
D03*
Y1243000D02*
D03*
Y1238000D02*
D03*
Y1233000D02*
D03*
Y1228000D02*
D03*
X103600Y1225500D02*
D03*
Y1230500D02*
D03*
Y1235500D02*
D03*
Y1240500D02*
D03*
Y1245500D02*
D03*
Y1250500D02*
D03*
Y1255500D02*
D03*
Y1260500D02*
D03*
Y1265500D02*
D03*
Y1270500D02*
D03*
Y1275500D02*
D03*
Y1280500D02*
D03*
X752400Y1169500D02*
D03*
Y1174500D02*
D03*
Y1179500D02*
D03*
Y1184500D02*
D03*
Y1189500D02*
D03*
Y1194500D02*
D03*
Y1199500D02*
D03*
Y1204500D02*
D03*
Y1209500D02*
D03*
Y1214500D02*
D03*
Y1219500D02*
D03*
Y1224500D02*
D03*
X735400Y1227000D02*
D03*
Y1222000D02*
D03*
Y1217000D02*
D03*
Y1212000D02*
D03*
Y1207000D02*
D03*
Y1202000D02*
D03*
Y1197000D02*
D03*
Y1192000D02*
D03*
Y1187000D02*
D03*
Y1182000D02*
D03*
Y1177000D02*
D03*
Y1172000D02*
D03*
X86600Y1102000D02*
D03*
Y1097000D02*
D03*
Y1092000D02*
D03*
Y1087000D02*
D03*
Y1082000D02*
D03*
Y1077000D02*
D03*
Y1072000D02*
D03*
Y1067000D02*
D03*
Y1062000D02*
D03*
Y1057000D02*
D03*
Y1052000D02*
D03*
Y1047000D02*
D03*
X103600Y1044500D02*
D03*
Y1049500D02*
D03*
Y1054500D02*
D03*
Y1059500D02*
D03*
Y1064500D02*
D03*
Y1069500D02*
D03*
Y1074500D02*
D03*
Y1079500D02*
D03*
Y1084500D02*
D03*
Y1089500D02*
D03*
Y1094500D02*
D03*
Y1099500D02*
D03*
D45*
X131375Y1057000D02*
D03*
Y1061000D02*
D03*
Y1053000D02*
D03*
X122625Y1061000D02*
D03*
Y1053000D02*
D03*
Y1057000D02*
D03*
X131375Y1238000D02*
D03*
Y1242000D02*
D03*
Y1234000D02*
D03*
X122625Y1242000D02*
D03*
Y1238000D02*
D03*
Y1234000D02*
D03*
X131375Y1074000D02*
D03*
Y1078000D02*
D03*
Y1070000D02*
D03*
X122625Y1078000D02*
D03*
Y1074000D02*
D03*
Y1070000D02*
D03*
X131375Y1255000D02*
D03*
Y1259000D02*
D03*
Y1251000D02*
D03*
X122625Y1259000D02*
D03*
Y1255000D02*
D03*
Y1251000D02*
D03*
X695650Y1197501D02*
D03*
Y1193501D02*
D03*
Y1201501D02*
D03*
X686900Y1197501D02*
D03*
Y1201501D02*
D03*
Y1193501D02*
D03*
X695650Y1214500D02*
D03*
Y1218500D02*
D03*
Y1210500D02*
D03*
X686900Y1214500D02*
D03*
Y1218500D02*
D03*
Y1210500D02*
D03*
D46*
X160000Y1181000D02*
D03*
X120000D02*
D03*
X160000Y1145000D02*
D03*
X120000D02*
D03*
X746000Y1268000D02*
D03*
X706000D02*
D03*
D47*
X55725Y1150411D02*
D03*
X43475D02*
D03*
X55725Y1171009D02*
D03*
X43475D02*
D03*
X783125Y1271000D02*
D03*
X770875D02*
D03*
D48*
X151000Y1074637D02*
D03*
Y1069637D02*
D03*
X145000Y1074637D02*
D03*
Y1069637D02*
D03*
X171000Y1255500D02*
D03*
Y1250500D02*
D03*
X165000Y1255500D02*
D03*
Y1250500D02*
D03*
D49*
X233000Y300500D02*
D03*
X213000D02*
D03*
Y259500D02*
D03*
X233000D02*
D03*
D50*
X293000Y1388000D02*
D03*
Y1348000D02*
D03*
X263000Y1368000D02*
D03*
X615000Y1360000D02*
D03*
X585000Y1340000D02*
D03*
Y1380000D02*
D03*
X525000Y1360000D02*
D03*
X495000Y1340000D02*
D03*
Y1380000D02*
D03*
X570000Y1360000D02*
D03*
X540000Y1340000D02*
D03*
Y1380000D02*
D03*
D51*
X594500Y387500D02*
D03*
X550500D02*
D03*
D52*
X195200Y1481800D02*
D03*
Y1532600D02*
D03*
Y1431000D02*
D03*
X162200Y1507200D02*
D03*
Y1456400D02*
D03*
Y1405600D02*
D03*
X195200Y1761200D02*
D03*
Y1710400D02*
D03*
Y1659600D02*
D03*
Y1608800D02*
D03*
X162200Y1735800D02*
D03*
Y1685000D02*
D03*
Y1634200D02*
D03*
Y1583400D02*
D03*
X677800Y1583400D02*
D03*
Y1532600D02*
D03*
Y1481800D02*
D03*
Y1431000D02*
D03*
X644800Y1558000D02*
D03*
Y1507200D02*
D03*
Y1456400D02*
D03*
Y1405600D02*
D03*
X677800Y1852640D02*
D03*
Y1801840D02*
D03*
Y1751040D02*
D03*
Y1700240D02*
D03*
Y1649440D02*
D03*
X644800Y1827240D02*
D03*
Y1776440D02*
D03*
Y1725640D02*
D03*
Y1624040D02*
D03*
Y1674840D02*
D03*
D53*
X97750Y1447500D02*
D03*
Y1402500D02*
D03*
X18250Y1447500D02*
D03*
Y1402500D02*
D03*
X97750Y1522290D02*
D03*
Y1477290D02*
D03*
X18250Y1522290D02*
D03*
Y1477290D02*
D03*
X97750Y1611499D02*
D03*
Y1566499D02*
D03*
X18250Y1611499D02*
D03*
Y1566499D02*
D03*
D54*
X743230Y1701300D02*
D03*
Y1726700D02*
D03*
Y1752100D02*
D03*
Y1777500D02*
D03*
X704620Y1752100D02*
D03*
Y1701300D02*
D03*
Y1726700D02*
D03*
Y1777500D02*
D03*
X743230Y1675900D02*
D03*
Y1650500D02*
D03*
X704620Y1675900D02*
D03*
Y1650500D02*
D03*
X135380Y1751100D02*
D03*
Y1776500D02*
D03*
Y1725700D02*
D03*
X96770D02*
D03*
Y1751100D02*
D03*
Y1776500D02*
D03*
X135380Y1649500D02*
D03*
Y1700300D02*
D03*
X96770D02*
D03*
X135380Y1674900D02*
D03*
X96770Y1649500D02*
D03*
Y1674900D02*
D03*
D55*
X236500Y953700D02*
D03*
X231500D02*
D03*
X226500D02*
D03*
Y927700D02*
D03*
X236500D02*
D03*
X231500D02*
D03*
X221500Y953700D02*
D03*
X216500D02*
D03*
X221500Y927700D02*
D03*
X216500D02*
D03*
X315000Y1755500D02*
D03*
X310000D02*
D03*
X315000Y1724500D02*
D03*
X310000D02*
D03*
X419000Y1757000D02*
D03*
X414000D02*
D03*
X419000Y1726000D02*
D03*
X414000D02*
D03*
D56*
X242000Y943200D02*
D03*
Y938200D02*
D03*
X211000D02*
D03*
Y943200D02*
D03*
X325500Y1750000D02*
D03*
Y1745000D02*
D03*
Y1735000D02*
D03*
Y1740000D02*
D03*
Y1730000D02*
D03*
X299500Y1745000D02*
D03*
Y1750000D02*
D03*
Y1735000D02*
D03*
Y1740000D02*
D03*
Y1730000D02*
D03*
X429500Y1751500D02*
D03*
Y1746500D02*
D03*
Y1736500D02*
D03*
Y1741500D02*
D03*
Y1731500D02*
D03*
X403500Y1746500D02*
D03*
Y1751500D02*
D03*
Y1736500D02*
D03*
Y1741500D02*
D03*
Y1731500D02*
D03*
D57*
X530500Y185525D02*
D03*
Y179175D02*
D03*
Y191875D02*
D03*
Y166475D02*
D03*
Y172825D02*
D03*
Y198225D02*
D03*
Y153775D02*
D03*
Y160125D02*
D03*
X476500Y185525D02*
D03*
Y172825D02*
D03*
Y179175D02*
D03*
Y191875D02*
D03*
Y198225D02*
D03*
Y153775D02*
D03*
Y160125D02*
D03*
Y166475D02*
D03*
D58*
X498000Y1104250D02*
D03*
Y1085750D02*
D03*
D59*
X394500Y200000D02*
D03*
X369500D02*
D03*
D60*
X454000Y936250D02*
D03*
X446000D02*
D03*
X442000D02*
D03*
X450000D02*
D03*
X454000Y913750D02*
D03*
X442000D02*
D03*
X450000D02*
D03*
X446000D02*
D03*
D61*
X455250Y931000D02*
D03*
Y923000D02*
D03*
Y927000D02*
D03*
Y919000D02*
D03*
X440750Y923000D02*
D03*
Y927000D02*
D03*
Y919000D02*
D03*
D62*
X441250Y931000D02*
D03*
D63*
X601500Y1135500D02*
D03*
Y1122500D02*
D03*
X584500Y1135500D02*
D03*
Y1122500D02*
D03*
D64*
X539200Y1742000D02*
D03*
Y1746000D02*
D03*
Y1734000D02*
D03*
Y1738000D02*
D03*
Y1750000D02*
D03*
Y1730000D02*
D03*
X520801Y1734000D02*
D03*
Y1750000D02*
D03*
Y1746000D02*
D03*
Y1738000D02*
D03*
Y1742000D02*
D03*
Y1730000D02*
D03*
D65*
X535980Y1754550D02*
D03*
X536000Y1725450D02*
D03*
X523980Y1754550D02*
D03*
X524000Y1725450D02*
D03*
D66*
X531980Y1754170D02*
D03*
X527980Y1754170D02*
D03*
X528000Y1725831D02*
D03*
D67*
X532000Y1726331D02*
D03*
D68*
X771200Y650100D02*
D03*
Y624700D02*
D03*
Y675500D02*
D03*
Y548500D02*
D03*
Y523100D02*
D03*
Y599300D02*
D03*
Y573900D02*
D03*
Y751700D02*
D03*
Y726300D02*
D03*
Y700900D02*
D03*
Y370700D02*
D03*
Y421500D02*
D03*
Y396100D02*
D03*
Y294500D02*
D03*
Y269100D02*
D03*
Y345300D02*
D03*
Y319900D02*
D03*
Y472300D02*
D03*
Y497700D02*
D03*
Y446900D02*
D03*
X716600Y624700D02*
D03*
Y548500D02*
D03*
Y523100D02*
D03*
Y599300D02*
D03*
Y573900D02*
D03*
Y726300D02*
D03*
Y751700D02*
D03*
Y675500D02*
D03*
Y650100D02*
D03*
Y700900D02*
D03*
Y319900D02*
D03*
Y370700D02*
D03*
Y345300D02*
D03*
Y269100D02*
D03*
Y294500D02*
D03*
Y472300D02*
D03*
Y497700D02*
D03*
Y421500D02*
D03*
Y396100D02*
D03*
Y446900D02*
D03*
D69*
X577000Y345000D02*
D03*
X548000D02*
D03*
D70*
X438460Y1307000D02*
D03*
X433460D02*
D03*
X428460D02*
D03*
X438540Y1279000D02*
D03*
X428540D02*
D03*
X433540D02*
D03*
X423460Y1307000D02*
D03*
X423540Y1279000D02*
D03*
D71*
X431000Y1293000D02*
D03*
D72*
X509000Y369500D02*
D03*
Y340500D02*
D03*
D73*
X252176Y1151750D02*
D03*
X246926Y1141250D02*
D03*
X241676Y1151750D02*
D03*
X252176Y1178750D02*
D03*
X246926Y1168250D02*
D03*
X241676Y1178750D02*
D03*
D74*
X630250Y1232500D02*
D03*
Y1237500D02*
D03*
Y1227500D02*
D03*
Y1212500D02*
D03*
Y1207500D02*
D03*
Y1222500D02*
D03*
Y1217500D02*
D03*
Y1202500D02*
D03*
Y1187500D02*
D03*
Y1182500D02*
D03*
Y1197500D02*
D03*
Y1192500D02*
D03*
X545750Y1197500D02*
D03*
Y1192500D02*
D03*
Y1227500D02*
D03*
Y1222500D02*
D03*
Y1237500D02*
D03*
Y1232500D02*
D03*
Y1207500D02*
D03*
Y1202500D02*
D03*
Y1217500D02*
D03*
Y1212500D02*
D03*
Y1187500D02*
D03*
Y1182500D02*
D03*
D75*
X610500Y1252250D02*
D03*
X615500D02*
D03*
X590500D02*
D03*
X595500D02*
D03*
X580500D02*
D03*
X585500D02*
D03*
X600500D02*
D03*
X605500D02*
D03*
X590500Y1167750D02*
D03*
X595500D02*
D03*
X585500D02*
D03*
X610500D02*
D03*
X615500D02*
D03*
X600500D02*
D03*
X605500D02*
D03*
X570500Y1252250D02*
D03*
X565500D02*
D03*
X575500D02*
D03*
X560500D02*
D03*
X565500Y1167750D02*
D03*
X575500D02*
D03*
X580500D02*
D03*
X570500D02*
D03*
X560500D02*
D03*
D76*
X210000Y614000D02*
D03*
X272000D02*
D03*
Y575000D02*
D03*
X216000Y413000D02*
D03*
X215500Y461100D02*
D03*
X210000Y575000D02*
D03*
D77*
X550000Y320000D02*
D03*
X522000D02*
D03*
X328000Y390000D02*
D03*
X300000D02*
D03*
D78*
X227000Y1864000D02*
D03*
Y1824000D02*
D03*
D79*
X517304Y1048835D02*
D03*
Y1058835D02*
D03*
Y1053835D02*
D03*
Y1033835D02*
D03*
Y1028835D02*
D03*
Y1043835D02*
D03*
Y1038835D02*
D03*
Y1013835D02*
D03*
Y1023835D02*
D03*
Y1018835D02*
D03*
Y1008835D02*
D03*
Y1003835D02*
D03*
X448805Y1028835D02*
D03*
Y1033835D02*
D03*
Y1058835D02*
D03*
Y1043835D02*
D03*
Y1038835D02*
D03*
Y1053835D02*
D03*
Y1048835D02*
D03*
Y1003835D02*
D03*
Y1018835D02*
D03*
Y1023835D02*
D03*
Y1013835D02*
D03*
Y1008835D02*
D03*
D80*
X490555Y1065585D02*
D03*
X485555D02*
D03*
X495555D02*
D03*
X475555D02*
D03*
X480555D02*
D03*
X505555D02*
D03*
X510555D02*
D03*
X500555D02*
D03*
X485555Y997085D02*
D03*
X490555D02*
D03*
X475555D02*
D03*
X480555D02*
D03*
X505555D02*
D03*
X510555D02*
D03*
X495555D02*
D03*
X500555D02*
D03*
X465555Y1065585D02*
D03*
X460555D02*
D03*
X470555D02*
D03*
X455555D02*
D03*
Y997085D02*
D03*
X460555D02*
D03*
X465555D02*
D03*
X470555D02*
D03*
D81*
X483055Y1031335D02*
D03*
D82*
X420000Y1377000D02*
D03*
D83*
X167500Y1227500D02*
D03*
Y1214500D02*
D03*
X146500Y1221000D02*
D03*
Y1227500D02*
D03*
Y1214500D02*
D03*
X165500Y1103500D02*
D03*
Y1090500D02*
D03*
X144500Y1097000D02*
D03*
Y1103500D02*
D03*
Y1090500D02*
D03*
D84*
X215000Y968450D02*
D03*
Y978950D02*
D03*
X204500Y973700D02*
D03*
X262750Y907602D02*
D03*
X252250Y912852D02*
D03*
Y902352D02*
D03*
D85*
X573000Y277000D02*
D03*
X573100Y239800D02*
D03*
X674900Y276950D02*
D03*
Y238850D02*
D03*
X730000Y1830000D02*
D03*
X110000Y1870000D02*
D03*
X730000D02*
D03*
X110000Y1830000D02*
D03*
D86*
X483000Y1716875D02*
D03*
Y1753625D02*
D03*
X468000Y1716875D02*
D03*
Y1753625D02*
D03*
D87*
X483000Y1722750D02*
D03*
Y1727750D02*
D03*
Y1732750D02*
D03*
Y1737750D02*
D03*
Y1742750D02*
D03*
Y1747750D02*
D03*
X468000Y1722750D02*
D03*
Y1727750D02*
D03*
Y1732750D02*
D03*
Y1737750D02*
D03*
Y1742750D02*
D03*
Y1747750D02*
D03*
M02*
