ISO-10303-21;
HEADER;
/* Generated by software containing ST-Developer
 * from STEP Tools, Inc. (www.steptools.com) 
 */
/* OPTION: strings as raw bytes, not using required /X/ escapes */

FILE_DESCRIPTION(
/* description */ ('Unknown'),
/* implementation_level */ '2;1');

FILE_NAME(
/* name */ 'ADXL367BCCZ-RL7',
/* time_stamp */ '2025-04-30T12:13:41+02:00',
/* author */ ('Unknown'),
/* organization */ ('Unknown'),
/* preprocessor_version */ 'ST-DEVELOPER v18.102',
/* originating_system */ 'Solid Edge',
/* authorisation */ 'Unknown');

FILE_SCHEMA (('AUTOMOTIVE_DESIGN {1 0 10303 214 3 1 1}'));
ENDSEC;

DATA;
#10=PROPERTY_DEFINITION_REPRESENTATION(#14,#12);
#11=PROPERTY_DEFINITION_REPRESENTATION(#15,#13);
#12=REPRESENTATION('',(#16),#2524);
#13=REPRESENTATION('',(#17),#2524);
#14=PROPERTY_DEFINITION('pmi validation property','',#2529);
#15=PROPERTY_DEFINITION('pmi validation property','',#2529);
#16=VALUE_REPRESENTATION_ITEM('number of annotations',COUNT_MEASURE(0.));
#17=VALUE_REPRESENTATION_ITEM('number of views',COUNT_MEASURE(0.));
#18=SHAPE_REPRESENTATION_RELATIONSHIP('','',#1782,#19);
#19=ADVANCED_BREP_SHAPE_REPRESENTATION('',(#1780),#2524);
#20=CYLINDRICAL_SURFACE('',#1805,0.0924179279106819);
#21=CIRCLE('',#1789,0.0924179279106819);
#22=CIRCLE('',#1806,0.0924179279106819);
#23=ORIENTED_EDGE('',*,*,#359,.F.);
#24=ORIENTED_EDGE('',*,*,#360,.F.);
#25=ORIENTED_EDGE('',*,*,#361,.T.);
#26=ORIENTED_EDGE('',*,*,#362,.F.);
#27=ORIENTED_EDGE('',*,*,#363,.T.);
#28=ORIENTED_EDGE('',*,*,#364,.T.);
#29=ORIENTED_EDGE('',*,*,#365,.T.);
#30=ORIENTED_EDGE('',*,*,#366,.T.);
#31=ORIENTED_EDGE('',*,*,#367,.T.);
#32=ORIENTED_EDGE('',*,*,#359,.T.);
#33=ORIENTED_EDGE('',*,*,#368,.F.);
#34=ORIENTED_EDGE('',*,*,#361,.F.);
#35=ORIENTED_EDGE('',*,*,#369,.F.);
#36=ORIENTED_EDGE('',*,*,#370,.F.);
#37=ORIENTED_EDGE('',*,*,#363,.F.);
#38=ORIENTED_EDGE('',*,*,#362,.T.);
#39=ORIENTED_EDGE('',*,*,#368,.T.);
#40=ORIENTED_EDGE('',*,*,#371,.F.);
#41=ORIENTED_EDGE('',*,*,#372,.F.);
#42=ORIENTED_EDGE('',*,*,#373,.T.);
#43=ORIENTED_EDGE('',*,*,#374,.T.);
#44=ORIENTED_EDGE('',*,*,#375,.T.);
#45=ORIENTED_EDGE('',*,*,#376,.T.);
#46=ORIENTED_EDGE('',*,*,#377,.T.);
#47=ORIENTED_EDGE('',*,*,#378,.T.);
#48=ORIENTED_EDGE('',*,*,#379,.T.);
#49=ORIENTED_EDGE('',*,*,#380,.T.);
#50=ORIENTED_EDGE('',*,*,#381,.T.);
#51=ORIENTED_EDGE('',*,*,#382,.T.);
#52=ORIENTED_EDGE('',*,*,#383,.T.);
#53=ORIENTED_EDGE('',*,*,#384,.T.);
#54=ORIENTED_EDGE('',*,*,#385,.T.);
#55=ORIENTED_EDGE('',*,*,#386,.T.);
#56=ORIENTED_EDGE('',*,*,#387,.T.);
#57=ORIENTED_EDGE('',*,*,#388,.T.);
#58=ORIENTED_EDGE('',*,*,#389,.T.);
#59=ORIENTED_EDGE('',*,*,#390,.T.);
#60=ORIENTED_EDGE('',*,*,#391,.T.);
#61=ORIENTED_EDGE('',*,*,#392,.T.);
#62=ORIENTED_EDGE('',*,*,#393,.T.);
#63=ORIENTED_EDGE('',*,*,#394,.T.);
#64=ORIENTED_EDGE('',*,*,#395,.T.);
#65=ORIENTED_EDGE('',*,*,#396,.T.);
#66=ORIENTED_EDGE('',*,*,#397,.T.);
#67=ORIENTED_EDGE('',*,*,#398,.T.);
#68=ORIENTED_EDGE('',*,*,#399,.T.);
#69=ORIENTED_EDGE('',*,*,#400,.T.);
#70=ORIENTED_EDGE('',*,*,#401,.T.);
#71=ORIENTED_EDGE('',*,*,#402,.T.);
#72=ORIENTED_EDGE('',*,*,#403,.T.);
#73=ORIENTED_EDGE('',*,*,#404,.T.);
#74=ORIENTED_EDGE('',*,*,#405,.T.);
#75=ORIENTED_EDGE('',*,*,#406,.T.);
#76=ORIENTED_EDGE('',*,*,#407,.T.);
#77=ORIENTED_EDGE('',*,*,#408,.T.);
#78=ORIENTED_EDGE('',*,*,#409,.T.);
#79=ORIENTED_EDGE('',*,*,#410,.T.);
#80=ORIENTED_EDGE('',*,*,#411,.T.);
#81=ORIENTED_EDGE('',*,*,#412,.T.);
#82=ORIENTED_EDGE('',*,*,#413,.T.);
#83=ORIENTED_EDGE('',*,*,#414,.T.);
#84=ORIENTED_EDGE('',*,*,#415,.T.);
#85=ORIENTED_EDGE('',*,*,#416,.T.);
#86=ORIENTED_EDGE('',*,*,#417,.T.);
#87=ORIENTED_EDGE('',*,*,#418,.T.);
#88=ORIENTED_EDGE('',*,*,#365,.F.);
#89=ORIENTED_EDGE('',*,*,#419,.F.);
#90=ORIENTED_EDGE('',*,*,#420,.T.);
#91=ORIENTED_EDGE('',*,*,#421,.T.);
#92=ORIENTED_EDGE('',*,*,#366,.F.);
#93=ORIENTED_EDGE('',*,*,#418,.F.);
#94=ORIENTED_EDGE('',*,*,#360,.T.);
#95=ORIENTED_EDGE('',*,*,#367,.F.);
#96=ORIENTED_EDGE('',*,*,#421,.F.);
#97=ORIENTED_EDGE('',*,*,#422,.T.);
#98=ORIENTED_EDGE('',*,*,#423,.T.);
#99=ORIENTED_EDGE('',*,*,#369,.T.);
#100=ORIENTED_EDGE('',*,*,#371,.T.);
#101=ORIENTED_EDGE('',*,*,#370,.T.);
#102=ORIENTED_EDGE('',*,*,#423,.F.);
#103=ORIENTED_EDGE('',*,*,#424,.T.);
#104=ORIENTED_EDGE('',*,*,#419,.T.);
#105=ORIENTED_EDGE('',*,*,#364,.F.);
#106=ORIENTED_EDGE('',*,*,#425,.F.);
#107=ORIENTED_EDGE('',*,*,#426,.T.);
#108=ORIENTED_EDGE('',*,*,#372,.T.);
#109=ORIENTED_EDGE('',*,*,#426,.F.);
#110=ORIENTED_EDGE('',*,*,#427,.T.);
#111=ORIENTED_EDGE('',*,*,#428,.T.);
#112=ORIENTED_EDGE('',*,*,#375,.F.);
#113=ORIENTED_EDGE('',*,*,#429,.F.);
#114=ORIENTED_EDGE('',*,*,#430,.F.);
#115=ORIENTED_EDGE('',*,*,#431,.T.);
#116=ORIENTED_EDGE('',*,*,#376,.F.);
#117=ORIENTED_EDGE('',*,*,#428,.F.);
#118=ORIENTED_EDGE('',*,*,#432,.F.);
#119=ORIENTED_EDGE('',*,*,#433,.T.);
#120=ORIENTED_EDGE('',*,*,#373,.F.);
#121=ORIENTED_EDGE('',*,*,#431,.F.);
#122=ORIENTED_EDGE('',*,*,#434,.T.);
#123=ORIENTED_EDGE('',*,*,#429,.T.);
#124=ORIENTED_EDGE('',*,*,#374,.F.);
#125=ORIENTED_EDGE('',*,*,#433,.F.);
#126=ORIENTED_EDGE('',*,*,#435,.F.);
#127=ORIENTED_EDGE('',*,*,#436,.T.);
#128=ORIENTED_EDGE('',*,*,#379,.F.);
#129=ORIENTED_EDGE('',*,*,#437,.F.);
#130=ORIENTED_EDGE('',*,*,#438,.T.);
#131=ORIENTED_EDGE('',*,*,#439,.T.);
#132=ORIENTED_EDGE('',*,*,#380,.F.);
#133=ORIENTED_EDGE('',*,*,#436,.F.);
#134=ORIENTED_EDGE('',*,*,#440,.T.);
#135=ORIENTED_EDGE('',*,*,#441,.T.);
#136=ORIENTED_EDGE('',*,*,#377,.F.);
#137=ORIENTED_EDGE('',*,*,#439,.F.);
#138=ORIENTED_EDGE('',*,*,#442,.F.);
#139=ORIENTED_EDGE('',*,*,#437,.T.);
#140=ORIENTED_EDGE('',*,*,#378,.F.);
#141=ORIENTED_EDGE('',*,*,#441,.F.);
#142=ORIENTED_EDGE('',*,*,#443,.F.);
#143=ORIENTED_EDGE('',*,*,#444,.T.);
#144=ORIENTED_EDGE('',*,*,#383,.F.);
#145=ORIENTED_EDGE('',*,*,#445,.F.);
#146=ORIENTED_EDGE('',*,*,#446,.T.);
#147=ORIENTED_EDGE('',*,*,#447,.T.);
#148=ORIENTED_EDGE('',*,*,#384,.F.);
#149=ORIENTED_EDGE('',*,*,#444,.F.);
#150=ORIENTED_EDGE('',*,*,#448,.T.);
#151=ORIENTED_EDGE('',*,*,#449,.T.);
#152=ORIENTED_EDGE('',*,*,#381,.F.);
#153=ORIENTED_EDGE('',*,*,#447,.F.);
#154=ORIENTED_EDGE('',*,*,#450,.F.);
#155=ORIENTED_EDGE('',*,*,#445,.T.);
#156=ORIENTED_EDGE('',*,*,#382,.F.);
#157=ORIENTED_EDGE('',*,*,#449,.F.);
#158=ORIENTED_EDGE('',*,*,#451,.T.);
#159=ORIENTED_EDGE('',*,*,#452,.T.);
#160=ORIENTED_EDGE('',*,*,#387,.F.);
#161=ORIENTED_EDGE('',*,*,#453,.F.);
#162=ORIENTED_EDGE('',*,*,#454,.F.);
#163=ORIENTED_EDGE('',*,*,#455,.T.);
#164=ORIENTED_EDGE('',*,*,#388,.F.);
#165=ORIENTED_EDGE('',*,*,#452,.F.);
#166=ORIENTED_EDGE('',*,*,#456,.F.);
#167=ORIENTED_EDGE('',*,*,#457,.T.);
#168=ORIENTED_EDGE('',*,*,#385,.F.);
#169=ORIENTED_EDGE('',*,*,#455,.F.);
#170=ORIENTED_EDGE('',*,*,#458,.T.);
#171=ORIENTED_EDGE('',*,*,#453,.T.);
#172=ORIENTED_EDGE('',*,*,#386,.F.);
#173=ORIENTED_EDGE('',*,*,#457,.F.);
#174=ORIENTED_EDGE('',*,*,#459,.F.);
#175=ORIENTED_EDGE('',*,*,#460,.T.);
#176=ORIENTED_EDGE('',*,*,#391,.F.);
#177=ORIENTED_EDGE('',*,*,#461,.F.);
#178=ORIENTED_EDGE('',*,*,#462,.T.);
#179=ORIENTED_EDGE('',*,*,#463,.T.);
#180=ORIENTED_EDGE('',*,*,#392,.F.);
#181=ORIENTED_EDGE('',*,*,#460,.F.);
#182=ORIENTED_EDGE('',*,*,#464,.T.);
#183=ORIENTED_EDGE('',*,*,#465,.T.);
#184=ORIENTED_EDGE('',*,*,#389,.F.);
#185=ORIENTED_EDGE('',*,*,#463,.F.);
#186=ORIENTED_EDGE('',*,*,#466,.F.);
#187=ORIENTED_EDGE('',*,*,#461,.T.);
#188=ORIENTED_EDGE('',*,*,#390,.F.);
#189=ORIENTED_EDGE('',*,*,#465,.F.);
#190=ORIENTED_EDGE('',*,*,#467,.T.);
#191=ORIENTED_EDGE('',*,*,#468,.T.);
#192=ORIENTED_EDGE('',*,*,#395,.F.);
#193=ORIENTED_EDGE('',*,*,#469,.F.);
#194=ORIENTED_EDGE('',*,*,#470,.F.);
#195=ORIENTED_EDGE('',*,*,#471,.T.);
#196=ORIENTED_EDGE('',*,*,#396,.F.);
#197=ORIENTED_EDGE('',*,*,#468,.F.);
#198=ORIENTED_EDGE('',*,*,#472,.F.);
#199=ORIENTED_EDGE('',*,*,#473,.T.);
#200=ORIENTED_EDGE('',*,*,#393,.F.);
#201=ORIENTED_EDGE('',*,*,#471,.F.);
#202=ORIENTED_EDGE('',*,*,#474,.T.);
#203=ORIENTED_EDGE('',*,*,#469,.T.);
#204=ORIENTED_EDGE('',*,*,#394,.F.);
#205=ORIENTED_EDGE('',*,*,#473,.F.);
#206=ORIENTED_EDGE('',*,*,#475,.T.);
#207=ORIENTED_EDGE('',*,*,#476,.T.);
#208=ORIENTED_EDGE('',*,*,#399,.F.);
#209=ORIENTED_EDGE('',*,*,#477,.F.);
#210=ORIENTED_EDGE('',*,*,#478,.F.);
#211=ORIENTED_EDGE('',*,*,#479,.T.);
#212=ORIENTED_EDGE('',*,*,#400,.F.);
#213=ORIENTED_EDGE('',*,*,#476,.F.);
#214=ORIENTED_EDGE('',*,*,#480,.F.);
#215=ORIENTED_EDGE('',*,*,#481,.T.);
#216=ORIENTED_EDGE('',*,*,#397,.F.);
#217=ORIENTED_EDGE('',*,*,#479,.F.);
#218=ORIENTED_EDGE('',*,*,#482,.T.);
#219=ORIENTED_EDGE('',*,*,#477,.T.);
#220=ORIENTED_EDGE('',*,*,#398,.F.);
#221=ORIENTED_EDGE('',*,*,#481,.F.);
#222=ORIENTED_EDGE('',*,*,#483,.F.);
#223=ORIENTED_EDGE('',*,*,#484,.T.);
#224=ORIENTED_EDGE('',*,*,#403,.F.);
#225=ORIENTED_EDGE('',*,*,#485,.F.);
#226=ORIENTED_EDGE('',*,*,#486,.T.);
#227=ORIENTED_EDGE('',*,*,#487,.T.);
#228=ORIENTED_EDGE('',*,*,#404,.F.);
#229=ORIENTED_EDGE('',*,*,#484,.F.);
#230=ORIENTED_EDGE('',*,*,#488,.T.);
#231=ORIENTED_EDGE('',*,*,#489,.T.);
#232=ORIENTED_EDGE('',*,*,#401,.F.);
#233=ORIENTED_EDGE('',*,*,#487,.F.);
#234=ORIENTED_EDGE('',*,*,#490,.F.);
#235=ORIENTED_EDGE('',*,*,#485,.T.);
#236=ORIENTED_EDGE('',*,*,#402,.F.);
#237=ORIENTED_EDGE('',*,*,#489,.F.);
#238=ORIENTED_EDGE('',*,*,#491,.F.);
#239=ORIENTED_EDGE('',*,*,#492,.T.);
#240=ORIENTED_EDGE('',*,*,#408,.F.);
#241=ORIENTED_EDGE('',*,*,#493,.F.);
#242=ORIENTED_EDGE('',*,*,#494,.F.);
#243=ORIENTED_EDGE('',*,*,#495,.T.);
#244=ORIENTED_EDGE('',*,*,#405,.F.);
#245=ORIENTED_EDGE('',*,*,#492,.F.);
#246=ORIENTED_EDGE('',*,*,#496,.F.);
#247=ORIENTED_EDGE('',*,*,#497,.T.);
#248=ORIENTED_EDGE('',*,*,#406,.F.);
#249=ORIENTED_EDGE('',*,*,#495,.F.);
#250=ORIENTED_EDGE('',*,*,#498,.F.);
#251=ORIENTED_EDGE('',*,*,#493,.T.);
#252=ORIENTED_EDGE('',*,*,#407,.F.);
#253=ORIENTED_EDGE('',*,*,#497,.F.);
#254=ORIENTED_EDGE('',*,*,#499,.F.);
#255=ORIENTED_EDGE('',*,*,#500,.T.);
#256=ORIENTED_EDGE('',*,*,#412,.F.);
#257=ORIENTED_EDGE('',*,*,#501,.F.);
#258=ORIENTED_EDGE('',*,*,#502,.F.);
#259=ORIENTED_EDGE('',*,*,#503,.T.);
#260=ORIENTED_EDGE('',*,*,#409,.F.);
#261=ORIENTED_EDGE('',*,*,#500,.F.);
#262=ORIENTED_EDGE('',*,*,#504,.F.);
#263=ORIENTED_EDGE('',*,*,#505,.T.);
#264=ORIENTED_EDGE('',*,*,#410,.F.);
#265=ORIENTED_EDGE('',*,*,#503,.F.);
#266=ORIENTED_EDGE('',*,*,#506,.F.);
#267=ORIENTED_EDGE('',*,*,#501,.T.);
#268=ORIENTED_EDGE('',*,*,#411,.F.);
#269=ORIENTED_EDGE('',*,*,#505,.F.);
#270=ORIENTED_EDGE('',*,*,#507,.F.);
#271=ORIENTED_EDGE('',*,*,#508,.T.);
#272=ORIENTED_EDGE('',*,*,#414,.F.);
#273=ORIENTED_EDGE('',*,*,#509,.F.);
#274=ORIENTED_EDGE('',*,*,#510,.F.);
#275=ORIENTED_EDGE('',*,*,#511,.T.);
#276=ORIENTED_EDGE('',*,*,#415,.F.);
#277=ORIENTED_EDGE('',*,*,#508,.F.);
#278=ORIENTED_EDGE('',*,*,#512,.F.);
#279=ORIENTED_EDGE('',*,*,#513,.T.);
#280=ORIENTED_EDGE('',*,*,#416,.F.);
#281=ORIENTED_EDGE('',*,*,#511,.F.);
#282=ORIENTED_EDGE('',*,*,#514,.F.);
#283=ORIENTED_EDGE('',*,*,#509,.T.);
#284=ORIENTED_EDGE('',*,*,#413,.F.);
#285=ORIENTED_EDGE('',*,*,#513,.F.);
#286=ORIENTED_EDGE('',*,*,#515,.T.);
#287=ORIENTED_EDGE('',*,*,#516,.T.);
#288=ORIENTED_EDGE('',*,*,#517,.T.);
#289=ORIENTED_EDGE('',*,*,#518,.T.);
#290=ORIENTED_EDGE('',*,*,#514,.T.);
#291=ORIENTED_EDGE('',*,*,#512,.T.);
#292=ORIENTED_EDGE('',*,*,#510,.T.);
#293=ORIENTED_EDGE('',*,*,#507,.T.);
#294=ORIENTED_EDGE('',*,*,#506,.T.);
#295=ORIENTED_EDGE('',*,*,#504,.T.);
#296=ORIENTED_EDGE('',*,*,#502,.T.);
#297=ORIENTED_EDGE('',*,*,#499,.T.);
#298=ORIENTED_EDGE('',*,*,#498,.T.);
#299=ORIENTED_EDGE('',*,*,#496,.T.);
#300=ORIENTED_EDGE('',*,*,#494,.T.);
#301=ORIENTED_EDGE('',*,*,#491,.T.);
#302=ORIENTED_EDGE('',*,*,#490,.T.);
#303=ORIENTED_EDGE('',*,*,#488,.F.);
#304=ORIENTED_EDGE('',*,*,#486,.F.);
#305=ORIENTED_EDGE('',*,*,#483,.T.);
#306=ORIENTED_EDGE('',*,*,#482,.F.);
#307=ORIENTED_EDGE('',*,*,#480,.T.);
#308=ORIENTED_EDGE('',*,*,#478,.T.);
#309=ORIENTED_EDGE('',*,*,#475,.F.);
#310=ORIENTED_EDGE('',*,*,#474,.F.);
#311=ORIENTED_EDGE('',*,*,#472,.T.);
#312=ORIENTED_EDGE('',*,*,#470,.T.);
#313=ORIENTED_EDGE('',*,*,#467,.F.);
#314=ORIENTED_EDGE('',*,*,#466,.T.);
#315=ORIENTED_EDGE('',*,*,#464,.F.);
#316=ORIENTED_EDGE('',*,*,#462,.F.);
#317=ORIENTED_EDGE('',*,*,#459,.T.);
#318=ORIENTED_EDGE('',*,*,#458,.F.);
#319=ORIENTED_EDGE('',*,*,#456,.T.);
#320=ORIENTED_EDGE('',*,*,#454,.T.);
#321=ORIENTED_EDGE('',*,*,#451,.F.);
#322=ORIENTED_EDGE('',*,*,#450,.T.);
#323=ORIENTED_EDGE('',*,*,#448,.F.);
#324=ORIENTED_EDGE('',*,*,#446,.F.);
#325=ORIENTED_EDGE('',*,*,#443,.T.);
#326=ORIENTED_EDGE('',*,*,#442,.T.);
#327=ORIENTED_EDGE('',*,*,#440,.F.);
#328=ORIENTED_EDGE('',*,*,#438,.F.);
#329=ORIENTED_EDGE('',*,*,#435,.T.);
#330=ORIENTED_EDGE('',*,*,#434,.F.);
#331=ORIENTED_EDGE('',*,*,#432,.T.);
#332=ORIENTED_EDGE('',*,*,#430,.T.);
#333=ORIENTED_EDGE('',*,*,#427,.F.);
#334=ORIENTED_EDGE('',*,*,#425,.T.);
#335=ORIENTED_EDGE('',*,*,#424,.F.);
#336=ORIENTED_EDGE('',*,*,#422,.F.);
#337=ORIENTED_EDGE('',*,*,#420,.F.);
#338=ORIENTED_EDGE('',*,*,#417,.F.);
#339=ORIENTED_EDGE('',*,*,#516,.F.);
#340=ORIENTED_EDGE('',*,*,#519,.T.);
#341=ORIENTED_EDGE('',*,*,#520,.F.);
#342=ORIENTED_EDGE('',*,*,#521,.F.);
#343=ORIENTED_EDGE('',*,*,#515,.F.);
#344=ORIENTED_EDGE('',*,*,#522,.T.);
#345=ORIENTED_EDGE('',*,*,#523,.F.);
#346=ORIENTED_EDGE('',*,*,#519,.F.);
#347=ORIENTED_EDGE('',*,*,#524,.T.);
#348=ORIENTED_EDGE('',*,*,#520,.T.);
#349=ORIENTED_EDGE('',*,*,#523,.T.);
#350=ORIENTED_EDGE('',*,*,#525,.T.);
#351=ORIENTED_EDGE('',*,*,#517,.F.);
#352=ORIENTED_EDGE('',*,*,#521,.T.);
#353=ORIENTED_EDGE('',*,*,#524,.F.);
#354=ORIENTED_EDGE('',*,*,#526,.F.);
#355=ORIENTED_EDGE('',*,*,#518,.F.);
#356=ORIENTED_EDGE('',*,*,#526,.T.);
#357=ORIENTED_EDGE('',*,*,#525,.F.);
#358=ORIENTED_EDGE('',*,*,#522,.F.);
#359=EDGE_CURVE('',#527,#528,#639,.T.);
#360=EDGE_CURVE('',#529,#527,#640,.T.);
#361=EDGE_CURVE('',#529,#530,#641,.T.);
#362=EDGE_CURVE('',#528,#530,#642,.T.);
#363=EDGE_CURVE('',#528,#531,#643,.T.);
#364=EDGE_CURVE('',#531,#532,#644,.T.);
#365=EDGE_CURVE('',#532,#533,#645,.T.);
#366=EDGE_CURVE('',#533,#534,#646,.T.);
#367=EDGE_CURVE('',#534,#527,#647,.T.);
#368=EDGE_CURVE('',#530,#535,#648,.T.);
#369=EDGE_CURVE('',#536,#529,#649,.T.);
#370=EDGE_CURVE('',#535,#536,#650,.T.);
#371=EDGE_CURVE('',#531,#535,#651,.T.);
#372=EDGE_CURVE('',#537,#537,#21,.T.);
#373=EDGE_CURVE('',#538,#539,#652,.T.);
#374=EDGE_CURVE('',#539,#540,#653,.T.);
#375=EDGE_CURVE('',#540,#541,#654,.T.);
#376=EDGE_CURVE('',#541,#538,#655,.T.);
#377=EDGE_CURVE('',#542,#543,#656,.T.);
#378=EDGE_CURVE('',#543,#544,#657,.T.);
#379=EDGE_CURVE('',#544,#545,#658,.T.);
#380=EDGE_CURVE('',#545,#542,#659,.T.);
#381=EDGE_CURVE('',#546,#547,#660,.T.);
#382=EDGE_CURVE('',#547,#548,#661,.T.);
#383=EDGE_CURVE('',#548,#549,#662,.T.);
#384=EDGE_CURVE('',#549,#546,#663,.T.);
#385=EDGE_CURVE('',#550,#551,#664,.T.);
#386=EDGE_CURVE('',#551,#552,#665,.T.);
#387=EDGE_CURVE('',#552,#553,#666,.T.);
#388=EDGE_CURVE('',#553,#550,#667,.T.);
#389=EDGE_CURVE('',#554,#555,#668,.T.);
#390=EDGE_CURVE('',#555,#556,#669,.T.);
#391=EDGE_CURVE('',#556,#557,#670,.T.);
#392=EDGE_CURVE('',#557,#554,#671,.T.);
#393=EDGE_CURVE('',#558,#559,#672,.T.);
#394=EDGE_CURVE('',#559,#560,#673,.T.);
#395=EDGE_CURVE('',#560,#561,#674,.T.);
#396=EDGE_CURVE('',#561,#558,#675,.T.);
#397=EDGE_CURVE('',#562,#563,#676,.T.);
#398=EDGE_CURVE('',#563,#564,#677,.T.);
#399=EDGE_CURVE('',#564,#565,#678,.T.);
#400=EDGE_CURVE('',#565,#562,#679,.T.);
#401=EDGE_CURVE('',#566,#567,#680,.T.);
#402=EDGE_CURVE('',#567,#568,#681,.T.);
#403=EDGE_CURVE('',#568,#569,#682,.T.);
#404=EDGE_CURVE('',#569,#566,#683,.T.);
#405=EDGE_CURVE('',#570,#571,#684,.T.);
#406=EDGE_CURVE('',#571,#572,#685,.T.);
#407=EDGE_CURVE('',#572,#573,#686,.T.);
#408=EDGE_CURVE('',#573,#570,#687,.T.);
#409=EDGE_CURVE('',#574,#575,#688,.T.);
#410=EDGE_CURVE('',#575,#576,#689,.T.);
#411=EDGE_CURVE('',#576,#577,#690,.T.);
#412=EDGE_CURVE('',#577,#574,#691,.T.);
#413=EDGE_CURVE('',#578,#579,#692,.T.);
#414=EDGE_CURVE('',#579,#580,#693,.T.);
#415=EDGE_CURVE('',#580,#581,#694,.T.);
#416=EDGE_CURVE('',#581,#578,#695,.T.);
#417=EDGE_CURVE('',#582,#583,#696,.T.);
#418=EDGE_CURVE('',#583,#533,#697,.T.);
#419=EDGE_CURVE('',#582,#532,#698,.T.);
#420=EDGE_CURVE('',#583,#584,#699,.T.);
#421=EDGE_CURVE('',#584,#534,#700,.T.);
#422=EDGE_CURVE('',#584,#585,#701,.T.);
#423=EDGE_CURVE('',#585,#536,#702,.T.);
#424=EDGE_CURVE('',#585,#582,#703,.T.);
#425=EDGE_CURVE('',#586,#586,#22,.T.);
#426=EDGE_CURVE('',#586,#537,#704,.T.);
#427=EDGE_CURVE('',#587,#588,#705,.T.);
#428=EDGE_CURVE('',#588,#541,#706,.T.);
#429=EDGE_CURVE('',#587,#540,#707,.T.);
#430=EDGE_CURVE('',#589,#588,#708,.T.);
#431=EDGE_CURVE('',#589,#538,#709,.T.);
#432=EDGE_CURVE('',#590,#589,#710,.T.);
#433=EDGE_CURVE('',#590,#539,#711,.T.);
#434=EDGE_CURVE('',#590,#587,#712,.T.);
#435=EDGE_CURVE('',#591,#592,#713,.T.);
#436=EDGE_CURVE('',#591,#545,#714,.T.);
#437=EDGE_CURVE('',#592,#544,#715,.T.);
#438=EDGE_CURVE('',#591,#593,#716,.T.);
#439=EDGE_CURVE('',#593,#542,#717,.T.);
#440=EDGE_CURVE('',#593,#594,#718,.T.);
#441=EDGE_CURVE('',#594,#543,#719,.T.);
#442=EDGE_CURVE('',#592,#594,#720,.T.);
#443=EDGE_CURVE('',#595,#596,#721,.T.);
#444=EDGE_CURVE('',#595,#549,#722,.T.);
#445=EDGE_CURVE('',#596,#548,#723,.T.);
#446=EDGE_CURVE('',#595,#597,#724,.T.);
#447=EDGE_CURVE('',#597,#546,#725,.T.);
#448=EDGE_CURVE('',#597,#598,#726,.T.);
#449=EDGE_CURVE('',#598,#547,#727,.T.);
#450=EDGE_CURVE('',#596,#598,#728,.T.);
#451=EDGE_CURVE('',#599,#600,#729,.T.);
#452=EDGE_CURVE('',#600,#553,#730,.T.);
#453=EDGE_CURVE('',#599,#552,#731,.T.);
#454=EDGE_CURVE('',#601,#600,#732,.T.);
#455=EDGE_CURVE('',#601,#550,#733,.T.);
#456=EDGE_CURVE('',#602,#601,#734,.T.);
#457=EDGE_CURVE('',#602,#551,#735,.T.);
#458=EDGE_CURVE('',#602,#599,#736,.T.);
#459=EDGE_CURVE('',#603,#604,#737,.T.);
#460=EDGE_CURVE('',#603,#557,#738,.T.);
#461=EDGE_CURVE('',#604,#556,#739,.T.);
#462=EDGE_CURVE('',#603,#605,#740,.T.);
#463=EDGE_CURVE('',#605,#554,#741,.T.);
#464=EDGE_CURVE('',#605,#606,#742,.T.);
#465=EDGE_CURVE('',#606,#555,#743,.T.);
#466=EDGE_CURVE('',#604,#606,#744,.T.);
#467=EDGE_CURVE('',#607,#608,#745,.T.);
#468=EDGE_CURVE('',#608,#561,#746,.T.);
#469=EDGE_CURVE('',#607,#560,#747,.T.);
#470=EDGE_CURVE('',#609,#608,#748,.T.);
#471=EDGE_CURVE('',#609,#558,#749,.T.);
#472=EDGE_CURVE('',#610,#609,#750,.T.);
#473=EDGE_CURVE('',#610,#559,#751,.T.);
#474=EDGE_CURVE('',#610,#607,#752,.T.);
#475=EDGE_CURVE('',#611,#612,#753,.T.);
#476=EDGE_CURVE('',#612,#565,#754,.T.);
#477=EDGE_CURVE('',#611,#564,#755,.T.);
#478=EDGE_CURVE('',#613,#612,#756,.T.);
#479=EDGE_CURVE('',#613,#562,#757,.T.);
#480=EDGE_CURVE('',#614,#613,#758,.T.);
#481=EDGE_CURVE('',#614,#563,#759,.T.);
#482=EDGE_CURVE('',#614,#611,#760,.T.);
#483=EDGE_CURVE('',#615,#616,#761,.T.);
#484=EDGE_CURVE('',#615,#569,#762,.T.);
#485=EDGE_CURVE('',#616,#568,#763,.T.);
#486=EDGE_CURVE('',#615,#617,#764,.T.);
#487=EDGE_CURVE('',#617,#566,#765,.T.);
#488=EDGE_CURVE('',#617,#618,#766,.T.);
#489=EDGE_CURVE('',#618,#567,#767,.T.);
#490=EDGE_CURVE('',#616,#618,#768,.T.);
#491=EDGE_CURVE('',#619,#620,#769,.T.);
#492=EDGE_CURVE('',#619,#570,#770,.T.);
#493=EDGE_CURVE('',#620,#573,#771,.T.);
#494=EDGE_CURVE('',#621,#619,#772,.T.);
#495=EDGE_CURVE('',#621,#571,#773,.T.);
#496=EDGE_CURVE('',#622,#621,#774,.T.);
#497=EDGE_CURVE('',#622,#572,#775,.T.);
#498=EDGE_CURVE('',#620,#622,#776,.T.);
#499=EDGE_CURVE('',#623,#624,#777,.T.);
#500=EDGE_CURVE('',#623,#574,#778,.T.);
#501=EDGE_CURVE('',#624,#577,#779,.T.);
#502=EDGE_CURVE('',#625,#623,#780,.T.);
#503=EDGE_CURVE('',#625,#575,#781,.T.);
#504=EDGE_CURVE('',#626,#625,#782,.T.);
#505=EDGE_CURVE('',#626,#576,#783,.T.);
#506=EDGE_CURVE('',#624,#626,#784,.T.);
#507=EDGE_CURVE('',#627,#628,#785,.T.);
#508=EDGE_CURVE('',#627,#580,#786,.T.);
#509=EDGE_CURVE('',#628,#579,#787,.T.);
#510=EDGE_CURVE('',#629,#627,#788,.T.);
#511=EDGE_CURVE('',#629,#581,#789,.T.);
#512=EDGE_CURVE('',#630,#629,#790,.T.);
#513=EDGE_CURVE('',#630,#578,#791,.T.);
#514=EDGE_CURVE('',#628,#630,#792,.T.);
#515=EDGE_CURVE('',#631,#632,#793,.T.);
#516=EDGE_CURVE('',#632,#633,#794,.T.);
#517=EDGE_CURVE('',#633,#634,#795,.T.);
#518=EDGE_CURVE('',#634,#631,#796,.T.);
#519=EDGE_CURVE('',#632,#635,#797,.T.);
#520=EDGE_CURVE('',#636,#635,#798,.T.);
#521=EDGE_CURVE('',#633,#636,#799,.T.);
#522=EDGE_CURVE('',#631,#637,#800,.T.);
#523=EDGE_CURVE('',#635,#637,#801,.T.);
#524=EDGE_CURVE('',#638,#636,#802,.T.);
#525=EDGE_CURVE('',#637,#638,#803,.T.);
#526=EDGE_CURVE('',#634,#638,#804,.T.);
#527=VERTEX_POINT('',#2174);
#528=VERTEX_POINT('',#2175);
#529=VERTEX_POINT('',#2177);
#530=VERTEX_POINT('',#2179);
#531=VERTEX_POINT('',#2183);
#532=VERTEX_POINT('',#2185);
#533=VERTEX_POINT('',#2187);
#534=VERTEX_POINT('',#2189);
#535=VERTEX_POINT('',#2193);
#536=VERTEX_POINT('',#2195);
#537=VERTEX_POINT('',#2201);
#538=VERTEX_POINT('',#2204);
#539=VERTEX_POINT('',#2205);
#540=VERTEX_POINT('',#2207);
#541=VERTEX_POINT('',#2209);
#542=VERTEX_POINT('',#2213);
#543=VERTEX_POINT('',#2214);
#544=VERTEX_POINT('',#2216);
#545=VERTEX_POINT('',#2218);
#546=VERTEX_POINT('',#2222);
#547=VERTEX_POINT('',#2223);
#548=VERTEX_POINT('',#2225);
#549=VERTEX_POINT('',#2227);
#550=VERTEX_POINT('',#2231);
#551=VERTEX_POINT('',#2232);
#552=VERTEX_POINT('',#2234);
#553=VERTEX_POINT('',#2236);
#554=VERTEX_POINT('',#2240);
#555=VERTEX_POINT('',#2241);
#556=VERTEX_POINT('',#2243);
#557=VERTEX_POINT('',#2245);
#558=VERTEX_POINT('',#2249);
#559=VERTEX_POINT('',#2250);
#560=VERTEX_POINT('',#2252);
#561=VERTEX_POINT('',#2254);
#562=VERTEX_POINT('',#2258);
#563=VERTEX_POINT('',#2259);
#564=VERTEX_POINT('',#2261);
#565=VERTEX_POINT('',#2263);
#566=VERTEX_POINT('',#2267);
#567=VERTEX_POINT('',#2268);
#568=VERTEX_POINT('',#2270);
#569=VERTEX_POINT('',#2272);
#570=VERTEX_POINT('',#2276);
#571=VERTEX_POINT('',#2277);
#572=VERTEX_POINT('',#2279);
#573=VERTEX_POINT('',#2281);
#574=VERTEX_POINT('',#2285);
#575=VERTEX_POINT('',#2286);
#576=VERTEX_POINT('',#2288);
#577=VERTEX_POINT('',#2290);
#578=VERTEX_POINT('',#2294);
#579=VERTEX_POINT('',#2295);
#580=VERTEX_POINT('',#2297);
#581=VERTEX_POINT('',#2299);
#582=VERTEX_POINT('',#2303);
#583=VERTEX_POINT('',#2304);
#584=VERTEX_POINT('',#2309);
#585=VERTEX_POINT('',#2313);
#586=VERTEX_POINT('',#2319);
#587=VERTEX_POINT('',#2323);
#588=VERTEX_POINT('',#2324);
#589=VERTEX_POINT('',#2329);
#590=VERTEX_POINT('',#2333);
#591=VERTEX_POINT('',#2339);
#592=VERTEX_POINT('',#2340);
#593=VERTEX_POINT('',#2345);
#594=VERTEX_POINT('',#2349);
#595=VERTEX_POINT('',#2355);
#596=VERTEX_POINT('',#2356);
#597=VERTEX_POINT('',#2361);
#598=VERTEX_POINT('',#2365);
#599=VERTEX_POINT('',#2371);
#600=VERTEX_POINT('',#2372);
#601=VERTEX_POINT('',#2377);
#602=VERTEX_POINT('',#2381);
#603=VERTEX_POINT('',#2387);
#604=VERTEX_POINT('',#2388);
#605=VERTEX_POINT('',#2393);
#606=VERTEX_POINT('',#2397);
#607=VERTEX_POINT('',#2403);
#608=VERTEX_POINT('',#2404);
#609=VERTEX_POINT('',#2409);
#610=VERTEX_POINT('',#2413);
#611=VERTEX_POINT('',#2419);
#612=VERTEX_POINT('',#2420);
#613=VERTEX_POINT('',#2425);
#614=VERTEX_POINT('',#2429);
#615=VERTEX_POINT('',#2435);
#616=VERTEX_POINT('',#2436);
#617=VERTEX_POINT('',#2441);
#618=VERTEX_POINT('',#2445);
#619=VERTEX_POINT('',#2451);
#620=VERTEX_POINT('',#2452);
#621=VERTEX_POINT('',#2457);
#622=VERTEX_POINT('',#2461);
#623=VERTEX_POINT('',#2467);
#624=VERTEX_POINT('',#2468);
#625=VERTEX_POINT('',#2473);
#626=VERTEX_POINT('',#2477);
#627=VERTEX_POINT('',#2483);
#628=VERTEX_POINT('',#2484);
#629=VERTEX_POINT('',#2489);
#630=VERTEX_POINT('',#2493);
#631=VERTEX_POINT('',#2499);
#632=VERTEX_POINT('',#2500);
#633=VERTEX_POINT('',#2502);
#634=VERTEX_POINT('',#2504);
#635=VERTEX_POINT('',#2508);
#636=VERTEX_POINT('',#2510);
#637=VERTEX_POINT('',#2514);
#638=VERTEX_POINT('',#2518);
#639=LINE('',#2173,#805);
#640=LINE('',#2176,#806);
#641=LINE('',#2178,#807);
#642=LINE('',#2180,#808);
#643=LINE('',#2182,#809);
#644=LINE('',#2184,#810);
#645=LINE('',#2186,#811);
#646=LINE('',#2188,#812);
#647=LINE('',#2190,#813);
#648=LINE('',#2192,#814);
#649=LINE('',#2194,#815);
#650=LINE('',#2196,#816);
#651=LINE('',#2198,#817);
#652=LINE('',#2203,#818);
#653=LINE('',#2206,#819);
#654=LINE('',#2208,#820);
#655=LINE('',#2210,#821);
#656=LINE('',#2212,#822);
#657=LINE('',#2215,#823);
#658=LINE('',#2217,#824);
#659=LINE('',#2219,#825);
#660=LINE('',#2221,#826);
#661=LINE('',#2224,#827);
#662=LINE('',#2226,#828);
#663=LINE('',#2228,#829);
#664=LINE('',#2230,#830);
#665=LINE('',#2233,#831);
#666=LINE('',#2235,#832);
#667=LINE('',#2237,#833);
#668=LINE('',#2239,#834);
#669=LINE('',#2242,#835);
#670=LINE('',#2244,#836);
#671=LINE('',#2246,#837);
#672=LINE('',#2248,#838);
#673=LINE('',#2251,#839);
#674=LINE('',#2253,#840);
#675=LINE('',#2255,#841);
#676=LINE('',#2257,#842);
#677=LINE('',#2260,#843);
#678=LINE('',#2262,#844);
#679=LINE('',#2264,#845);
#680=LINE('',#2266,#846);
#681=LINE('',#2269,#847);
#682=LINE('',#2271,#848);
#683=LINE('',#2273,#849);
#684=LINE('',#2275,#850);
#685=LINE('',#2278,#851);
#686=LINE('',#2280,#852);
#687=LINE('',#2282,#853);
#688=LINE('',#2284,#854);
#689=LINE('',#2287,#855);
#690=LINE('',#2289,#856);
#691=LINE('',#2291,#857);
#692=LINE('',#2293,#858);
#693=LINE('',#2296,#859);
#694=LINE('',#2298,#860);
#695=LINE('',#2300,#861);
#696=LINE('',#2302,#862);
#697=LINE('',#2305,#863);
#698=LINE('',#2306,#864);
#699=LINE('',#2308,#865);
#700=LINE('',#2310,#866);
#701=LINE('',#2312,#867);
#702=LINE('',#2314,#868);
#703=LINE('',#2316,#869);
#704=LINE('',#2320,#870);
#705=LINE('',#2322,#871);
#706=LINE('',#2325,#872);
#707=LINE('',#2326,#873);
#708=LINE('',#2328,#874);
#709=LINE('',#2330,#875);
#710=LINE('',#2332,#876);
#711=LINE('',#2334,#877);
#712=LINE('',#2336,#878);
#713=LINE('',#2338,#879);
#714=LINE('',#2341,#880);
#715=LINE('',#2342,#881);
#716=LINE('',#2344,#882);
#717=LINE('',#2346,#883);
#718=LINE('',#2348,#884);
#719=LINE('',#2350,#885);
#720=LINE('',#2352,#886);
#721=LINE('',#2354,#887);
#722=LINE('',#2357,#888);
#723=LINE('',#2358,#889);
#724=LINE('',#2360,#890);
#725=LINE('',#2362,#891);
#726=LINE('',#2364,#892);
#727=LINE('',#2366,#893);
#728=LINE('',#2368,#894);
#729=LINE('',#2370,#895);
#730=LINE('',#2373,#896);
#731=LINE('',#2374,#897);
#732=LINE('',#2376,#898);
#733=LINE('',#2378,#899);
#734=LINE('',#2380,#900);
#735=LINE('',#2382,#901);
#736=LINE('',#2384,#902);
#737=LINE('',#2386,#903);
#738=LINE('',#2389,#904);
#739=LINE('',#2390,#905);
#740=LINE('',#2392,#906);
#741=LINE('',#2394,#907);
#742=LINE('',#2396,#908);
#743=LINE('',#2398,#909);
#744=LINE('',#2400,#910);
#745=LINE('',#2402,#911);
#746=LINE('',#2405,#912);
#747=LINE('',#2406,#913);
#748=LINE('',#2408,#914);
#749=LINE('',#2410,#915);
#750=LINE('',#2412,#916);
#751=LINE('',#2414,#917);
#752=LINE('',#2416,#918);
#753=LINE('',#2418,#919);
#754=LINE('',#2421,#920);
#755=LINE('',#2422,#921);
#756=LINE('',#2424,#922);
#757=LINE('',#2426,#923);
#758=LINE('',#2428,#924);
#759=LINE('',#2430,#925);
#760=LINE('',#2432,#926);
#761=LINE('',#2434,#927);
#762=LINE('',#2437,#928);
#763=LINE('',#2438,#929);
#764=LINE('',#2440,#930);
#765=LINE('',#2442,#931);
#766=LINE('',#2444,#932);
#767=LINE('',#2446,#933);
#768=LINE('',#2448,#934);
#769=LINE('',#2450,#935);
#770=LINE('',#2453,#936);
#771=LINE('',#2454,#937);
#772=LINE('',#2456,#938);
#773=LINE('',#2458,#939);
#774=LINE('',#2460,#940);
#775=LINE('',#2462,#941);
#776=LINE('',#2464,#942);
#777=LINE('',#2466,#943);
#778=LINE('',#2469,#944);
#779=LINE('',#2470,#945);
#780=LINE('',#2472,#946);
#781=LINE('',#2474,#947);
#782=LINE('',#2476,#948);
#783=LINE('',#2478,#949);
#784=LINE('',#2480,#950);
#785=LINE('',#2482,#951);
#786=LINE('',#2485,#952);
#787=LINE('',#2486,#953);
#788=LINE('',#2488,#954);
#789=LINE('',#2490,#955);
#790=LINE('',#2492,#956);
#791=LINE('',#2494,#957);
#792=LINE('',#2496,#958);
#793=LINE('',#2498,#959);
#794=LINE('',#2501,#960);
#795=LINE('',#2503,#961);
#796=LINE('',#2505,#962);
#797=LINE('',#2507,#963);
#798=LINE('',#2509,#964);
#799=LINE('',#2511,#965);
#800=LINE('',#2513,#966);
#801=LINE('',#2515,#967);
#802=LINE('',#2517,#968);
#803=LINE('',#2519,#969);
#804=LINE('',#2521,#970);
#805=VECTOR('',#1861,1000.);
#806=VECTOR('',#1862,1000.);
#807=VECTOR('',#1863,1000.);
#808=VECTOR('',#1864,1000.);
#809=VECTOR('',#1867,1000.);
#810=VECTOR('',#1868,1000.);
#811=VECTOR('',#1869,1000.);
#812=VECTOR('',#1870,1000.);
#813=VECTOR('',#1871,1000.);
#814=VECTOR('',#1874,1000.);
#815=VECTOR('',#1875,1000.);
#816=VECTOR('',#1876,1000.);
#817=VECTOR('',#1879,1000.);
#818=VECTOR('',#1886,1000.);
#819=VECTOR('',#1887,1000.);
#820=VECTOR('',#1888,1000.);
#821=VECTOR('',#1889,1000.);
#822=VECTOR('',#1892,1000.);
#823=VECTOR('',#1893,1000.);
#824=VECTOR('',#1894,1000.);
#825=VECTOR('',#1895,1000.);
#826=VECTOR('',#1898,1000.);
#827=VECTOR('',#1899,1000.);
#828=VECTOR('',#1900,1000.);
#829=VECTOR('',#1901,1000.);
#830=VECTOR('',#1904,1000.);
#831=VECTOR('',#1905,1000.);
#832=VECTOR('',#1906,1000.);
#833=VECTOR('',#1907,1000.);
#834=VECTOR('',#1910,1000.);
#835=VECTOR('',#1911,1000.);
#836=VECTOR('',#1912,1000.);
#837=VECTOR('',#1913,1000.);
#838=VECTOR('',#1916,1000.);
#839=VECTOR('',#1917,1000.);
#840=VECTOR('',#1918,1000.);
#841=VECTOR('',#1919,1000.);
#842=VECTOR('',#1922,1000.);
#843=VECTOR('',#1923,1000.);
#844=VECTOR('',#1924,1000.);
#845=VECTOR('',#1925,1000.);
#846=VECTOR('',#1928,1000.);
#847=VECTOR('',#1929,1000.);
#848=VECTOR('',#1930,1000.);
#849=VECTOR('',#1931,1000.);
#850=VECTOR('',#1934,1000.);
#851=VECTOR('',#1935,1000.);
#852=VECTOR('',#1936,1000.);
#853=VECTOR('',#1937,1000.);
#854=VECTOR('',#1940,1000.);
#855=VECTOR('',#1941,1000.);
#856=VECTOR('',#1942,1000.);
#857=VECTOR('',#1943,1000.);
#858=VECTOR('',#1946,1000.);
#859=VECTOR('',#1947,1000.);
#860=VECTOR('',#1948,1000.);
#861=VECTOR('',#1949,1000.);
#862=VECTOR('',#1952,1000.);
#863=VECTOR('',#1953,1000.);
#864=VECTOR('',#1954,1000.);
#865=VECTOR('',#1957,1000.);
#866=VECTOR('',#1958,1000.);
#867=VECTOR('',#1961,1000.);
#868=VECTOR('',#1962,1000.);
#869=VECTOR('',#1965,1000.);
#870=VECTOR('',#1970,1000.);
#871=VECTOR('',#1973,1000.);
#872=VECTOR('',#1974,1000.);
#873=VECTOR('',#1975,1000.);
#874=VECTOR('',#1978,1000.);
#875=VECTOR('',#1979,1000.);
#876=VECTOR('',#1982,1000.);
#877=VECTOR('',#1983,1000.);
#878=VECTOR('',#1986,1000.);
#879=VECTOR('',#1989,1000.);
#880=VECTOR('',#1990,1000.);
#881=VECTOR('',#1991,1000.);
#882=VECTOR('',#1994,1000.);
#883=VECTOR('',#1995,1000.);
#884=VECTOR('',#1998,1000.);
#885=VECTOR('',#1999,1000.);
#886=VECTOR('',#2002,1000.);
#887=VECTOR('',#2005,1000.);
#888=VECTOR('',#2006,1000.);
#889=VECTOR('',#2007,1000.);
#890=VECTOR('',#2010,1000.);
#891=VECTOR('',#2011,1000.);
#892=VECTOR('',#2014,1000.);
#893=VECTOR('',#2015,1000.);
#894=VECTOR('',#2018,1000.);
#895=VECTOR('',#2021,1000.);
#896=VECTOR('',#2022,1000.);
#897=VECTOR('',#2023,1000.);
#898=VECTOR('',#2026,1000.);
#899=VECTOR('',#2027,1000.);
#900=VECTOR('',#2030,1000.);
#901=VECTOR('',#2031,1000.);
#902=VECTOR('',#2034,1000.);
#903=VECTOR('',#2037,1000.);
#904=VECTOR('',#2038,1000.);
#905=VECTOR('',#2039,1000.);
#906=VECTOR('',#2042,1000.);
#907=VECTOR('',#2043,1000.);
#908=VECTOR('',#2046,1000.);
#909=VECTOR('',#2047,1000.);
#910=VECTOR('',#2050,1000.);
#911=VECTOR('',#2053,1000.);
#912=VECTOR('',#2054,1000.);
#913=VECTOR('',#2055,1000.);
#914=VECTOR('',#2058,1000.);
#915=VECTOR('',#2059,1000.);
#916=VECTOR('',#2062,1000.);
#917=VECTOR('',#2063,1000.);
#918=VECTOR('',#2066,1000.);
#919=VECTOR('',#2069,1000.);
#920=VECTOR('',#2070,1000.);
#921=VECTOR('',#2071,1000.);
#922=VECTOR('',#2074,1000.);
#923=VECTOR('',#2075,1000.);
#924=VECTOR('',#2078,1000.);
#925=VECTOR('',#2079,1000.);
#926=VECTOR('',#2082,1000.);
#927=VECTOR('',#2085,1000.);
#928=VECTOR('',#2086,1000.);
#929=VECTOR('',#2087,1000.);
#930=VECTOR('',#2090,1000.);
#931=VECTOR('',#2091,1000.);
#932=VECTOR('',#2094,1000.);
#933=VECTOR('',#2095,1000.);
#934=VECTOR('',#2098,1000.);
#935=VECTOR('',#2101,1000.);
#936=VECTOR('',#2102,1000.);
#937=VECTOR('',#2103,1000.);
#938=VECTOR('',#2106,1000.);
#939=VECTOR('',#2107,1000.);
#940=VECTOR('',#2110,1000.);
#941=VECTOR('',#2111,1000.);
#942=VECTOR('',#2114,1000.);
#943=VECTOR('',#2117,1000.);
#944=VECTOR('',#2118,1000.);
#945=VECTOR('',#2119,1000.);
#946=VECTOR('',#2122,1000.);
#947=VECTOR('',#2123,1000.);
#948=VECTOR('',#2126,1000.);
#949=VECTOR('',#2127,1000.);
#950=VECTOR('',#2130,1000.);
#951=VECTOR('',#2133,1000.);
#952=VECTOR('',#2134,1000.);
#953=VECTOR('',#2135,1000.);
#954=VECTOR('',#2138,1000.);
#955=VECTOR('',#2139,1000.);
#956=VECTOR('',#2142,1000.);
#957=VECTOR('',#2143,1000.);
#958=VECTOR('',#2146,1000.);
#959=VECTOR('',#2149,1000.);
#960=VECTOR('',#2150,1000.);
#961=VECTOR('',#2151,1000.);
#962=VECTOR('',#2152,1000.);
#963=VECTOR('',#2155,1000.);
#964=VECTOR('',#2156,1000.);
#965=VECTOR('',#2157,1000.);
#966=VECTOR('',#2160,1000.);
#967=VECTOR('',#2161,1000.);
#968=VECTOR('',#2164,1000.);
#969=VECTOR('',#2165,1000.);
#970=VECTOR('',#2168,1000.);
#971=EDGE_LOOP('',(#23,#24,#25,#26));
#972=EDGE_LOOP('',(#27,#28,#29,#30,#31,#32));
#973=EDGE_LOOP('',(#33,#34,#35,#36));
#974=EDGE_LOOP('',(#37,#38,#39,#40));
#975=EDGE_LOOP('',(#41));
#976=EDGE_LOOP('',(#42,#43,#44,#45));
#977=EDGE_LOOP('',(#46,#47,#48,#49));
#978=EDGE_LOOP('',(#50,#51,#52,#53));
#979=EDGE_LOOP('',(#54,#55,#56,#57));
#980=EDGE_LOOP('',(#58,#59,#60,#61));
#981=EDGE_LOOP('',(#62,#63,#64,#65));
#982=EDGE_LOOP('',(#66,#67,#68,#69));
#983=EDGE_LOOP('',(#70,#71,#72,#73));
#984=EDGE_LOOP('',(#74,#75,#76,#77));
#985=EDGE_LOOP('',(#78,#79,#80,#81));
#986=EDGE_LOOP('',(#82,#83,#84,#85));
#987=EDGE_LOOP('',(#86,#87,#88,#89));
#988=EDGE_LOOP('',(#90,#91,#92,#93));
#989=EDGE_LOOP('',(#94,#95,#96,#97,#98,#99));
#990=EDGE_LOOP('',(#100,#101,#102,#103,#104,#105));
#991=EDGE_LOOP('',(#106,#107,#108,#109));
#992=EDGE_LOOP('',(#110,#111,#112,#113));
#993=EDGE_LOOP('',(#114,#115,#116,#117));
#994=EDGE_LOOP('',(#118,#119,#120,#121));
#995=EDGE_LOOP('',(#122,#123,#124,#125));
#996=EDGE_LOOP('',(#126,#127,#128,#129));
#997=EDGE_LOOP('',(#130,#131,#132,#133));
#998=EDGE_LOOP('',(#134,#135,#136,#137));
#999=EDGE_LOOP('',(#138,#139,#140,#141));
#1000=EDGE_LOOP('',(#142,#143,#144,#145));
#1001=EDGE_LOOP('',(#146,#147,#148,#149));
#1002=EDGE_LOOP('',(#150,#151,#152,#153));
#1003=EDGE_LOOP('',(#154,#155,#156,#157));
#1004=EDGE_LOOP('',(#158,#159,#160,#161));
#1005=EDGE_LOOP('',(#162,#163,#164,#165));
#1006=EDGE_LOOP('',(#166,#167,#168,#169));
#1007=EDGE_LOOP('',(#170,#171,#172,#173));
#1008=EDGE_LOOP('',(#174,#175,#176,#177));
#1009=EDGE_LOOP('',(#178,#179,#180,#181));
#1010=EDGE_LOOP('',(#182,#183,#184,#185));
#1011=EDGE_LOOP('',(#186,#187,#188,#189));
#1012=EDGE_LOOP('',(#190,#191,#192,#193));
#1013=EDGE_LOOP('',(#194,#195,#196,#197));
#1014=EDGE_LOOP('',(#198,#199,#200,#201));
#1015=EDGE_LOOP('',(#202,#203,#204,#205));
#1016=EDGE_LOOP('',(#206,#207,#208,#209));
#1017=EDGE_LOOP('',(#210,#211,#212,#213));
#1018=EDGE_LOOP('',(#214,#215,#216,#217));
#1019=EDGE_LOOP('',(#218,#219,#220,#221));
#1020=EDGE_LOOP('',(#222,#223,#224,#225));
#1021=EDGE_LOOP('',(#226,#227,#228,#229));
#1022=EDGE_LOOP('',(#230,#231,#232,#233));
#1023=EDGE_LOOP('',(#234,#235,#236,#237));
#1024=EDGE_LOOP('',(#238,#239,#240,#241));
#1025=EDGE_LOOP('',(#242,#243,#244,#245));
#1026=EDGE_LOOP('',(#246,#247,#248,#249));
#1027=EDGE_LOOP('',(#250,#251,#252,#253));
#1028=EDGE_LOOP('',(#254,#255,#256,#257));
#1029=EDGE_LOOP('',(#258,#259,#260,#261));
#1030=EDGE_LOOP('',(#262,#263,#264,#265));
#1031=EDGE_LOOP('',(#266,#267,#268,#269));
#1032=EDGE_LOOP('',(#270,#271,#272,#273));
#1033=EDGE_LOOP('',(#274,#275,#276,#277));
#1034=EDGE_LOOP('',(#278,#279,#280,#281));
#1035=EDGE_LOOP('',(#282,#283,#284,#285));
#1036=EDGE_LOOP('',(#286,#287,#288,#289));
#1037=EDGE_LOOP('',(#290,#291,#292,#293));
#1038=EDGE_LOOP('',(#294,#295,#296,#297));
#1039=EDGE_LOOP('',(#298,#299,#300,#301));
#1040=EDGE_LOOP('',(#302,#303,#304,#305));
#1041=EDGE_LOOP('',(#306,#307,#308,#309));
#1042=EDGE_LOOP('',(#310,#311,#312,#313));
#1043=EDGE_LOOP('',(#314,#315,#316,#317));
#1044=EDGE_LOOP('',(#318,#319,#320,#321));
#1045=EDGE_LOOP('',(#322,#323,#324,#325));
#1046=EDGE_LOOP('',(#326,#327,#328,#329));
#1047=EDGE_LOOP('',(#330,#331,#332,#333));
#1048=EDGE_LOOP('',(#334));
#1049=EDGE_LOOP('',(#335,#336,#337,#338));
#1050=EDGE_LOOP('',(#339,#340,#341,#342));
#1051=EDGE_LOOP('',(#343,#344,#345,#346));
#1052=EDGE_LOOP('',(#347,#348,#349,#350));
#1053=EDGE_LOOP('',(#351,#352,#353,#354));
#1054=EDGE_LOOP('',(#355,#356,#357,#358));
#1055=FACE_BOUND('',#971,.T.);
#1056=FACE_BOUND('',#972,.T.);
#1057=FACE_BOUND('',#973,.T.);
#1058=FACE_BOUND('',#974,.T.);
#1059=FACE_BOUND('',#975,.T.);
#1060=FACE_BOUND('',#976,.T.);
#1061=FACE_BOUND('',#977,.T.);
#1062=FACE_BOUND('',#978,.T.);
#1063=FACE_BOUND('',#979,.T.);
#1064=FACE_BOUND('',#980,.T.);
#1065=FACE_BOUND('',#981,.T.);
#1066=FACE_BOUND('',#982,.T.);
#1067=FACE_BOUND('',#983,.T.);
#1068=FACE_BOUND('',#984,.T.);
#1069=FACE_BOUND('',#985,.T.);
#1070=FACE_BOUND('',#986,.T.);
#1071=FACE_BOUND('',#987,.T.);
#1072=FACE_BOUND('',#988,.T.);
#1073=FACE_BOUND('',#989,.T.);
#1074=FACE_BOUND('',#990,.T.);
#1075=FACE_BOUND('',#991,.T.);
#1076=FACE_BOUND('',#992,.T.);
#1077=FACE_BOUND('',#993,.T.);
#1078=FACE_BOUND('',#994,.T.);
#1079=FACE_BOUND('',#995,.T.);
#1080=FACE_BOUND('',#996,.T.);
#1081=FACE_BOUND('',#997,.T.);
#1082=FACE_BOUND('',#998,.T.);
#1083=FACE_BOUND('',#999,.T.);
#1084=FACE_BOUND('',#1000,.T.);
#1085=FACE_BOUND('',#1001,.T.);
#1086=FACE_BOUND('',#1002,.T.);
#1087=FACE_BOUND('',#1003,.T.);
#1088=FACE_BOUND('',#1004,.T.);
#1089=FACE_BOUND('',#1005,.T.);
#1090=FACE_BOUND('',#1006,.T.);
#1091=FACE_BOUND('',#1007,.T.);
#1092=FACE_BOUND('',#1008,.T.);
#1093=FACE_BOUND('',#1009,.T.);
#1094=FACE_BOUND('',#1010,.T.);
#1095=FACE_BOUND('',#1011,.T.);
#1096=FACE_BOUND('',#1012,.T.);
#1097=FACE_BOUND('',#1013,.T.);
#1098=FACE_BOUND('',#1014,.T.);
#1099=FACE_BOUND('',#1015,.T.);
#1100=FACE_BOUND('',#1016,.T.);
#1101=FACE_BOUND('',#1017,.T.);
#1102=FACE_BOUND('',#1018,.T.);
#1103=FACE_BOUND('',#1019,.T.);
#1104=FACE_BOUND('',#1020,.T.);
#1105=FACE_BOUND('',#1021,.T.);
#1106=FACE_BOUND('',#1022,.T.);
#1107=FACE_BOUND('',#1023,.T.);
#1108=FACE_BOUND('',#1024,.T.);
#1109=FACE_BOUND('',#1025,.T.);
#1110=FACE_BOUND('',#1026,.T.);
#1111=FACE_BOUND('',#1027,.T.);
#1112=FACE_BOUND('',#1028,.T.);
#1113=FACE_BOUND('',#1029,.T.);
#1114=FACE_BOUND('',#1030,.T.);
#1115=FACE_BOUND('',#1031,.T.);
#1116=FACE_BOUND('',#1032,.T.);
#1117=FACE_BOUND('',#1033,.T.);
#1118=FACE_BOUND('',#1034,.T.);
#1119=FACE_BOUND('',#1035,.T.);
#1120=FACE_BOUND('',#1036,.T.);
#1121=FACE_BOUND('',#1037,.T.);
#1122=FACE_BOUND('',#1038,.T.);
#1123=FACE_BOUND('',#1039,.T.);
#1124=FACE_BOUND('',#1040,.T.);
#1125=FACE_BOUND('',#1041,.T.);
#1126=FACE_BOUND('',#1042,.T.);
#1127=FACE_BOUND('',#1043,.T.);
#1128=FACE_BOUND('',#1044,.T.);
#1129=FACE_BOUND('',#1045,.T.);
#1130=FACE_BOUND('',#1046,.T.);
#1131=FACE_BOUND('',#1047,.T.);
#1132=FACE_BOUND('',#1048,.T.);
#1133=FACE_BOUND('',#1049,.T.);
#1134=FACE_BOUND('',#1050,.T.);
#1135=FACE_BOUND('',#1051,.T.);
#1136=FACE_BOUND('',#1052,.T.);
#1137=FACE_BOUND('',#1053,.T.);
#1138=FACE_BOUND('',#1054,.T.);
#1139=PLANE('',#1784);
#1140=PLANE('',#1785);
#1141=PLANE('',#1786);
#1142=PLANE('',#1787);
#1143=PLANE('',#1788);
#1144=PLANE('',#1790);
#1145=PLANE('',#1791);
#1146=PLANE('',#1792);
#1147=PLANE('',#1793);
#1148=PLANE('',#1794);
#1149=PLANE('',#1795);
#1150=PLANE('',#1796);
#1151=PLANE('',#1797);
#1152=PLANE('',#1798);
#1153=PLANE('',#1799);
#1154=PLANE('',#1800);
#1155=PLANE('',#1801);
#1156=PLANE('',#1802);
#1157=PLANE('',#1803);
#1158=PLANE('',#1804);
#1159=PLANE('',#1807);
#1160=PLANE('',#1808);
#1161=PLANE('',#1809);
#1162=PLANE('',#1810);
#1163=PLANE('',#1811);
#1164=PLANE('',#1812);
#1165=PLANE('',#1813);
#1166=PLANE('',#1814);
#1167=PLANE('',#1815);
#1168=PLANE('',#1816);
#1169=PLANE('',#1817);
#1170=PLANE('',#1818);
#1171=PLANE('',#1819);
#1172=PLANE('',#1820);
#1173=PLANE('',#1821);
#1174=PLANE('',#1822);
#1175=PLANE('',#1823);
#1176=PLANE('',#1824);
#1177=PLANE('',#1825);
#1178=PLANE('',#1826);
#1179=PLANE('',#1827);
#1180=PLANE('',#1828);
#1181=PLANE('',#1829);
#1182=PLANE('',#1830);
#1183=PLANE('',#1831);
#1184=PLANE('',#1832);
#1185=PLANE('',#1833);
#1186=PLANE('',#1834);
#1187=PLANE('',#1835);
#1188=PLANE('',#1836);
#1189=PLANE('',#1837);
#1190=PLANE('',#1838);
#1191=PLANE('',#1839);
#1192=PLANE('',#1840);
#1193=PLANE('',#1841);
#1194=PLANE('',#1842);
#1195=PLANE('',#1843);
#1196=PLANE('',#1844);
#1197=PLANE('',#1845);
#1198=PLANE('',#1846);
#1199=PLANE('',#1847);
#1200=PLANE('',#1848);
#1201=PLANE('',#1849);
#1202=PLANE('',#1850);
#1203=PLANE('',#1851);
#1204=PLANE('',#1852);
#1205=PLANE('',#1853);
#1206=PLANE('',#1854);
#1207=PLANE('',#1855);
#1208=PLANE('',#1856);
#1209=STYLED_ITEM('',(#1280),#1708);
#1210=STYLED_ITEM('',(#1281),#1709);
#1211=STYLED_ITEM('',(#1282),#1710);
#1212=STYLED_ITEM('',(#1283),#1711);
#1213=STYLED_ITEM('',(#1284),#1712);
#1214=STYLED_ITEM('',(#1285),#1713);
#1215=STYLED_ITEM('',(#1286),#1714);
#1216=STYLED_ITEM('',(#1287),#1715);
#1217=STYLED_ITEM('',(#1288),#1716);
#1218=STYLED_ITEM('',(#1289),#1717);
#1219=STYLED_ITEM('',(#1290),#1718);
#1220=STYLED_ITEM('',(#1291),#1719);
#1221=STYLED_ITEM('',(#1292),#1720);
#1222=STYLED_ITEM('',(#1293),#1721);
#1223=STYLED_ITEM('',(#1294),#1722);
#1224=STYLED_ITEM('',(#1295),#1723);
#1225=STYLED_ITEM('',(#1296),#1724);
#1226=STYLED_ITEM('',(#1297),#1725);
#1227=STYLED_ITEM('',(#1298),#1726);
#1228=STYLED_ITEM('',(#1299),#1727);
#1229=STYLED_ITEM('',(#1300),#1728);
#1230=STYLED_ITEM('',(#1301),#1729);
#1231=STYLED_ITEM('',(#1302),#1730);
#1232=STYLED_ITEM('',(#1303),#1731);
#1233=STYLED_ITEM('',(#1304),#1732);
#1234=STYLED_ITEM('',(#1305),#1733);
#1235=STYLED_ITEM('',(#1306),#1734);
#1236=STYLED_ITEM('',(#1307),#1735);
#1237=STYLED_ITEM('',(#1308),#1736);
#1238=STYLED_ITEM('',(#1309),#1737);
#1239=STYLED_ITEM('',(#1310),#1738);
#1240=STYLED_ITEM('',(#1311),#1739);
#1241=STYLED_ITEM('',(#1312),#1740);
#1242=STYLED_ITEM('',(#1313),#1741);
#1243=STYLED_ITEM('',(#1314),#1742);
#1244=STYLED_ITEM('',(#1315),#1743);
#1245=STYLED_ITEM('',(#1316),#1744);
#1246=STYLED_ITEM('',(#1317),#1745);
#1247=STYLED_ITEM('',(#1318),#1746);
#1248=STYLED_ITEM('',(#1319),#1747);
#1249=STYLED_ITEM('',(#1320),#1748);
#1250=STYLED_ITEM('',(#1321),#1749);
#1251=STYLED_ITEM('',(#1322),#1750);
#1252=STYLED_ITEM('',(#1323),#1751);
#1253=STYLED_ITEM('',(#1324),#1752);
#1254=STYLED_ITEM('',(#1325),#1753);
#1255=STYLED_ITEM('',(#1326),#1754);
#1256=STYLED_ITEM('',(#1327),#1755);
#1257=STYLED_ITEM('',(#1328),#1756);
#1258=STYLED_ITEM('',(#1329),#1757);
#1259=STYLED_ITEM('',(#1330),#1758);
#1260=STYLED_ITEM('',(#1331),#1759);
#1261=STYLED_ITEM('',(#1332),#1760);
#1262=STYLED_ITEM('',(#1333),#1761);
#1263=STYLED_ITEM('',(#1334),#1762);
#1264=STYLED_ITEM('',(#1335),#1763);
#1265=STYLED_ITEM('',(#1336),#1764);
#1266=STYLED_ITEM('',(#1337),#1765);
#1267=STYLED_ITEM('',(#1338),#1766);
#1268=STYLED_ITEM('',(#1339),#1767);
#1269=STYLED_ITEM('',(#1340),#1768);
#1270=STYLED_ITEM('',(#1341),#1769);
#1271=STYLED_ITEM('',(#1342),#1770);
#1272=STYLED_ITEM('',(#1343),#1771);
#1273=STYLED_ITEM('',(#1344),#1772);
#1274=STYLED_ITEM('',(#1345),#1773);
#1275=STYLED_ITEM('',(#1346),#1774);
#1276=STYLED_ITEM('',(#1347),#1775);
#1277=STYLED_ITEM('',(#1348),#1776);
#1278=STYLED_ITEM('',(#1349),#1777);
#1279=STYLED_ITEM('',(#1350),#1778);
#1280=PRESENTATION_STYLE_ASSIGNMENT((#1351));
#1281=PRESENTATION_STYLE_ASSIGNMENT((#1352));
#1282=PRESENTATION_STYLE_ASSIGNMENT((#1353));
#1283=PRESENTATION_STYLE_ASSIGNMENT((#1354));
#1284=PRESENTATION_STYLE_ASSIGNMENT((#1355));
#1285=PRESENTATION_STYLE_ASSIGNMENT((#1356));
#1286=PRESENTATION_STYLE_ASSIGNMENT((#1357));
#1287=PRESENTATION_STYLE_ASSIGNMENT((#1358));
#1288=PRESENTATION_STYLE_ASSIGNMENT((#1359));
#1289=PRESENTATION_STYLE_ASSIGNMENT((#1360));
#1290=PRESENTATION_STYLE_ASSIGNMENT((#1361));
#1291=PRESENTATION_STYLE_ASSIGNMENT((#1362));
#1292=PRESENTATION_STYLE_ASSIGNMENT((#1363));
#1293=PRESENTATION_STYLE_ASSIGNMENT((#1364));
#1294=PRESENTATION_STYLE_ASSIGNMENT((#1365));
#1295=PRESENTATION_STYLE_ASSIGNMENT((#1366));
#1296=PRESENTATION_STYLE_ASSIGNMENT((#1367));
#1297=PRESENTATION_STYLE_ASSIGNMENT((#1368));
#1298=PRESENTATION_STYLE_ASSIGNMENT((#1369));
#1299=PRESENTATION_STYLE_ASSIGNMENT((#1370));
#1300=PRESENTATION_STYLE_ASSIGNMENT((#1371));
#1301=PRESENTATION_STYLE_ASSIGNMENT((#1372));
#1302=PRESENTATION_STYLE_ASSIGNMENT((#1373));
#1303=PRESENTATION_STYLE_ASSIGNMENT((#1374));
#1304=PRESENTATION_STYLE_ASSIGNMENT((#1375));
#1305=PRESENTATION_STYLE_ASSIGNMENT((#1376));
#1306=PRESENTATION_STYLE_ASSIGNMENT((#1377));
#1307=PRESENTATION_STYLE_ASSIGNMENT((#1378));
#1308=PRESENTATION_STYLE_ASSIGNMENT((#1379));
#1309=PRESENTATION_STYLE_ASSIGNMENT((#1380));
#1310=PRESENTATION_STYLE_ASSIGNMENT((#1381));
#1311=PRESENTATION_STYLE_ASSIGNMENT((#1382));
#1312=PRESENTATION_STYLE_ASSIGNMENT((#1383));
#1313=PRESENTATION_STYLE_ASSIGNMENT((#1384));
#1314=PRESENTATION_STYLE_ASSIGNMENT((#1385));
#1315=PRESENTATION_STYLE_ASSIGNMENT((#1386));
#1316=PRESENTATION_STYLE_ASSIGNMENT((#1387));
#1317=PRESENTATION_STYLE_ASSIGNMENT((#1388));
#1318=PRESENTATION_STYLE_ASSIGNMENT((#1389));
#1319=PRESENTATION_STYLE_ASSIGNMENT((#1390));
#1320=PRESENTATION_STYLE_ASSIGNMENT((#1391));
#1321=PRESENTATION_STYLE_ASSIGNMENT((#1392));
#1322=PRESENTATION_STYLE_ASSIGNMENT((#1393));
#1323=PRESENTATION_STYLE_ASSIGNMENT((#1394));
#1324=PRESENTATION_STYLE_ASSIGNMENT((#1395));
#1325=PRESENTATION_STYLE_ASSIGNMENT((#1396));
#1326=PRESENTATION_STYLE_ASSIGNMENT((#1397));
#1327=PRESENTATION_STYLE_ASSIGNMENT((#1398));
#1328=PRESENTATION_STYLE_ASSIGNMENT((#1399));
#1329=PRESENTATION_STYLE_ASSIGNMENT((#1400));
#1330=PRESENTATION_STYLE_ASSIGNMENT((#1401));
#1331=PRESENTATION_STYLE_ASSIGNMENT((#1402));
#1332=PRESENTATION_STYLE_ASSIGNMENT((#1403));
#1333=PRESENTATION_STYLE_ASSIGNMENT((#1404));
#1334=PRESENTATION_STYLE_ASSIGNMENT((#1405));
#1335=PRESENTATION_STYLE_ASSIGNMENT((#1406));
#1336=PRESENTATION_STYLE_ASSIGNMENT((#1407));
#1337=PRESENTATION_STYLE_ASSIGNMENT((#1408));
#1338=PRESENTATION_STYLE_ASSIGNMENT((#1409));
#1339=PRESENTATION_STYLE_ASSIGNMENT((#1410));
#1340=PRESENTATION_STYLE_ASSIGNMENT((#1411));
#1341=PRESENTATION_STYLE_ASSIGNMENT((#1412));
#1342=PRESENTATION_STYLE_ASSIGNMENT((#1413));
#1343=PRESENTATION_STYLE_ASSIGNMENT((#1414));
#1344=PRESENTATION_STYLE_ASSIGNMENT((#1415));
#1345=PRESENTATION_STYLE_ASSIGNMENT((#1416));
#1346=PRESENTATION_STYLE_ASSIGNMENT((#1417));
#1347=PRESENTATION_STYLE_ASSIGNMENT((#1418));
#1348=PRESENTATION_STYLE_ASSIGNMENT((#1419));
#1349=PRESENTATION_STYLE_ASSIGNMENT((#1420));
#1350=PRESENTATION_STYLE_ASSIGNMENT((#1421));
#1351=SURFACE_STYLE_USAGE(.BOTH.,#1422);
#1352=SURFACE_STYLE_USAGE(.BOTH.,#1423);
#1353=SURFACE_STYLE_USAGE(.BOTH.,#1424);
#1354=SURFACE_STYLE_USAGE(.BOTH.,#1425);
#1355=SURFACE_STYLE_USAGE(.BOTH.,#1426);
#1356=SURFACE_STYLE_USAGE(.BOTH.,#1427);
#1357=SURFACE_STYLE_USAGE(.BOTH.,#1428);
#1358=SURFACE_STYLE_USAGE(.BOTH.,#1429);
#1359=SURFACE_STYLE_USAGE(.BOTH.,#1430);
#1360=SURFACE_STYLE_USAGE(.BOTH.,#1431);
#1361=SURFACE_STYLE_USAGE(.BOTH.,#1432);
#1362=SURFACE_STYLE_USAGE(.BOTH.,#1433);
#1363=SURFACE_STYLE_USAGE(.BOTH.,#1434);
#1364=SURFACE_STYLE_USAGE(.BOTH.,#1435);
#1365=SURFACE_STYLE_USAGE(.BOTH.,#1436);
#1366=SURFACE_STYLE_USAGE(.BOTH.,#1437);
#1367=SURFACE_STYLE_USAGE(.BOTH.,#1438);
#1368=SURFACE_STYLE_USAGE(.BOTH.,#1439);
#1369=SURFACE_STYLE_USAGE(.BOTH.,#1440);
#1370=SURFACE_STYLE_USAGE(.BOTH.,#1441);
#1371=SURFACE_STYLE_USAGE(.BOTH.,#1442);
#1372=SURFACE_STYLE_USAGE(.BOTH.,#1443);
#1373=SURFACE_STYLE_USAGE(.BOTH.,#1444);
#1374=SURFACE_STYLE_USAGE(.BOTH.,#1445);
#1375=SURFACE_STYLE_USAGE(.BOTH.,#1446);
#1376=SURFACE_STYLE_USAGE(.BOTH.,#1447);
#1377=SURFACE_STYLE_USAGE(.BOTH.,#1448);
#1378=SURFACE_STYLE_USAGE(.BOTH.,#1449);
#1379=SURFACE_STYLE_USAGE(.BOTH.,#1450);
#1380=SURFACE_STYLE_USAGE(.BOTH.,#1451);
#1381=SURFACE_STYLE_USAGE(.BOTH.,#1452);
#1382=SURFACE_STYLE_USAGE(.BOTH.,#1453);
#1383=SURFACE_STYLE_USAGE(.BOTH.,#1454);
#1384=SURFACE_STYLE_USAGE(.BOTH.,#1455);
#1385=SURFACE_STYLE_USAGE(.BOTH.,#1456);
#1386=SURFACE_STYLE_USAGE(.BOTH.,#1457);
#1387=SURFACE_STYLE_USAGE(.BOTH.,#1458);
#1388=SURFACE_STYLE_USAGE(.BOTH.,#1459);
#1389=SURFACE_STYLE_USAGE(.BOTH.,#1460);
#1390=SURFACE_STYLE_USAGE(.BOTH.,#1461);
#1391=SURFACE_STYLE_USAGE(.BOTH.,#1462);
#1392=SURFACE_STYLE_USAGE(.BOTH.,#1463);
#1393=SURFACE_STYLE_USAGE(.BOTH.,#1464);
#1394=SURFACE_STYLE_USAGE(.BOTH.,#1465);
#1395=SURFACE_STYLE_USAGE(.BOTH.,#1466);
#1396=SURFACE_STYLE_USAGE(.BOTH.,#1467);
#1397=SURFACE_STYLE_USAGE(.BOTH.,#1468);
#1398=SURFACE_STYLE_USAGE(.BOTH.,#1469);
#1399=SURFACE_STYLE_USAGE(.BOTH.,#1470);
#1400=SURFACE_STYLE_USAGE(.BOTH.,#1471);
#1401=SURFACE_STYLE_USAGE(.BOTH.,#1472);
#1402=SURFACE_STYLE_USAGE(.BOTH.,#1473);
#1403=SURFACE_STYLE_USAGE(.BOTH.,#1474);
#1404=SURFACE_STYLE_USAGE(.BOTH.,#1475);
#1405=SURFACE_STYLE_USAGE(.BOTH.,#1476);
#1406=SURFACE_STYLE_USAGE(.BOTH.,#1477);
#1407=SURFACE_STYLE_USAGE(.BOTH.,#1478);
#1408=SURFACE_STYLE_USAGE(.BOTH.,#1479);
#1409=SURFACE_STYLE_USAGE(.BOTH.,#1480);
#1410=SURFACE_STYLE_USAGE(.BOTH.,#1481);
#1411=SURFACE_STYLE_USAGE(.BOTH.,#1482);
#1412=SURFACE_STYLE_USAGE(.BOTH.,#1483);
#1413=SURFACE_STYLE_USAGE(.BOTH.,#1484);
#1414=SURFACE_STYLE_USAGE(.BOTH.,#1485);
#1415=SURFACE_STYLE_USAGE(.BOTH.,#1486);
#1416=SURFACE_STYLE_USAGE(.BOTH.,#1487);
#1417=SURFACE_STYLE_USAGE(.BOTH.,#1488);
#1418=SURFACE_STYLE_USAGE(.BOTH.,#1489);
#1419=SURFACE_STYLE_USAGE(.BOTH.,#1490);
#1420=SURFACE_STYLE_USAGE(.BOTH.,#1491);
#1421=SURFACE_STYLE_USAGE(.BOTH.,#1492);
#1422=SURFACE_SIDE_STYLE('',(#1493));
#1423=SURFACE_SIDE_STYLE('',(#1494));
#1424=SURFACE_SIDE_STYLE('',(#1495));
#1425=SURFACE_SIDE_STYLE('',(#1496));
#1426=SURFACE_SIDE_STYLE('',(#1497));
#1427=SURFACE_SIDE_STYLE('',(#1498));
#1428=SURFACE_SIDE_STYLE('',(#1499));
#1429=SURFACE_SIDE_STYLE('',(#1500));
#1430=SURFACE_SIDE_STYLE('',(#1501));
#1431=SURFACE_SIDE_STYLE('',(#1502));
#1432=SURFACE_SIDE_STYLE('',(#1503));
#1433=SURFACE_SIDE_STYLE('',(#1504));
#1434=SURFACE_SIDE_STYLE('',(#1505));
#1435=SURFACE_SIDE_STYLE('',(#1506));
#1436=SURFACE_SIDE_STYLE('',(#1507));
#1437=SURFACE_SIDE_STYLE('',(#1508));
#1438=SURFACE_SIDE_STYLE('',(#1509));
#1439=SURFACE_SIDE_STYLE('',(#1510));
#1440=SURFACE_SIDE_STYLE('',(#1511));
#1441=SURFACE_SIDE_STYLE('',(#1512));
#1442=SURFACE_SIDE_STYLE('',(#1513));
#1443=SURFACE_SIDE_STYLE('',(#1514));
#1444=SURFACE_SIDE_STYLE('',(#1515));
#1445=SURFACE_SIDE_STYLE('',(#1516));
#1446=SURFACE_SIDE_STYLE('',(#1517));
#1447=SURFACE_SIDE_STYLE('',(#1518));
#1448=SURFACE_SIDE_STYLE('',(#1519));
#1449=SURFACE_SIDE_STYLE('',(#1520));
#1450=SURFACE_SIDE_STYLE('',(#1521));
#1451=SURFACE_SIDE_STYLE('',(#1522));
#1452=SURFACE_SIDE_STYLE('',(#1523));
#1453=SURFACE_SIDE_STYLE('',(#1524));
#1454=SURFACE_SIDE_STYLE('',(#1525));
#1455=SURFACE_SIDE_STYLE('',(#1526));
#1456=SURFACE_SIDE_STYLE('',(#1527));
#1457=SURFACE_SIDE_STYLE('',(#1528));
#1458=SURFACE_SIDE_STYLE('',(#1529));
#1459=SURFACE_SIDE_STYLE('',(#1530));
#1460=SURFACE_SIDE_STYLE('',(#1531));
#1461=SURFACE_SIDE_STYLE('',(#1532));
#1462=SURFACE_SIDE_STYLE('',(#1533));
#1463=SURFACE_SIDE_STYLE('',(#1534));
#1464=SURFACE_SIDE_STYLE('',(#1535));
#1465=SURFACE_SIDE_STYLE('',(#1536));
#1466=SURFACE_SIDE_STYLE('',(#1537));
#1467=SURFACE_SIDE_STYLE('',(#1538));
#1468=SURFACE_SIDE_STYLE('',(#1539));
#1469=SURFACE_SIDE_STYLE('',(#1540));
#1470=SURFACE_SIDE_STYLE('',(#1541));
#1471=SURFACE_SIDE_STYLE('',(#1542));
#1472=SURFACE_SIDE_STYLE('',(#1543));
#1473=SURFACE_SIDE_STYLE('',(#1544));
#1474=SURFACE_SIDE_STYLE('',(#1545));
#1475=SURFACE_SIDE_STYLE('',(#1546));
#1476=SURFACE_SIDE_STYLE('',(#1547));
#1477=SURFACE_SIDE_STYLE('',(#1548));
#1478=SURFACE_SIDE_STYLE('',(#1549));
#1479=SURFACE_SIDE_STYLE('',(#1550));
#1480=SURFACE_SIDE_STYLE('',(#1551));
#1481=SURFACE_SIDE_STYLE('',(#1552));
#1482=SURFACE_SIDE_STYLE('',(#1553));
#1483=SURFACE_SIDE_STYLE('',(#1554));
#1484=SURFACE_SIDE_STYLE('',(#1555));
#1485=SURFACE_SIDE_STYLE('',(#1556));
#1486=SURFACE_SIDE_STYLE('',(#1557));
#1487=SURFACE_SIDE_STYLE('',(#1558));
#1488=SURFACE_SIDE_STYLE('',(#1559));
#1489=SURFACE_SIDE_STYLE('',(#1560));
#1490=SURFACE_SIDE_STYLE('',(#1561));
#1491=SURFACE_SIDE_STYLE('',(#1562));
#1492=SURFACE_SIDE_STYLE('',(#1563));
#1493=SURFACE_STYLE_FILL_AREA(#1564);
#1494=SURFACE_STYLE_FILL_AREA(#1565);
#1495=SURFACE_STYLE_FILL_AREA(#1566);
#1496=SURFACE_STYLE_FILL_AREA(#1567);
#1497=SURFACE_STYLE_FILL_AREA(#1568);
#1498=SURFACE_STYLE_FILL_AREA(#1569);
#1499=SURFACE_STYLE_FILL_AREA(#1570);
#1500=SURFACE_STYLE_FILL_AREA(#1571);
#1501=SURFACE_STYLE_FILL_AREA(#1572);
#1502=SURFACE_STYLE_FILL_AREA(#1573);
#1503=SURFACE_STYLE_FILL_AREA(#1574);
#1504=SURFACE_STYLE_FILL_AREA(#1575);
#1505=SURFACE_STYLE_FILL_AREA(#1576);
#1506=SURFACE_STYLE_FILL_AREA(#1577);
#1507=SURFACE_STYLE_FILL_AREA(#1578);
#1508=SURFACE_STYLE_FILL_AREA(#1579);
#1509=SURFACE_STYLE_FILL_AREA(#1580);
#1510=SURFACE_STYLE_FILL_AREA(#1581);
#1511=SURFACE_STYLE_FILL_AREA(#1582);
#1512=SURFACE_STYLE_FILL_AREA(#1583);
#1513=SURFACE_STYLE_FILL_AREA(#1584);
#1514=SURFACE_STYLE_FILL_AREA(#1585);
#1515=SURFACE_STYLE_FILL_AREA(#1586);
#1516=SURFACE_STYLE_FILL_AREA(#1587);
#1517=SURFACE_STYLE_FILL_AREA(#1588);
#1518=SURFACE_STYLE_FILL_AREA(#1589);
#1519=SURFACE_STYLE_FILL_AREA(#1590);
#1520=SURFACE_STYLE_FILL_AREA(#1591);
#1521=SURFACE_STYLE_FILL_AREA(#1592);
#1522=SURFACE_STYLE_FILL_AREA(#1593);
#1523=SURFACE_STYLE_FILL_AREA(#1594);
#1524=SURFACE_STYLE_FILL_AREA(#1595);
#1525=SURFACE_STYLE_FILL_AREA(#1596);
#1526=SURFACE_STYLE_FILL_AREA(#1597);
#1527=SURFACE_STYLE_FILL_AREA(#1598);
#1528=SURFACE_STYLE_FILL_AREA(#1599);
#1529=SURFACE_STYLE_FILL_AREA(#1600);
#1530=SURFACE_STYLE_FILL_AREA(#1601);
#1531=SURFACE_STYLE_FILL_AREA(#1602);
#1532=SURFACE_STYLE_FILL_AREA(#1603);
#1533=SURFACE_STYLE_FILL_AREA(#1604);
#1534=SURFACE_STYLE_FILL_AREA(#1605);
#1535=SURFACE_STYLE_FILL_AREA(#1606);
#1536=SURFACE_STYLE_FILL_AREA(#1607);
#1537=SURFACE_STYLE_FILL_AREA(#1608);
#1538=SURFACE_STYLE_FILL_AREA(#1609);
#1539=SURFACE_STYLE_FILL_AREA(#1610);
#1540=SURFACE_STYLE_FILL_AREA(#1611);
#1541=SURFACE_STYLE_FILL_AREA(#1612);
#1542=SURFACE_STYLE_FILL_AREA(#1613);
#1543=SURFACE_STYLE_FILL_AREA(#1614);
#1544=SURFACE_STYLE_FILL_AREA(#1615);
#1545=SURFACE_STYLE_FILL_AREA(#1616);
#1546=SURFACE_STYLE_FILL_AREA(#1617);
#1547=SURFACE_STYLE_FILL_AREA(#1618);
#1548=SURFACE_STYLE_FILL_AREA(#1619);
#1549=SURFACE_STYLE_FILL_AREA(#1620);
#1550=SURFACE_STYLE_FILL_AREA(#1621);
#1551=SURFACE_STYLE_FILL_AREA(#1622);
#1552=SURFACE_STYLE_FILL_AREA(#1623);
#1553=SURFACE_STYLE_FILL_AREA(#1624);
#1554=SURFACE_STYLE_FILL_AREA(#1625);
#1555=SURFACE_STYLE_FILL_AREA(#1626);
#1556=SURFACE_STYLE_FILL_AREA(#1627);
#1557=SURFACE_STYLE_FILL_AREA(#1628);
#1558=SURFACE_STYLE_FILL_AREA(#1629);
#1559=SURFACE_STYLE_FILL_AREA(#1630);
#1560=SURFACE_STYLE_FILL_AREA(#1631);
#1561=SURFACE_STYLE_FILL_AREA(#1632);
#1562=SURFACE_STYLE_FILL_AREA(#1633);
#1563=SURFACE_STYLE_FILL_AREA(#1634);
#1564=FILL_AREA_STYLE('',(#1635));
#1565=FILL_AREA_STYLE('',(#1636));
#1566=FILL_AREA_STYLE('',(#1637));
#1567=FILL_AREA_STYLE('',(#1638));
#1568=FILL_AREA_STYLE('',(#1639));
#1569=FILL_AREA_STYLE('',(#1640));
#1570=FILL_AREA_STYLE('',(#1641));
#1571=FILL_AREA_STYLE('',(#1642));
#1572=FILL_AREA_STYLE('',(#1643));
#1573=FILL_AREA_STYLE('',(#1644));
#1574=FILL_AREA_STYLE('',(#1645));
#1575=FILL_AREA_STYLE('',(#1646));
#1576=FILL_AREA_STYLE('',(#1647));
#1577=FILL_AREA_STYLE('',(#1648));
#1578=FILL_AREA_STYLE('',(#1649));
#1579=FILL_AREA_STYLE('',(#1650));
#1580=FILL_AREA_STYLE('',(#1651));
#1581=FILL_AREA_STYLE('',(#1652));
#1582=FILL_AREA_STYLE('',(#1653));
#1583=FILL_AREA_STYLE('',(#1654));
#1584=FILL_AREA_STYLE('',(#1655));
#1585=FILL_AREA_STYLE('',(#1656));
#1586=FILL_AREA_STYLE('',(#1657));
#1587=FILL_AREA_STYLE('',(#1658));
#1588=FILL_AREA_STYLE('',(#1659));
#1589=FILL_AREA_STYLE('',(#1660));
#1590=FILL_AREA_STYLE('',(#1661));
#1591=FILL_AREA_STYLE('',(#1662));
#1592=FILL_AREA_STYLE('',(#1663));
#1593=FILL_AREA_STYLE('',(#1664));
#1594=FILL_AREA_STYLE('',(#1665));
#1595=FILL_AREA_STYLE('',(#1666));
#1596=FILL_AREA_STYLE('',(#1667));
#1597=FILL_AREA_STYLE('',(#1668));
#1598=FILL_AREA_STYLE('',(#1669));
#1599=FILL_AREA_STYLE('',(#1670));
#1600=FILL_AREA_STYLE('',(#1671));
#1601=FILL_AREA_STYLE('',(#1672));
#1602=FILL_AREA_STYLE('',(#1673));
#1603=FILL_AREA_STYLE('',(#1674));
#1604=FILL_AREA_STYLE('',(#1675));
#1605=FILL_AREA_STYLE('',(#1676));
#1606=FILL_AREA_STYLE('',(#1677));
#1607=FILL_AREA_STYLE('',(#1678));
#1608=FILL_AREA_STYLE('',(#1679));
#1609=FILL_AREA_STYLE('',(#1680));
#1610=FILL_AREA_STYLE('',(#1681));
#1611=FILL_AREA_STYLE('',(#1682));
#1612=FILL_AREA_STYLE('',(#1683));
#1613=FILL_AREA_STYLE('',(#1684));
#1614=FILL_AREA_STYLE('',(#1685));
#1615=FILL_AREA_STYLE('',(#1686));
#1616=FILL_AREA_STYLE('',(#1687));
#1617=FILL_AREA_STYLE('',(#1688));
#1618=FILL_AREA_STYLE('',(#1689));
#1619=FILL_AREA_STYLE('',(#1690));
#1620=FILL_AREA_STYLE('',(#1691));
#1621=FILL_AREA_STYLE('',(#1692));
#1622=FILL_AREA_STYLE('',(#1693));
#1623=FILL_AREA_STYLE('',(#1694));
#1624=FILL_AREA_STYLE('',(#1695));
#1625=FILL_AREA_STYLE('',(#1696));
#1626=FILL_AREA_STYLE('',(#1697));
#1627=FILL_AREA_STYLE('',(#1698));
#1628=FILL_AREA_STYLE('',(#1699));
#1629=FILL_AREA_STYLE('',(#1700));
#1630=FILL_AREA_STYLE('',(#1701));
#1631=FILL_AREA_STYLE('',(#1702));
#1632=FILL_AREA_STYLE('',(#1703));
#1633=FILL_AREA_STYLE('',(#1704));
#1634=FILL_AREA_STYLE('',(#1705));
#1635=FILL_AREA_STYLE_COLOUR('',#1706);
#1636=FILL_AREA_STYLE_COLOUR('',#1706);
#1637=FILL_AREA_STYLE_COLOUR('',#1706);
#1638=FILL_AREA_STYLE_COLOUR('',#1706);
#1639=FILL_AREA_STYLE_COLOUR('',#1706);
#1640=FILL_AREA_STYLE_COLOUR('',#1707);
#1641=FILL_AREA_STYLE_COLOUR('',#1707);
#1642=FILL_AREA_STYLE_COLOUR('',#1707);
#1643=FILL_AREA_STYLE_COLOUR('',#1707);
#1644=FILL_AREA_STYLE_COLOUR('',#1707);
#1645=FILL_AREA_STYLE_COLOUR('',#1707);
#1646=FILL_AREA_STYLE_COLOUR('',#1707);
#1647=FILL_AREA_STYLE_COLOUR('',#1707);
#1648=FILL_AREA_STYLE_COLOUR('',#1707);
#1649=FILL_AREA_STYLE_COLOUR('',#1707);
#1650=FILL_AREA_STYLE_COLOUR('',#1707);
#1651=FILL_AREA_STYLE_COLOUR('',#1706);
#1652=FILL_AREA_STYLE_COLOUR('',#1706);
#1653=FILL_AREA_STYLE_COLOUR('',#1706);
#1654=FILL_AREA_STYLE_COLOUR('',#1706);
#1655=FILL_AREA_STYLE_COLOUR('',#1706);
#1656=FILL_AREA_STYLE_COLOUR('',#1707);
#1657=FILL_AREA_STYLE_COLOUR('',#1707);
#1658=FILL_AREA_STYLE_COLOUR('',#1707);
#1659=FILL_AREA_STYLE_COLOUR('',#1707);
#1660=FILL_AREA_STYLE_COLOUR('',#1707);
#1661=FILL_AREA_STYLE_COLOUR('',#1707);
#1662=FILL_AREA_STYLE_COLOUR('',#1707);
#1663=FILL_AREA_STYLE_COLOUR('',#1707);
#1664=FILL_AREA_STYLE_COLOUR('',#1707);
#1665=FILL_AREA_STYLE_COLOUR('',#1707);
#1666=FILL_AREA_STYLE_COLOUR('',#1707);
#1667=FILL_AREA_STYLE_COLOUR('',#1707);
#1668=FILL_AREA_STYLE_COLOUR('',#1707);
#1669=FILL_AREA_STYLE_COLOUR('',#1707);
#1670=FILL_AREA_STYLE_COLOUR('',#1707);
#1671=FILL_AREA_STYLE_COLOUR('',#1707);
#1672=FILL_AREA_STYLE_COLOUR('',#1707);
#1673=FILL_AREA_STYLE_COLOUR('',#1707);
#1674=FILL_AREA_STYLE_COLOUR('',#1707);
#1675=FILL_AREA_STYLE_COLOUR('',#1707);
#1676=FILL_AREA_STYLE_COLOUR('',#1707);
#1677=FILL_AREA_STYLE_COLOUR('',#1707);
#1678=FILL_AREA_STYLE_COLOUR('',#1707);
#1679=FILL_AREA_STYLE_COLOUR('',#1707);
#1680=FILL_AREA_STYLE_COLOUR('',#1707);
#1681=FILL_AREA_STYLE_COLOUR('',#1707);
#1682=FILL_AREA_STYLE_COLOUR('',#1707);
#1683=FILL_AREA_STYLE_COLOUR('',#1707);
#1684=FILL_AREA_STYLE_COLOUR('',#1707);
#1685=FILL_AREA_STYLE_COLOUR('',#1707);
#1686=FILL_AREA_STYLE_COLOUR('',#1707);
#1687=FILL_AREA_STYLE_COLOUR('',#1707);
#1688=FILL_AREA_STYLE_COLOUR('',#1707);
#1689=FILL_AREA_STYLE_COLOUR('',#1707);
#1690=FILL_AREA_STYLE_COLOUR('',#1707);
#1691=FILL_AREA_STYLE_COLOUR('',#1707);
#1692=FILL_AREA_STYLE_COLOUR('',#1707);
#1693=FILL_AREA_STYLE_COLOUR('',#1707);
#1694=FILL_AREA_STYLE_COLOUR('',#1707);
#1695=FILL_AREA_STYLE_COLOUR('',#1707);
#1696=FILL_AREA_STYLE_COLOUR('',#1707);
#1697=FILL_AREA_STYLE_COLOUR('',#1707);
#1698=FILL_AREA_STYLE_COLOUR('',#1707);
#1699=FILL_AREA_STYLE_COLOUR('',#1707);
#1700=FILL_AREA_STYLE_COLOUR('',#1706);
#1701=FILL_AREA_STYLE_COLOUR('',#1707);
#1702=FILL_AREA_STYLE_COLOUR('',#1707);
#1703=FILL_AREA_STYLE_COLOUR('',#1707);
#1704=FILL_AREA_STYLE_COLOUR('',#1707);
#1705=FILL_AREA_STYLE_COLOUR('',#1707);
#1706=COLOUR_RGB('',0.313725501298904,0.313725501298904,0.313725501298904);
#1707=COLOUR_RGB('',0.878431379795074,0.815686285495758,0.564705908298492);
#1708=ADVANCED_FACE('',(#1055),#1139,.F.);
#1709=ADVANCED_FACE('',(#1056),#1140,.T.);
#1710=ADVANCED_FACE('',(#1057),#1141,.F.);
#1711=ADVANCED_FACE('',(#1058),#1142,.F.);
#1712=ADVANCED_FACE('',(#1059),#1143,.T.);
#1713=ADVANCED_FACE('',(#1060),#1144,.T.);
#1714=ADVANCED_FACE('',(#1061),#1145,.T.);
#1715=ADVANCED_FACE('',(#1062),#1146,.T.);
#1716=ADVANCED_FACE('',(#1063),#1147,.T.);
#1717=ADVANCED_FACE('',(#1064),#1148,.T.);
#1718=ADVANCED_FACE('',(#1065),#1149,.T.);
#1719=ADVANCED_FACE('',(#1066),#1150,.T.);
#1720=ADVANCED_FACE('',(#1067),#1151,.T.);
#1721=ADVANCED_FACE('',(#1068),#1152,.T.);
#1722=ADVANCED_FACE('',(#1069),#1153,.T.);
#1723=ADVANCED_FACE('',(#1070),#1154,.T.);
#1724=ADVANCED_FACE('',(#1071),#1155,.T.);
#1725=ADVANCED_FACE('',(#1072),#1156,.T.);
#1726=ADVANCED_FACE('',(#1073),#1157,.T.);
#1727=ADVANCED_FACE('',(#1074),#1158,.T.);
#1728=ADVANCED_FACE('',(#1075),#20,.F.);
#1729=ADVANCED_FACE('',(#1076),#1159,.T.);
#1730=ADVANCED_FACE('',(#1077),#1160,.T.);
#1731=ADVANCED_FACE('',(#1078),#1161,.T.);
#1732=ADVANCED_FACE('',(#1079),#1162,.T.);
#1733=ADVANCED_FACE('',(#1080),#1163,.T.);
#1734=ADVANCED_FACE('',(#1081),#1164,.T.);
#1735=ADVANCED_FACE('',(#1082),#1165,.T.);
#1736=ADVANCED_FACE('',(#1083),#1166,.T.);
#1737=ADVANCED_FACE('',(#1084),#1167,.T.);
#1738=ADVANCED_FACE('',(#1085),#1168,.T.);
#1739=ADVANCED_FACE('',(#1086),#1169,.T.);
#1740=ADVANCED_FACE('',(#1087),#1170,.T.);
#1741=ADVANCED_FACE('',(#1088),#1171,.T.);
#1742=ADVANCED_FACE('',(#1089),#1172,.T.);
#1743=ADVANCED_FACE('',(#1090),#1173,.T.);
#1744=ADVANCED_FACE('',(#1091),#1174,.T.);
#1745=ADVANCED_FACE('',(#1092),#1175,.T.);
#1746=ADVANCED_FACE('',(#1093),#1176,.T.);
#1747=ADVANCED_FACE('',(#1094),#1177,.T.);
#1748=ADVANCED_FACE('',(#1095),#1178,.T.);
#1749=ADVANCED_FACE('',(#1096),#1179,.T.);
#1750=ADVANCED_FACE('',(#1097),#1180,.T.);
#1751=ADVANCED_FACE('',(#1098),#1181,.T.);
#1752=ADVANCED_FACE('',(#1099),#1182,.T.);
#1753=ADVANCED_FACE('',(#1100),#1183,.T.);
#1754=ADVANCED_FACE('',(#1101),#1184,.T.);
#1755=ADVANCED_FACE('',(#1102),#1185,.T.);
#1756=ADVANCED_FACE('',(#1103),#1186,.T.);
#1757=ADVANCED_FACE('',(#1104),#1187,.T.);
#1758=ADVANCED_FACE('',(#1105),#1188,.T.);
#1759=ADVANCED_FACE('',(#1106),#1189,.T.);
#1760=ADVANCED_FACE('',(#1107),#1190,.T.);
#1761=ADVANCED_FACE('',(#1108),#1191,.T.);
#1762=ADVANCED_FACE('',(#1109),#1192,.T.);
#1763=ADVANCED_FACE('',(#1110),#1193,.T.);
#1764=ADVANCED_FACE('',(#1111),#1194,.T.);
#1765=ADVANCED_FACE('',(#1112),#1195,.T.);
#1766=ADVANCED_FACE('',(#1113),#1196,.T.);
#1767=ADVANCED_FACE('',(#1114),#1197,.T.);
#1768=ADVANCED_FACE('',(#1115),#1198,.T.);
#1769=ADVANCED_FACE('',(#1116),#1199,.T.);
#1770=ADVANCED_FACE('',(#1117),#1200,.T.);
#1771=ADVANCED_FACE('',(#1118),#1201,.T.);
#1772=ADVANCED_FACE('',(#1119),#1202,.T.);
#1773=ADVANCED_FACE('',(#1120,#1121,#1122,#1123,#1124,#1125,#1126,#1127,
#1128,#1129,#1130,#1131,#1132,#1133),#1203,.F.);
#1774=ADVANCED_FACE('',(#1134),#1204,.T.);
#1775=ADVANCED_FACE('',(#1135),#1205,.T.);
#1776=ADVANCED_FACE('',(#1136),#1206,.T.);
#1777=ADVANCED_FACE('',(#1137),#1207,.T.);
#1778=ADVANCED_FACE('',(#1138),#1208,.T.);
#1779=CLOSED_SHELL('',(#1708,#1709,#1710,#1711,#1712,#1713,#1714,#1715,
#1716,#1717,#1718,#1719,#1720,#1721,#1722,#1723,#1724,#1725,#1726,#1727,
#1728,#1729,#1730,#1731,#1732,#1733,#1734,#1735,#1736,#1737,#1738,#1739,
#1740,#1741,#1742,#1743,#1744,#1745,#1746,#1747,#1748,#1749,#1750,#1751,
#1752,#1753,#1754,#1755,#1756,#1757,#1758,#1759,#1760,#1761,#1762,#1763,
#1764,#1765,#1766,#1767,#1768,#1769,#1770,#1771,#1772,#1773,#1774,#1775,
#1776,#1777,#1778));
#1780=MANIFOLD_SOLID_BREP('Body1',#1779);
#1781=SHAPE_DEFINITION_REPRESENTATION(#2529,#1782);
#1782=SHAPE_REPRESENTATION('ADXL367BCCZ-RL7',(#1783),#2524);
#1783=AXIS2_PLACEMENT_3D('',#2171,#1857,#1858);
#1784=AXIS2_PLACEMENT_3D('',#2172,#1859,#1860);
#1785=AXIS2_PLACEMENT_3D('',#2181,#1865,#1866);
#1786=AXIS2_PLACEMENT_3D('',#2191,#1872,#1873);
#1787=AXIS2_PLACEMENT_3D('',#2197,#1877,#1878);
#1788=AXIS2_PLACEMENT_3D('',#2199,#1880,#1881);
#1789=AXIS2_PLACEMENT_3D('',#2200,#1882,#1883);
#1790=AXIS2_PLACEMENT_3D('',#2202,#1884,#1885);
#1791=AXIS2_PLACEMENT_3D('',#2211,#1890,#1891);
#1792=AXIS2_PLACEMENT_3D('',#2220,#1896,#1897);
#1793=AXIS2_PLACEMENT_3D('',#2229,#1902,#1903);
#1794=AXIS2_PLACEMENT_3D('',#2238,#1908,#1909);
#1795=AXIS2_PLACEMENT_3D('',#2247,#1914,#1915);
#1796=AXIS2_PLACEMENT_3D('',#2256,#1920,#1921);
#1797=AXIS2_PLACEMENT_3D('',#2265,#1926,#1927);
#1798=AXIS2_PLACEMENT_3D('',#2274,#1932,#1933);
#1799=AXIS2_PLACEMENT_3D('',#2283,#1938,#1939);
#1800=AXIS2_PLACEMENT_3D('',#2292,#1944,#1945);
#1801=AXIS2_PLACEMENT_3D('',#2301,#1950,#1951);
#1802=AXIS2_PLACEMENT_3D('',#2307,#1955,#1956);
#1803=AXIS2_PLACEMENT_3D('',#2311,#1959,#1960);
#1804=AXIS2_PLACEMENT_3D('',#2315,#1963,#1964);
#1805=AXIS2_PLACEMENT_3D('',#2317,#1966,#1967);
#1806=AXIS2_PLACEMENT_3D('',#2318,#1968,#1969);
#1807=AXIS2_PLACEMENT_3D('',#2321,#1971,#1972);
#1808=AXIS2_PLACEMENT_3D('',#2327,#1976,#1977);
#1809=AXIS2_PLACEMENT_3D('',#2331,#1980,#1981);
#1810=AXIS2_PLACEMENT_3D('',#2335,#1984,#1985);
#1811=AXIS2_PLACEMENT_3D('',#2337,#1987,#1988);
#1812=AXIS2_PLACEMENT_3D('',#2343,#1992,#1993);
#1813=AXIS2_PLACEMENT_3D('',#2347,#1996,#1997);
#1814=AXIS2_PLACEMENT_3D('',#2351,#2000,#2001);
#1815=AXIS2_PLACEMENT_3D('',#2353,#2003,#2004);
#1816=AXIS2_PLACEMENT_3D('',#2359,#2008,#2009);
#1817=AXIS2_PLACEMENT_3D('',#2363,#2012,#2013);
#1818=AXIS2_PLACEMENT_3D('',#2367,#2016,#2017);
#1819=AXIS2_PLACEMENT_3D('',#2369,#2019,#2020);
#1820=AXIS2_PLACEMENT_3D('',#2375,#2024,#2025);
#1821=AXIS2_PLACEMENT_3D('',#2379,#2028,#2029);
#1822=AXIS2_PLACEMENT_3D('',#2383,#2032,#2033);
#1823=AXIS2_PLACEMENT_3D('',#2385,#2035,#2036);
#1824=AXIS2_PLACEMENT_3D('',#2391,#2040,#2041);
#1825=AXIS2_PLACEMENT_3D('',#2395,#2044,#2045);
#1826=AXIS2_PLACEMENT_3D('',#2399,#2048,#2049);
#1827=AXIS2_PLACEMENT_3D('',#2401,#2051,#2052);
#1828=AXIS2_PLACEMENT_3D('',#2407,#2056,#2057);
#1829=AXIS2_PLACEMENT_3D('',#2411,#2060,#2061);
#1830=AXIS2_PLACEMENT_3D('',#2415,#2064,#2065);
#1831=AXIS2_PLACEMENT_3D('',#2417,#2067,#2068);
#1832=AXIS2_PLACEMENT_3D('',#2423,#2072,#2073);
#1833=AXIS2_PLACEMENT_3D('',#2427,#2076,#2077);
#1834=AXIS2_PLACEMENT_3D('',#2431,#2080,#2081);
#1835=AXIS2_PLACEMENT_3D('',#2433,#2083,#2084);
#1836=AXIS2_PLACEMENT_3D('',#2439,#2088,#2089);
#1837=AXIS2_PLACEMENT_3D('',#2443,#2092,#2093);
#1838=AXIS2_PLACEMENT_3D('',#2447,#2096,#2097);
#1839=AXIS2_PLACEMENT_3D('',#2449,#2099,#2100);
#1840=AXIS2_PLACEMENT_3D('',#2455,#2104,#2105);
#1841=AXIS2_PLACEMENT_3D('',#2459,#2108,#2109);
#1842=AXIS2_PLACEMENT_3D('',#2463,#2112,#2113);
#1843=AXIS2_PLACEMENT_3D('',#2465,#2115,#2116);
#1844=AXIS2_PLACEMENT_3D('',#2471,#2120,#2121);
#1845=AXIS2_PLACEMENT_3D('',#2475,#2124,#2125);
#1846=AXIS2_PLACEMENT_3D('',#2479,#2128,#2129);
#1847=AXIS2_PLACEMENT_3D('',#2481,#2131,#2132);
#1848=AXIS2_PLACEMENT_3D('',#2487,#2136,#2137);
#1849=AXIS2_PLACEMENT_3D('',#2491,#2140,#2141);
#1850=AXIS2_PLACEMENT_3D('',#2495,#2144,#2145);
#1851=AXIS2_PLACEMENT_3D('',#2497,#2147,#2148);
#1852=AXIS2_PLACEMENT_3D('',#2506,#2153,#2154);
#1853=AXIS2_PLACEMENT_3D('',#2512,#2158,#2159);
#1854=AXIS2_PLACEMENT_3D('',#2516,#2162,#2163);
#1855=AXIS2_PLACEMENT_3D('',#2520,#2166,#2167);
#1856=AXIS2_PLACEMENT_3D('',#2522,#2169,#2170);
#1857=DIRECTION('',(0.,0.,1.));
#1858=DIRECTION('',(1.,0.,0.));
#1859=DIRECTION('',(1.,0.,0.));
#1860=DIRECTION('',(0.,-1.,0.));
#1861=DIRECTION('',(0.,-1.,0.));
#1862=DIRECTION('',(0.,0.,1.));
#1863=DIRECTION('',(0.,-1.,0.));
#1864=DIRECTION('',(0.,0.,-1.));
#1865=DIRECTION('',(0.,0.,1.));
#1866=DIRECTION('',(1.,0.,0.));
#1867=DIRECTION('',(-1.,0.,0.));
#1868=DIRECTION('',(0.,-1.,0.));
#1869=DIRECTION('',(1.,0.,0.));
#1870=DIRECTION('',(0.,1.,0.));
#1871=DIRECTION('',(-1.,0.,0.));
#1872=DIRECTION('',(0.,0.,-1.));
#1873=DIRECTION('',(-1.,0.,0.));
#1874=DIRECTION('',(-1.,0.,0.));
#1875=DIRECTION('',(1.,0.,0.));
#1876=DIRECTION('',(0.,1.,0.));
#1877=DIRECTION('',(0.,-1.,0.));
#1878=DIRECTION('',(-1.,0.,0.));
#1879=DIRECTION('',(0.,0.,-1.));
#1880=DIRECTION('',(0.,0.,-1.));
#1881=DIRECTION('',(1.,0.,0.));
#1882=DIRECTION('',(0.,0.,1.));
#1883=DIRECTION('',(1.,0.,0.));
#1884=DIRECTION('',(0.,0.,-1.));
#1885=DIRECTION('',(-1.,0.,0.));
#1886=DIRECTION('',(-1.,0.,0.));
#1887=DIRECTION('',(0.,1.,0.));
#1888=DIRECTION('',(1.,0.,0.));
#1889=DIRECTION('',(0.,-1.,0.));
#1890=DIRECTION('',(0.,0.,-1.));
#1891=DIRECTION('',(-1.,0.,0.));
#1892=DIRECTION('',(0.,-1.,0.));
#1893=DIRECTION('',(-1.,0.,0.));
#1894=DIRECTION('',(0.,1.,0.));
#1895=DIRECTION('',(1.,0.,0.));
#1896=DIRECTION('',(0.,0.,-1.));
#1897=DIRECTION('',(-1.,0.,0.));
#1898=DIRECTION('',(0.,1.,0.));
#1899=DIRECTION('',(1.,0.,0.));
#1900=DIRECTION('',(0.,-1.,0.));
#1901=DIRECTION('',(-1.,0.,0.));
#1902=DIRECTION('',(0.,0.,-1.));
#1903=DIRECTION('',(-1.,0.,0.));
#1904=DIRECTION('',(1.,0.,0.));
#1905=DIRECTION('',(0.,-1.,0.));
#1906=DIRECTION('',(-1.,0.,0.));
#1907=DIRECTION('',(0.,1.,0.));
#1908=DIRECTION('',(0.,0.,-1.));
#1909=DIRECTION('',(-1.,0.,0.));
#1910=DIRECTION('',(0.,-1.,0.));
#1911=DIRECTION('',(-1.,0.,0.));
#1912=DIRECTION('',(0.,1.,0.));
#1913=DIRECTION('',(1.,0.,0.));
#1914=DIRECTION('',(0.,0.,-1.));
#1915=DIRECTION('',(-1.,0.,0.));
#1916=DIRECTION('',(-1.,0.,0.));
#1917=DIRECTION('',(0.,1.,0.));
#1918=DIRECTION('',(1.,0.,0.));
#1919=DIRECTION('',(0.,-1.,0.));
#1920=DIRECTION('',(0.,0.,-1.));
#1921=DIRECTION('',(-1.,0.,0.));
#1922=DIRECTION('',(1.,0.,0.));
#1923=DIRECTION('',(0.,-1.,0.));
#1924=DIRECTION('',(-1.,0.,0.));
#1925=DIRECTION('',(0.,1.,0.));
#1926=DIRECTION('',(0.,0.,-1.));
#1927=DIRECTION('',(-1.,0.,0.));
#1928=DIRECTION('',(0.,1.,0.));
#1929=DIRECTION('',(1.,0.,0.));
#1930=DIRECTION('',(0.,-1.,0.));
#1931=DIRECTION('',(-1.,0.,0.));
#1932=DIRECTION('',(0.,0.,-1.));
#1933=DIRECTION('',(-1.,0.,0.));
#1934=DIRECTION('',(0.,1.,0.));
#1935=DIRECTION('',(1.,-9.91270557701032E-16,0.));
#1936=DIRECTION('',(3.01691039300314E-17,-1.,0.));
#1937=DIRECTION('',(-1.,0.,0.));
#1938=DIRECTION('',(0.,0.,-1.));
#1939=DIRECTION('',(-1.,0.,0.));
#1940=DIRECTION('',(6.03382078600629E-17,1.,0.));
#1941=DIRECTION('',(1.,4.95635278850516E-16,0.));
#1942=DIRECTION('',(6.03382078600629E-17,-1.,0.));
#1943=DIRECTION('',(-1.,0.,0.));
#1944=DIRECTION('',(0.,0.,-1.));
#1945=DIRECTION('',(-1.,0.,0.));
#1946=DIRECTION('',(-1.,0.,0.));
#1947=DIRECTION('',(0.,1.,0.));
#1948=DIRECTION('',(1.,0.,0.));
#1949=DIRECTION('',(3.01691039300314E-17,-1.,0.));
#1950=DIRECTION('',(0.,-1.,0.));
#1951=DIRECTION('',(1.,0.,0.));
#1952=DIRECTION('',(1.,0.,0.));
#1953=DIRECTION('',(0.,0.,1.));
#1954=DIRECTION('',(0.,0.,1.));
#1955=DIRECTION('',(1.,0.,0.));
#1956=DIRECTION('',(0.,1.,0.));
#1957=DIRECTION('',(0.,1.,0.));
#1958=DIRECTION('',(0.,0.,1.));
#1959=DIRECTION('',(0.,1.,0.));
#1960=DIRECTION('',(-1.,0.,0.));
#1961=DIRECTION('',(-1.,0.,0.));
#1962=DIRECTION('',(0.,0.,1.));
#1963=DIRECTION('',(-1.,0.,0.));
#1964=DIRECTION('',(0.,-1.,0.));
#1965=DIRECTION('',(0.,-1.,0.));
#1966=DIRECTION('',(0.,0.,1.));
#1967=DIRECTION('',(1.,0.,0.));
#1968=DIRECTION('',(0.,0.,1.));
#1969=DIRECTION('',(1.,0.,0.));
#1970=DIRECTION('',(0.,0.,1.));
#1971=DIRECTION('',(0.,1.,0.));
#1972=DIRECTION('',(1.,0.,0.));
#1973=DIRECTION('',(1.,0.,0.));
#1974=DIRECTION('',(0.,0.,-1.));
#1975=DIRECTION('',(0.,0.,-1.));
#1976=DIRECTION('',(1.,0.,0.));
#1977=DIRECTION('',(0.,-1.,0.));
#1978=DIRECTION('',(0.,1.,0.));
#1979=DIRECTION('',(0.,0.,-1.));
#1980=DIRECTION('',(0.,-1.,0.));
#1981=DIRECTION('',(-1.,0.,0.));
#1982=DIRECTION('',(1.,0.,0.));
#1983=DIRECTION('',(0.,0.,-1.));
#1984=DIRECTION('',(-1.,0.,0.));
#1985=DIRECTION('',(0.,1.,0.));
#1986=DIRECTION('',(0.,1.,0.));
#1987=DIRECTION('',(-1.,0.,0.));
#1988=DIRECTION('',(0.,1.,0.));
#1989=DIRECTION('',(0.,-1.,0.));
#1990=DIRECTION('',(0.,0.,-1.));
#1991=DIRECTION('',(0.,0.,-1.));
#1992=DIRECTION('',(0.,1.,0.));
#1993=DIRECTION('',(1.,0.,0.));
#1994=DIRECTION('',(1.,0.,0.));
#1995=DIRECTION('',(0.,0.,-1.));
#1996=DIRECTION('',(1.,0.,0.));
#1997=DIRECTION('',(0.,-1.,0.));
#1998=DIRECTION('',(0.,-1.,0.));
#1999=DIRECTION('',(0.,0.,-1.));
#2000=DIRECTION('',(0.,-1.,0.));
#2001=DIRECTION('',(-1.,0.,0.));
#2002=DIRECTION('',(1.,0.,0.));
#2003=DIRECTION('',(1.,0.,0.));
#2004=DIRECTION('',(0.,-1.,0.));
#2005=DIRECTION('',(0.,1.,0.));
#2006=DIRECTION('',(0.,0.,-1.));
#2007=DIRECTION('',(0.,0.,-1.));
#2008=DIRECTION('',(0.,-1.,0.));
#2009=DIRECTION('',(-1.,0.,0.));
#2010=DIRECTION('',(-1.,0.,0.));
#2011=DIRECTION('',(0.,0.,-1.));
#2012=DIRECTION('',(-1.,0.,0.));
#2013=DIRECTION('',(0.,1.,0.));
#2014=DIRECTION('',(0.,1.,0.));
#2015=DIRECTION('',(0.,0.,-1.));
#2016=DIRECTION('',(0.,1.,0.));
#2017=DIRECTION('',(1.,0.,0.));
#2018=DIRECTION('',(-1.,0.,0.));
#2019=DIRECTION('',(0.,-1.,0.));
#2020=DIRECTION('',(-1.,0.,0.));
#2021=DIRECTION('',(-1.,0.,0.));
#2022=DIRECTION('',(0.,0.,-1.));
#2023=DIRECTION('',(0.,0.,-1.));
#2024=DIRECTION('',(-1.,0.,0.));
#2025=DIRECTION('',(0.,1.,0.));
#2026=DIRECTION('',(0.,-1.,0.));
#2027=DIRECTION('',(0.,0.,-1.));
#2028=DIRECTION('',(0.,1.,0.));
#2029=DIRECTION('',(1.,0.,0.));
#2030=DIRECTION('',(-1.,0.,0.));
#2031=DIRECTION('',(0.,0.,-1.));
#2032=DIRECTION('',(1.,0.,0.));
#2033=DIRECTION('',(0.,-1.,0.));
#2034=DIRECTION('',(0.,-1.,0.));
#2035=DIRECTION('',(-1.,0.,0.));
#2036=DIRECTION('',(0.,1.,0.));
#2037=DIRECTION('',(0.,-1.,0.));
#2038=DIRECTION('',(0.,0.,-1.));
#2039=DIRECTION('',(0.,0.,-1.));
#2040=DIRECTION('',(0.,1.,0.));
#2041=DIRECTION('',(1.,0.,0.));
#2042=DIRECTION('',(1.,0.,0.));
#2043=DIRECTION('',(0.,0.,-1.));
#2044=DIRECTION('',(1.,0.,0.));
#2045=DIRECTION('',(0.,-1.,0.));
#2046=DIRECTION('',(0.,-1.,0.));
#2047=DIRECTION('',(0.,0.,-1.));
#2048=DIRECTION('',(0.,-1.,0.));
#2049=DIRECTION('',(-1.,0.,0.));
#2050=DIRECTION('',(1.,0.,0.));
#2051=DIRECTION('',(0.,1.,0.));
#2052=DIRECTION('',(1.,0.,0.));
#2053=DIRECTION('',(1.,0.,0.));
#2054=DIRECTION('',(0.,0.,-1.));
#2055=DIRECTION('',(0.,0.,-1.));
#2056=DIRECTION('',(1.,0.,0.));
#2057=DIRECTION('',(0.,-1.,0.));
#2058=DIRECTION('',(0.,1.,0.));
#2059=DIRECTION('',(0.,0.,-1.));
#2060=DIRECTION('',(0.,-1.,0.));
#2061=DIRECTION('',(-1.,0.,0.));
#2062=DIRECTION('',(1.,0.,0.));
#2063=DIRECTION('',(0.,0.,-1.));
#2064=DIRECTION('',(-1.,0.,0.));
#2065=DIRECTION('',(0.,1.,0.));
#2066=DIRECTION('',(0.,1.,0.));
#2067=DIRECTION('',(0.,-1.,0.));
#2068=DIRECTION('',(-1.,0.,0.));
#2069=DIRECTION('',(-1.,0.,0.));
#2070=DIRECTION('',(0.,0.,-1.));
#2071=DIRECTION('',(0.,0.,-1.));
#2072=DIRECTION('',(-1.,0.,0.));
#2073=DIRECTION('',(0.,1.,0.));
#2074=DIRECTION('',(0.,-1.,0.));
#2075=DIRECTION('',(0.,0.,-1.));
#2076=DIRECTION('',(0.,1.,0.));
#2077=DIRECTION('',(1.,0.,0.));
#2078=DIRECTION('',(-1.,0.,0.));
#2079=DIRECTION('',(0.,0.,-1.));
#2080=DIRECTION('',(1.,0.,0.));
#2081=DIRECTION('',(0.,-1.,0.));
#2082=DIRECTION('',(0.,-1.,0.));
#2083=DIRECTION('',(1.,0.,0.));
#2084=DIRECTION('',(0.,-1.,0.));
#2085=DIRECTION('',(0.,1.,0.));
#2086=DIRECTION('',(0.,0.,-1.));
#2087=DIRECTION('',(0.,0.,-1.));
#2088=DIRECTION('',(0.,-1.,0.));
#2089=DIRECTION('',(-1.,0.,0.));
#2090=DIRECTION('',(-1.,0.,0.));
#2091=DIRECTION('',(0.,0.,-1.));
#2092=DIRECTION('',(-1.,0.,0.));
#2093=DIRECTION('',(0.,1.,0.));
#2094=DIRECTION('',(0.,1.,0.));
#2095=DIRECTION('',(0.,0.,-1.));
#2096=DIRECTION('',(0.,1.,0.));
#2097=DIRECTION('',(1.,0.,0.));
#2098=DIRECTION('',(-1.,0.,0.));
#2099=DIRECTION('',(0.,-1.,0.));
#2100=DIRECTION('',(-1.,0.,0.));
#2101=DIRECTION('',(1.,0.,0.));
#2102=DIRECTION('',(0.,0.,-1.));
#2103=DIRECTION('',(0.,0.,-1.));
#2104=DIRECTION('',(-1.,0.,0.));
#2105=DIRECTION('',(0.,1.,0.));
#2106=DIRECTION('',(0.,-1.,0.));
#2107=DIRECTION('',(0.,0.,-1.));
#2108=DIRECTION('',(9.91270557701032E-16,1.,0.));
#2109=DIRECTION('',(1.,-9.91270557701032E-16,0.));
#2110=DIRECTION('',(-1.,9.91270557701032E-16,0.));
#2111=DIRECTION('',(0.,0.,-1.));
#2112=DIRECTION('',(1.,3.01691039300314E-17,0.));
#2113=DIRECTION('',(3.01691039300314E-17,-1.,0.));
#2114=DIRECTION('',(-3.01691039300314E-17,1.,0.));
#2115=DIRECTION('',(0.,-1.,0.));
#2116=DIRECTION('',(-1.,0.,0.));
#2117=DIRECTION('',(1.,0.,0.));
#2118=DIRECTION('',(0.,0.,-1.));
#2119=DIRECTION('',(0.,0.,-1.));
#2120=DIRECTION('',(-1.,6.03382078600629E-17,0.));
#2121=DIRECTION('',(6.03382078600629E-17,1.,0.));
#2122=DIRECTION('',(-6.03382078600629E-17,-1.,0.));
#2123=DIRECTION('',(0.,0.,-1.));
#2124=DIRECTION('',(-4.95635278850516E-16,1.,0.));
#2125=DIRECTION('',(1.,4.95635278850516E-16,0.));
#2126=DIRECTION('',(-1.,-4.95635278850516E-16,0.));
#2127=DIRECTION('',(0.,0.,-1.));
#2128=DIRECTION('',(1.,6.03382078600629E-17,0.));
#2129=DIRECTION('',(6.03382078600629E-17,-1.,0.));
#2130=DIRECTION('',(-6.03382078600629E-17,1.,0.));
#2131=DIRECTION('',(-1.,0.,0.));
#2132=DIRECTION('',(0.,1.,0.));
#2133=DIRECTION('',(0.,-1.,0.));
#2134=DIRECTION('',(0.,0.,-1.));
#2135=DIRECTION('',(0.,0.,-1.));
#2136=DIRECTION('',(0.,1.,0.));
#2137=DIRECTION('',(1.,0.,0.));
#2138=DIRECTION('',(-1.,0.,0.));
#2139=DIRECTION('',(0.,0.,-1.));
#2140=DIRECTION('',(1.,3.01691039300314E-17,0.));
#2141=DIRECTION('',(3.01691039300314E-17,-1.,0.));
#2142=DIRECTION('',(-3.01691039300314E-17,1.,0.));
#2143=DIRECTION('',(0.,0.,-1.));
#2144=DIRECTION('',(0.,-1.,0.));
#2145=DIRECTION('',(-1.,0.,0.));
#2146=DIRECTION('',(1.,0.,0.));
#2147=DIRECTION('',(0.,0.,1.));
#2148=DIRECTION('',(1.,0.,0.));
#2149=DIRECTION('',(-1.,0.,0.));
#2150=DIRECTION('',(-6.03382078600629E-17,-1.,0.));
#2151=DIRECTION('',(1.,9.91270557701032E-16,0.));
#2152=DIRECTION('',(-6.03382078600629E-17,1.,0.));
#2153=DIRECTION('',(-1.,6.03382078600629E-17,0.));
#2154=DIRECTION('',(6.03382078600629E-17,1.,0.));
#2155=DIRECTION('',(0.,0.,-1.));
#2156=DIRECTION('',(6.03382078600629E-17,1.,0.));
#2157=DIRECTION('',(0.,0.,-1.));
#2158=DIRECTION('',(0.,1.,0.));
#2159=DIRECTION('',(1.,0.,0.));
#2160=DIRECTION('',(0.,0.,-1.));
#2161=DIRECTION('',(1.,0.,0.));
#2162=DIRECTION('',(0.,0.,-1.));
#2163=DIRECTION('',(-1.,0.,0.));
#2164=DIRECTION('',(-1.,-9.91270557701032E-16,0.));
#2165=DIRECTION('',(6.03382078600629E-17,-1.,0.));
#2166=DIRECTION('',(9.91270557701032E-16,-1.,0.));
#2167=DIRECTION('',(-1.,-9.91270557701032E-16,0.));
#2168=DIRECTION('',(0.,0.,-1.));
#2169=DIRECTION('',(1.,6.03382078600629E-17,0.));
#2170=DIRECTION('',(6.03382078600629E-17,-1.,0.));
#2171=CARTESIAN_POINT('',(0.,0.,0.));
#2172=CARTESIAN_POINT('',(-0.8,1.15,0.74));
#2173=CARTESIAN_POINT('',(-0.8,0.575,0.74));
#2174=CARTESIAN_POINT('',(-0.8,1.15,0.74));
#2175=CARTESIAN_POINT('',(-0.8,0.85,0.74));
#2176=CARTESIAN_POINT('',(-0.8,1.15,0.37));
#2177=CARTESIAN_POINT('',(-0.8,1.15,0.739));
#2178=CARTESIAN_POINT('',(-0.8,1.15,0.739));
#2179=CARTESIAN_POINT('',(-0.8,0.85,0.739));
#2180=CARTESIAN_POINT('',(-0.8,0.85,0.74));
#2181=CARTESIAN_POINT('',(0.,0.,0.74));
#2182=CARTESIAN_POINT('',(-0.4,0.85,0.74));
#2183=CARTESIAN_POINT('',(-1.1,0.85,0.74));
#2184=CARTESIAN_POINT('',(-1.1,1.15,0.74));
#2185=CARTESIAN_POINT('',(-1.1,-1.15,0.74));
#2186=CARTESIAN_POINT('',(-1.1,-1.15,0.74));
#2187=CARTESIAN_POINT('',(1.1,-1.15,0.74));
#2188=CARTESIAN_POINT('',(1.1,-1.15,0.74));
#2189=CARTESIAN_POINT('',(1.1,1.15,0.74));
#2190=CARTESIAN_POINT('',(1.1,1.15,0.74));
#2191=CARTESIAN_POINT('',(-0.95,1.,0.739));
#2192=CARTESIAN_POINT('',(-0.8,0.85,0.739));
#2193=CARTESIAN_POINT('',(-1.1,0.85,0.739));
#2194=CARTESIAN_POINT('',(0.075,1.15,0.739));
#2195=CARTESIAN_POINT('',(-1.1,1.15,0.739));
#2196=CARTESIAN_POINT('',(-1.1,1.075,0.739));
#2197=CARTESIAN_POINT('',(-0.8,0.85,0.74));
#2198=CARTESIAN_POINT('',(-1.1,0.85,0.37));
#2199=CARTESIAN_POINT('',(-0.265434947174928,0.430776143618403,0.002));
#2200=CARTESIAN_POINT('',(-0.265434947174928,0.430776143618403,0.002));
#2201=CARTESIAN_POINT('',(-0.35785287508561,0.430776143618403,0.002));
#2202=CARTESIAN_POINT('',(0.83,0.75,-0.13));
#2203=CARTESIAN_POINT('',(-1.50437063844074,0.61,-0.13));
#2204=CARTESIAN_POINT('',(1.,0.61,-0.13));
#2205=CARTESIAN_POINT('',(0.66,0.61,-0.13));
#2206=CARTESIAN_POINT('',(0.66,-0.55,-0.13));
#2207=CARTESIAN_POINT('',(0.66,0.89,-0.13));
#2208=CARTESIAN_POINT('',(-1.50437063844074,0.89,-0.13));
#2209=CARTESIAN_POINT('',(1.,0.89,-0.13));
#2210=CARTESIAN_POINT('',(1.,-0.55,-0.13));
#2211=CARTESIAN_POINT('',(-0.83,0.75,-0.13));
#2212=CARTESIAN_POINT('',(-0.66,1.35,-0.13));
#2213=CARTESIAN_POINT('',(-0.66,0.89,-0.13));
#2214=CARTESIAN_POINT('',(-0.66,0.61,-0.13));
#2215=CARTESIAN_POINT('',(-1.50437063844074,0.61,-0.13));
#2216=CARTESIAN_POINT('',(-1.,0.61,-0.13));
#2217=CARTESIAN_POINT('',(-1.,1.35,-0.13));
#2218=CARTESIAN_POINT('',(-1.,0.89,-0.13));
#2219=CARTESIAN_POINT('',(-1.50437063844074,0.89,-0.13));
#2220=CARTESIAN_POINT('',(0.83,-0.75,-0.13));
#2221=CARTESIAN_POINT('',(0.66,-1.55,-0.13));
#2222=CARTESIAN_POINT('',(0.66,-0.89,-0.13));
#2223=CARTESIAN_POINT('',(0.66,-0.61,-0.13));
#2224=CARTESIAN_POINT('',(1.50437063844074,-0.61,-0.13));
#2225=CARTESIAN_POINT('',(1.,-0.61,-0.13));
#2226=CARTESIAN_POINT('',(1.,-1.55,-0.13));
#2227=CARTESIAN_POINT('',(1.,-0.89,-0.13));
#2228=CARTESIAN_POINT('',(1.50437063844074,-0.89,-0.13));
#2229=CARTESIAN_POINT('',(-0.83,-0.75,-0.13));
#2230=CARTESIAN_POINT('',(1.50437063844074,-0.61,-0.13));
#2231=CARTESIAN_POINT('',(-1.,-0.61,-0.13));
#2232=CARTESIAN_POINT('',(-0.66,-0.61,-0.13));
#2233=CARTESIAN_POINT('',(-0.66,0.35,-0.13));
#2234=CARTESIAN_POINT('',(-0.66,-0.89,-0.13));
#2235=CARTESIAN_POINT('',(1.50437063844074,-0.89,-0.13));
#2236=CARTESIAN_POINT('',(-1.,-0.89,-0.13));
#2237=CARTESIAN_POINT('',(-1.,0.35,-0.13));
#2238=CARTESIAN_POINT('',(-0.83,0.25,-0.13));
#2239=CARTESIAN_POINT('',(-0.66,0.85,-0.13));
#2240=CARTESIAN_POINT('',(-0.66,0.39,-0.13));
#2241=CARTESIAN_POINT('',(-0.66,0.11,-0.13));
#2242=CARTESIAN_POINT('',(-1.50437063844074,0.11,-0.13));
#2243=CARTESIAN_POINT('',(-1.,0.11,-0.13));
#2244=CARTESIAN_POINT('',(-1.,0.85,-0.13));
#2245=CARTESIAN_POINT('',(-1.,0.39,-0.13));
#2246=CARTESIAN_POINT('',(-1.50437063844074,0.39,-0.13));
#2247=CARTESIAN_POINT('',(0.83,0.25,-0.13));
#2248=CARTESIAN_POINT('',(-1.50437063844074,0.11,-0.13));
#2249=CARTESIAN_POINT('',(1.,0.11,-0.13));
#2250=CARTESIAN_POINT('',(0.66,0.11,-0.13));
#2251=CARTESIAN_POINT('',(0.66,-1.05,-0.13));
#2252=CARTESIAN_POINT('',(0.66,0.39,-0.13));
#2253=CARTESIAN_POINT('',(-1.50437063844074,0.39,-0.13));
#2254=CARTESIAN_POINT('',(1.,0.39,-0.13));
#2255=CARTESIAN_POINT('',(1.,-1.05,-0.13));
#2256=CARTESIAN_POINT('',(-0.83,-0.25,-0.13));
#2257=CARTESIAN_POINT('',(1.50437063844074,-0.11,-0.13));
#2258=CARTESIAN_POINT('',(-1.,-0.11,-0.13));
#2259=CARTESIAN_POINT('',(-0.66,-0.11,-0.13));
#2260=CARTESIAN_POINT('',(-0.66,0.85,-0.13));
#2261=CARTESIAN_POINT('',(-0.66,-0.39,-0.13));
#2262=CARTESIAN_POINT('',(1.50437063844074,-0.39,-0.13));
#2263=CARTESIAN_POINT('',(-1.,-0.39,-0.13));
#2264=CARTESIAN_POINT('',(-1.,0.85,-0.13));
#2265=CARTESIAN_POINT('',(0.83,-0.25,-0.13));
#2266=CARTESIAN_POINT('',(0.66,-1.05,-0.13));
#2267=CARTESIAN_POINT('',(0.66,-0.39,-0.13));
#2268=CARTESIAN_POINT('',(0.66,-0.11,-0.13));
#2269=CARTESIAN_POINT('',(1.50437063844074,-0.11,-0.13));
#2270=CARTESIAN_POINT('',(1.,-0.11,-0.13));
#2271=CARTESIAN_POINT('',(1.,-1.05,-0.13));
#2272=CARTESIAN_POINT('',(1.,-0.39,-0.13));
#2273=CARTESIAN_POINT('',(1.50437063844074,-0.39,-0.13));
#2274=CARTESIAN_POINT('',(0.263230396770945,-0.902483470937295,-0.13));
#2275=CARTESIAN_POINT('',(0.123230396770945,1.1275165290627,-0.13));
#2276=CARTESIAN_POINT('',(0.123230396770945,-1.0724834709373,-0.13));
#2277=CARTESIAN_POINT('',(0.123230396770945,-0.732483470937295,-0.13));
#2278=CARTESIAN_POINT('',(0.123230396770945,-0.732483470937295,-0.13));
#2279=CARTESIAN_POINT('',(0.403230396770945,-0.732483470937295,-0.13));
#2280=CARTESIAN_POINT('',(0.403230396770945,1.1275165290627,-0.13));
#2281=CARTESIAN_POINT('',(0.403230396770945,-1.0724834709373,-0.13));
#2282=CARTESIAN_POINT('',(0.123230396770945,-1.0724834709373,-0.13));
#2283=CARTESIAN_POINT('',(-0.263149498847957,-0.902483470937295,-0.13));
#2284=CARTESIAN_POINT('',(-0.403149498847957,-1.1724834709373,-0.13));
#2285=CARTESIAN_POINT('',(-0.403149498847957,-1.0724834709373,-0.13));
#2286=CARTESIAN_POINT('',(-0.403149498847957,-0.732483470937295,-0.13));
#2287=CARTESIAN_POINT('',(-0.403149498847957,-0.732483470937295,-0.13));
#2288=CARTESIAN_POINT('',(-0.123149498847957,-0.732483470937295,-0.13));
#2289=CARTESIAN_POINT('',(-0.123149498847957,-1.1724834709373,-0.13));
#2290=CARTESIAN_POINT('',(-0.123149498847957,-1.0724834709373,-0.13));
#2291=CARTESIAN_POINT('',(-0.403149498847957,-1.0724834709373,-0.13));
#2292=CARTESIAN_POINT('',(0.263230396770945,0.870450739275506,-0.13));
#2293=CARTESIAN_POINT('',(0.403230396770945,0.700450739275506,-0.13));
#2294=CARTESIAN_POINT('',(0.403230396770945,0.700450739275506,-0.13));
#2295=CARTESIAN_POINT('',(0.123230396770945,0.700450739275506,-0.13));
#2296=CARTESIAN_POINT('',(0.123230396770945,1.14045073927551,-0.13));
#2297=CARTESIAN_POINT('',(0.123230396770945,1.04045073927551,-0.13));
#2298=CARTESIAN_POINT('',(0.403230396770945,1.04045073927551,-0.13));
#2299=CARTESIAN_POINT('',(0.403230396770945,1.04045073927551,-0.13));
#2300=CARTESIAN_POINT('',(0.403230396770945,1.14045073927551,-0.13));
#2301=CARTESIAN_POINT('',(-1.1,-1.15,0.));
#2302=CARTESIAN_POINT('',(-1.1,-1.15,0.));
#2303=CARTESIAN_POINT('',(-1.1,-1.15,0.));
#2304=CARTESIAN_POINT('',(1.1,-1.15,0.));
#2305=CARTESIAN_POINT('',(1.1,-1.15,0.));
#2306=CARTESIAN_POINT('',(-1.1,-1.15,0.));
#2307=CARTESIAN_POINT('',(1.1,-1.15,0.));
#2308=CARTESIAN_POINT('',(1.1,-1.15,0.));
#2309=CARTESIAN_POINT('',(1.1,1.15,0.));
#2310=CARTESIAN_POINT('',(1.1,1.15,0.));
#2311=CARTESIAN_POINT('',(1.1,1.15,0.));
#2312=CARTESIAN_POINT('',(1.1,1.15,0.));
#2313=CARTESIAN_POINT('',(-1.1,1.15,0.));
#2314=CARTESIAN_POINT('',(-1.1,1.15,0.));
#2315=CARTESIAN_POINT('',(-1.1,1.15,0.));
#2316=CARTESIAN_POINT('',(-1.1,1.15,0.));
#2317=CARTESIAN_POINT('',(-0.265434947174928,0.430776143618403,0.));
#2318=CARTESIAN_POINT('',(-0.265434947174928,0.430776143618403,0.));
#2319=CARTESIAN_POINT('',(-0.35785287508561,0.430776143618403,0.));
#2320=CARTESIAN_POINT('',(-0.35785287508561,0.430776143618403,0.));
#2321=CARTESIAN_POINT('',(0.66,0.89,0.));
#2322=CARTESIAN_POINT('',(-1.50437063844074,0.89,0.));
#2323=CARTESIAN_POINT('',(0.66,0.89,0.));
#2324=CARTESIAN_POINT('',(1.,0.89,0.));
#2325=CARTESIAN_POINT('',(1.,0.89,0.));
#2326=CARTESIAN_POINT('',(0.66,0.89,0.));
#2327=CARTESIAN_POINT('',(1.,0.89,0.));
#2328=CARTESIAN_POINT('',(1.,-0.55,0.));
#2329=CARTESIAN_POINT('',(1.,0.61,0.));
#2330=CARTESIAN_POINT('',(1.,0.61,0.));
#2331=CARTESIAN_POINT('',(1.,0.61,0.));
#2332=CARTESIAN_POINT('',(-1.50437063844074,0.61,0.));
#2333=CARTESIAN_POINT('',(0.66,0.61,0.));
#2334=CARTESIAN_POINT('',(0.66,0.61,0.));
#2335=CARTESIAN_POINT('',(0.66,0.61,0.));
#2336=CARTESIAN_POINT('',(0.66,-0.55,0.));
#2337=CARTESIAN_POINT('',(-1.,0.61,0.));
#2338=CARTESIAN_POINT('',(-1.,1.35,0.));
#2339=CARTESIAN_POINT('',(-1.,0.89,0.));
#2340=CARTESIAN_POINT('',(-1.,0.61,0.));
#2341=CARTESIAN_POINT('',(-1.,0.89,0.));
#2342=CARTESIAN_POINT('',(-1.,0.61,0.));
#2343=CARTESIAN_POINT('',(-1.,0.89,0.));
#2344=CARTESIAN_POINT('',(-1.50437063844074,0.89,0.));
#2345=CARTESIAN_POINT('',(-0.66,0.89,0.));
#2346=CARTESIAN_POINT('',(-0.66,0.89,0.));
#2347=CARTESIAN_POINT('',(-0.66,0.89,0.));
#2348=CARTESIAN_POINT('',(-0.66,1.35,0.));
#2349=CARTESIAN_POINT('',(-0.66,0.61,0.));
#2350=CARTESIAN_POINT('',(-0.66,0.61,0.));
#2351=CARTESIAN_POINT('',(-0.66,0.61,0.));
#2352=CARTESIAN_POINT('',(-1.50437063844074,0.61,0.));
#2353=CARTESIAN_POINT('',(1.,-0.61,0.));
#2354=CARTESIAN_POINT('',(1.,-1.55,0.));
#2355=CARTESIAN_POINT('',(1.,-0.89,0.));
#2356=CARTESIAN_POINT('',(1.,-0.61,0.));
#2357=CARTESIAN_POINT('',(1.,-0.89,0.));
#2358=CARTESIAN_POINT('',(1.,-0.61,0.));
#2359=CARTESIAN_POINT('',(1.,-0.89,0.));
#2360=CARTESIAN_POINT('',(1.50437063844074,-0.89,0.));
#2361=CARTESIAN_POINT('',(0.66,-0.89,0.));
#2362=CARTESIAN_POINT('',(0.66,-0.89,0.));
#2363=CARTESIAN_POINT('',(0.66,-0.89,0.));
#2364=CARTESIAN_POINT('',(0.66,-1.55,0.));
#2365=CARTESIAN_POINT('',(0.66,-0.61,0.));
#2366=CARTESIAN_POINT('',(0.66,-0.61,0.));
#2367=CARTESIAN_POINT('',(0.66,-0.61,0.));
#2368=CARTESIAN_POINT('',(1.50437063844074,-0.61,0.));
#2369=CARTESIAN_POINT('',(-0.66,-0.89,0.));
#2370=CARTESIAN_POINT('',(1.50437063844074,-0.89,0.));
#2371=CARTESIAN_POINT('',(-0.66,-0.89,0.));
#2372=CARTESIAN_POINT('',(-1.,-0.89,0.));
#2373=CARTESIAN_POINT('',(-1.,-0.89,0.));
#2374=CARTESIAN_POINT('',(-0.66,-0.89,0.));
#2375=CARTESIAN_POINT('',(-1.,-0.89,0.));
#2376=CARTESIAN_POINT('',(-1.,0.35,0.));
#2377=CARTESIAN_POINT('',(-1.,-0.61,0.));
#2378=CARTESIAN_POINT('',(-1.,-0.61,0.));
#2379=CARTESIAN_POINT('',(-1.,-0.61,0.));
#2380=CARTESIAN_POINT('',(1.50437063844074,-0.61,0.));
#2381=CARTESIAN_POINT('',(-0.66,-0.61,0.));
#2382=CARTESIAN_POINT('',(-0.66,-0.61,0.));
#2383=CARTESIAN_POINT('',(-0.66,-0.61,0.));
#2384=CARTESIAN_POINT('',(-0.66,0.35,0.));
#2385=CARTESIAN_POINT('',(-1.,0.11,0.));
#2386=CARTESIAN_POINT('',(-1.,0.85,0.));
#2387=CARTESIAN_POINT('',(-1.,0.39,0.));
#2388=CARTESIAN_POINT('',(-1.,0.11,0.));
#2389=CARTESIAN_POINT('',(-1.,0.39,0.));
#2390=CARTESIAN_POINT('',(-1.,0.11,0.));
#2391=CARTESIAN_POINT('',(-1.,0.39,0.));
#2392=CARTESIAN_POINT('',(-1.50437063844074,0.39,0.));
#2393=CARTESIAN_POINT('',(-0.66,0.39,0.));
#2394=CARTESIAN_POINT('',(-0.66,0.39,0.));
#2395=CARTESIAN_POINT('',(-0.66,0.39,0.));
#2396=CARTESIAN_POINT('',(-0.66,0.85,0.));
#2397=CARTESIAN_POINT('',(-0.66,0.11,0.));
#2398=CARTESIAN_POINT('',(-0.66,0.11,0.));
#2399=CARTESIAN_POINT('',(-0.66,0.11,0.));
#2400=CARTESIAN_POINT('',(-1.50437063844074,0.11,0.));
#2401=CARTESIAN_POINT('',(0.66,0.39,0.));
#2402=CARTESIAN_POINT('',(-1.50437063844074,0.39,0.));
#2403=CARTESIAN_POINT('',(0.66,0.39,0.));
#2404=CARTESIAN_POINT('',(1.,0.39,0.));
#2405=CARTESIAN_POINT('',(1.,0.39,0.));
#2406=CARTESIAN_POINT('',(0.66,0.39,0.));
#2407=CARTESIAN_POINT('',(1.,0.39,0.));
#2408=CARTESIAN_POINT('',(1.,-1.05,0.));
#2409=CARTESIAN_POINT('',(1.,0.11,0.));
#2410=CARTESIAN_POINT('',(1.,0.11,0.));
#2411=CARTESIAN_POINT('',(1.,0.11,0.));
#2412=CARTESIAN_POINT('',(-1.50437063844074,0.11,0.));
#2413=CARTESIAN_POINT('',(0.66,0.11,0.));
#2414=CARTESIAN_POINT('',(0.66,0.11,0.));
#2415=CARTESIAN_POINT('',(0.66,0.11,0.));
#2416=CARTESIAN_POINT('',(0.66,-1.05,0.));
#2417=CARTESIAN_POINT('',(-0.66,-0.39,0.));
#2418=CARTESIAN_POINT('',(1.50437063844074,-0.39,0.));
#2419=CARTESIAN_POINT('',(-0.66,-0.39,0.));
#2420=CARTESIAN_POINT('',(-1.,-0.39,0.));
#2421=CARTESIAN_POINT('',(-1.,-0.39,0.));
#2422=CARTESIAN_POINT('',(-0.66,-0.39,0.));
#2423=CARTESIAN_POINT('',(-1.,-0.39,0.));
#2424=CARTESIAN_POINT('',(-1.,0.85,0.));
#2425=CARTESIAN_POINT('',(-1.,-0.11,0.));
#2426=CARTESIAN_POINT('',(-1.,-0.11,0.));
#2427=CARTESIAN_POINT('',(-1.,-0.11,0.));
#2428=CARTESIAN_POINT('',(1.50437063844074,-0.11,0.));
#2429=CARTESIAN_POINT('',(-0.66,-0.11,0.));
#2430=CARTESIAN_POINT('',(-0.66,-0.11,0.));
#2431=CARTESIAN_POINT('',(-0.66,-0.11,0.));
#2432=CARTESIAN_POINT('',(-0.66,0.85,0.));
#2433=CARTESIAN_POINT('',(1.,-0.11,0.));
#2434=CARTESIAN_POINT('',(1.,-1.05,0.));
#2435=CARTESIAN_POINT('',(1.,-0.39,0.));
#2436=CARTESIAN_POINT('',(1.,-0.11,0.));
#2437=CARTESIAN_POINT('',(1.,-0.39,0.));
#2438=CARTESIAN_POINT('',(1.,-0.11,0.));
#2439=CARTESIAN_POINT('',(1.,-0.39,0.));
#2440=CARTESIAN_POINT('',(1.50437063844074,-0.39,0.));
#2441=CARTESIAN_POINT('',(0.66,-0.39,0.));
#2442=CARTESIAN_POINT('',(0.66,-0.39,0.));
#2443=CARTESIAN_POINT('',(0.66,-0.39,0.));
#2444=CARTESIAN_POINT('',(0.66,-1.05,0.));
#2445=CARTESIAN_POINT('',(0.66,-0.11,0.));
#2446=CARTESIAN_POINT('',(0.66,-0.11,0.));
#2447=CARTESIAN_POINT('',(0.66,-0.11,0.));
#2448=CARTESIAN_POINT('',(1.50437063844074,-0.11,0.));
#2449=CARTESIAN_POINT('',(0.403230396770945,-1.0724834709373,0.));
#2450=CARTESIAN_POINT('',(0.,-1.0724834709373,0.));
#2451=CARTESIAN_POINT('',(0.123230396770945,-1.0724834709373,0.));
#2452=CARTESIAN_POINT('',(0.403230396770945,-1.0724834709373,0.));
#2453=CARTESIAN_POINT('',(0.123230396770945,-1.0724834709373,0.));
#2454=CARTESIAN_POINT('',(0.403230396770945,-1.0724834709373,0.));
#2455=CARTESIAN_POINT('',(0.123230396770945,-1.0724834709373,0.));
#2456=CARTESIAN_POINT('',(0.123230396770945,0.,0.));
#2457=CARTESIAN_POINT('',(0.123230396770945,-0.732483470937295,0.));
#2458=CARTESIAN_POINT('',(0.123230396770945,-0.732483470937295,0.));
#2459=CARTESIAN_POINT('',(0.123230396770945,-0.732483470937295,0.));
#2460=CARTESIAN_POINT('',(-7.260892987428E-16,-0.732483470937295,0.));
#2461=CARTESIAN_POINT('',(0.403230396770945,-0.732483470937295,0.));
#2462=CARTESIAN_POINT('',(0.403230396770945,-0.732483470937295,0.));
#2463=CARTESIAN_POINT('',(0.403230396770945,-0.732483470937295,0.));
#2464=CARTESIAN_POINT('',(0.403230396770945,1.21650997479304E-17,0.));
#2465=CARTESIAN_POINT('',(-0.123149498847957,-1.0724834709373,0.));
#2466=CARTESIAN_POINT('',(0.,-1.0724834709373,0.));
#2467=CARTESIAN_POINT('',(-0.403149498847957,-1.0724834709373,0.));
#2468=CARTESIAN_POINT('',(-0.123149498847957,-1.0724834709373,0.));
#2469=CARTESIAN_POINT('',(-0.403149498847957,-1.0724834709373,0.));
#2470=CARTESIAN_POINT('',(-0.123149498847957,-1.0724834709373,0.));
#2471=CARTESIAN_POINT('',(-0.403149498847957,-1.0724834709373,0.));
#2472=CARTESIAN_POINT('',(-0.403149498847957,2.43253182601682E-17,0.));
#2473=CARTESIAN_POINT('',(-0.403149498847957,-0.732483470937295,0.));
#2474=CARTESIAN_POINT('',(-0.403149498847957,-0.732483470937295,0.));
#2475=CARTESIAN_POINT('',(-0.403149498847957,-0.732483470937295,0.));
#2476=CARTESIAN_POINT('',(3.630446493714E-16,-0.732483470937295,0.));
#2477=CARTESIAN_POINT('',(-0.123149498847957,-0.732483470937295,0.));
#2478=CARTESIAN_POINT('',(-0.123149498847957,-0.732483470937295,0.));
#2479=CARTESIAN_POINT('',(-0.123149498847957,-0.732483470937295,0.));
#2480=CARTESIAN_POINT('',(-0.123149498847957,-7.4306200593506E-18,0.));
#2481=CARTESIAN_POINT('',(0.123230396770945,0.700450739275506,0.));
#2482=CARTESIAN_POINT('',(0.123230396770945,0.,0.));
#2483=CARTESIAN_POINT('',(0.123230396770945,1.04045073927551,0.));
#2484=CARTESIAN_POINT('',(0.123230396770945,0.700450739275506,0.));
#2485=CARTESIAN_POINT('',(0.123230396770945,1.04045073927551,0.));
#2486=CARTESIAN_POINT('',(0.123230396770945,0.700450739275506,0.));
#2487=CARTESIAN_POINT('',(0.123230396770945,1.04045073927551,0.));
#2488=CARTESIAN_POINT('',(0.,1.04045073927551,0.));
#2489=CARTESIAN_POINT('',(0.403230396770945,1.04045073927551,0.));
#2490=CARTESIAN_POINT('',(0.403230396770945,1.04045073927551,0.));
#2491=CARTESIAN_POINT('',(0.403230396770945,1.04045073927551,0.));
#2492=CARTESIAN_POINT('',(0.403230396770945,1.21650997479304E-17,0.));
#2493=CARTESIAN_POINT('',(0.403230396770945,0.700450739275506,0.));
#2494=CARTESIAN_POINT('',(0.403230396770945,0.700450739275506,0.));
#2495=CARTESIAN_POINT('',(0.403230396770945,0.700450739275506,0.));
#2496=CARTESIAN_POINT('',(0.,0.700450739275506,0.));
#2497=CARTESIAN_POINT('',(0.,0.,0.));
#2498=CARTESIAN_POINT('',(0.,1.04045073927551,0.));
#2499=CARTESIAN_POINT('',(-0.122879174351005,1.04045073927551,0.));
#2500=CARTESIAN_POINT('',(-0.402879174351005,1.04045073927551,0.));
#2501=CARTESIAN_POINT('',(-0.402879174351005,2.43090073644815E-17,0.));
#2502=CARTESIAN_POINT('',(-0.402879174351005,0.700450739275506,0.));
#2503=CARTESIAN_POINT('',(-6.94336194963731E-16,0.700450739275506,0.));
#2504=CARTESIAN_POINT('',(-0.122879174351005,0.700450739275506,0.));
#2505=CARTESIAN_POINT('',(-0.122879174351005,-7.41430916366386E-18,0.));
#2506=CARTESIAN_POINT('',(-0.402879174351005,0.700450739275505,0.));
#2507=CARTESIAN_POINT('',(-0.402879174351005,1.04045073927551,0.));
#2508=CARTESIAN_POINT('',(-0.402879174351005,1.04045073927551,-0.13));
#2509=CARTESIAN_POINT('',(-0.402879174351005,-1.15954926072449,-0.13));
#2510=CARTESIAN_POINT('',(-0.402879174351005,0.700450739275505,-0.13));
#2511=CARTESIAN_POINT('',(-0.402879174351005,0.700450739275505,0.));
#2512=CARTESIAN_POINT('',(-0.402879174351005,1.04045073927551,0.));
#2513=CARTESIAN_POINT('',(-0.122879174351005,1.04045073927551,0.));
#2514=CARTESIAN_POINT('',(-0.122879174351005,1.04045073927551,-0.13));
#2515=CARTESIAN_POINT('',(-0.122879174351005,1.04045073927551,-0.13));
#2516=CARTESIAN_POINT('',(-0.262879174351005,0.870450739275506,-0.13));
#2517=CARTESIAN_POINT('',(-0.122879174351005,0.700450739275506,-0.13));
#2518=CARTESIAN_POINT('',(-0.122879174351005,0.700450739275506,-0.13));
#2519=CARTESIAN_POINT('',(-0.122879174351005,-1.15954926072449,-0.13));
#2520=CARTESIAN_POINT('',(-0.122879174351005,0.700450739275506,0.));
#2521=CARTESIAN_POINT('',(-0.122879174351005,0.700450739275506,0.));
#2522=CARTESIAN_POINT('',(-0.122879174351005,1.04045073927551,0.));
#2523=MECHANICAL_DESIGN_GEOMETRIC_PRESENTATION_REPRESENTATION('',(#1209,
#1210,#1211,#1212,#1213,#1214,#1215,#1216,#1217,#1218,#1219,#1220,#1221,
#1222,#1223,#1224,#1225,#1226,#1227,#1228,#1229,#1230,#1231,#1232,#1233,
#1234,#1235,#1236,#1237,#1238,#1239,#1240,#1241,#1242,#1243,#1244,#1245,
#1246,#1247,#1248,#1249,#1250,#1251,#1252,#1253,#1254,#1255,#1256,#1257,
#1258,#1259,#1260,#1261,#1262,#1263,#1264,#1265,#1266,#1267,#1268,#1269,
#1270,#1271,#1272,#1273,#1274,#1275,#1276,#1277,#1278,#1279),#2524);
#2524=(
GEOMETRIC_REPRESENTATION_CONTEXT(3)
GLOBAL_UNCERTAINTY_ASSIGNED_CONTEXT((#2525))
GLOBAL_UNIT_ASSIGNED_CONTEXT((#2528,#2527,#2526))
REPRESENTATION_CONTEXT('ADXL367BCCZ-RL7','TOP_LEVEL_ASSEMBLY_PART')
);
#2525=UNCERTAINTY_MEASURE_WITH_UNIT(LENGTH_MEASURE(0.005),#2528,
'DISTANCE_ACCURACY_VALUE','Maximum Tolerance applied to model');
#2526=(
NAMED_UNIT(*)
SI_UNIT($,.STERADIAN.)
SOLID_ANGLE_UNIT()
);
#2527=(
NAMED_UNIT(*)
PLANE_ANGLE_UNIT()
SI_UNIT($,.RADIAN.)
);
#2528=(
LENGTH_UNIT()
NAMED_UNIT(*)
SI_UNIT(.MILLI.,.METRE.)
);
#2529=PRODUCT_DEFINITION_SHAPE('','',#2530);
#2530=PRODUCT_DEFINITION('','',#2532,#2531);
#2531=PRODUCT_DEFINITION_CONTEXT('',#2538,'design');
#2532=PRODUCT_DEFINITION_FORMATION_WITH_SPECIFIED_SOURCE('','',#2534,
 .NOT_KNOWN.);
#2533=PRODUCT_RELATED_PRODUCT_CATEGORY('','',(#2534));
#2534=PRODUCT('ADXL367BCCZ-RL7','ADXL367BCCZ-RL7','ADXL367BCCZ-RL7',(#2536));
#2535=PRODUCT_CATEGORY('','');
#2536=PRODUCT_CONTEXT('',#2538,'mechanical');
#2537=APPLICATION_PROTOCOL_DEFINITION('international standard',
'automotive_design',2010,#2538);
#2538=APPLICATION_CONTEXT(
'core data for automotive mechanical design processes');
ENDSEC;
END-ISO-10303-21;
