ISO-10303-21;
HEADER;
FILE_DESCRIPTION (( 'STEP AP214' ),
    '1' );
FILE_NAME ('TPS7A0218PYCHR.STEP',
    '2023-04-11T10:53:08',
    ( '' ),
    ( '' ),
    'SwSTEP 2.0',
    'SolidWorks 2021',
    '' );
FILE_SCHEMA (( 'AUTOMOTIVE_DESIGN' ));
ENDSEC;

DATA;
#1 = VECTOR ( 'NONE', #846, 1000.000000000000000 ) ;
#2 =( NAMED_UNIT ( * ) SI_UNIT ( $, .STERADIAN. ) SOLID_ANGLE_UNIT ( ) );
#3 =( NAMED_UNIT ( * ) SI_UNIT ( $, .STERADIAN. ) SOLID_ANGLE_UNIT ( ) );
#4 = SURFACE_SIDE_STYLE ('',( #304 ) ) ;
#5 = AXIS2_PLACEMENT_3D ( 'NONE', #906, #1058, #14 ) ;
#6 =( GEOMETRIC_REPRESENTATION_CONTEXT ( 3 ) GLOBAL_UNCERTAINTY_ASSIGNED_CONTEXT ( ( #417 ) ) GLOBAL_UNIT_ASSIGNED_CONTEXT ( ( #553, #810, #459 ) ) REPRESENTATION_CONTEXT ( 'NONE', 'WORKASPACE' ) );
#7 = CARTESIAN_POINT ( 'NONE',  ( -0.3334999999999999076, 0.000000000000000000, 0.3335000000000000742 ) ) ;
#8 = DIRECTION ( 'NONE',  ( -0.000000000000000000, -1.000000000000000000, -0.000000000000000000 ) ) ;
#9 = LINE ( 'NONE', #707, #998 ) ;
#10 = EDGE_CURVE ( 'NONE', #485, #464, #533, .T. ) ;
#11 =( LENGTH_UNIT ( ) NAMED_UNIT ( * ) SI_UNIT ( .MILLI., .METRE. ) );
#12 =( LENGTH_UNIT ( ) NAMED_UNIT ( * ) SI_UNIT ( .MILLI., .METRE. ) );
#13 = PRODUCT_DEFINITION ( 'UNKNOWN', '', #616, #851 ) ;
#14 = DIRECTION ( 'NONE',  ( 0.000000000000000000, 0.000000000000000000, 1.000000000000000000 ) ) ;
#15 = AXIS2_PLACEMENT_3D ( 'NONE', #21, #816, #1072 ) ;
#16 = VERTEX_POINT ( 'NONE', #441 ) ;
#17 = AXIS2_PLACEMENT_3D ( 'NONE', #948, #1119, #169 ) ;
#18 =( NAMED_UNIT ( * ) SI_UNIT ( $, .STERADIAN. ) SOLID_ANGLE_UNIT ( ) );
#19 = CARTESIAN_POINT ( 'NONE',  ( 0.1749999999999999611, -0.05999999999999978961, 0.2874999999999999778 ) ) ;
#20 = DIRECTION ( 'NONE',  ( 0.000000000000000000, -1.000000000000000000, 0.000000000000000000 ) ) ;
#21 = CARTESIAN_POINT ( 'NONE',  ( 0.1749999999999999611, -0.05999999999999978961, 0.1750000000000000167 ) ) ;
#22 = DIRECTION ( 'NONE',  ( 0.000000000000000000, 0.000000000000000000, -1.000000000000000000 ) ) ;
#23 = STYLED_ITEM ( 'NONE', ( #249 ), #130 ) ;
#24 = ORIENTED_EDGE ( 'NONE', *, *, #889, .T. ) ;
#25 = EDGE_CURVE ( 'NONE', #828, #294, #490, .T. ) ;
#26 = ORIENTED_EDGE ( 'NONE', *, *, #601, .F. ) ;
#27 = COLOUR_RGB ( '',0.5372549019607842924, 0.3490196078431372362, 0.3372549019607843368 ) ;
#28 = MECHANICAL_DESIGN_GEOMETRIC_PRESENTATION_REPRESENTATION (  '', ( #418 ), #623 ) ;
#29 = PRESENTATION_LAYER_ASSIGNMENT (  '', '', ( #835 ) ) ;
#30 = PRESENTATION_STYLE_ASSIGNMENT (( #38 ) ) ;
#31 = FILL_AREA_STYLE_COLOUR ( '', #1110 ) ;
#32 = ORIENTED_EDGE ( 'NONE', *, *, #1091, .F. ) ;
#33 = EDGE_LOOP ( 'NONE', ( #781, #1074, #1010, #26 ) ) ;
#34 = AXIS2_PLACEMENT_3D ( 'NONE', #1093, #674, #153 ) ;
#35 = STYLED_ITEM ( 'NONE', ( #112 ), #1012 ) ;
#36 = PLANE ( 'NONE',  #643 ) ;
#37 = MECHANICAL_DESIGN_GEOMETRIC_PRESENTATION_REPRESENTATION (  '', ( #967 ), #1044 ) ;
#38 = SURFACE_STYLE_USAGE ( .BOTH. , #559 ) ;
#39 = DIRECTION ( 'NONE',  ( -3.250981026943041755E-16, -0.000000000000000000, -1.000000000000000000 ) ) ;
#40 = ORIENTED_EDGE ( 'NONE', *, *, #889, .F. ) ;
#41 = PRESENTATION_STYLE_ASSIGNMENT (( #562 ) ) ;
#42 = CARTESIAN_POINT ( 'NONE',  ( 0.1749999999999999611, 0.000000000000000000, -0.1750000000000000167 ) ) ;
#43 = CARTESIAN_POINT ( 'NONE',  ( 0.1749999999999999611, -0.1600000000000000033, -0.1750000000000000167 ) ) ;
#44 = AXIS2_PLACEMENT_3D ( 'NONE', #681, #1016, #687 ) ;
#45 = AXIS2_PLACEMENT_3D ( 'NONE', #481, #745, #1082 ) ;
#46 = COLOUR_RGB ( '',0.5372549019607842924, 0.3490196078431372362, 0.3372549019607843368 ) ;
#47 = EDGE_CURVE ( 'NONE', #996, #568, #9, .T. ) ;
#48 = CARTESIAN_POINT ( 'NONE',  ( -0.1749999999999999611, -0.06000000000000001166, 0.1750000000000000167 ) ) ;
#49 = DIRECTION ( 'NONE',  ( 0.000000000000000000, -1.000000000000000000, 0.000000000000000000 ) ) ;
#50 = LINE ( 'NONE', #589, #607 ) ;
#51 =( NAMED_UNIT ( * ) SI_UNIT ( $, .STERADIAN. ) SOLID_ANGLE_UNIT ( ) );
#52 = MECHANICAL_DESIGN_GEOMETRIC_PRESENTATION_REPRESENTATION (  '', ( #878 ), #613 ) ;
#53 = CARTESIAN_POINT ( 'NONE',  ( -0.3334999999999999076, 0.2400000000000000466, 0.3335000000000000742 ) ) ;
#54 = VECTOR ( 'NONE', #150, 1000.000000000000000 ) ;
#55 = CARTESIAN_POINT ( 'NONE',  ( 0.1749999999999999611, 0.000000000000000000, 0.2874999999999999778 ) ) ;
#56 = FACE_OUTER_BOUND ( 'NONE', #847, .T. ) ;
#57 = ORIENTED_EDGE ( 'NONE', *, *, #1075, .F. ) ;
#58 = EDGE_CURVE ( 'NONE', #294, #828, #74, .T. ) ;
#59 = UNCERTAINTY_MEASURE_WITH_UNIT (LENGTH_MEASURE( 1.000000000000000082E-05 ), #242, 'distance_accuracy_value', 'NONE');
#60 = LINE ( 'NONE', #772, #54 ) ;
#61 = DIRECTION ( 'NONE',  ( -0.000000000000000000, 1.000000000000000000, -0.000000000000000000 ) ) ;
#62 = SURFACE_STYLE_FILL_AREA ( #848 ) ;
#63 = TOROIDAL_SURFACE ( 'NONE', #183, 0.01249999999999999202, 0.1000000000000000056 ) ;
#64 = FILL_AREA_STYLE_COLOUR ( '', #46 ) ;
#65 = DIRECTION ( 'NONE',  ( 0.000000000000000000, -1.000000000000000000, 0.000000000000000000 ) ) ;
#66 = CYLINDRICAL_SURFACE ( 'NONE', #942, 0.1125000000000000028 ) ;
#67 = ORIENTED_EDGE ( 'NONE', *, *, #877, .F. ) ;
#68 = UNCERTAINTY_MEASURE_WITH_UNIT (LENGTH_MEASURE( 1.000000000000000082E-05 ), #482, 'distance_accuracy_value', 'NONE');
#69 = FACE_OUTER_BOUND ( 'NONE', #884, .T. ) ;
#70 = AXIS2_PLACEMENT_3D ( 'NONE', #427, #161, #793 ) ;
#71 =( GEOMETRIC_REPRESENTATION_CONTEXT ( 3 ) GLOBAL_UNCERTAINTY_ASSIGNED_CONTEXT ( ( #609 ) ) GLOBAL_UNIT_ASSIGNED_CONTEXT ( ( #612, #780, #2 ) ) REPRESENTATION_CONTEXT ( 'NONE', 'WORKASPACE' ) );
#72 = DIRECTION ( 'NONE',  ( 1.625490513471520877E-16, 0.000000000000000000, 1.000000000000000000 ) ) ;
#73 = UNCERTAINTY_MEASURE_WITH_UNIT (LENGTH_MEASURE( 1.000000000000000082E-05 ), #771, 'distance_accuracy_value', 'NONE');
#74 = CIRCLE ( 'NONE', #305, 0.01249999999999997814 ) ;
#75 =( GEOMETRIC_REPRESENTATION_CONTEXT ( 3 ) GLOBAL_UNCERTAINTY_ASSIGNED_CONTEXT ( ( #259 ) ) GLOBAL_UNIT_ASSIGNED_CONTEXT ( ( #143, #839, #1105 ) ) REPRESENTATION_CONTEXT ( 'NONE', 'WORKASPACE' ) );
#76 = CARTESIAN_POINT ( 'NONE',  ( 0.1749999999999999611, -0.1600000000000000033, 0.1750000000000000167 ) ) ;
#77 =( GEOMETRIC_REPRESENTATION_CONTEXT ( 3 ) GLOBAL_UNCERTAINTY_ASSIGNED_CONTEXT ( ( #347 ) ) GLOBAL_UNIT_ASSIGNED_CONTEXT ( ( #370, #285, #731 ) ) REPRESENTATION_CONTEXT ( 'NONE', 'WORKASPACE' ) );
#78 = CARTESIAN_POINT ( 'NONE',  ( -0.1749999999999999611, -0.1600000000000000033, 0.1750000000000000167 ) ) ;
#79 = DIRECTION ( 'NONE',  ( 0.000000000000000000, 0.000000000000000000, 1.000000000000000000 ) ) ;
#80 = SURFACE_STYLE_USAGE ( .BOTH. , #959 ) ;
#81 = STYLED_ITEM ( 'NONE', ( #930 ), #702 ) ;
#82 = PRESENTATION_STYLE_ASSIGNMENT (( #868 ) ) ;
#83 = STYLED_ITEM ( 'NONE', ( #963 ), #957 ) ;
#84 = AXIS2_PLACEMENT_3D ( 'NONE', #78, #436, #795 ) ;
#85 = EDGE_CURVE ( 'NONE', #928, #547, #214, .T. ) ;
#86 = SURFACE_SIDE_STYLE ('',( #791 ) ) ;
#87 = ORIENTED_EDGE ( 'NONE', *, *, #110, .F. ) ;
#88 = FILL_AREA_STYLE_COLOUR ( '', #349 ) ;
#89 = FILL_AREA_STYLE_COLOUR ( '', #630 ) ;
#90 =( NAMED_UNIT ( * ) PLANE_ANGLE_UNIT ( ) SI_UNIT ( $, .RADIAN. ) );
#91 = CARTESIAN_POINT ( 'NONE',  ( 0.1749999999999999611, -0.05999999999999978961, -0.1750000000000000167 ) ) ;
#92 = ORIENTED_EDGE ( 'NONE', *, *, #110, .T. ) ;
#93 = EDGE_CURVE ( 'NONE', #580, #540, #158, .T. ) ;
#94 = CARTESIAN_POINT ( 'NONE',  ( -0.1749999999999999611, -0.1600000000000000033, -0.1750000000000000167 ) ) ;
#95 = COLOUR_RGB ( '',0.5372549019607842924, 0.3490196078431372362, 0.3372549019607843368 ) ;
#96 = SURFACE_STYLE_FILL_AREA ( #548 ) ;
#97 = PRESENTATION_STYLE_ASSIGNMENT (( #460 ) ) ;
#98 = AXIS2_PLACEMENT_3D ( 'NONE', #740, #1080, #656 ) ;
#99 = CARTESIAN_POINT ( 'NONE',  ( -0.1749999999999999611, -0.06000000000000001166, -0.1875000000000000000 ) ) ;
#100 = MECHANICAL_DESIGN_GEOMETRIC_PRESENTATION_REPRESENTATION (  '', ( #534 ), #269 ) ;
#101 = COLOUR_RGB ( '',0.5372549019607842924, 0.3490196078431372362, 0.3372549019607843368 ) ;
#102 = ORIENTED_EDGE ( 'NONE', *, *, #566, .T. ) ;
#103 = CARTESIAN_POINT ( 'NONE',  ( -0.1749999999999999611, -0.05999999999999978961, 0.1750000000000000167 ) ) ;
#104 = DIRECTION ( 'NONE',  ( 3.250981026943041755E-16, 0.000000000000000000, 1.000000000000000000 ) ) ;
#105 = AXIS2_PLACEMENT_3D ( 'NONE', #604, #231, #677 ) ;
#106 = STYLED_ITEM ( 'NONE', ( #513 ), #866 ) ;
#107 = FILL_AREA_STYLE ('',( #892 ) ) ;
#108 =( LENGTH_UNIT ( ) NAMED_UNIT ( * ) SI_UNIT ( .MILLI., .METRE. ) );
#109 = SURFACE_STYLE_USAGE ( .BOTH. , #444 ) ;
#110 = EDGE_CURVE ( 'NONE', #579, #312, #50, .T. ) ;
#111 = VERTEX_POINT ( 'NONE', #602 ) ;
#112 = PRESENTATION_STYLE_ASSIGNMENT (( #984 ) ) ;
#113 = FILL_AREA_STYLE_COLOUR ( '', #270 ) ;
#114 = DIRECTION ( 'NONE',  ( 0.000000000000000000, 0.000000000000000000, -1.000000000000000000 ) ) ;
#115 = AXIS2_PLACEMENT_3D ( 'NONE', #352, #450, #898 ) ;
#116 = CARTESIAN_POINT ( 'NONE',  ( -0.1749999999999999611, -0.1600000000000000033, 0.1750000000000000167 ) ) ;
#117 = VERTEX_POINT ( 'NONE', #1097 ) ;
#118 = VECTOR ( 'NONE', #567, 1000.000000000000000 ) ;
#119 = CARTESIAN_POINT ( 'NONE',  ( 0.1749999999999999611, -0.06000000000000001166, 0.1875000000000000000 ) ) ;
#120 = DIRECTION ( 'NONE',  ( 0.000000000000000000, 0.000000000000000000, -1.000000000000000000 ) ) ;
#121 = COLOUR_RGB ( '',0.5372549019607842924, 0.3490196078431372362, 0.3372549019607843368 ) ;
#122 = EDGE_CURVE ( 'NONE', #467, #547, #775, .T. ) ;
#123 = AXIS2_PLACEMENT_3D ( 'NONE', #637, #651, #631 ) ;
#124 = CARTESIAN_POINT ( 'NONE',  ( -0.1749999999999999611, -0.1600000000000000033, 0.1750000000000000167 ) ) ;
#125 = COLOUR_RGB ( '',0.5372549019607842924, 0.3490196078431372362, 0.3372549019607843368 ) ;
#126 = FACE_OUTER_BOUND ( 'NONE', #33, .T. ) ;
#127 = SURFACE_SIDE_STYLE ('',( #937 ) ) ;
#128 = ORIENTED_EDGE ( 'NONE', *, *, #993, .T. ) ;
#129 = ORIENTED_EDGE ( 'NONE', *, *, #993, .F. ) ;
#130 = ADVANCED_FACE ( 'NONE', ( #749 ), #756, .T. ) ;
#131 = DIRECTION ( 'NONE',  ( 0.000000000000000000, -0.000000000000000000, 1.000000000000000000 ) ) ;
#132 =( NAMED_UNIT ( * ) PLANE_ANGLE_UNIT ( ) SI_UNIT ( $, .RADIAN. ) );
#133 = FILL_AREA_STYLE ('',( #916 ) ) ;
#134 = CARTESIAN_POINT ( 'NONE',  ( 0.000000000000000000, -0.1600000000000000033, 0.000000000000000000 ) ) ;
#135 = FILL_AREA_STYLE_COLOUR ( '', #843 ) ;
#136 = CARTESIAN_POINT ( 'NONE',  ( 0.1749999999999999611, -0.1600000000000000033, 0.1625000000000000333 ) ) ;
#137 = DIRECTION ( 'NONE',  ( 0.000000000000000000, 0.000000000000000000, -1.000000000000000000 ) ) ;
#138 = ORIENTED_EDGE ( 'NONE', *, *, #946, .F. ) ;
#139 = AXIS2_PLACEMENT_3D ( 'NONE', #94, #1003, #120 ) ;
#140 = PRESENTATION_STYLE_ASSIGNMENT (( #399 ) ) ;
#141 = CARTESIAN_POINT ( 'NONE',  ( 0.000000000000000000, 0.2400000000000000466, 0.000000000000000000 ) ) ;
#142 = COLOUR_RGB ( '',0.2509803921568627416, 0.2509803921568627416, 0.2509803921568627416 ) ;
#143 =( LENGTH_UNIT ( ) NAMED_UNIT ( * ) SI_UNIT ( .MILLI., .METRE. ) );
#144 =( NAMED_UNIT ( * ) SI_UNIT ( $, .STERADIAN. ) SOLID_ANGLE_UNIT ( ) );
#145 = DIRECTION ( 'NONE',  ( 1.000000000000000000, 0.000000000000000000, -1.224646799147353207E-16 ) ) ;
#146 = COLOUR_RGB ( '',0.5372549019607842924, 0.3490196078431372362, 0.3372549019607843368 ) ;
#147 = CARTESIAN_POINT ( 'NONE',  ( 0.1749999999999999611, -0.06000000000000001166, -0.1750000000000000167 ) ) ;
#148 = AXIS2_PLACEMENT_3D ( 'NONE', #408, #751, #1000 ) ;
#149 = PRESENTATION_STYLE_ASSIGNMENT (( #1028 ) ) ;
#150 = DIRECTION ( 'NONE',  ( -3.250981026943041755E-16, -0.000000000000000000, -1.000000000000000000 ) ) ;
#151 = DIRECTION ( 'NONE',  ( 0.000000000000000000, 0.000000000000000000, -1.000000000000000000 ) ) ;
#152 = ORIENTED_EDGE ( 'NONE', *, *, #1063, .T. ) ;
#153 = DIRECTION ( 'NONE',  ( -1.000000000000000000, 0.000000000000000000, -0.000000000000000000 ) ) ;
#154 = UNCERTAINTY_MEASURE_WITH_UNIT (LENGTH_MEASURE( 1.000000000000000082E-05 ), #457, 'distance_accuracy_value', 'NONE');
#155 = DIRECTION ( 'NONE',  ( -0.000000000000000000, 1.000000000000000000, -0.000000000000000000 ) ) ;
#156 = SURFACE_STYLE_USAGE ( .BOTH. , #311 ) ;
#157 =( NAMED_UNIT ( * ) PLANE_ANGLE_UNIT ( ) SI_UNIT ( $, .RADIAN. ) );
#158 = CIRCLE ( 'NONE', #98, 0.01249999999999997814 ) ;
#159 = STYLED_ITEM ( 'NONE', ( #82 ), #268 ) ;
#160 =( GEOMETRIC_REPRESENTATION_CONTEXT ( 3 ) GLOBAL_UNCERTAINTY_ASSIGNED_CONTEXT ( ( #865 ) ) GLOBAL_UNIT_ASSIGNED_CONTEXT ( ( #367, #718, #820 ) ) REPRESENTATION_CONTEXT ( 'NONE', 'WORKASPACE' ) );
#161 = DIRECTION ( 'NONE',  ( 0.000000000000000000, -1.000000000000000000, 0.000000000000000000 ) ) ;
#162 = FILL_AREA_STYLE ('',( #920 ) ) ;
#163 = APPLICATION_CONTEXT ( 'automotive_design' ) ;
#164 = FILL_AREA_STYLE_COLOUR ( '', #377 ) ;
#165 = UNCERTAINTY_MEASURE_WITH_UNIT (LENGTH_MEASURE( 1.000000000000000082E-05 ), #752, 'distance_accuracy_value', 'NONE');
#166 = EDGE_CURVE ( 'NONE', #467, #295, #520, .T. ) ;
#167 = FILL_AREA_STYLE ('',( #688 ) ) ;
#168 = CIRCLE ( 'NONE', #5, 0.1125000000000000028 ) ;
#169 = DIRECTION ( 'NONE',  ( 0.000000000000000000, 0.000000000000000000, -1.000000000000000000 ) ) ;
#170 = STYLED_ITEM ( 'NONE', ( #203 ), #1034 ) ;
#171 = MECHANICAL_DESIGN_GEOMETRIC_PRESENTATION_REPRESENTATION (  '', ( #953 ), #6 ) ;
#172 = DIRECTION ( 'NONE',  ( 0.000000000000000000, 0.000000000000000000, 1.000000000000000000 ) ) ;
#173 = EDGE_CURVE ( 'NONE', #750, #111, #723, .T. ) ;
#174 =( NAMED_UNIT ( * ) PLANE_ANGLE_UNIT ( ) SI_UNIT ( $, .RADIAN. ) );
#175 = FILL_AREA_STYLE_COLOUR ( '', #470 ) ;
#176 = PRESENTATION_STYLE_ASSIGNMENT (( #192 ) ) ;
#177 = ORIENTED_EDGE ( 'NONE', *, *, #1091, .T. ) ;
#178 = PRESENTATION_LAYER_ASSIGNMENT (  '', '', ( #831 ) ) ;
#179 = UNCERTAINTY_MEASURE_WITH_UNIT (LENGTH_MEASURE( 1.000000000000000082E-05 ), #703, 'distance_accuracy_value', 'NONE');
#180 = SURFACE_STYLE_FILL_AREA ( #519 ) ;
#181 =( GEOMETRIC_REPRESENTATION_CONTEXT ( 3 ) GLOBAL_UNCERTAINTY_ASSIGNED_CONTEXT ( ( #337 ) ) GLOBAL_UNIT_ASSIGNED_CONTEXT ( ( #391, #465, #572 ) ) REPRESENTATION_CONTEXT ( 'NONE', 'WORKASPACE' ) );
#182 = CARTESIAN_POINT ( 'NONE',  ( 0.000000000000000000, -0.1600000000000000033, 0.000000000000000000 ) ) ;
#183 = AXIS2_PLACEMENT_3D ( 'NONE', #48, #217, #315 ) ;
#184 = EDGE_CURVE ( 'NONE', #16, #829, #376, .T. ) ;
#185 = EDGE_LOOP ( 'NONE', ( #1107, #291, #899, #424 ) ) ;
#186 = ORIENTED_EDGE ( 'NONE', *, *, #437, .T. ) ;
#187 = PRESENTATION_STYLE_ASSIGNMENT (( #80 ) ) ;
#188 = AXIS2_PLACEMENT_3D ( 'NONE', #182, #20, #978 ) ;
#189 = DIRECTION ( 'NONE',  ( 0.000000000000000000, 0.000000000000000000, -1.000000000000000000 ) ) ;
#190 = EDGE_CURVE ( 'NONE', #849, #799, #901, .T. ) ;
#192 = SURFACE_STYLE_USAGE ( .BOTH. , #250 ) ;
#191 = AXIS2_PLACEMENT_3D ( 'NONE', #499, #659, #671 ) ;
#193 = ORIENTED_EDGE ( 'NONE', *, *, #798, .T. ) ;
#194 = ORIENTED_EDGE ( 'NONE', *, *, #893, .F. ) ;
#195 = CARTESIAN_POINT ( 'NONE',  ( -0.3335000000000000187, 0.000000000000000000, -0.3334999999999999076 ) ) ;
#196 = EDGE_LOOP ( 'NONE', ( #357, #1073, #202, #991 ) ) ;
#197 = LINE ( 'NONE', #7, #986 ) ;
#198 = PRESENTATION_STYLE_ASSIGNMENT (( #109 ) ) ;
#199 = CARTESIAN_POINT ( 'NONE',  ( -0.1749999999999999611, -0.1600000000000000033, -0.1750000000000000167 ) ) ;
#200 = AXIS2_PLACEMENT_3D ( 'NONE', #226, #155, #827 ) ;
#201 = MECHANICAL_DESIGN_GEOMETRIC_PRESENTATION_REPRESENTATION (  '', ( #835 ), #77 ) ;
#202 = ORIENTED_EDGE ( 'NONE', *, *, #635, .T. ) ;
#203 = PRESENTATION_STYLE_ASSIGNMENT (( #440 ) ) ;
#204 = DIRECTION ( 'NONE',  ( -1.000000000000000000, -0.000000000000000000, -0.000000000000000000 ) ) ;
#205 = EDGE_CURVE ( 'NONE', #16, #294, #871, .T. ) ;
#206 = FACE_OUTER_BOUND ( 'NONE', #650, .T. ) ;
#207 = CARTESIAN_POINT ( 'NONE',  ( 0.3335000000000000187, 0.2400000000000000466, -0.3334999999999999076 ) ) ;
#208 = ORIENTED_EDGE ( 'NONE', *, *, #811, .T. ) ;
#209 = COLOUR_RGB ( '',0.5372549019607842924, 0.3490196078431372362, 0.3372549019607843368 ) ;
#210 = PRESENTATION_STYLE_ASSIGNMENT (( #716 ) ) ;
#211 = DIRECTION ( 'NONE',  ( 0.000000000000000000, -1.000000000000000000, 0.000000000000000000 ) ) ;
#212 = ORIENTED_EDGE ( 'NONE', *, *, #93, .F. ) ;
#213 = ORIENTED_EDGE ( 'NONE', *, *, #1057, .T. ) ;
#214 = LINE ( 'NONE', #573, #784 ) ;
#215 = ORIENTED_EDGE ( 'NONE', *, *, #987, .F. ) ;
#216 = CIRCLE ( 'NONE', #856, 0.1124999999999999750 ) ;
#217 = DIRECTION ( 'NONE',  ( 0.000000000000000000, -1.000000000000000000, 0.000000000000000000 ) ) ;
#218 = CARTESIAN_POINT ( 'NONE',  ( 0.1749999999999999889, -0.1600000000000000033, -0.2874999999999999778 ) ) ;
#219 = ORIENTED_EDGE ( 'NONE', *, *, #474, .T. ) ;
#220 = ADVANCED_FACE ( 'NONE', ( #56 ), #944, .T. ) ;
#221 = ORIENTED_EDGE ( 'NONE', *, *, #458, .F. ) ;
#222 = MECHANICAL_DESIGN_GEOMETRIC_PRESENTATION_REPRESENTATION (  '', ( #81 ), #861 ) ;
#223 = COLOUR_RGB ( '',0.7921568627450980005, 0.8196078431372548767, 0.9333333333333333481 ) ;
#224 = PRESENTATION_LAYER_ASSIGNMENT (  '', '', ( #967 ) ) ;
#225 = DIRECTION ( 'NONE',  ( 0.000000000000000000, 0.000000000000000000, -1.000000000000000000 ) ) ;
#226 = CARTESIAN_POINT ( 'NONE',  ( -0.1749999999999999611, 0.000000000000000000, 0.1750000000000000167 ) ) ;
#227 = SURFACE_STYLE_USAGE ( .BOTH. , #489 ) ;
#228 = CARTESIAN_POINT ( 'NONE',  ( -0.1749999999999999611, -0.05999999999999978961, 0.1750000000000000167 ) ) ;
#229 = VERTEX_POINT ( 'NONE', #339 ) ;
#230 = SURFACE_STYLE_USAGE ( .BOTH. , #409 ) ;
#231 = DIRECTION ( 'NONE',  ( -0.000000000000000000, 1.000000000000000000, -0.000000000000000000 ) ) ;
#232 = DIRECTION ( 'NONE',  ( -0.000000000000000000, 1.000000000000000000, -0.000000000000000000 ) ) ;
#233 = VECTOR ( 'NONE', #939, 1000.000000000000000 ) ;
#234 = DIRECTION ( 'NONE',  ( 1.000000000000000000, 0.000000000000000000, 0.000000000000000000 ) ) ;
#235 = ORIENTED_EDGE ( 'NONE', *, *, #474, .F. ) ;
#236 = AXIS2_PLACEMENT_3D ( 'NONE', #1009, #584, #151 ) ;
#237 = CIRCLE ( 'NONE', #1018, 0.09999999999999999167 ) ;
#238 = UNCERTAINTY_MEASURE_WITH_UNIT (LENGTH_MEASURE( 1.000000000000000082E-05 ), #108, 'distance_accuracy_value', 'NONE');
#239 = COLOUR_RGB ( '',0.2509803921568627416, 0.2509803921568627416, 0.2509803921568627416 ) ;
#240 = AXIS2_PLACEMENT_3D ( 'NONE', #711, #1054, #632 ) ;
#241 = EDGE_CURVE ( 'NONE', #254, #714, #923, .T. ) ;
#242 =( LENGTH_UNIT ( ) NAMED_UNIT ( * ) SI_UNIT ( .MILLI., .METRE. ) );
#243 = CARTESIAN_POINT ( 'NONE',  ( -0.3335000000000000187, 0.2400000000000000466, -0.3334999999999999076 ) ) ;
#244 = ORIENTED_EDGE ( 'NONE', *, *, #946, .T. ) ;
#245 = EDGE_LOOP ( 'NONE', ( #1024, #595, #894, #803 ) ) ;
#246 = STYLED_ITEM ( 'NONE', ( #97 ), #676 ) ;
#247 = CARTESIAN_POINT ( 'NONE',  ( -0.3335000000000000187, 0.2400000000000000466, -0.3334999999999999076 ) ) ;
#248 = FILL_AREA_STYLE_COLOUR ( '', #715 ) ;
#249 = PRESENTATION_STYLE_ASSIGNMENT (( #397 ) ) ;
#250 = SURFACE_SIDE_STYLE ('',( #62 ) ) ;
#251 = UNCERTAINTY_MEASURE_WITH_UNIT (LENGTH_MEASURE( 1.000000000000000082E-05 ), #422, 'distance_accuracy_value', 'NONE');
#252 = PRESENTATION_LAYER_ASSIGNMENT (  '', '', ( #605 ) ) ;
#253 = CARTESIAN_POINT ( 'NONE',  ( -0.1749999999999999611, -0.06000000000000001166, -0.1750000000000000167 ) ) ;
#254 = VERTEX_POINT ( 'NONE', #690 ) ;
#255 = STYLED_ITEM ( 'NONE', ( #30 ), #374 ) ;
#256 = TOROIDAL_SURFACE ( 'NONE', #945, 0.01249999999999999202, 0.1000000000000000056 ) ;
#257 = SURFACE_SIDE_STYLE ('',( #860 ) ) ;
#258 = EDGE_CURVE ( 'NONE', #714, #229, #1102, .T. ) ;
#259 = UNCERTAINTY_MEASURE_WITH_UNIT (LENGTH_MEASURE( 1.000000000000000082E-05 ), #143, 'distance_accuracy_value', 'NONE');
#260 = PRESENTATION_LAYER_ASSIGNMENT (  '', '', ( #35 ) ) ;
#261 = AXIS2_PLACEMENT_3D ( 'NONE', #103, #456, #808 ) ;
#262 = DIRECTION ( 'NONE',  ( -0.000000000000000000, 1.000000000000000000, -0.000000000000000000 ) ) ;
#263 =( NAMED_UNIT ( * ) SI_UNIT ( $, .STERADIAN. ) SOLID_ANGLE_UNIT ( ) );
#264 = CARTESIAN_POINT ( 'NONE',  ( -0.1749999999999999611, -0.06000000000000001166, -0.1625000000000000333 ) ) ;
#265 = ORIENTED_EDGE ( 'NONE', *, *, #762, .F. ) ;
#266 = ORIENTED_EDGE ( 'NONE', *, *, #292, .F. ) ;
#267 = CLOSED_SHELL ( 'NONE', ( #466, #374, #1100, #402, #676, #509, #130, #1069, #333, #498, #866, #710, #528, #981, #702, #661, #268, #957, #691, #783, #614, #220, #1109, #722, #516, #1012 ) ) ;
#268 = ADVANCED_FACE ( 'NONE', ( #951 ), #956, .T. ) ;
#269 =( GEOMETRIC_REPRESENTATION_CONTEXT ( 3 ) GLOBAL_UNCERTAINTY_ASSIGNED_CONTEXT ( ( #430 ) ) GLOBAL_UNIT_ASSIGNED_CONTEXT ( ( #435, #994, #825 ) ) REPRESENTATION_CONTEXT ( 'NONE', 'WORKASPACE' ) );
#270 = COLOUR_RGB ( '',0.5372549019607842924, 0.3490196078431372362, 0.3372549019607843368 ) ;
#271 = LINE ( 'NONE', #195, #492 ) ;
#272 = ORIENTED_EDGE ( 'NONE', *, *, #419, .F. ) ;
#273 =( NAMED_UNIT ( * ) SI_UNIT ( $, .STERADIAN. ) SOLID_ANGLE_UNIT ( ) );
#274 = FILL_AREA_STYLE_COLOUR ( '', #125 ) ;
#275 = STYLED_ITEM ( 'NONE', ( #845 ), #783 ) ;
#276 = SURFACE_STYLE_FILL_AREA ( #1048 ) ;
#277 =( LENGTH_UNIT ( ) NAMED_UNIT ( * ) SI_UNIT ( .MILLI., .METRE. ) );
#278 = VECTOR ( 'NONE', #570, 1000.000000000000000 ) ;
#279 = PRESENTATION_LAYER_ASSIGNMENT (  '', '', ( #953 ) ) ;
#280 = ORIENTED_EDGE ( 'NONE', *, *, #487, .T. ) ;
#281 = DIRECTION ( 'NONE',  ( 0.000000000000000000, 0.000000000000000000, -1.000000000000000000 ) ) ;
#282 = FACE_OUTER_BOUND ( 'NONE', #1118, .T. ) ;
#283 = FILL_AREA_STYLE_COLOUR ( '', #146 ) ;
#284 = EDGE_CURVE ( 'NONE', #823, #494, #271, .T. ) ;
#285 =( NAMED_UNIT ( * ) PLANE_ANGLE_UNIT ( ) SI_UNIT ( $, .RADIAN. ) );
#286 = COLOUR_RGB ( '',0.5372549019607842924, 0.3490196078431372362, 0.3372549019607843368 ) ;
#287 = COLOUR_RGB ( '',0.2509803921568627416, 0.2509803921568627416, 0.2509803921568627416 ) ;
#288 = DIRECTION ( 'NONE',  ( 0.000000000000000000, 0.000000000000000000, -1.000000000000000000 ) ) ;
#289 = STYLED_ITEM ( 'NONE', ( #421 ), #466 ) ;
#290 = AXIS2_PLACEMENT_3D ( 'NONE', #497, #999, #575 ) ;
#291 = ORIENTED_EDGE ( 'NONE', *, *, #258, .T. ) ;
#292 = EDGE_CURVE ( 'NONE', #829, #828, #237, .T. ) ;
#293 = MECHANICAL_DESIGN_GEOMETRIC_PRESENTATION_REPRESENTATION (  '', ( #246 ), #364 ) ;
#294 = VERTEX_POINT ( 'NONE', #626 ) ;
#295 = VERTEX_POINT ( 'NONE', #445 ) ;
#296 = MECHANICAL_DESIGN_GEOMETRIC_PRESENTATION_REPRESENTATION (  '', ( #106 ), #1112 ) ;
#297 =( GEOMETRIC_REPRESENTATION_CONTEXT ( 3 ) GLOBAL_UNCERTAINTY_ASSIGNED_CONTEXT ( ( #1026 ) ) GLOBAL_UNIT_ASSIGNED_CONTEXT ( ( #706, #438, #18 ) ) REPRESENTATION_CONTEXT ( 'NONE', 'WORKASPACE' ) );
#298 = PRESENTATION_STYLE_ASSIGNMENT (( #1065 ) ) ;
#299 = DIRECTION ( 'NONE',  ( 0.000000000000000000, -1.000000000000000000, 0.000000000000000000 ) ) ;
#300 = ORIENTED_EDGE ( 'NONE', *, *, #284, .T. ) ;
#301 =( NAMED_UNIT ( * ) SI_UNIT ( $, .STERADIAN. ) SOLID_ANGLE_UNIT ( ) );
#302 = CARTESIAN_POINT ( 'NONE',  ( 0.1749999999999999611, -0.1600000000000000033, 0.1875000000000000000 ) ) ;
#303 = MECHANICAL_DESIGN_GEOMETRIC_PRESENTATION_REPRESENTATION (  '', ( #831 ), #1099 ) ;
#304 = SURFACE_STYLE_FILL_AREA ( #739 ) ;
#305 = AXIS2_PLACEMENT_3D ( 'NONE', #116, #299, #653 ) ;
#306 = EDGE_LOOP ( 'NONE', ( #221, #484, #705, #539 ) ) ;
#307 = ORIENTED_EDGE ( 'NONE', *, *, #419, .T. ) ;
#308 = PRESENTATION_LAYER_ASSIGNMENT (  '', '', ( #159 ) ) ;
#309 = PRESENTATION_LAYER_ASSIGNMENT (  '', '', ( #747 ) ) ;
#310 =( LENGTH_UNIT ( ) NAMED_UNIT ( * ) SI_UNIT ( .MILLI., .METRE. ) );
#311 = SURFACE_SIDE_STYLE ('',( #600 ) ) ;
#312 = VERTEX_POINT ( 'NONE', #350 ) ;
#313 = DIRECTION ( 'NONE',  ( 0.000000000000000000, 0.000000000000000000, 1.000000000000000000 ) ) ;
#314 = STYLED_ITEM ( 'NONE', ( #330 ), #981 ) ;
#315 = DIRECTION ( 'NONE',  ( 0.000000000000000000, 0.000000000000000000, -1.000000000000000000 ) ) ;
#316 = DIRECTION ( 'NONE',  ( 0.000000000000000000, 0.000000000000000000, 1.000000000000000000 ) ) ;
#317 =( LENGTH_UNIT ( ) NAMED_UNIT ( * ) SI_UNIT ( .MILLI., .METRE. ) );
#318 =( NAMED_UNIT ( * ) SI_UNIT ( $, .STERADIAN. ) SOLID_ANGLE_UNIT ( ) );
#319 = SURFACE_STYLE_USAGE ( .BOTH. , #127 ) ;
#320 = SURFACE_STYLE_FILL_AREA ( #1031 ) ;
#321 = ORIENTED_EDGE ( 'NONE', *, *, #47, .F. ) ;
#322 = STYLED_ITEM ( 'NONE', ( #940 ), #220 ) ;
#323 = FACE_OUTER_BOUND ( 'NONE', #381, .T. ) ;
#324 = UNCERTAINTY_MEASURE_WITH_UNIT (LENGTH_MEASURE( 1.000000000000000082E-05 ), #975, 'distance_accuracy_value', 'NONE');
#325 = CIRCLE ( 'NONE', #45, 0.1124999999999999750 ) ;
#326 = FACE_BOUND ( 'NONE', #935, .T. ) ;
#327 = CARTESIAN_POINT ( 'NONE',  ( -0.1749999999999999611, 0.000000000000000000, -0.06250000000000002776 ) ) ;
#328 = PRESENTATION_LAYER_ASSIGNMENT (  '', '', ( #81 ) ) ;
#329 = CIRCLE ( 'NONE', #191, 0.01249999999999997814 ) ;
#330 = PRESENTATION_STYLE_ASSIGNMENT (( #800 ) ) ;
#331 = MECHANICAL_DESIGN_GEOMETRIC_PRESENTATION_REPRESENTATION (  '', ( #83 ), #879 ) ;
#332 = TOROIDAL_SURFACE ( 'NONE', #776, 0.01249999999999999202, 0.1000000000000000056 ) ;
#333 = ADVANCED_FACE ( 'NONE', ( #785 ), #544, .F. ) ;
#334 = DIRECTION ( 'NONE',  ( -1.000000000000000000, -0.000000000000000000, -0.000000000000000000 ) ) ;
#335 = SURFACE_STYLE_FILL_AREA ( #500 ) ;
#336 = ORIENTED_EDGE ( 'NONE', *, *, #382, .T. ) ;
#337 = UNCERTAINTY_MEASURE_WITH_UNIT (LENGTH_MEASURE( 1.000000000000000082E-05 ), #391, 'distance_accuracy_value', 'NONE');
#338 = SURFACE_STYLE_USAGE ( .BOTH. , #1036 ) ;
#339 = CARTESIAN_POINT ( 'NONE',  ( 0.1749999999999999611, -0.1600000000000000033, -0.1625000000000000333 ) ) ;
#340 = PRODUCT_RELATED_PRODUCT_CATEGORY ( 'part', '', ( #446 ) ) ;
#341 = PRESENTATION_LAYER_ASSIGNMENT (  '', '', ( #982 ) ) ;
#342 = PRESENTATION_STYLE_ASSIGNMENT (( #338 ) ) ;
#343 = LINE ( 'NONE', #943, #449 ) ;
#344 = SURFACE_STYLE_USAGE ( .BOTH. , #428 ) ;
#345 = DIRECTION ( 'NONE',  ( 0.000000000000000000, 0.000000000000000000, 1.000000000000000000 ) ) ;
#346 = ORIENTED_EDGE ( 'NONE', *, *, #1063, .F. ) ;
#347 = UNCERTAINTY_MEASURE_WITH_UNIT (LENGTH_MEASURE( 1.000000000000000082E-05 ), #370, 'distance_accuracy_value', 'NONE');
#348 = LINE ( 'NONE', #1051, #1087 ) ;
#349 = COLOUR_RGB ( '',0.2509803921568627416, 0.2509803921568627416, 0.2509803921568627416 ) ;
#350 = CARTESIAN_POINT ( 'NONE',  ( 0.3335000000000002407, 0.2400000000000000466, 0.3335000000000000742 ) ) ;
#351 = CARTESIAN_POINT ( 'NONE',  ( 0.1749999999999999611, -0.1600000000000000033, 0.1750000000000000167 ) ) ;
#352 = CARTESIAN_POINT ( 'NONE',  ( -0.1749999999999999611, -0.1600000000000000033, 0.1750000000000000167 ) ) ;
#353 = SURFACE_STYLE_USAGE ( .BOTH. , #875 ) ;
#354 = DIRECTION ( 'NONE',  ( 0.000000000000000000, 0.000000000000000000, -1.000000000000000000 ) ) ;
#355 = ORIENTED_EDGE ( 'NONE', *, *, #93, .T. ) ;
#356 = DIRECTION ( 'NONE',  ( -0.000000000000000000, 1.000000000000000000, -0.000000000000000000 ) ) ;
#357 = ORIENTED_EDGE ( 'NONE', *, *, #258, .F. ) ;
#358 = FILL_AREA_STYLE_COLOUR ( '', #209 ) ;
#359 =( NAMED_UNIT ( * ) PLANE_ANGLE_UNIT ( ) SI_UNIT ( $, .RADIAN. ) );
#360 = CIRCLE ( 'NONE', #804, 0.1000000000000000056 ) ;
#361 = DIRECTION ( 'NONE',  ( 0.000000000000000000, 0.000000000000000000, 1.000000000000000000 ) ) ;
#362 = DIRECTION ( 'NONE',  ( 1.000000000000000000, 0.000000000000000000, -1.224646799147353207E-16 ) ) ;
#363 = ORIENTED_EDGE ( 'NONE', *, *, #166, .F. ) ;
#364 =( GEOMETRIC_REPRESENTATION_CONTEXT ( 3 ) GLOBAL_UNCERTAINTY_ASSIGNED_CONTEXT ( ( #941 ) ) GLOBAL_UNIT_ASSIGNED_CONTEXT ( ( #794, #372, #263 ) ) REPRESENTATION_CONTEXT ( 'NONE', 'WORKASPACE' ) );
#365 = CYLINDRICAL_SURFACE ( 'NONE', #105, 0.1125000000000000028 ) ;
#366 = MECHANICAL_DESIGN_GEOMETRIC_PRESENTATION_REPRESENTATION (  '', ( #170 ), #297 ) ;
#367 =( LENGTH_UNIT ( ) NAMED_UNIT ( * ) SI_UNIT ( .MILLI., .METRE. ) );
#368 = EDGE_LOOP ( 'NONE', ( #968, #1040 ) ) ;
#369 = FACE_OUTER_BOUND ( 'NONE', #1060, .T. ) ;
#370 =( LENGTH_UNIT ( ) NAMED_UNIT ( * ) SI_UNIT ( .MILLI., .METRE. ) );
#371 = SURFACE_STYLE_USAGE ( .BOTH. , #1064 ) ;
#372 =( NAMED_UNIT ( * ) PLANE_ANGLE_UNIT ( ) SI_UNIT ( $, .RADIAN. ) );
#373 = FILL_AREA_STYLE_COLOUR ( '', #101 ) ;
#374 = ADVANCED_FACE ( 'NONE', ( #471 ), #819, .T. ) ;
#375 = FACE_OUTER_BOUND ( 'NONE', #590, .T. ) ;
#376 = CIRCLE ( 'NONE', #1101, 0.1125000000000000028 ) ;
#377 = COLOUR_RGB ( '',0.5372549019607842924, 0.3490196078431372362, 0.3372549019607843368 ) ;
#378 = SURFACE_STYLE_FILL_AREA ( #733 ) ;
#379 = ORIENTED_EDGE ( 'NONE', *, *, #1046, .T. ) ;
#380 = VECTOR ( 'NONE', #407, 1000.000000000000000 ) ;
#381 = EDGE_LOOP ( 'NONE', ( #379, #757, #87, #872 ) ) ;
#382 = EDGE_CURVE ( 'NONE', #295, #579, #655, .T. ) ;
#383 = LINE ( 'NONE', #992, #278 ) ;
#384 = FILL_AREA_STYLE ('',( #31 ) ) ;
#385 = STYLED_ITEM ( 'NONE', ( #140 ), #710 ) ;
#386 = EDGE_LOOP ( 'NONE', ( #355, #837 ) ) ;
#387 = EDGE_LOOP ( 'NONE', ( #736, #346, #627, #477 ) ) ;
#388 = MECHANICAL_DESIGN_GEOMETRIC_PRESENTATION_REPRESENTATION (  '', ( #598 ), #71 ) ;
#389 = EDGE_CURVE ( 'NONE', #501, #464, #453, .T. ) ;
#390 =( NAMED_UNIT ( * ) SI_UNIT ( $, .STERADIAN. ) SOLID_ANGLE_UNIT ( ) );
#391 =( LENGTH_UNIT ( ) NAMED_UNIT ( * ) SI_UNIT ( .MILLI., .METRE. ) );
#392 = EDGE_LOOP ( 'NONE', ( #1035, #404, #219, #321 ) ) ;
#393 = EDGE_LOOP ( 'NONE', ( #32, #138, #1092, #826 ) ) ;
#394 = MECHANICAL_DESIGN_GEOMETRIC_PRESENTATION_REPRESENTATION (  '', ( #605 ), #809 ) ;
#395 = FILL_AREA_STYLE ('',( #64 ) ) ;
#396 = FACE_OUTER_BOUND ( 'NONE', #196, .T. ) ;
#397 = SURFACE_STYLE_USAGE ( .BOTH. , #855 ) ;
#398 = ORIENTED_EDGE ( 'NONE', *, *, #790, .T. ) ;
#399 = SURFACE_STYLE_USAGE ( .BOTH. , #850 ) ;
#400 = SURFACE_STYLE_FILL_AREA ( #1001 ) ;
#401 = LINE ( 'NONE', #852, #1042 ) ;
#402 = ADVANCED_FACE ( 'NONE', ( #454 ), #256, .T. ) ;
#403 = CARTESIAN_POINT ( 'NONE',  ( 0.1749999999999999611, -0.1600000000000000033, 0.1750000000000000167 ) ) ;
#404 = ORIENTED_EDGE ( 'NONE', *, *, #458, .T. ) ;
#405 = PRESENTATION_LAYER_ASSIGNMENT (  '', '', ( #385 ) ) ;
#406 = AXIS2_PLACEMENT_3D ( 'NONE', #134, #65, #938 ) ;
#407 = DIRECTION ( 'NONE',  ( -0.000000000000000000, -1.000000000000000000, -0.000000000000000000 ) ) ;
#408 = CARTESIAN_POINT ( 'NONE',  ( 0.000000000000000000, -0.1600000000000000033, 0.000000000000000000 ) ) ;
#409 = SURFACE_SIDE_STYLE ('',( #400 ) ) ;
#410 = SURFACE_SIDE_STYLE ('',( #838 ) ) ;
#411 = CARTESIAN_POINT ( 'NONE',  ( -0.1749999999999999334, -0.1600000000000000033, 0.06250000000000002776 ) ) ;
#412 = SURFACE_STYLE_USAGE ( .BOTH. , #493 ) ;
#413 = ORIENTED_EDGE ( 'NONE', *, *, #25, .F. ) ;
#414 = CARTESIAN_POINT ( 'NONE',  ( -0.1749999999999999611, -0.1600000000000000033, 0.1625000000000000333 ) ) ;
#415 = CARTESIAN_POINT ( 'NONE',  ( -0.3334999999999999076, 0.2400000000000000466, 0.3335000000000000742 ) ) ;
#416 =( GEOMETRIC_REPRESENTATION_CONTEXT ( 3 ) GLOBAL_UNCERTAINTY_ASSIGNED_CONTEXT ( ( #692 ) ) GLOBAL_UNIT_ASSIGNED_CONTEXT ( ( #514, #594, #423 ) ) REPRESENTATION_CONTEXT ( 'NONE', 'WORKASPACE' ) );
#417 = UNCERTAINTY_MEASURE_WITH_UNIT (LENGTH_MEASURE( 1.000000000000000082E-05 ), #553, 'distance_accuracy_value', 'NONE');
#418 = STYLED_ITEM ( 'NONE', ( #342 ), #509 ) ;
#419 = EDGE_CURVE ( 'NONE', #996, #540, #360, .T. ) ;
#420 = FILL_AREA_STYLE_COLOUR ( '', #581 ) ;
#421 = PRESENTATION_STYLE_ASSIGNMENT (( #319 ) ) ;
#422 =( LENGTH_UNIT ( ) NAMED_UNIT ( * ) SI_UNIT ( .MILLI., .METRE. ) );
#423 =( NAMED_UNIT ( * ) SI_UNIT ( $, .STERADIAN. ) SOLID_ANGLE_UNIT ( ) );
#424 = ORIENTED_EDGE ( 'NONE', *, *, #635, .F. ) ;
#425 = PRESENTATION_LAYER_ASSIGNMENT (  '', '', ( #275 ) ) ;
#426 = AXIS2_PLACEMENT_3D ( 'NONE', #563, #204, #639 ) ;
#427 = CARTESIAN_POINT ( 'NONE',  ( -0.1749999999999999611, -0.1600000000000000033, -0.1750000000000000167 ) ) ;
#428 = SURFACE_SIDE_STYLE ('',( #882 ) ) ;
#429 = DIRECTION ( 'NONE',  ( 0.000000000000000000, 0.000000000000000000, -1.000000000000000000 ) ) ;
#430 = UNCERTAINTY_MEASURE_WITH_UNIT (LENGTH_MEASURE( 1.000000000000000082E-05 ), #435, 'distance_accuracy_value', 'NONE');
#431 = PRESENTATION_STYLE_ASSIGNMENT (( #949 ) ) ;
#432 = COLOUR_RGB ( '',0.5372549019607842924, 0.3490196078431372362, 0.3372549019607843368 ) ;
#433 = VECTOR ( 'NONE', #1114, 1000.000000000000000 ) ;
#434 =( NAMED_UNIT ( * ) SI_UNIT ( $, .STERADIAN. ) SOLID_ANGLE_UNIT ( ) );
#435 =( LENGTH_UNIT ( ) NAMED_UNIT ( * ) SI_UNIT ( .MILLI., .METRE. ) );
#436 = DIRECTION ( 'NONE',  ( -0.000000000000000000, 1.000000000000000000, -0.000000000000000000 ) ) ;
#437 = EDGE_CURVE ( 'NONE', #117, #880, #888, .T. ) ;
#438 =( NAMED_UNIT ( * ) PLANE_ANGLE_UNIT ( ) SI_UNIT ( $, .RADIAN. ) );
#439 =( GEOMETRIC_REPRESENTATION_CONTEXT ( 3 ) GLOBAL_UNCERTAINTY_ASSIGNED_CONTEXT ( ( #59 ) ) GLOBAL_UNIT_ASSIGNED_CONTEXT ( ( #242, #132, #318 ) ) REPRESENTATION_CONTEXT ( 'NONE', 'WORKASPACE' ) );
#440 = SURFACE_STYLE_USAGE ( .BOTH. , #86 ) ;
#441 = CARTESIAN_POINT ( 'NONE',  ( -0.1749999999999999611, -0.05999999999999978961, 0.2874999999999999778 ) ) ;
#442 = FILL_AREA_STYLE ('',( #88 ) ) ;
#443 =( NAMED_UNIT ( * ) SI_UNIT ( $, .STERADIAN. ) SOLID_ANGLE_UNIT ( ) );
#444 = SURFACE_SIDE_STYLE ('',( #754 ) ) ;
#445 = CARTESIAN_POINT ( 'NONE',  ( -0.3335000000000000187, 0.2400000000000000466, -0.3334999999999999076 ) ) ;
#446 = PRODUCT ( 'TPS7A0218PYCHR', 'TPS7A0218PYCHR', '', ( #488 ) ) ;
#447 = DIRECTION ( 'NONE',  ( 0.000000000000000000, -1.000000000000000000, 0.000000000000000000 ) ) ;
#448 =( NAMED_UNIT ( * ) PLANE_ANGLE_UNIT ( ) SI_UNIT ( $, .RADIAN. ) );
#449 = VECTOR ( 'NONE', #525, 1000.000000000000000 ) ;
#450 = DIRECTION ( 'NONE',  ( 0.000000000000000000, -1.000000000000000000, 0.000000000000000000 ) ) ;
#451 =( NAMED_UNIT ( * ) SI_UNIT ( $, .STERADIAN. ) SOLID_ANGLE_UNIT ( ) );
#452 = SURFACE_SIDE_STYLE ('',( #96 ) ) ;
#453 = CIRCLE ( 'NONE', #708, 0.1000000000000000056 ) ;
#454 = FACE_OUTER_BOUND ( 'NONE', #185, .T. ) ;
#455 = EDGE_LOOP ( 'NONE', ( #561, #654 ) ) ;
#456 = DIRECTION ( 'NONE',  ( -0.000000000000000000, 1.000000000000000000, -0.000000000000000000 ) ) ;
#457 =( LENGTH_UNIT ( ) NAMED_UNIT ( * ) SI_UNIT ( .MILLI., .METRE. ) );
#458 = EDGE_CURVE ( 'NONE', #730, #1081, #401, .T. ) ;
#459 =( NAMED_UNIT ( * ) SI_UNIT ( $, .STERADIAN. ) SOLID_ANGLE_UNIT ( ) );
#460 = SURFACE_STYLE_USAGE ( .BOTH. , #788 ) ;
#461 = CIRCLE ( 'NONE', #1030, 0.1124999999999999750 ) ;
#462 = FILL_AREA_STYLE_COLOUR ( '', #27 ) ;
#463 = AXIS2_PLACEMENT_3D ( 'NONE', #670, #505, #844 ) ;
#464 = VERTEX_POINT ( 'NONE', #765 ) ;
#465 =( NAMED_UNIT ( * ) PLANE_ANGLE_UNIT ( ) SI_UNIT ( $, .RADIAN. ) );
#466 = ADVANCED_FACE ( 'NONE', ( #583 ), #63, .T. ) ;
#467 = VERTEX_POINT ( 'NONE', #1111 ) ;
#468 = PRODUCT_DEFINITION_SHAPE ( 'NONE', 'NONE',  #13 ) ;
#469 = FILL_AREA_STYLE ('',( #274 ) ) ;
#470 = COLOUR_RGB ( '',0.5372549019607842924, 0.3490196078431372362, 0.3372549019607843368 ) ;
#471 = FACE_OUTER_BOUND ( 'NONE', #621, .T. ) ;
#472 = PLANE ( 'NONE',  #406 ) ;
#473 = ORIENTED_EDGE ( 'NONE', *, *, #762, .T. ) ;
#474 = EDGE_CURVE ( 'NONE', #1081, #568, #216, .T. ) ;
#475 = ORIENTED_EDGE ( 'NONE', *, *, #190, .T. ) ;
#476 = CIRCLE ( 'NONE', #824, 0.1124999999999999750 ) ;
#477 = ORIENTED_EDGE ( 'NONE', *, *, #58, .F. ) ;
#478 = ORIENTED_EDGE ( 'NONE', *, *, #586, .F. ) ;
#479 = SURFACE_SIDE_STYLE ('',( #770 ) ) ;
#480 = DIRECTION ( 'NONE',  ( -0.000000000000000000, 1.000000000000000000, -0.000000000000000000 ) ) ;
#481 = CARTESIAN_POINT ( 'NONE',  ( 0.1749999999999999611, -0.05999999999999978961, -0.1750000000000000167 ) ) ;
#482 =( LENGTH_UNIT ( ) NAMED_UNIT ( * ) SI_UNIT ( .MILLI., .METRE. ) );
#483 = FACE_OUTER_BOUND ( 'NONE', #649, .T. ) ;
#484 = ORIENTED_EDGE ( 'NONE', *, *, #546, .T. ) ;
#485 = VERTEX_POINT ( 'NONE', #664 ) ;
#486 = CARTESIAN_POINT ( 'NONE',  ( 0.3335000000000000187, 0.000000000000000000, -0.3334999999999999076 ) ) ;
#487 = EDGE_CURVE ( 'NONE', #714, #254, #325, .T. ) ;
#488 = PRODUCT_CONTEXT ( 'NONE', #709, 'mechanical' ) ;
#489 = SURFACE_SIDE_STYLE ('',( #995 ) ) ;
#490 = CIRCLE ( 'NONE', #115, 0.01249999999999997814 ) ;
#491 = LINE ( 'NONE', #1029, #536 ) ;
#492 = VECTOR ( 'NONE', #72, 1000.000000000000000 ) ;
#493 = SURFACE_SIDE_STYLE ('',( #320 ) ) ;
#494 = VERTEX_POINT ( 'NONE', #658 ) ;
#495 = MECHANICAL_DESIGN_GEOMETRIC_PRESENTATION_REPRESENTATION (  '', ( #982 ), #75 ) ;
#496 = CIRCLE ( 'NONE', #290, 0.1125000000000000028 ) ;
#497 = CARTESIAN_POINT ( 'NONE',  ( 0.1749999999999999611, -0.05999999999999978961, 0.1750000000000000167 ) ) ;
#498 = ADVANCED_FACE ( 'NONE', ( #931 ), #1096, .F. ) ;
#499 = CARTESIAN_POINT ( 'NONE',  ( 0.1749999999999999611, -0.1600000000000000033, -0.1750000000000000167 ) ) ;
#500 = FILL_AREA_STYLE ('',( #927 ) ) ;
#501 = VERTEX_POINT ( 'NONE', #947 ) ;
#502 = AXIS2_PLACEMENT_3D ( 'NONE', #199, #805, #554 ) ;
#503 = TOROIDAL_SURFACE ( 'NONE', #578, 0.01249999999999999202, 0.1000000000000000056 ) ;
#504 = UNCERTAINTY_MEASURE_WITH_UNIT (LENGTH_MEASURE( 1.000000000000000082E-05 ), #814, 'distance_accuracy_value', 'NONE');
#505 = DIRECTION ( 'NONE',  ( 0.000000000000000000, 0.000000000000000000, 1.000000000000000000 ) ) ;
#506 =( NAMED_UNIT ( * ) PLANE_ANGLE_UNIT ( ) SI_UNIT ( $, .RADIAN. ) );
#507 = LINE ( 'NONE', #1015, #952 ) ;
#508 = ORIENTED_EDGE ( 'NONE', *, *, #566, .F. ) ;
#509 = ADVANCED_FACE ( 'NONE', ( #881 ), #693, .T. ) ;
#510 = CARTESIAN_POINT ( 'NONE',  ( 0.1749999999999999889, -0.05999999999999978961, 0.06250000000000002776 ) ) ;
#511 = SURFACE_STYLE_FILL_AREA ( #1025 ) ;
#512 = PRESENTATION_STYLE_ASSIGNMENT (( #230 ) ) ;
#513 = PRESENTATION_STYLE_ASSIGNMENT (( #156 ) ) ;
#514 =( LENGTH_UNIT ( ) NAMED_UNIT ( * ) SI_UNIT ( .MILLI., .METRE. ) );
#515 = PRESENTATION_LAYER_ASSIGNMENT (  '', '', ( #23 ) ) ;
#516 = ADVANCED_FACE ( 'NONE', ( #375 ), #1023, .T. ) ;
#517 = AXIS2_PLACEMENT_3D ( 'NONE', #91, #876, #712 ) ;
#518 = DIRECTION ( 'NONE',  ( 0.000000000000000000, 0.000000000000000000, 1.000000000000000000 ) ) ;
#519 = FILL_AREA_STYLE ('',( #958 ) ) ;
#520 = LINE ( 'NONE', #243, #433 ) ;
#521 = DIRECTION ( 'NONE',  ( 0.000000000000000000, -1.000000000000000000, 0.000000000000000000 ) ) ;
#522 = AXIS2_PLACEMENT_3D ( 'NONE', #253, #521, #429 ) ;
#523 = CIRCLE ( 'NONE', #17, 0.1125000000000000028 ) ;
#524 = MECHANICAL_DESIGN_GEOMETRIC_PRESENTATION_REPRESENTATION (  '', ( #1007 ), #439 ) ;
#525 = DIRECTION ( 'NONE',  ( -0.000000000000000000, -1.000000000000000000, -0.000000000000000000 ) ) ;
#526 = FILL_AREA_STYLE ('',( #1049 ) ) ;
#527 = UNCERTAINTY_MEASURE_WITH_UNIT (LENGTH_MEASURE( 1.000000000000000082E-05 ), #12, 'distance_accuracy_value', 'NONE');
#528 = ADVANCED_FACE ( 'NONE', ( #282 ), #36, .T. ) ;
#529 = SURFACE_STYLE_FILL_AREA ( #801 ) ;
#530 = DIRECTION ( 'NONE',  ( 1.000000000000000000, 0.000000000000000000, -1.625490513471520877E-16 ) ) ;
#531 = DIRECTION ( 'NONE',  ( 1.000000000000000000, 0.000000000000000000, -1.224646799147353207E-16 ) ) ;
#532 = ORIENTED_EDGE ( 'NONE', *, *, #601, .T. ) ;
#533 = CIRCLE ( 'NONE', #139, 0.01249999999999997814 ) ;
#534 = STYLED_ITEM ( 'NONE', ( #695 ), #333 ) ;
#535 = COLOUR_RGB ( '',0.5372549019607842924, 0.3490196078431372362, 0.3372549019607843368 ) ;
#536 = VECTOR ( 'NONE', #836, 1000.000000000000000 ) ;
#537 = CARTESIAN_POINT ( 'NONE',  ( 0.1749999999999999611, -0.1600000000000000033, -0.1750000000000000167 ) ) ;
#538 = FILL_AREA_STYLE ('',( #283 ) ) ;
#539 = ORIENTED_EDGE ( 'NONE', *, *, #1075, .T. ) ;
#540 = VERTEX_POINT ( 'NONE', #302 ) ;
#541 =( GEOMETRIC_REPRESENTATION_CONTEXT ( 3 ) GLOBAL_UNCERTAINTY_ASSIGNED_CONTEXT ( ( #1108 ) ) GLOBAL_UNIT_ASSIGNED_CONTEXT ( ( #317, #900, #51 ) ) REPRESENTATION_CONTEXT ( 'NONE', 'WORKASPACE' ) );
#542 = AXIS2_PLACEMENT_3D ( 'NONE', #787, #530, #869 ) ;
#543 = CIRCLE ( 'NONE', #735, 0.1124999999999999750 ) ;
#544 = PLANE ( 'NONE',  #640 ) ;
#545 = CARTESIAN_POINT ( 'NONE',  ( 0.1749999999999999889, 0.000000000000000000, 0.06250000000000002776 ) ) ;
#546 = EDGE_CURVE ( 'NONE', #730, #996, #496, .T. ) ;
#547 = VERTEX_POINT ( 'NONE', #486 ) ;
#548 = FILL_AREA_STYLE ('',( #970 ) ) ;
#549 = FILL_AREA_STYLE ('',( #462 ) ) ;
#550 = CARTESIAN_POINT ( 'NONE',  ( 0.1749999999999999611, 0.000000000000000000, -0.06250000000000002776 ) ) ;
#551 = DIRECTION ( 'NONE',  ( 1.000000000000000000, 0.000000000000000000, 0.000000000000000000 ) ) ;
#552 = EDGE_CURVE ( 'NONE', #579, #494, #832, .T. ) ;
#553 =( LENGTH_UNIT ( ) NAMED_UNIT ( * ) SI_UNIT ( .MILLI., .METRE. ) );
#554 = DIRECTION ( 'NONE',  ( 0.000000000000000000, 0.000000000000000000, 1.000000000000000000 ) ) ;
#555 = DIRECTION ( 'NONE',  ( -0.000000000000000000, 1.000000000000000000, -0.000000000000000000 ) ) ;
#556 = SURFACE_STYLE_FILL_AREA ( #887 ) ;
#557 = PRESENTATION_LAYER_ASSIGNMENT (  '', '', ( #682 ) ) ;
#558 = PRESENTATION_LAYER_ASSIGNMENT (  '', '', ( #314 ) ) ;
#559 = SURFACE_SIDE_STYLE ('',( #979 ) ) ;
#560 = CIRCLE ( 'NONE', #717, 0.01249999999999997814 ) ;
#561 = ORIENTED_EDGE ( 'NONE', *, *, #743, .F. ) ;
#562 = SURFACE_STYLE_USAGE ( .BOTH. , #479 ) ;
#563 = CARTESIAN_POINT ( 'NONE',  ( 0.1749999999999999611, -0.06000000000000001166, 0.1625000000000000333 ) ) ;
#564 =( NAMED_UNIT ( * ) PLANE_ANGLE_UNIT ( ) SI_UNIT ( $, .RADIAN. ) );
#565 =( NAMED_UNIT ( * ) PLANE_ANGLE_UNIT ( ) SI_UNIT ( $, .RADIAN. ) );
#566 = EDGE_CURVE ( 'NONE', #16, #117, #758, .T. ) ;
#567 = DIRECTION ( 'NONE',  ( 1.625490513471520877E-16, 0.000000000000000000, 1.000000000000000000 ) ) ;
#568 = VERTEX_POINT ( 'NONE', #55 ) ;
#569 = ORIENTED_EDGE ( 'NONE', *, *, #1085, .F. ) ;
#570 = DIRECTION ( 'NONE',  ( -0.000000000000000000, 1.000000000000000000, -0.000000000000000000 ) ) ;
#571 = PRESENTATION_LAYER_ASSIGNMENT (  '', '', ( #534 ) ) ;
#572 =( NAMED_UNIT ( * ) SI_UNIT ( $, .STERADIAN. ) SOLID_ANGLE_UNIT ( ) );
#573 = CARTESIAN_POINT ( 'NONE',  ( 0.3335000000000000187, 0.000000000000000000, -0.3334999999999999076 ) ) ;
#574 = EDGE_LOOP ( 'NONE', ( #761, #244, #812, #997 ) ) ;
#575 = DIRECTION ( 'NONE',  ( 0.000000000000000000, 0.000000000000000000, -1.000000000000000000 ) ) ;
#576 = DIRECTION ( 'NONE',  ( -0.000000000000000000, -1.000000000000000000, -0.000000000000000000 ) ) ;
#577 = MECHANICAL_DESIGN_GEOMETRIC_PRESENTATION_REPRESENTATION (  '', ( #275 ), #1076 ) ;
#578 = AXIS2_PLACEMENT_3D ( 'NONE', #973, #628, #281 ) ;
#579 = VERTEX_POINT ( 'NONE', #415 ) ;
#580 = VERTEX_POINT ( 'NONE', #136 ) ;
#581 = COLOUR_RGB ( '',0.7921568627450980005, 0.8196078431372548767, 0.9333333333333333481 ) ;
#582 = APPLICATION_PROTOCOL_DEFINITION ( 'draft international standard', 'automotive_design', 1998, #709 ) ;
#583 = FACE_OUTER_BOUND ( 'NONE', #667, .T. ) ;
#584 = DIRECTION ( 'NONE',  ( -0.000000000000000000, 1.000000000000000000, -0.000000000000000000 ) ) ;
#585 = ORIENTED_EDGE ( 'NONE', *, *, #1057, .F. ) ;
#586 = EDGE_CURVE ( 'NONE', #829, #880, #748, .T. ) ;
#587 =( NAMED_UNIT ( * ) SI_UNIT ( $, .STERADIAN. ) SOLID_ANGLE_UNIT ( ) );
#588 = SHAPE_DEFINITION_REPRESENTATION ( #468, #890 ) ;
#589 = CARTESIAN_POINT ( 'NONE',  ( -0.3334999999999999076, 0.2400000000000000466, 0.3335000000000000742 ) ) ;
#590 = EDGE_LOOP ( 'NONE', ( #272, #662, #128, #569 ) ) ;
#591 = MECHANICAL_DESIGN_GEOMETRIC_PRESENTATION_REPRESENTATION (  '', ( #747 ), #160 ) ;
#592 = SURFACE_STYLE_USAGE ( .BOTH. , #410 ) ;
#593 = EDGE_CURVE ( 'NONE', #312, #928, #491, .T. ) ;
#594 =( NAMED_UNIT ( * ) PLANE_ANGLE_UNIT ( ) SI_UNIT ( $, .RADIAN. ) );
#595 = ORIENTED_EDGE ( 'NONE', *, *, #122, .F. ) ;
#596 = CIRCLE ( 'NONE', #70, 0.01249999999999997814 ) ;
#597 = PLANE ( 'NONE',  #34 ) ;
#598 = STYLED_ITEM ( 'NONE', ( #41 ), #1069 ) ;
#599 = DIRECTION ( 'NONE',  ( 0.000000000000000000, 0.000000000000000000, 1.000000000000000000 ) ) ;
#600 = SURFACE_STYLE_FILL_AREA ( #1083 ) ;
#601 = EDGE_CURVE ( 'NONE', #547, #823, #665, .T. ) ;
#602 = CARTESIAN_POINT ( 'NONE',  ( 0.1749999999999999889, 0.000000000000000000, -0.2874999999999999778 ) ) ;
#603 = FILL_AREA_STYLE_COLOUR ( '', #223 ) ;
#604 = CARTESIAN_POINT ( 'NONE',  ( 0.1749999999999999611, -0.1600000000000000033, -0.1750000000000000167 ) ) ;
#605 = STYLED_ITEM ( 'NONE', ( #431 ), #661 ) ;
#606 = CARTESIAN_POINT ( 'NONE',  ( -0.1749999999999999611, -0.06000000000000001166, 0.1875000000000000000 ) ) ;
#607 = VECTOR ( 'NONE', #234, 1000.000000000000000 ) ;
#608 = MECHANICAL_DESIGN_GEOMETRIC_PRESENTATION_REPRESENTATION (  '', ( #322 ), #416 ) ;
#609 = UNCERTAINTY_MEASURE_WITH_UNIT (LENGTH_MEASURE( 1.000000000000000082E-05 ), #612, 'distance_accuracy_value', 'NONE');
#610 = CARTESIAN_POINT ( 'NONE',  ( -0.1749999999999999334, 0.000000000000000000, 0.06250000000000002776 ) ) ;
#611 = CARTESIAN_POINT ( 'NONE',  ( -0.1749999999999999611, -0.06000000000000001166, 0.1625000000000000333 ) ) ;
#612 =( LENGTH_UNIT ( ) NAMED_UNIT ( * ) SI_UNIT ( .MILLI., .METRE. ) );
#613 =( GEOMETRIC_REPRESENTATION_CONTEXT ( 3 ) GLOBAL_UNCERTAINTY_ASSIGNED_CONTEXT ( ( #504 ) ) GLOBAL_UNIT_ASSIGNED_CONTEXT ( ( #814, #565, #896 ) ) REPRESENTATION_CONTEXT ( 'NONE', 'WORKASPACE' ) );
#614 = ADVANCED_FACE ( 'NONE', ( #853 ), #66, .T. ) ;
#615 = AXIS2_PLACEMENT_3D ( 'NONE', #43, #49, #1022 ) ;
#616 = PRODUCT_DEFINITION_FORMATION_WITH_SPECIFIED_SOURCE ( 'ANY', '', #446, .NOT_KNOWN. ) ;
#617 = DIRECTION ( 'NONE',  ( 0.000000000000000000, 0.000000000000000000, -1.000000000000000000 ) ) ;
#618 = FACE_OUTER_BOUND ( 'NONE', #796, .T. ) ;
#619 = CARTESIAN_POINT ( 'NONE',  ( -0.1749999999999999611, -0.05999999999999978961, -0.1750000000000000167 ) ) ;
#620 = AXIS2_PLACEMENT_3D ( 'NONE', #815, #211, #22 ) ;
#621 = EDGE_LOOP ( 'NONE', ( #962, #307, #212, #129 ) ) ;
#622 = SURFACE_STYLE_FILL_AREA ( #442 ) ;
#623 =( GEOMETRIC_REPRESENTATION_CONTEXT ( 3 ) GLOBAL_UNCERTAINTY_ASSIGNED_CONTEXT ( ( #954 ) ) GLOBAL_UNIT_ASSIGNED_CONTEXT ( ( #11, #174, #434 ) ) REPRESENTATION_CONTEXT ( 'NONE', 'WORKASPACE' ) );
#624 = FACE_OUTER_BOUND ( 'NONE', #386, .T. ) ;
#625 = SURFACE_STYLE_USAGE ( .BOTH. , #4 ) ;
#626 = CARTESIAN_POINT ( 'NONE',  ( -0.1749999999999999611, -0.1600000000000000033, 0.1875000000000000000 ) ) ;
#627 = ORIENTED_EDGE ( 'NONE', *, *, #292, .T. ) ;
#628 = DIRECTION ( 'NONE',  ( 0.000000000000000000, -1.000000000000000000, 0.000000000000000000 ) ) ;
#629 = ORIENTED_EDGE ( 'NONE', *, *, #205, .T. ) ;
#630 = COLOUR_RGB ( '',0.5372549019607842924, 0.3490196078431372362, 0.3372549019607843368 ) ;
#631 = DIRECTION ( 'NONE',  ( 0.000000000000000000, -0.000000000000000000, 1.000000000000000000 ) ) ;
#632 = DIRECTION ( 'NONE',  ( 0.000000000000000000, 0.000000000000000000, -1.000000000000000000 ) ) ;
#633 = AXIS2_PLACEMENT_3D ( 'NONE', #264, #362, #713 ) ;
#634 = PRESENTATION_STYLE_ASSIGNMENT (( #371 ) ) ;
#635 = EDGE_CURVE ( 'NONE', #254, #1098, #1050, .T. ) ;
#636 = ORIENTED_EDGE ( 'NONE', *, *, #382, .F. ) ;
#637 = CARTESIAN_POINT ( 'NONE',  ( 0.000000000000000000, 0.000000000000000000, 0.000000000000000000 ) ) ;
#638 =( NAMED_UNIT ( * ) SI_UNIT ( $, .STERADIAN. ) SOLID_ANGLE_UNIT ( ) );
#639 = DIRECTION ( 'NONE',  ( 0.000000000000000000, 0.000000000000000000, 1.000000000000000000 ) ) ;
#640 = AXIS2_PLACEMENT_3D ( 'NONE', #207, #1002, #104 ) ;
#641 =( GEOMETRIC_REPRESENTATION_CONTEXT ( 3 ) GLOBAL_UNCERTAINTY_ASSIGNED_CONTEXT ( ( #73 ) ) GLOBAL_UNIT_ASSIGNED_CONTEXT ( ( #771, #506, #587 ) ) REPRESENTATION_CONTEXT ( 'NONE', 'WORKASPACE' ) );
#642 = SURFACE_STYLE_FILL_AREA ( #538 ) ;
#643 = AXIS2_PLACEMENT_3D ( 'NONE', #141, #737, #131 ) ;
#644 = DIRECTION ( 'NONE',  ( 1.000000000000000000, 0.000000000000000000, -1.224646799147353207E-16 ) ) ;
#645 = ORIENTED_EDGE ( 'NONE', *, *, #586, .T. ) ;
#646 = EDGE_CURVE ( 'NONE', #295, #823, #343, .T. ) ;
#647 = CARTESIAN_POINT ( 'NONE',  ( -0.1749999999999999611, -0.06000000000000001166, -0.1750000000000000167 ) ) ;
#648 = AXIS2_PLACEMENT_3D ( 'NONE', #802, #8, #345 ) ;
#649 = EDGE_LOOP ( 'NONE', ( #585, #177, #67, #769 ) ) ;
#650 = EDGE_LOOP ( 'NONE', ( #213, #193, #475, #194 ) ) ;
#651 = DIRECTION ( 'NONE',  ( 0.000000000000000000, 1.000000000000000000, 0.000000000000000000 ) ) ;
#652 =( NAMED_UNIT ( * ) SI_UNIT ( $, .STERADIAN. ) SOLID_ANGLE_UNIT ( ) );
#653 = DIRECTION ( 'NONE',  ( 0.000000000000000000, 0.000000000000000000, -1.000000000000000000 ) ) ;
#654 = ORIENTED_EDGE ( 'NONE', *, *, #190, .F. ) ;
#655 = LINE ( 'NONE', #721, #118 ) ;
#656 = DIRECTION ( 'NONE',  ( 0.000000000000000000, 0.000000000000000000, -1.000000000000000000 ) ) ;
#657 = ORIENTED_EDGE ( 'NONE', *, *, #437, .F. ) ;
#658 = CARTESIAN_POINT ( 'NONE',  ( -0.3334999999999999076, 0.000000000000000000, 0.3335000000000000742 ) ) ;
#659 = DIRECTION ( 'NONE',  ( 0.000000000000000000, -1.000000000000000000, 0.000000000000000000 ) ) ;
#660 = VECTOR ( 'NONE', #555, 1000.000000000000000 ) ;
#661 = ADVANCED_FACE ( 'NONE', ( #663 ), #1011, .T. ) ;
#662 = ORIENTED_EDGE ( 'NONE', *, *, #546, .F. ) ;
#663 = FACE_OUTER_BOUND ( 'NONE', #741, .T. ) ;
#664 = CARTESIAN_POINT ( 'NONE',  ( -0.1749999999999999611, -0.1600000000000000033, -0.1625000000000000333 ) ) ;
#665 = LINE ( 'NONE', #1089, #233 ) ;
#666 = DIRECTION ( 'NONE',  ( 0.000000000000000000, 0.000000000000000000, -1.000000000000000000 ) ) ;
#667 = EDGE_LOOP ( 'NONE', ( #701, #629, #413, #266 ) ) ;
#668 = CARTESIAN_POINT ( 'NONE',  ( 0.1749999999999999611, -0.05999999999999978961, -0.06250000000000002776 ) ) ;
#669 = FACE_BOUND ( 'NONE', #368, .T. ) ;
#670 = CARTESIAN_POINT ( 'NONE',  ( 0.000000000000000000, 0.000000000000000000, 0.000000000000000000 ) ) ;
#671 = DIRECTION ( 'NONE',  ( 0.000000000000000000, 0.000000000000000000, -1.000000000000000000 ) ) ;
#672 = FILL_AREA_STYLE_COLOUR ( '', #95 ) ;
#673 = ORIENTED_EDGE ( 'NONE', *, *, #25, .T. ) ;
#674 = DIRECTION ( 'NONE',  ( 0.000000000000000000, 0.000000000000000000, -1.000000000000000000 ) ) ;
#675 = MECHANICAL_DESIGN_GEOMETRIC_PRESENTATION_REPRESENTATION (  '', ( #1070 ), #873 ) ;
#676 = ADVANCED_FACE ( 'NONE', ( #206 ), #720, .T. ) ;
#677 = DIRECTION ( 'NONE',  ( 0.000000000000000000, 0.000000000000000000, 1.000000000000000000 ) ) ;
#678 = SURFACE_SIDE_STYLE ('',( #1014 ) ) ;
#679 = FACE_OUTER_BOUND ( 'NONE', #915, .T. ) ;
#680 = COLOUR_RGB ( '',0.2509803921568627416, 0.2509803921568627416, 0.2509803921568627416 ) ;
#681 = CARTESIAN_POINT ( 'NONE',  ( -0.1749999999999999611, 0.000000000000000000, -0.1750000000000000167 ) ) ;
#682 = STYLED_ITEM ( 'NONE', ( #176 ), #722 ) ;
#683 = PRESENTATION_LAYER_ASSIGNMENT (  '', '', ( #106 ) ) ;
#684 = UNCERTAINTY_MEASURE_WITH_UNIT (LENGTH_MEASURE( 1.000000000000000082E-05 ), #696, 'distance_accuracy_value', 'NONE');
#685 = CIRCLE ( 'NONE', #261, 0.1125000000000000028 ) ;
#686 = CARTESIAN_POINT ( 'NONE',  ( -0.1749999999999999334, -0.05999999999999978961, 0.06250000000000002776 ) ) ;
#687 = DIRECTION ( 'NONE',  ( 0.000000000000000000, 0.000000000000000000, 1.000000000000000000 ) ) ;
#688 = FILL_AREA_STYLE_COLOUR ( '', #933 ) ;
#689 = DIRECTION ( 'NONE',  ( 0.000000000000000000, 0.000000000000000000, 1.000000000000000000 ) ) ;
#690 = CARTESIAN_POINT ( 'NONE',  ( 0.1749999999999999889, -0.05999999999999978961, -0.2874999999999999778 ) ) ;
#691 = ADVANCED_FACE ( 'NONE', ( #618 ), #365, .T. ) ;
#692 = UNCERTAINTY_MEASURE_WITH_UNIT (LENGTH_MEASURE( 1.000000000000000082E-05 ), #514, 'distance_accuracy_value', 'NONE');
#693 = CYLINDRICAL_SURFACE ( 'NONE', #905, 0.1125000000000000028 ) ;
#694 = CARTESIAN_POINT ( 'NONE',  ( 0.3335000000000002407, 0.000000000000000000, 0.3335000000000000742 ) ) ;
#695 = PRESENTATION_STYLE_ASSIGNMENT (( #344 ) ) ;
#696 =( LENGTH_UNIT ( ) NAMED_UNIT ( * ) SI_UNIT ( .MILLI., .METRE. ) );
#697 = COLOUR_RGB ( '',0.5372549019607842924, 0.3490196078431372362, 0.3372549019607843368 ) ;
#698 = CARTESIAN_POINT ( 'NONE',  ( -0.1749999999999999611, -0.05999999999999978961, -0.1750000000000000167 ) ) ;
#699 =( NAMED_UNIT ( * ) PLANE_ANGLE_UNIT ( ) SI_UNIT ( $, .RADIAN. ) );
#700 =( NAMED_UNIT ( * ) SI_UNIT ( $, .STERADIAN. ) SOLID_ANGLE_UNIT ( ) );
#701 = ORIENTED_EDGE ( 'NONE', *, *, #184, .F. ) ;
#702 = ADVANCED_FACE ( 'NONE', ( #69 ), #1019, .T. ) ;
#703 =( LENGTH_UNIT ( ) NAMED_UNIT ( * ) SI_UNIT ( .MILLI., .METRE. ) );
#704 = CARTESIAN_POINT ( 'NONE',  ( 0.1749999999999999611, -0.06000000000000001166, -0.1625000000000000333 ) ) ;
#705 = ORIENTED_EDGE ( 'NONE', *, *, #47, .T. ) ;
#706 =( LENGTH_UNIT ( ) NAMED_UNIT ( * ) SI_UNIT ( .MILLI., .METRE. ) );
#707 = CARTESIAN_POINT ( 'NONE',  ( 0.1749999999999999611, -0.1600000000000000033, 0.2874999999999999778 ) ) ;
#708 = AXIS2_PLACEMENT_3D ( 'NONE', #99, #989, #897 ) ;
#709 = APPLICATION_CONTEXT ( 'automotive_design' ) ;
#710 = ADVANCED_FACE ( 'NONE', ( #323 ), #597, .F. ) ;
#711 = CARTESIAN_POINT ( 'NONE',  ( 0.1749999999999999611, -0.06000000000000001166, 0.1750000000000000167 ) ) ;
#712 = DIRECTION ( 'NONE',  ( 0.000000000000000000, 0.000000000000000000, -1.000000000000000000 ) ) ;
#713 = DIRECTION ( 'NONE',  ( 0.000000000000000000, 0.000000000000000000, -1.000000000000000000 ) ) ;
#714 = VERTEX_POINT ( 'NONE', #668 ) ;
#715 = COLOUR_RGB ( '',0.2509803921568627416, 0.2509803921568627416, 0.2509803921568627416 ) ;
#716 = SURFACE_STYLE_USAGE ( .BOTH. , #1071 ) ;
#717 = AXIS2_PLACEMENT_3D ( 'NONE', #351, #447, #189 ) ;
#718 =( NAMED_UNIT ( * ) PLANE_ANGLE_UNIT ( ) SI_UNIT ( $, .RADIAN. ) );
#719 = CYLINDRICAL_SURFACE ( 'NONE', #84, 0.1124999999999999750 ) ;
#720 = CYLINDRICAL_SURFACE ( 'NONE', #502, 0.1125000000000000028 ) ;
#721 = CARTESIAN_POINT ( 'NONE',  ( -0.3335000000000000187, 0.2400000000000000466, -0.3334999999999999076 ) ) ;
#722 = ADVANCED_FACE ( 'NONE', ( #1033 ), #983, .T. ) ;
#723 = CIRCLE ( 'NONE', #236, 0.1124999999999999750 ) ;
#724 = AXIS2_PLACEMENT_3D ( 'NONE', #704, #531, #354 ) ;
#725 = FILL_AREA_STYLE ('',( #113 ) ) ;
#726 = PRESENTATION_LAYER_ASSIGNMENT (  '', '', ( #289 ) ) ;
#727 = PRESENTATION_LAYER_ASSIGNMENT (  '', '', ( #1070 ) ) ;
#728 = SURFACE_SIDE_STYLE ('',( #378 ) ) ;
#729 = EDGE_LOOP ( 'NONE', ( #280, #473, #777, #215 ) ) ;
#730 = VERTEX_POINT ( 'NONE', #510 ) ;
#731 =( NAMED_UNIT ( * ) SI_UNIT ( $, .STERADIAN. ) SOLID_ANGLE_UNIT ( ) );
#732 = PRESENTATION_LAYER_ASSIGNMENT (  '', '', ( #83 ) ) ;
#733 = FILL_AREA_STYLE ('',( #373 ) ) ;
#734 = LINE ( 'NONE', #218, #660 ) ;
#735 = AXIS2_PLACEMENT_3D ( 'NONE', #619, #356, #885 ) ;
#736 = ORIENTED_EDGE ( 'NONE', *, *, #205, .F. ) ;
#737 = DIRECTION ( 'NONE',  ( 0.000000000000000000, 1.000000000000000000, 0.000000000000000000 ) ) ;
#738 = EDGE_CURVE ( 'NONE', #996, #730, #1059, .T. ) ;
#739 = FILL_AREA_STYLE ('',( #672 ) ) ;
#740 = CARTESIAN_POINT ( 'NONE',  ( 0.1749999999999999611, -0.1600000000000000033, 0.1750000000000000167 ) ) ;
#741 = EDGE_LOOP ( 'NONE', ( #673, #908 ) ) ;
#742 = VECTOR ( 'NONE', #918, 1000.000000000000000 ) ;
#743 = EDGE_CURVE ( 'NONE', #799, #849, #168, .T. ) ;
#744 = AXIS2_PLACEMENT_3D ( 'NONE', #971, #1117, #964 ) ;
#745 = DIRECTION ( 'NONE',  ( -0.000000000000000000, 1.000000000000000000, -0.000000000000000000 ) ) ;
#746 = PLANE ( 'NONE',  #542 ) ;
#747 = STYLED_ITEM ( 'NONE', ( #298 ), #402 ) ;
#748 = LINE ( 'NONE', #411, #926 ) ;
#749 = FACE_OUTER_BOUND ( 'NONE', #392, .T. ) ;
#750 = VERTEX_POINT ( 'NONE', #550 ) ;
#751 = DIRECTION ( 'NONE',  ( 0.000000000000000000, -1.000000000000000000, 0.000000000000000000 ) ) ;
#752 =( LENGTH_UNIT ( ) NAMED_UNIT ( * ) SI_UNIT ( .MILLI., .METRE. ) );
#753 =( NAMED_UNIT ( * ) PLANE_ANGLE_UNIT ( ) SI_UNIT ( $, .RADIAN. ) );
#754 = SURFACE_STYLE_FILL_AREA ( #834 ) ;
#755 =( GEOMETRIC_REPRESENTATION_CONTEXT ( 3 ) GLOBAL_UNCERTAINTY_ASSIGNED_CONTEXT ( ( #778 ) ) GLOBAL_UNIT_ASSIGNED_CONTEXT ( ( #955, #782, #273 ) ) REPRESENTATION_CONTEXT ( 'NONE', 'WORKASPACE' ) );
#756 = CYLINDRICAL_SURFACE ( 'NONE', #1066, 0.1124999999999999750 ) ;
#757 = ORIENTED_EDGE ( 'NONE', *, *, #593, .F. ) ;
#758 = LINE ( 'NONE', #1094, #1 ) ;
#759 = DIRECTION ( 'NONE',  ( -0.000000000000000000, 1.000000000000000000, -0.000000000000000000 ) ) ;
#760 =( NAMED_UNIT ( * ) PLANE_ANGLE_UNIT ( ) SI_UNIT ( $, .RADIAN. ) );
#761 = ORIENTED_EDGE ( 'NONE', *, *, #798, .F. ) ;
#762 = EDGE_CURVE ( 'NONE', #254, #111, #734, .T. ) ;
#763 = UNCERTAINTY_MEASURE_WITH_UNIT (LENGTH_MEASURE( 1.000000000000000082E-05 ), #1106, 'distance_accuracy_value', 'NONE');
#764 = FACE_BOUND ( 'NONE', #919, .T. ) ;
#765 = CARTESIAN_POINT ( 'NONE',  ( -0.1749999999999999611, -0.1600000000000000033, -0.1875000000000000000 ) ) ;
#766 = CARTESIAN_POINT ( 'NONE',  ( -0.1749999999999999334, 0.000000000000000000, -0.2874999999999999778 ) ) ;
#767 =( GEOMETRIC_REPRESENTATION_CONTEXT ( 3 ) GLOBAL_UNCERTAINTY_ASSIGNED_CONTEXT ( ( #527 ) ) GLOBAL_UNIT_ASSIGNED_CONTEXT ( ( #12, #699, #870 ) ) REPRESENTATION_CONTEXT ( 'NONE', 'WORKASPACE' ) );
#768 = FILL_AREA_STYLE_COLOUR ( '', #121 ) ;
#769 = ORIENTED_EDGE ( 'NONE', *, *, #389, .F. ) ;
#770 = SURFACE_STYLE_FILL_AREA ( #107 ) ;
#771 =( LENGTH_UNIT ( ) NAMED_UNIT ( * ) SI_UNIT ( .MILLI., .METRE. ) );
#772 = CARTESIAN_POINT ( 'NONE',  ( 0.3335000000000000187, 0.2400000000000000466, -0.3334999999999999076 ) ) ;
#773 = CARTESIAN_POINT ( 'NONE',  ( 0.1749999999999999611, -0.06000000000000001166, -0.1875000000000000000 ) ) ;
#774 = MECHANICAL_DESIGN_GEOMETRIC_PRESENTATION_REPRESENTATION (  '', ( #385 ), #541 ) ;
#775 = LINE ( 'NONE', #1086, #742 ) ;
#776 = AXIS2_PLACEMENT_3D ( 'NONE', #647, #895, #114 ) ;
#777 = ORIENTED_EDGE ( 'NONE', *, *, #173, .F. ) ;
#778 = UNCERTAINTY_MEASURE_WITH_UNIT (LENGTH_MEASURE( 1.000000000000000082E-05 ), #955, 'distance_accuracy_value', 'NONE');
#779 =( NAMED_UNIT ( * ) SI_UNIT ( $, .STERADIAN. ) SOLID_ANGLE_UNIT ( ) );
#780 =( NAMED_UNIT ( * ) PLANE_ANGLE_UNIT ( ) SI_UNIT ( $, .RADIAN. ) );
#781 = ORIENTED_EDGE ( 'NONE', *, *, #85, .F. ) ;
#782 =( NAMED_UNIT ( * ) PLANE_ANGLE_UNIT ( ) SI_UNIT ( $, .RADIAN. ) );
#783 = ADVANCED_FACE ( 'NONE', ( #821 ), #472, .T. ) ;
#784 = VECTOR ( 'NONE', #39, 1000.000000000000000 ) ;
#785 = FACE_OUTER_BOUND ( 'NONE', #245, .T. ) ;
#786 = UNCERTAINTY_MEASURE_WITH_UNIT (LENGTH_MEASURE( 1.000000000000000082E-05 ), #310, 'distance_accuracy_value', 'NONE');
#787 = CARTESIAN_POINT ( 'NONE',  ( -0.3335000000000000187, 0.2400000000000000466, -0.3334999999999999076 ) ) ;
#788 = SURFACE_SIDE_STYLE ('',( #276 ) ) ;
#789 = SURFACE_STYLE_FILL_AREA ( #961 ) ;
#790 = EDGE_CURVE ( 'NONE', #312, #467, #60, .T. ) ;
#791 = SURFACE_STYLE_FILL_AREA ( #797 ) ;
#792 =( GEOMETRIC_REPRESENTATION_CONTEXT ( 3 ) GLOBAL_UNCERTAINTY_ASSIGNED_CONTEXT ( ( #154 ) ) GLOBAL_UNIT_ASSIGNED_CONTEXT ( ( #457, #1053, #301 ) ) REPRESENTATION_CONTEXT ( 'NONE', 'WORKASPACE' ) );
#793 = DIRECTION ( 'NONE',  ( 0.000000000000000000, 0.000000000000000000, -1.000000000000000000 ) ) ;
#794 =( LENGTH_UNIT ( ) NAMED_UNIT ( * ) SI_UNIT ( .MILLI., .METRE. ) );
#795 = DIRECTION ( 'NONE',  ( 0.000000000000000000, 0.000000000000000000, 1.000000000000000000 ) ) ;
#796 = EDGE_LOOP ( 'NONE', ( #265, #1052, #1067, #907 ) ) ;
#797 = FILL_AREA_STYLE ('',( #603 ) ) ;
#798 = EDGE_CURVE ( 'NONE', #501, #849, #507, .T. ) ;
#799 = VERTEX_POINT ( 'NONE', #327 ) ;
#800 = SURFACE_STYLE_USAGE ( .BOTH. , #859 ) ;
#801 = FILL_AREA_STYLE ('',( #1116 ) ) ;
#802 = CARTESIAN_POINT ( 'NONE',  ( 0.1749999999999999611, 0.000000000000000000, 0.1750000000000000167 ) ) ;
#803 = ORIENTED_EDGE ( 'NONE', *, *, #593, .T. ) ;
#804 = AXIS2_PLACEMENT_3D ( 'NONE', #119, #644, #925 ) ;
#805 = DIRECTION ( 'NONE',  ( -0.000000000000000000, 1.000000000000000000, -0.000000000000000000 ) ) ;
#806 = CARTESIAN_POINT ( 'NONE',  ( 0.1749999999999999611, -0.06000000000000001166, -0.1750000000000000167 ) ) ;
#807 = ORIENTED_EDGE ( 'NONE', *, *, #122, .T. ) ;
#808 = DIRECTION ( 'NONE',  ( 0.000000000000000000, 0.000000000000000000, -1.000000000000000000 ) ) ;
#809 =( GEOMETRIC_REPRESENTATION_CONTEXT ( 3 ) GLOBAL_UNCERTAINTY_ASSIGNED_CONTEXT ( ( #179 ) ) GLOBAL_UNIT_ASSIGNED_CONTEXT ( ( #703, #1056, #3 ) ) REPRESENTATION_CONTEXT ( 'NONE', 'WORKASPACE' ) );
#810 =( NAMED_UNIT ( * ) PLANE_ANGLE_UNIT ( ) SI_UNIT ( $, .RADIAN. ) );
#811 = EDGE_CURVE ( 'NONE', #229, #1098, #329, .T. ) ;
#812 = ORIENTED_EDGE ( 'NONE', *, *, #893, .T. ) ;
#813 =( NAMED_UNIT ( * ) PLANE_ANGLE_UNIT ( ) SI_UNIT ( $, .RADIAN. ) );
#814 =( LENGTH_UNIT ( ) NAMED_UNIT ( * ) SI_UNIT ( .MILLI., .METRE. ) );
#815 = CARTESIAN_POINT ( 'NONE',  ( 0.1749999999999999611, -0.06000000000000001166, 0.1750000000000000167 ) ) ;
#816 = DIRECTION ( 'NONE',  ( -0.000000000000000000, 1.000000000000000000, -0.000000000000000000 ) ) ;
#817 = VERTEX_POINT ( 'NONE', #840 ) ;
#818 = ORIENTED_EDGE ( 'NONE', *, *, #646, .T. ) ;
#819 = TOROIDAL_SURFACE ( 'NONE', #620, 0.01249999999999999202, 0.1000000000000000056 ) ;
#820 =( NAMED_UNIT ( * ) SI_UNIT ( $, .STERADIAN. ) SOLID_ANGLE_UNIT ( ) );
#821 = FACE_OUTER_BOUND ( 'NONE', #1078, .T. ) ;
#822 = DIRECTION ( 'NONE',  ( -0.000000000000000000, 1.000000000000000000, -0.000000000000000000 ) ) ;
#823 = VERTEX_POINT ( 'NONE', #932 ) ;
#824 = AXIS2_PLACEMENT_3D ( 'NONE', #698, #1047, #617 ) ;
#825 =( NAMED_UNIT ( * ) SI_UNIT ( $, .STERADIAN. ) SOLID_ANGLE_UNIT ( ) );
#826 = ORIENTED_EDGE ( 'NONE', *, *, #10, .F. ) ;
#827 = DIRECTION ( 'NONE',  ( 0.000000000000000000, 0.000000000000000000, -1.000000000000000000 ) ) ;
#828 = VERTEX_POINT ( 'NONE', #414 ) ;
#829 = VERTEX_POINT ( 'NONE', #686 ) ;
#830 = CARTESIAN_POINT ( 'NONE',  ( -0.1749999999999999611, -0.1600000000000000033, -0.1750000000000000167 ) ) ;
#831 = STYLED_ITEM ( 'NONE', ( #1039 ), #614 ) ;
#832 = LINE ( 'NONE', #53, #380 ) ;
#833 = MECHANICAL_DESIGN_GEOMETRIC_PRESENTATION_REPRESENTATION (  '', ( #289 ), #641 ) ;
#834 = FILL_AREA_STYLE ('',( #135 ) ) ;
#835 = STYLED_ITEM ( 'NONE', ( #210 ), #516 ) ;
#836 = DIRECTION ( 'NONE',  ( -0.000000000000000000, -1.000000000000000000, -0.000000000000000000 ) ) ;
#837 = ORIENTED_EDGE ( 'NONE', *, *, #1085, .T. ) ;
#838 = SURFACE_STYLE_FILL_AREA ( #167 ) ;
#839 =( NAMED_UNIT ( * ) PLANE_ANGLE_UNIT ( ) SI_UNIT ( $, .RADIAN. ) );
#840 = CARTESIAN_POINT ( 'NONE',  ( -0.1749999999999999611, -0.05999999999999978961, -0.06250000000000002776 ) ) ;
#841 = MECHANICAL_DESIGN_GEOMETRIC_PRESENTATION_REPRESENTATION (  '', ( #682 ), #965 ) ;
#842 =( NAMED_UNIT ( * ) SI_UNIT ( $, .STERADIAN. ) SOLID_ANGLE_UNIT ( ) );
#843 = COLOUR_RGB ( '',0.5372549019607842924, 0.3490196078431372362, 0.3372549019607843368 ) ;
#844 = DIRECTION ( 'NONE',  ( 1.000000000000000000, 0.000000000000000000, 0.000000000000000000 ) ) ;
#845 = PRESENTATION_STYLE_ASSIGNMENT (( #227 ) ) ;
#846 = DIRECTION ( 'NONE',  ( -0.000000000000000000, 1.000000000000000000, -0.000000000000000000 ) ) ;
#847 = EDGE_LOOP ( 'NONE', ( #1017, #1115 ) ) ;
#848 = FILL_AREA_STYLE ('',( #768 ) ) ;
#849 = VERTEX_POINT ( 'NONE', #766 ) ;
#850 = SURFACE_SIDE_STYLE ('',( #511 ) ) ;
#851 = PRODUCT_DEFINITION_CONTEXT ( 'detailed design', #163, 'design' ) ;
#852 = CARTESIAN_POINT ( 'NONE',  ( 0.1749999999999999889, -0.1600000000000000033, 0.06250000000000002776 ) ) ;
#853 = FACE_OUTER_BOUND ( 'NONE', #574, .T. ) ;
#854 = AXIS2_PLACEMENT_3D ( 'NONE', #606, #145, #137 ) ;
#855 = SURFACE_SIDE_STYLE ('',( #335 ) ) ;
#856 = AXIS2_PLACEMENT_3D ( 'NONE', #1088, #576, #913 ) ;
#857 = FILL_AREA_STYLE_COLOUR ( '', #680 ) ;
#858 = EDGE_CURVE ( 'NONE', #1098, #229, #934, .T. ) ;
#859 = SURFACE_SIDE_STYLE ('',( #622 ) ) ;
#860 = SURFACE_STYLE_FILL_AREA ( #162 ) ;
#861 =( GEOMETRIC_REPRESENTATION_CONTEXT ( 3 ) GLOBAL_UNCERTAINTY_ASSIGNED_CONTEXT ( ( #324 ) ) GLOBAL_UNIT_ASSIGNED_CONTEXT ( ( #975, #359, #451 ) ) REPRESENTATION_CONTEXT ( 'NONE', 'WORKASPACE' ) );
#862 = SURFACE_SIDE_STYLE ('',( #789 ) ) ;
#863 = PRESENTATION_LAYER_ASSIGNMENT (  '', '', ( #170 ) ) ;
#864 = CIRCLE ( 'NONE', #648, 0.1124999999999999750 ) ;
#865 = UNCERTAINTY_MEASURE_WITH_UNIT (LENGTH_MEASURE( 1.000000000000000082E-05 ), #367, 'distance_accuracy_value', 'NONE');
#866 = ADVANCED_FACE ( 'NONE', ( #679 ), #746, .F. ) ;
#867 = DIRECTION ( 'NONE',  ( -0.000000000000000000, 1.000000000000000000, -0.000000000000000000 ) ) ;
#868 = SURFACE_STYLE_USAGE ( .BOTH. , #862 ) ;
#869 = DIRECTION ( 'NONE',  ( -1.625490513471520877E-16, 0.000000000000000000, -1.000000000000000000 ) ) ;
#870 =( NAMED_UNIT ( * ) SI_UNIT ( $, .STERADIAN. ) SOLID_ANGLE_UNIT ( ) );
#871 = CIRCLE ( 'NONE', #854, 0.1000000000000000056 ) ;
#872 = ORIENTED_EDGE ( 'NONE', *, *, #552, .T. ) ;
#873 =( GEOMETRIC_REPRESENTATION_CONTEXT ( 3 ) GLOBAL_UNCERTAINTY_ASSIGNED_CONTEXT ( ( #786 ) ) GLOBAL_UNIT_ASSIGNED_CONTEXT ( ( #310, #1027, #390 ) ) REPRESENTATION_CONTEXT ( 'NONE', 'WORKASPACE' ) );
#874 = DIRECTION ( 'NONE',  ( -0.000000000000000000, 1.000000000000000000, -0.000000000000000000 ) ) ;
#875 = SURFACE_SIDE_STYLE ('',( #180 ) ) ;
#876 = DIRECTION ( 'NONE',  ( -0.000000000000000000, 1.000000000000000000, -0.000000000000000000 ) ) ;
#877 = EDGE_CURVE ( 'NONE', #464, #485, #596, .T. ) ;
#878 = STYLED_ITEM ( 'NONE', ( #187 ), #691 ) ;
#879 =( GEOMETRIC_REPRESENTATION_CONTEXT ( 3 ) GLOBAL_UNCERTAINTY_ASSIGNED_CONTEXT ( ( #238 ) ) GLOBAL_UNIT_ASSIGNED_CONTEXT ( ( #108, #564, #652 ) ) REPRESENTATION_CONTEXT ( 'NONE', 'WORKASPACE' ) );
#880 = VERTEX_POINT ( 'NONE', #610 ) ;
#881 = FACE_OUTER_BOUND ( 'NONE', #729, .T. ) ;
#882 = SURFACE_STYLE_FILL_AREA ( #526 ) ;
#883 = ORIENTED_EDGE ( 'NONE', *, *, #184, .T. ) ;
#884 = EDGE_LOOP ( 'NONE', ( #478, #152, #102, #40 ) ) ;
#885 = DIRECTION ( 'NONE',  ( 0.000000000000000000, 0.000000000000000000, -1.000000000000000000 ) ) ;
#886 = PRESENTATION_LAYER_ASSIGNMENT (  '', '', ( #255 ) ) ;
#887 = FILL_AREA_STYLE ('',( #358 ) ) ;
#888 = CIRCLE ( 'NONE', #200, 0.1125000000000000028 ) ;
#889 = EDGE_CURVE ( 'NONE', #880, #117, #523, .T. ) ;
#890 = ADVANCED_BREP_SHAPE_REPRESENTATION ( 'TPS7A0218PYCHR', ( #1034, #463 ), #1061 ) ;
#891 = DIRECTION ( 'NONE',  ( 0.000000000000000000, -1.000000000000000000, 0.000000000000000000 ) ) ;
#892 = FILL_AREA_STYLE_COLOUR ( '', #969 ) ;
#893 = EDGE_CURVE ( 'NONE', #817, #799, #348, .T. ) ;
#894 = ORIENTED_EDGE ( 'NONE', *, *, #790, .F. ) ;
#895 = DIRECTION ( 'NONE',  ( 0.000000000000000000, -1.000000000000000000, 0.000000000000000000 ) ) ;
#896 =( NAMED_UNIT ( * ) SI_UNIT ( $, .STERADIAN. ) SOLID_ANGLE_UNIT ( ) );
#897 = DIRECTION ( 'NONE',  ( 0.000000000000000000, 0.000000000000000000, 1.000000000000000000 ) ) ;
#898 = DIRECTION ( 'NONE',  ( 0.000000000000000000, 0.000000000000000000, -1.000000000000000000 ) ) ;
#899 = ORIENTED_EDGE ( 'NONE', *, *, #858, .F. ) ;
#900 =( NAMED_UNIT ( * ) PLANE_ANGLE_UNIT ( ) SI_UNIT ( $, .RADIAN. ) );
#901 = CIRCLE ( 'NONE', #44, 0.1125000000000000028 ) ;
#902 = SURFACE_SIDE_STYLE ('',( #556 ) ) ;
#903 = MECHANICAL_DESIGN_GEOMETRIC_PRESENTATION_REPRESENTATION (  '', ( #159 ), #767 ) ;
#904 = SURFACE_STYLE_FILL_AREA ( #725 ) ;
#905 = AXIS2_PLACEMENT_3D ( 'NONE', #537, #874, #79 ) ;
#906 = CARTESIAN_POINT ( 'NONE',  ( -0.1749999999999999611, 0.000000000000000000, -0.1750000000000000167 ) ) ;
#907 = ORIENTED_EDGE ( 'NONE', *, *, #972, .F. ) ;
#908 = ORIENTED_EDGE ( 'NONE', *, *, #58, .T. ) ;
#909 = PRESENTATION_LAYER_ASSIGNMENT (  '', '', ( #246 ) ) ;
#910 = DIRECTION ( 'NONE',  ( 0.000000000000000000, 0.000000000000000000, -1.000000000000000000 ) ) ;
#911 = CIRCLE ( 'NONE', #426, 0.09999999999999999167 ) ;
#912 = AXIS2_PLACEMENT_3D ( 'NONE', #147, #1013, #225 ) ;
#913 = DIRECTION ( 'NONE',  ( 0.000000000000000000, 0.000000000000000000, 1.000000000000000000 ) ) ;
#914 = ORIENTED_EDGE ( 'NONE', *, *, #552, .F. ) ;
#915 = EDGE_LOOP ( 'NONE', ( #300, #914, #636, #818 ) ) ;
#916 = FILL_AREA_STYLE_COLOUR ( '', #239 ) ;
#917 =( NAMED_UNIT ( * ) PLANE_ANGLE_UNIT ( ) SI_UNIT ( $, .RADIAN. ) );
#918 = DIRECTION ( 'NONE',  ( -0.000000000000000000, -1.000000000000000000, -0.000000000000000000 ) ) ;
#919 = EDGE_LOOP ( 'NONE', ( #57, #235 ) ) ;
#920 = FILL_AREA_STYLE_COLOUR ( '', #432 ) ;
#921 = AXIS2_PLACEMENT_3D ( 'NONE', #773, #334, #313 ) ;
#922 = MECHANICAL_DESIGN_GEOMETRIC_PRESENTATION_REPRESENTATION (  '', ( #23 ), #960 ) ;
#923 = CIRCLE ( 'NONE', #517, 0.1124999999999999750 ) ;
#924 =( NAMED_UNIT ( * ) SI_UNIT ( $, .STERADIAN. ) SOLID_ANGLE_UNIT ( ) );
#925 = DIRECTION ( 'NONE',  ( 0.000000000000000000, 0.000000000000000000, -1.000000000000000000 ) ) ;
#926 = VECTOR ( 'NONE', #1084, 1000.000000000000000 ) ;
#927 = FILL_AREA_STYLE_COLOUR ( '', #286 ) ;
#928 = VERTEX_POINT ( 'NONE', #694 ) ;
#929 = UNCERTAINTY_MEASURE_WITH_UNIT (LENGTH_MEASURE( 1.000000000000000082E-05 ), #988, 'distance_accuracy_value', 'NONE');
#930 = PRESENTATION_STYLE_ASSIGNMENT (( #592 ) ) ;
#931 = FACE_OUTER_BOUND ( 'NONE', #990, .T. ) ;
#932 = CARTESIAN_POINT ( 'NONE',  ( -0.3335000000000000187, 0.000000000000000000, -0.3334999999999999076 ) ) ;
#933 = COLOUR_RGB ( '',0.5372549019607842924, 0.3490196078431372362, 0.3372549019607843368 ) ;
#934 = CIRCLE ( 'NONE', #615, 0.01249999999999997814 ) ;
#935 = EDGE_LOOP ( 'NONE', ( #186, #24 ) ) ;
#936 = PRESENTATION_LAYER_ASSIGNMENT (  '', '', ( #1007 ) ) ;
#937 = SURFACE_STYLE_FILL_AREA ( #395 ) ;
#938 = DIRECTION ( 'NONE',  ( 0.000000000000000000, -0.000000000000000000, -1.000000000000000000 ) ) ;
#939 = DIRECTION ( 'NONE',  ( -1.000000000000000000, -0.000000000000000000, -0.000000000000000000 ) ) ;
#940 = PRESENTATION_STYLE_ASSIGNMENT (( #412 ) ) ;
#941 = UNCERTAINTY_MEASURE_WITH_UNIT (LENGTH_MEASURE( 1.000000000000000082E-05 ), #794, 'distance_accuracy_value', 'NONE');
#942 = AXIS2_PLACEMENT_3D ( 'NONE', #830, #1038, #689 ) ;
#943 = CARTESIAN_POINT ( 'NONE',  ( -0.3335000000000000187, 0.2400000000000000466, -0.3334999999999999076 ) ) ;
#944 = PLANE ( 'NONE',  #744 ) ;
#945 = AXIS2_PLACEMENT_3D ( 'NONE', #806, #891, #288 ) ;
#946 = EDGE_CURVE ( 'NONE', #501, #817, #476, .T. ) ;
#947 = CARTESIAN_POINT ( 'NONE',  ( -0.1749999999999999334, -0.05999999999999978961, -0.2874999999999999778 ) ) ;
#948 = CARTESIAN_POINT ( 'NONE',  ( -0.1749999999999999611, 0.000000000000000000, 0.1750000000000000167 ) ) ;
#949 = SURFACE_STYLE_USAGE ( .BOTH. , #257 ) ;
#950 = PRESENTATION_LAYER_ASSIGNMENT (  '', '', ( #878 ) ) ;
#951 = FACE_OUTER_BOUND ( 'NONE', #306, .T. ) ;
#952 = VECTOR ( 'NONE', #232, 1000.000000000000000 ) ;
#953 = STYLED_ITEM ( 'NONE', ( #634 ), #1109 ) ;
#954 = UNCERTAINTY_MEASURE_WITH_UNIT (LENGTH_MEASURE( 1.000000000000000082E-05 ), #11, 'distance_accuracy_value', 'NONE');
#955 =( LENGTH_UNIT ( ) NAMED_UNIT ( * ) SI_UNIT ( .MILLI., .METRE. ) );
#956 = CYLINDRICAL_SURFACE ( 'NONE', #980, 0.1124999999999999750 ) ;
#957 = ADVANCED_FACE ( 'NONE', ( #624 ), #1055, .T. ) ;
#958 = FILL_AREA_STYLE_COLOUR ( '', #697 ) ;
#959 = SURFACE_SIDE_STYLE ('',( #642 ) ) ;
#960 =( GEOMETRIC_REPRESENTATION_CONTEXT ( 3 ) GLOBAL_UNCERTAINTY_ASSIGNED_CONTEXT ( ( #763 ) ) GLOBAL_UNIT_ASSIGNED_CONTEXT ( ( #1106, #157, #842 ) ) REPRESENTATION_CONTEXT ( 'NONE', 'WORKASPACE' ) );
#961 = FILL_AREA_STYLE ('',( #175 ) ) ;
#962 = ORIENTED_EDGE ( 'NONE', *, *, #738, .F. ) ;
#963 = PRESENTATION_STYLE_ASSIGNMENT (( #353 ) ) ;
#964 = DIRECTION ( 'NONE',  ( 0.000000000000000000, -0.000000000000000000, -1.000000000000000000 ) ) ;
#965 =( GEOMETRIC_REPRESENTATION_CONTEXT ( 3 ) GLOBAL_UNCERTAINTY_ASSIGNED_CONTEXT ( ( #684 ) ) GLOBAL_UNIT_ASSIGNED_CONTEXT ( ( #696, #448, #700 ) ) REPRESENTATION_CONTEXT ( 'NONE', 'WORKASPACE' ) );
#966 = ORIENTED_EDGE ( 'NONE', *, *, #646, .F. ) ;
#967 = STYLED_ITEM ( 'NONE', ( #198 ), #1100 ) ;
#968 = ORIENTED_EDGE ( 'NONE', *, *, #173, .T. ) ;
#969 = COLOUR_RGB ( '',0.5372549019607842924, 0.3490196078431372362, 0.3372549019607843368 ) ;
#970 = FILL_AREA_STYLE_COLOUR ( '', #142 ) ;
#971 = CARTESIAN_POINT ( 'NONE',  ( 0.000000000000000000, -0.1600000000000000033, 0.000000000000000000 ) ) ;
#972 = EDGE_CURVE ( 'NONE', #111, #750, #461, .T. ) ;
#973 = CARTESIAN_POINT ( 'NONE',  ( -0.1749999999999999611, -0.06000000000000001166, 0.1750000000000000167 ) ) ;
#974 = FACE_OUTER_BOUND ( 'NONE', #387, .T. ) ;
#975 =( LENGTH_UNIT ( ) NAMED_UNIT ( * ) SI_UNIT ( .MILLI., .METRE. ) );
#976 = PRESENTATION_STYLE_ASSIGNMENT (( #1062 ) ) ;
#977 = SURFACE_STYLE_FILL_AREA ( #469 ) ;
#978 = DIRECTION ( 'NONE',  ( 0.000000000000000000, -0.000000000000000000, -1.000000000000000000 ) ) ;
#979 = SURFACE_STYLE_FILL_AREA ( #549 ) ;
#980 = AXIS2_PLACEMENT_3D ( 'NONE', #76, #262, #361 ) ;
#981 = ADVANCED_FACE ( 'NONE', ( #1095, #669, #764, #326, #126 ), #1006, .F. ) ;
#982 = STYLED_ITEM ( 'NONE', ( #149 ), #498 ) ;
#983 = TOROIDAL_SURFACE ( 'NONE', #522, 0.01249999999999999202, 0.1000000000000000056 ) ;
#984 = SURFACE_STYLE_USAGE ( .BOTH. , #902 ) ;
#985 = MECHANICAL_DESIGN_GEOMETRIC_PRESENTATION_REPRESENTATION (  '', ( #35 ), #792 ) ;
#986 = VECTOR ( 'NONE', #551, 1000.000000000000000 ) ;
#987 = EDGE_CURVE ( 'NONE', #714, #750, #383, .T. ) ;
#988 =( LENGTH_UNIT ( ) NAMED_UNIT ( * ) SI_UNIT ( .MILLI., .METRE. ) );
#989 = DIRECTION ( 'NONE',  ( -1.000000000000000000, -0.000000000000000000, -0.000000000000000000 ) ) ;
#990 = EDGE_LOOP ( 'NONE', ( #532, #966, #363, #807 ) ) ;
#991 = ORIENTED_EDGE ( 'NONE', *, *, #811, .F. ) ;
#992 = CARTESIAN_POINT ( 'NONE',  ( 0.1749999999999999611, -0.1600000000000000033, -0.06250000000000002776 ) ) ;
#993 = EDGE_CURVE ( 'NONE', #730, #580, #911, .T. ) ;
#994 =( NAMED_UNIT ( * ) PLANE_ANGLE_UNIT ( ) SI_UNIT ( $, .RADIAN. ) );
#995 = SURFACE_STYLE_FILL_AREA ( #384 ) ;
#996 = VERTEX_POINT ( 'NONE', #19 ) ;
#997 = ORIENTED_EDGE ( 'NONE', *, *, #743, .T. ) ;
#998 = VECTOR ( 'NONE', #822, 1000.000000000000000 ) ;
#999 = DIRECTION ( 'NONE',  ( -0.000000000000000000, 1.000000000000000000, -0.000000000000000000 ) ) ;
#1000 = DIRECTION ( 'NONE',  ( 0.000000000000000000, -0.000000000000000000, -1.000000000000000000 ) ) ;
#1001 = FILL_AREA_STYLE ('',( #420 ) ) ;
#1002 = DIRECTION ( 'NONE',  ( -1.000000000000000000, 0.000000000000000000, 3.250981026943041755E-16 ) ) ;
#1003 = DIRECTION ( 'NONE',  ( 0.000000000000000000, -1.000000000000000000, 0.000000000000000000 ) ) ;
#1004 = ORIENTED_EDGE ( 'NONE', *, *, #858, .T. ) ;
#1005 = AXIS2_PLACEMENT_3D ( 'NONE', #124, #480, #518 ) ;
#1006 = PLANE ( 'NONE',  #123 ) ;
#1007 = STYLED_ITEM ( 'NONE', ( #512 ), #890 ) ;
#1008 = DIRECTION ( 'NONE',  ( 1.000000000000000000, 0.000000000000000000, -0.000000000000000000 ) ) ;
#1009 = CARTESIAN_POINT ( 'NONE',  ( 0.1749999999999999611, 0.000000000000000000, -0.1750000000000000167 ) ) ;
#1010 = ORIENTED_EDGE ( 'NONE', *, *, #284, .F. ) ;
#1011 = PLANE ( 'NONE',  #188 ) ;
#1012 = ADVANCED_FACE ( 'NONE', ( #974 ), #503, .T. ) ;
#1013 = DIRECTION ( 'NONE',  ( 0.000000000000000000, -1.000000000000000000, 0.000000000000000000 ) ) ;
#1014 = SURFACE_STYLE_FILL_AREA ( #133 ) ;
#1015 = CARTESIAN_POINT ( 'NONE',  ( -0.1749999999999999334, -0.1600000000000000033, -0.2874999999999999778 ) ) ;
#1016 = DIRECTION ( 'NONE',  ( -0.000000000000000000, -1.000000000000000000, -0.000000000000000000 ) ) ;
#1017 = ORIENTED_EDGE ( 'NONE', *, *, #877, .T. ) ;
#1018 = AXIS2_PLACEMENT_3D ( 'NONE', #611, #1120, #172 ) ;
#1019 = CYLINDRICAL_SURFACE ( 'NONE', #1005, 0.1124999999999999750 ) ;
#1020 = AXIS2_PLACEMENT_3D ( 'NONE', #247, #599, #1008 ) ;
#1021 = DIRECTION ( 'NONE',  ( -0.000000000000000000, 1.000000000000000000, -0.000000000000000000 ) ) ;
#1022 = DIRECTION ( 'NONE',  ( 0.000000000000000000, 0.000000000000000000, -1.000000000000000000 ) ) ;
#1023 = TOROIDAL_SURFACE ( 'NONE', #240, 0.01249999999999999202, 0.1000000000000000056 ) ;
#1024 = ORIENTED_EDGE ( 'NONE', *, *, #85, .T. ) ;
#1025 = FILL_AREA_STYLE ('',( #857 ) ) ;
#1026 = UNCERTAINTY_MEASURE_WITH_UNIT (LENGTH_MEASURE( 1.000000000000000082E-05 ), #706, 'distance_accuracy_value', 'NONE');
#1027 =( NAMED_UNIT ( * ) PLANE_ANGLE_UNIT ( ) SI_UNIT ( $, .RADIAN. ) );
#1028 = SURFACE_STYLE_USAGE ( .BOTH. , #678 ) ;
#1029 = CARTESIAN_POINT ( 'NONE',  ( 0.3335000000000002407, 0.2400000000000000466, 0.3335000000000000742 ) ) ;
#1030 = AXIS2_PLACEMENT_3D ( 'NONE', #42, #759, #910 ) ;
#1031 = FILL_AREA_STYLE ('',( #164 ) ) ;
#1032 = CIRCLE ( 'NONE', #633, 0.09999999999999999167 ) ;
#1033 = FACE_OUTER_BOUND ( 'NONE', #393, .T. ) ;
#1034 = MANIFOLD_SOLID_BREP ( 'Fillet1', #267 ) ;
#1035 = ORIENTED_EDGE ( 'NONE', *, *, #738, .T. ) ;
#1036 = SURFACE_SIDE_STYLE ('',( #529 ) ) ;
#1037 = CARTESIAN_POINT ( 'NONE',  ( 0.1749999999999999611, -0.1600000000000000033, -0.1875000000000000000 ) ) ;
#1038 = DIRECTION ( 'NONE',  ( -0.000000000000000000, 1.000000000000000000, -0.000000000000000000 ) ) ;
#1039 = PRESENTATION_STYLE_ASSIGNMENT (( #625 ) ) ;
#1040 = ORIENTED_EDGE ( 'NONE', *, *, #972, .T. ) ;
#1041 = MECHANICAL_DESIGN_GEOMETRIC_PRESENTATION_REPRESENTATION (  '', ( #255 ), #181 ) ;
#1042 = VECTOR ( 'NONE', #1021, 1000.000000000000000 ) ;
#1043 = MECHANICAL_DESIGN_GEOMETRIC_PRESENTATION_REPRESENTATION (  '', ( #314 ), #755 ) ;
#1044 =( GEOMETRIC_REPRESENTATION_CONTEXT ( 3 ) GLOBAL_UNCERTAINTY_ASSIGNED_CONTEXT ( ( #929 ) ) GLOBAL_UNIT_ASSIGNED_CONTEXT ( ( #988, #813, #638 ) ) REPRESENTATION_CONTEXT ( 'NONE', 'WORKASPACE' ) );
#1045 = UNCERTAINTY_MEASURE_WITH_UNIT (LENGTH_MEASURE( 1.000000000000000082E-05 ), #277, 'distance_accuracy_value', 'NONE');
#1046 = EDGE_CURVE ( 'NONE', #494, #928, #197, .T. ) ;
#1047 = DIRECTION ( 'NONE',  ( -0.000000000000000000, 1.000000000000000000, -0.000000000000000000 ) ) ;
#1048 = FILL_AREA_STYLE ('',( #89 ) ) ;
#1049 = FILL_AREA_STYLE_COLOUR ( '', #287 ) ;
#1050 = CIRCLE ( 'NONE', #921, 0.1000000000000000056 ) ;
#1051 = CARTESIAN_POINT ( 'NONE',  ( -0.1749999999999999611, -0.1600000000000000033, -0.06250000000000002776 ) ) ;
#1052 = ORIENTED_EDGE ( 'NONE', *, *, #241, .T. ) ;
#1053 =( NAMED_UNIT ( * ) PLANE_ANGLE_UNIT ( ) SI_UNIT ( $, .RADIAN. ) );
#1054 = DIRECTION ( 'NONE',  ( 0.000000000000000000, -1.000000000000000000, 0.000000000000000000 ) ) ;
#1055 = PLANE ( 'NONE',  #148 ) ;
#1056 =( NAMED_UNIT ( * ) PLANE_ANGLE_UNIT ( ) SI_UNIT ( $, .RADIAN. ) );
#1057 = EDGE_CURVE ( 'NONE', #817, #501, #543, .T. ) ;
#1058 = DIRECTION ( 'NONE',  ( -0.000000000000000000, -1.000000000000000000, -0.000000000000000000 ) ) ;
#1059 = CIRCLE ( 'NONE', #15, 0.1125000000000000028 ) ;
#1060 = EDGE_LOOP ( 'NONE', ( #883, #645, #657, #508 ) ) ;
#1061 =( GEOMETRIC_REPRESENTATION_CONTEXT ( 3 ) GLOBAL_UNCERTAINTY_ASSIGNED_CONTEXT ( ( #165 ) ) GLOBAL_UNIT_ASSIGNED_CONTEXT ( ( #752, #760, #924 ) ) REPRESENTATION_CONTEXT ( 'NONE', 'WORKASPACE' ) );
#1062 = SURFACE_STYLE_USAGE ( .BOTH. , #452 ) ;
#1063 = EDGE_CURVE ( 'NONE', #829, #16, #685, .T. ) ;
#1064 = SURFACE_SIDE_STYLE ('',( #977 ) ) ;
#1065 = SURFACE_STYLE_USAGE ( .BOTH. , #728 ) ;
#1066 = AXIS2_PLACEMENT_3D ( 'NONE', #403, #1090, #316 ) ;
#1067 = ORIENTED_EDGE ( 'NONE', *, *, #987, .T. ) ;
#1068 = PRESENTATION_LAYER_ASSIGNMENT (  '', '', ( #322 ) ) ;
#1069 = ADVANCED_FACE ( 'NONE', ( #369 ), #719, .T. ) ;
#1070 = STYLED_ITEM ( 'NONE', ( #976 ), #528 ) ;
#1071 = SURFACE_SIDE_STYLE ('',( #904 ) ) ;
#1072 = DIRECTION ( 'NONE',  ( 0.000000000000000000, 0.000000000000000000, -1.000000000000000000 ) ) ;
#1073 = ORIENTED_EDGE ( 'NONE', *, *, #241, .F. ) ;
#1074 = ORIENTED_EDGE ( 'NONE', *, *, #1046, .F. ) ;
#1075 = EDGE_CURVE ( 'NONE', #568, #1081, #864, .T. ) ;
#1076 =( GEOMETRIC_REPRESENTATION_CONTEXT ( 3 ) GLOBAL_UNCERTAINTY_ASSIGNED_CONTEXT ( ( #68 ) ) GLOBAL_UNIT_ASSIGNED_CONTEXT ( ( #482, #917, #144 ) ) REPRESENTATION_CONTEXT ( 'NONE', 'WORKASPACE' ) );
#1077 = PRESENTATION_LAYER_ASSIGNMENT (  '', '', ( #598 ) ) ;
#1078 = EDGE_LOOP ( 'NONE', ( #1004, #208 ) ) ;
#1079 = ORIENTED_EDGE ( 'NONE', *, *, #166, .T. ) ;
#1080 = DIRECTION ( 'NONE',  ( 0.000000000000000000, -1.000000000000000000, 0.000000000000000000 ) ) ;
#1081 = VERTEX_POINT ( 'NONE', #545 ) ;
#1082 = DIRECTION ( 'NONE',  ( 0.000000000000000000, 0.000000000000000000, -1.000000000000000000 ) ) ;
#1083 = FILL_AREA_STYLE ('',( #248 ) ) ;
#1084 = DIRECTION ( 'NONE',  ( -0.000000000000000000, 1.000000000000000000, -0.000000000000000000 ) ) ;
#1085 = EDGE_CURVE ( 'NONE', #540, #580, #560, .T. ) ;
#1086 = CARTESIAN_POINT ( 'NONE',  ( 0.3335000000000000187, 0.2400000000000000466, -0.3334999999999999076 ) ) ;
#1087 = VECTOR ( 'NONE', #867, 1000.000000000000000 ) ;
#1088 = CARTESIAN_POINT ( 'NONE',  ( 0.1749999999999999611, 0.000000000000000000, 0.1750000000000000167 ) ) ;
#1089 = CARTESIAN_POINT ( 'NONE',  ( -0.3335000000000000187, 0.000000000000000000, -0.3334999999999999076 ) ) ;
#1090 = DIRECTION ( 'NONE',  ( -0.000000000000000000, 1.000000000000000000, -0.000000000000000000 ) ) ;
#1091 = EDGE_CURVE ( 'NONE', #817, #485, #1032, .T. ) ;
#1092 = ORIENTED_EDGE ( 'NONE', *, *, #389, .T. ) ;
#1093 = CARTESIAN_POINT ( 'NONE',  ( -0.3334999999999999076, 0.2400000000000000466, 0.3335000000000000742 ) ) ;
#1094 = CARTESIAN_POINT ( 'NONE',  ( -0.1749999999999999611, -0.1600000000000000033, 0.2874999999999999778 ) ) ;
#1095 = FACE_BOUND ( 'NONE', #455, .T. ) ;
#1096 = PLANE ( 'NONE',  #1020 ) ;
#1097 = CARTESIAN_POINT ( 'NONE',  ( -0.1749999999999999611, 0.000000000000000000, 0.2874999999999999778 ) ) ;
#1098 = VERTEX_POINT ( 'NONE', #1037 ) ;
#1099 =( GEOMETRIC_REPRESENTATION_CONTEXT ( 3 ) GLOBAL_UNCERTAINTY_ASSIGNED_CONTEXT ( ( #1045 ) ) GLOBAL_UNIT_ASSIGNED_CONTEXT ( ( #277, #90, #779 ) ) REPRESENTATION_CONTEXT ( 'NONE', 'WORKASPACE' ) );
#1100 = ADVANCED_FACE ( 'NONE', ( #483 ), #332, .T. ) ;
#1101 = AXIS2_PLACEMENT_3D ( 'NONE', #228, #61, #666 ) ;
#1102 = CIRCLE ( 'NONE', #724, 0.09999999999999999167 ) ;
#1103 = APPLICATION_PROTOCOL_DEFINITION ( 'draft international standard', 'automotive_design', 1998, #163 ) ;
#1104 = PRESENTATION_LAYER_ASSIGNMENT (  '', '', ( #418 ) ) ;
#1105 =( NAMED_UNIT ( * ) SI_UNIT ( $, .STERADIAN. ) SOLID_ANGLE_UNIT ( ) );
#1106 =( LENGTH_UNIT ( ) NAMED_UNIT ( * ) SI_UNIT ( .MILLI., .METRE. ) );
#1107 = ORIENTED_EDGE ( 'NONE', *, *, #487, .F. ) ;
#1108 = UNCERTAINTY_MEASURE_WITH_UNIT (LENGTH_MEASURE( 1.000000000000000082E-05 ), #317, 'distance_accuracy_value', 'NONE');
#1109 = ADVANCED_FACE ( 'NONE', ( #396 ), #1113, .T. ) ;
#1110 = COLOUR_RGB ( '',0.5372549019607842924, 0.3490196078431372362, 0.3372549019607843368 ) ;
#1111 = CARTESIAN_POINT ( 'NONE',  ( 0.3335000000000000187, 0.2400000000000000466, -0.3334999999999999076 ) ) ;
#1112 =( GEOMETRIC_REPRESENTATION_CONTEXT ( 3 ) GLOBAL_UNCERTAINTY_ASSIGNED_CONTEXT ( ( #251 ) ) GLOBAL_UNIT_ASSIGNED_CONTEXT ( ( #422, #753, #443 ) ) REPRESENTATION_CONTEXT ( 'NONE', 'WORKASPACE' ) );
#1113 = TOROIDAL_SURFACE ( 'NONE', #912, 0.01249999999999999202, 0.1000000000000000056 ) ;
#1114 = DIRECTION ( 'NONE',  ( -1.000000000000000000, -0.000000000000000000, -0.000000000000000000 ) ) ;
#1115 = ORIENTED_EDGE ( 'NONE', *, *, #10, .T. ) ;
#1116 = FILL_AREA_STYLE_COLOUR ( '', #535 ) ;
#1117 = DIRECTION ( 'NONE',  ( 0.000000000000000000, -1.000000000000000000, 0.000000000000000000 ) ) ;
#1118 = EDGE_LOOP ( 'NONE', ( #398, #1079, #336, #92 ) ) ;
#1119 = DIRECTION ( 'NONE',  ( -0.000000000000000000, 1.000000000000000000, -0.000000000000000000 ) ) ;
#1120 = DIRECTION ( 'NONE',  ( -1.000000000000000000, -0.000000000000000000, -0.000000000000000000 ) ) ;
ENDSEC;
END-ISO-10303-21;
